<?xml version="1.0" encoding="UTF-8" standalone="no"?><svg xmlns="http://www.w3.org/2000/svg" xmlns:xlink="http://www.w3.org/1999/xlink" contentStyleType="text/css" height="385px" preserveAspectRatio="none" style="width:637px;height:385px;background:#FFFFFF;" version="1.1" viewBox="0 0 637 385" width="637px" zoomAndPan="magnify"><defs/><g><rect fill="none" height="27.6094" id="_title" style="stroke:none;stroke-width:1.0;" width="273" x="175.25" y="5"/><text fill="#000000" font-family="sans-serif" font-size="14" font-weight="bold" lengthAdjust="spacing" textLength="263" x="180.25" y="24.5332">Domain Driven Development Strategy</text><!--MD5=[e62d75fbe4b2df96b6a6e37f13a05f11]
class Смысловое_Ядро--><g id="elem_Смысловое_Ядро"><rect codeLine="4" fill="#F1F1F1" height="58.7031" id="Смысловое_Ядро" rx="2.5" ry="2.5" style="stroke:#181818;stroke-width:0.5;" width="150" x="480.5" y="45.6094"/><ellipse cx="495.5" cy="66.9609" fill="#ADD1B2" rx="11" ry="11" style="stroke:#181818;stroke-width:1.0;"/><path d="M498.2656,62.8359 Q498.4219,62.6172 498.6094,62.5078 Q498.7969,62.3984 499.0156,62.3984 Q499.3906,62.3984 499.625,62.6563 Q499.8594,62.9141 499.8594,63.5234 L499.8594,64.9766 Q499.8594,65.5859 499.625,65.8516 Q499.3906,66.1172 499.0156,66.1172 Q498.6719,66.1172 498.4688,65.9141 Q498.2656,65.7266 498.1563,65.2109 Q498.1094,64.8516 497.9219,64.6641 Q497.5938,64.2891 496.9844,64.0703 Q496.375,63.8516 495.75,63.8516 Q494.9844,63.8516 494.3516,64.1797 Q493.7188,64.5078 493.2266,65.2578 Q492.7344,66.0078 492.7344,67.0391 L492.7344,68.1328 Q492.7344,69.3672 493.625,70.1875 Q494.5156,71.0078 496.1094,71.0078 Q497.0469,71.0078 497.7031,70.7578 Q498.0938,70.6016 498.5156,70.1641 Q498.7813,69.8984 498.9297,69.8203 Q499.0781,69.7422 499.2813,69.7422 Q499.6094,69.7422 499.8672,70 Q500.125,70.2578 500.125,70.6016 Q500.125,70.9453 499.7813,71.3516 Q499.2813,71.9297 498.4844,72.2578 Q497.4063,72.7109 496.1094,72.7109 Q494.5938,72.7109 493.3906,72.0859 Q492.4063,71.5859 491.7188,70.5156 Q491.0313,69.4453 491.0313,68.1641 L491.0313,67.0078 Q491.0313,65.6797 491.6484,64.5313 Q492.2656,63.3828 493.3594,62.7656 Q494.4531,62.1484 495.6875,62.1484 Q496.4219,62.1484 497.0703,62.3125 Q497.7188,62.4766 498.2656,62.8359 Z " fill="#000000"/><text fill="#000000" font-family="sans-serif" font-size="12" font-style="italic" lengthAdjust="spacing" textLength="88" x="524.5" y="63.0664">«Core Domain»</text><text fill="#000000" font-family="sans-serif" font-size="14" lengthAdjust="spacing" textLength="118" x="509.5" y="80.2363">Смысловое_Ядро</text><line style="stroke:#181818;stroke-width:0.5;" x1="481.5" x2="629.5" y1="88.3125" y2="88.3125"/><line style="stroke:#181818;stroke-width:0.5;" x1="481.5" x2="629.5" y1="96.3125" y2="96.3125"/></g><!--MD5=[4bf9294dcb34775e9b23bd7bb07460ee]
class Предметная_Область--><g id="elem_Предметная_Область"><rect codeLine="5" fill="#F1F1F1" height="58.7031" id="Предметная_Область" rx="2.5" ry="2.5" style="stroke:#181818;stroke-width:0.5;" width="179" x="362" y="182.6094"/><ellipse cx="377" cy="203.9609" fill="#ADD1B2" rx="11" ry="11" style="stroke:#181818;stroke-width:1.0;"/><path d="M379.7656,199.8359 Q379.9219,199.6172 380.1094,199.5078 Q380.2969,199.3984 380.5156,199.3984 Q380.8906,199.3984 381.125,199.6563 Q381.3594,199.9141 381.3594,200.5234 L381.3594,201.9766 Q381.3594,202.5859 381.125,202.8516 Q380.8906,203.1172 380.5156,203.1172 Q380.1719,203.1172 379.9688,202.9141 Q379.7656,202.7266 379.6563,202.2109 Q379.6094,201.8516 379.4219,201.6641 Q379.0938,201.2891 378.4844,201.0703 Q377.875,200.8516 377.25,200.8516 Q376.4844,200.8516 375.8516,201.1797 Q375.2188,201.5078 374.7266,202.2578 Q374.2344,203.0078 374.2344,204.0391 L374.2344,205.1328 Q374.2344,206.3672 375.125,207.1875 Q376.0156,208.0078 377.6094,208.0078 Q378.5469,208.0078 379.2031,207.7578 Q379.5938,207.6016 380.0156,207.1641 Q380.2813,206.8984 380.4297,206.8203 Q380.5781,206.7422 380.7813,206.7422 Q381.1094,206.7422 381.3672,207 Q381.625,207.2578 381.625,207.6016 Q381.625,207.9453 381.2813,208.3516 Q380.7813,208.9297 379.9844,209.2578 Q378.9063,209.7109 377.6094,209.7109 Q376.0938,209.7109 374.8906,209.0859 Q373.9063,208.5859 373.2188,207.5156 Q372.5313,206.4453 372.5313,205.1641 L372.5313,204.0078 Q372.5313,202.6797 373.1484,201.5313 Q373.7656,200.3828 374.8594,199.7656 Q375.9531,199.1484 377.1875,199.1484 Q377.9219,199.1484 378.5703,199.3125 Q379.2188,199.4766 379.7656,199.8359 Z " fill="#000000"/><text fill="#000000" font-family="sans-serif" font-size="12" font-style="italic" lengthAdjust="spacing" textLength="58" x="435.5" y="200.0664">«Domain»</text><text fill="#000000" font-family="sans-serif" font-size="14" lengthAdjust="spacing" textLength="147" x="391" y="217.2363">Предметная_Область</text><line style="stroke:#181818;stroke-width:0.5;" x1="363" x2="540" y1="225.3125" y2="225.3125"/><line style="stroke:#181818;stroke-width:0.5;" x1="363" x2="540" y1="233.3125" y2="233.3125"/></g><!--MD5=[086af3c558ec026b28dde602f44a5d6a]
class Предметная_Подобласть--><g id="elem_Предметная_Подобласть"><rect codeLine="6" fill="#F1F1F1" height="58.7031" id="Предметная_Подобласть" rx="2.5" ry="2.5" style="stroke:#181818;stroke-width:0.5;" width="201" x="351" y="319.6094"/><ellipse cx="366" cy="340.9609" fill="#ADD1B2" rx="11" ry="11" style="stroke:#181818;stroke-width:1.0;"/><path d="M368.7656,336.8359 Q368.9219,336.6172 369.1094,336.5078 Q369.2969,336.3984 369.5156,336.3984 Q369.8906,336.3984 370.125,336.6563 Q370.3594,336.9141 370.3594,337.5234 L370.3594,338.9766 Q370.3594,339.5859 370.125,339.8516 Q369.8906,340.1172 369.5156,340.1172 Q369.1719,340.1172 368.9688,339.9141 Q368.7656,339.7266 368.6563,339.2109 Q368.6094,338.8516 368.4219,338.6641 Q368.0938,338.2891 367.4844,338.0703 Q366.875,337.8516 366.25,337.8516 Q365.4844,337.8516 364.8516,338.1797 Q364.2188,338.5078 363.7266,339.2578 Q363.2344,340.0078 363.2344,341.0391 L363.2344,342.1328 Q363.2344,343.3672 364.125,344.1875 Q365.0156,345.0078 366.6094,345.0078 Q367.5469,345.0078 368.2031,344.7578 Q368.5938,344.6016 369.0156,344.1641 Q369.2813,343.8984 369.4297,343.8203 Q369.5781,343.7422 369.7813,343.7422 Q370.1094,343.7422 370.3672,344 Q370.625,344.2578 370.625,344.6016 Q370.625,344.9453 370.2813,345.3516 Q369.7813,345.9297 368.9844,346.2578 Q367.9063,346.7109 366.6094,346.7109 Q365.0938,346.7109 363.8906,346.0859 Q362.9063,345.5859 362.2188,344.5156 Q361.5313,343.4453 361.5313,342.1641 L361.5313,341.0078 Q361.5313,339.6797 362.1484,338.5313 Q362.7656,337.3828 363.8594,336.7656 Q364.9531,336.1484 366.1875,336.1484 Q366.9219,336.1484 367.5703,336.3125 Q368.2188,336.4766 368.7656,336.8359 Z " fill="#000000"/><text fill="#000000" font-family="sans-serif" font-size="12" font-style="italic" lengthAdjust="spacing" textLength="79" x="425" y="337.0664">«Subdomain»</text><text fill="#000000" font-family="sans-serif" font-size="14" lengthAdjust="spacing" textLength="169" x="380" y="354.2363">Предметная_Подобласть</text><line style="stroke:#181818;stroke-width:0.5;" x1="352" x2="551" y1="362.3125" y2="362.3125"/><line style="stroke:#181818;stroke-width:0.5;" x1="352" x2="551" y1="370.3125" y2="370.3125"/></g><!--MD5=[0bc9116bf3de046024d49710b066238f]
class Ограниченный_контекст--><g id="elem_Ограниченный_контекст"><rect codeLine="9" fill="#F1F1F1" height="58.7031" id="Ограниченный_контекст" rx="2.5" ry="2.5" style="stroke:#181818;stroke-width:0.5;" width="194" x="251.5" y="45.6094"/><ellipse cx="266.5" cy="66.9609" fill="#ADD1B2" rx="11" ry="11" style="stroke:#181818;stroke-width:1.0;"/><path d="M269.2656,62.8359 Q269.4219,62.6172 269.6094,62.5078 Q269.7969,62.3984 270.0156,62.3984 Q270.3906,62.3984 270.625,62.6563 Q270.8594,62.9141 270.8594,63.5234 L270.8594,64.9766 Q270.8594,65.5859 270.625,65.8516 Q270.3906,66.1172 270.0156,66.1172 Q269.6719,66.1172 269.4688,65.9141 Q269.2656,65.7266 269.1563,65.2109 Q269.1094,64.8516 268.9219,64.6641 Q268.5938,64.2891 267.9844,64.0703 Q267.375,63.8516 266.75,63.8516 Q265.9844,63.8516 265.3516,64.1797 Q264.7188,64.5078 264.2266,65.2578 Q263.7344,66.0078 263.7344,67.0391 L263.7344,68.1328 Q263.7344,69.3672 264.625,70.1875 Q265.5156,71.0078 267.1094,71.0078 Q268.0469,71.0078 268.7031,70.7578 Q269.0938,70.6016 269.5156,70.1641 Q269.7813,69.8984 269.9297,69.8203 Q270.0781,69.7422 270.2813,69.7422 Q270.6094,69.7422 270.8672,70 Q271.125,70.2578 271.125,70.6016 Q271.125,70.9453 270.7813,71.3516 Q270.2813,71.9297 269.4844,72.2578 Q268.4063,72.7109 267.1094,72.7109 Q265.5938,72.7109 264.3906,72.0859 Q263.4063,71.5859 262.7188,70.5156 Q262.0313,69.4453 262.0313,68.1641 L262.0313,67.0078 Q262.0313,65.6797 262.6484,64.5313 Q263.2656,63.3828 264.3594,62.7656 Q265.4531,62.1484 266.6875,62.1484 Q267.4219,62.1484 268.0703,62.3125 Q268.7188,62.4766 269.2656,62.8359 Z " fill="#000000"/><text fill="#000000" font-family="sans-serif" font-size="12" font-style="italic" lengthAdjust="spacing" textLength="109" x="307" y="63.0664">«Bounded Context»</text><text fill="#000000" font-family="sans-serif" font-size="14" lengthAdjust="spacing" textLength="162" x="280.5" y="80.2363">Ограниченный_контекст</text><line style="stroke:#181818;stroke-width:0.5;" x1="252.5" x2="444.5" y1="88.3125" y2="88.3125"/><line style="stroke:#181818;stroke-width:0.5;" x1="252.5" x2="444.5" y1="96.3125" y2="96.3125"/></g><!--MD5=[2369ed6d7d3c0745ccf58ece71cae3a1]
class Карта_контекстов--><g id="elem_Карта_контекстов"><rect codeLine="11" fill="#F1F1F1" height="58.7031" id="Карта_контекстов" rx="2.5" ry="2.5" style="stroke:#181818;stroke-width:0.5;" width="151" x="7" y="45.6094"/><ellipse cx="22" cy="66.9609" fill="#ADD1B2" rx="11" ry="11" style="stroke:#181818;stroke-width:1.0;"/><path d="M24.7656,62.8359 Q24.9219,62.6172 25.1094,62.5078 Q25.2969,62.3984 25.5156,62.3984 Q25.8906,62.3984 26.125,62.6563 Q26.3594,62.9141 26.3594,63.5234 L26.3594,64.9766 Q26.3594,65.5859 26.125,65.8516 Q25.8906,66.1172 25.5156,66.1172 Q25.1719,66.1172 24.9688,65.9141 Q24.7656,65.7266 24.6563,65.2109 Q24.6094,64.8516 24.4219,64.6641 Q24.0938,64.2891 23.4844,64.0703 Q22.875,63.8516 22.25,63.8516 Q21.4844,63.8516 20.8516,64.1797 Q20.2188,64.5078 19.7266,65.2578 Q19.2344,66.0078 19.2344,67.0391 L19.2344,68.1328 Q19.2344,69.3672 20.125,70.1875 Q21.0156,71.0078 22.6094,71.0078 Q23.5469,71.0078 24.2031,70.7578 Q24.5938,70.6016 25.0156,70.1641 Q25.2813,69.8984 25.4297,69.8203 Q25.5781,69.7422 25.7813,69.7422 Q26.1094,69.7422 26.3672,70 Q26.625,70.2578 26.625,70.6016 Q26.625,70.9453 26.2813,71.3516 Q25.7813,71.9297 24.9844,72.2578 Q23.9063,72.7109 22.6094,72.7109 Q21.0938,72.7109 19.8906,72.0859 Q18.9063,71.5859 18.2188,70.5156 Q17.5313,69.4453 17.5313,68.1641 L17.5313,67.0078 Q17.5313,65.6797 18.1484,64.5313 Q18.7656,63.3828 19.8594,62.7656 Q20.9531,62.1484 22.1875,62.1484 Q22.9219,62.1484 23.5703,62.3125 Q24.2188,62.4766 24.7656,62.8359 Z " fill="#000000"/><text fill="#000000" font-family="sans-serif" font-size="12" font-style="italic" lengthAdjust="spacing" textLength="82" x="54.5" y="63.0664">«Map Context»</text><text fill="#000000" font-family="sans-serif" font-size="14" lengthAdjust="spacing" textLength="119" x="36" y="80.2363">Карта_контекстов</text><line style="stroke:#181818;stroke-width:0.5;" x1="8" x2="157" y1="88.3125" y2="88.3125"/><line style="stroke:#181818;stroke-width:0.5;" x1="8" x2="157" y1="96.3125" y2="96.3125"/></g><!--MD5=[594bb3291376798128df2750b756a862]
link Предметная_Область to Предметная_Подобласть--><g id="link_Предметная_Область_Предметная_Подобласть"><path codeLine="7" d="M451.5,241.7394 C451.5,264.6494 451.5,296.6194 451.5,319.5194 " fill="none" id="Предметная_Область-Предметная_Подобласть" style="stroke:#181818;stroke-width:1.0;"/><text fill="#000000" font-family="sans-serif" font-size="13" lengthAdjust="spacing" textLength="56" x="452.5" y="286.1045">включает</text><text fill="#000000" font-family="sans-serif" font-size="13" lengthAdjust="spacing" textLength="7" x="443.8109" y="262.7067">1</text><text fill="#000000" font-family="sans-serif" font-size="13" lengthAdjust="spacing" textLength="5" x="445.9531" y="308.8626">*</text></g><!--MD5=[3b833dead6ab80d2e6dddd943bfdb505]
link Смысловое_Ядро to Предметная_Область--><g id="link_Смысловое_Ядро_Предметная_Область"><path codeLine="8" d="M533.44,104.7394 C515.8,127.6494 491.16,159.6194 473.52,182.5194 " fill="none" id="Смысловое_Ядро-Предметная_Область" style="stroke:#181818;stroke-width:1.0;"/><text fill="#000000" font-family="sans-serif" font-size="13" lengthAdjust="spacing" textLength="89" x="510.5" y="149.1045">важна бизнесу</text></g><!--MD5=[545ef6f9464e50a5e6f8643d6e15f00a]
link Ограниченный_контекст to Предметная_Область--><g id="link_Ограниченный_контекст_Предметная_Область"><path codeLine="10" d="M370.34,104.7394 C387.82,127.6494 412.22,159.6194 429.69,182.5194 " fill="none" id="Ограниченный_контекст-Предметная_Область" style="stroke:#181818;stroke-width:1.0;"/><text fill="#000000" font-family="sans-serif" font-size="13" lengthAdjust="spacing" textLength="77" x="407.5" y="149.1045">единый язык</text></g><!--MD5=[d085f3a257bcddf2d718ff996b6ae0f1]
link Карта_контекстов to Ограниченный_контекст--><g id="link_Карта_контекстов_Ограниченный_контекст"><path codeLine="12" d="M158.01,75.1094 C187.04,75.1094 220.6,75.1094 251.38,75.1094 " fill="none" id="Карта_контекстов-Ограниченный_контекст" style="stroke:#181818;stroke-width:1.0;"/><text fill="#000000" font-family="sans-serif" font-size="13" lengthAdjust="spacing" textLength="57" x="176.25" y="68.6045">содержит</text></g><!--MD5=[b2a7cad9d9c955ba6a8f1e19813d6e6f]
@startuml DDD

title Domain Driven Development Strategy

class Смысловое_Ядро <<Core Domain>>
class Предметная_Область <<Domain>>
class Предметная_Подобласть <<Subdomain>>
Предметная_Область "1" - - "*" Предметная_Подобласть: включает 
Смысловое_Ядро - - Предметная_Область: важна бизнесу
class Ограниченный_контекст <<Bounded Context>>
Ограниченный_контекст - - Предметная_Область : единый язык
class Карта_контекстов <<Map Context>>
Карта_контекстов - Ограниченный_контекст: содержит

@enduml

PlantUML version 1.2022.7(Mon Aug 22 21:01:30 GMT+04:00 2022)
(GPL source distribution)
Java Runtime: Java(TM) SE Runtime Environment
JVM: Java HotSpot(TM) 64-Bit Server VM
Default Encoding: Cp1251
Language: ru
Country: RU
--></g></svg>