<?xml version="1.0" encoding="us-ascii" standalone="no"?><svg xmlns="http://www.w3.org/2000/svg" xmlns:xlink="http://www.w3.org/1999/xlink" contentStyleType="text/css" height="713px" preserveAspectRatio="none" style="width:816px;height:713px;background:#FFFFFF;" version="1.1" viewBox="0 0 816 713" width="816px" zoomAndPan="magnify"><defs/><g><rect fill="#F1F1F1" height="37.6094" rx="12.5" ry="12.5" style="stroke:#181818;stroke-width:1.5;" width="132" x="362" y="336.8516"/><text fill="#000000" font-family="sans-serif" font-size="14" lengthAdjust="spacing" textLength="112" x="372" y="361.3848">Ingress Controller</text><rect fill="#F1F1F1" height="37.6094" rx="12.5" ry="12.5" style="stroke:#181818;stroke-width:1.5;" width="133" x="544" y="178.4258"/><text fill="#000000" font-family="sans-serif" font-size="14" lengthAdjust="spacing" textLength="113" x="554" y="202.959">Service Discovery</text><path d="M494,355.6563 L504,355.6563 C519,355.6563 519,197.2305 534,197.2305 L544,197.2305 " fill="none" style="stroke:#181818;stroke-width:1.0;"/><rect fill="#F1F1F1" height="37.6094" rx="12.5" ry="12.5" style="stroke:#181818;stroke-width:1.5;" width="96" x="544" y="236.0352"/><text fill="#000000" font-family="sans-serif" font-size="14" lengthAdjust="spacing" textLength="76" x="554" y="260.5684">Web Socket</text><path d="M494,355.6563 L504,355.6563 C519,355.6563 519,254.8398 534,254.8398 L544,254.8398 " fill="none" style="stroke:#181818;stroke-width:1.0;"/><rect fill="#F1F1F1" height="37.6094" rx="12.5" ry="12.5" style="stroke:#181818;stroke-width:1.5;" width="49" x="544" y="293.6445"/><text fill="#000000" font-family="sans-serif" font-size="14" lengthAdjust="spacing" textLength="29" x="554" y="318.1777">Auth</text><path d="M494,355.6563 L504,355.6563 C519,355.6563 519,312.4492 534,312.4492 L544,312.4492 " fill="none" style="stroke:#181818;stroke-width:1.0;"/><rect fill="#F1F1F1" height="37.6094" rx="12.5" ry="12.5" style="stroke:#181818;stroke-width:1.5;" width="94" x="544" y="351.2539"/><text fill="#000000" font-family="sans-serif" font-size="14" lengthAdjust="spacing" textLength="74" x="554" y="375.7871">Namespace</text><path d="M494,355.6563 L504,355.6563 C519,355.6563 519,370.0586 534,370.0586 L544,370.0586 " fill="none" style="stroke:#181818;stroke-width:1.0;"/><rect fill="#F1F1F1" height="37.6094" rx="12.5" ry="12.5" style="stroke:#181818;stroke-width:1.5;" width="107" x="544" y="408.8633"/><text fill="#000000" font-family="sans-serif" font-size="14" lengthAdjust="spacing" textLength="87" x="554" y="433.3965">Load Balance</text><rect fill="#F1F1F1" height="37.6094" rx="12.5" ry="12.5" style="stroke:#181818;stroke-width:1.5;" width="103" x="701" y="380.0586"/><text fill="#000000" font-family="sans-serif" font-size="14" lengthAdjust="spacing" textLength="83" x="711" y="404.5918">Round Robin</text><path d="M651,427.668 L661,427.668 C676,427.668 676,398.8633 691,398.8633 L701,398.8633 " fill="none" style="stroke:#181818;stroke-width:1.0;"/><rect fill="#F1F1F1" height="37.6094" rx="12.5" ry="12.5" style="stroke:#181818;stroke-width:1.5;" width="97" x="701" y="437.668"/><text fill="#000000" font-family="sans-serif" font-size="14" lengthAdjust="spacing" textLength="77" x="711" y="462.2012">RDP Cookie</text><path d="M651,427.668 L661,427.668 C676,427.668 676,456.4727 691,456.4727 L701,456.4727 " fill="none" style="stroke:#181818;stroke-width:1.0;"/><path d="M494,355.6563 L504,355.6563 C519,355.6563 519,427.668 534,427.668 L544,427.668 " fill="none" style="stroke:#181818;stroke-width:1.0;"/><rect fill="#F1F1F1" height="37.6094" rx="12.5" ry="12.5" style="stroke:#181818;stroke-width:1.5;" width="112" x="544" y="495.2773"/><text fill="#000000" font-family="sans-serif" font-size="14" lengthAdjust="spacing" textLength="92" x="554" y="519.8105">DDOS &#1079;&#1072;&#1097;&#1080;&#1090;&#1072;</text><rect fill="#F1F1F1" height="37.6094" rx="12.5" ry="12.5" style="stroke:#181818;stroke-width:1.5;" width="83" x="706" y="495.2773"/><text fill="#000000" font-family="sans-serif" font-size="14" lengthAdjust="spacing" textLength="63" x="716" y="519.8105">Rate Limit</text><path d="M656,514.082 L666,514.082 C681,514.082 681,514.082 696,514.082 L706,514.082 " fill="none" style="stroke:#181818;stroke-width:1.0;"/><path d="M494,355.6563 L504,355.6563 C519,355.6563 519,514.082 534,514.082 L544,514.082 " fill="none" style="stroke:#181818;stroke-width:1.0;"/><rect fill="#F1F1F1" height="37.6094" rx="12.5" ry="12.5" style="stroke:#181818;stroke-width:1.5;" width="54" x="258" y="77.6094"/><text fill="#000000" font-family="sans-serif" font-size="14" lengthAdjust="spacing" textLength="34" x="268" y="102.1426">&#1057;&#1073;&#1086;&#1080;</text><rect fill="#F1F1F1" height="37.6094" rx="12.5" ry="12.5" style="stroke:#181818;stroke-width:1.5;" width="104" x="104" y="20"/><text fill="#000000" font-family="sans-serif" font-size="14" lengthAdjust="spacing" textLength="84" x="114" y="44.5332">Health Check</text><path d="M258,96.4141 L248,96.4141 C233,96.4141 233,38.8047 218,38.8047 L208,38.8047 " fill="none" style="stroke:#181818;stroke-width:1.0;"/><rect fill="#F1F1F1" height="37.6094" rx="12.5" ry="12.5" style="stroke:#181818;stroke-width:1.5;" width="114" x="94" y="77.6094"/><text fill="#000000" font-family="sans-serif" font-size="14" lengthAdjust="spacing" textLength="94" x="104" y="102.1426">Circuit Breaker</text><path d="M258,96.4141 L248,96.4141 C233,96.4141 233,96.4141 218,96.4141 L208,96.4141 " fill="none" style="stroke:#181818;stroke-width:1.0;"/><rect fill="#F1F1F1" height="37.6094" rx="12.5" ry="12.5" style="stroke:#181818;stroke-width:1.5;" width="79" x="129" y="135.2188"/><text fill="#000000" font-family="sans-serif" font-size="14" lengthAdjust="spacing" textLength="59" x="139" y="159.752">Bulkhead</text><path d="M258,96.4141 L248,96.4141 C233,96.4141 233,154.0234 218,154.0234 L208,154.0234 " fill="none" style="stroke:#181818;stroke-width:1.0;"/><path d="M362,355.6563 L352,355.6563 C337,355.6563 337,96.4141 322,96.4141 L312,96.4141 " fill="none" style="stroke:#181818;stroke-width:1.0;"/><rect fill="#F1F1F1" height="37.6094" rx="12.5" ry="12.5" style="stroke:#181818;stroke-width:1.5;" width="168" x="144" y="192.8281"/><text fill="#000000" font-family="sans-serif" font-size="14" lengthAdjust="spacing" textLength="148" x="154" y="217.3613">&#1058;&#1088;&#1072;&#1089;&#1089;&#1080;&#1088;&#1086;&#1074;&#1082;&#1072; &#1079;&#1072;&#1087;&#1088;&#1086;&#1089;&#1086;&#1074;</text><path d="M362,355.6563 L352,355.6563 C337,355.6563 337,211.6328 322,211.6328 L312,211.6328 " fill="none" style="stroke:#181818;stroke-width:1.0;"/><rect fill="#F1F1F1" height="37.6094" rx="12.5" ry="12.5" style="stroke:#181818;stroke-width:1.5;" width="46" x="266" y="250.4375"/><text fill="#000000" font-family="sans-serif" font-size="14" lengthAdjust="spacing" textLength="26" x="276" y="274.9707">SSL</text><path d="M362,355.6563 L352,355.6563 C337,355.6563 337,269.2422 322,269.2422 L312,269.2422 " fill="none" style="stroke:#181818;stroke-width:1.0;"/><rect fill="#F1F1F1" height="37.6094" rx="12.5" ry="12.5" style="stroke:#181818;stroke-width:1.5;" width="132" x="180" y="308.0469"/><text fill="#000000" font-family="sans-serif" font-size="14" lengthAdjust="spacing" textLength="112" x="190" y="332.5801">&#1056;&#1086;&#1091;&#1090;&#1080;&#1085;&#1075; &#1090;&#1088;&#1072;&#1092;&#1080;&#1082;&#1072;</text><path d="M362,355.6563 L352,355.6563 C337,355.6563 337,326.8516 322,326.8516 L312,326.8516 " fill="none" style="stroke:#181818;stroke-width:1.0;"/><rect fill="#F1F1F1" height="37.6094" rx="12.5" ry="12.5" style="stroke:#181818;stroke-width:1.5;" width="186" x="126" y="365.6563"/><text fill="#000000" font-family="sans-serif" font-size="14" lengthAdjust="spacing" textLength="166" x="136" y="390.1895">&#1055;&#1088;&#1072;&#1074;&#1080;&#1083;&#1072; &#1084;&#1072;&#1088;&#1096;&#1088;&#1091;&#1090;&#1080;&#1079;&#1072;&#1094;&#1080;&#1080;</text><rect fill="#F1F1F1" height="37.6094" rx="12.5" ry="12.5" style="stroke:#181818;stroke-width:1.5;" width="66" x="10" y="308.0469"/><text fill="#000000" font-family="sans-serif" font-size="14" lengthAdjust="spacing" textLength="46" x="20" y="332.5801">Canary</text><path d="M126,384.4609 L116,384.4609 C101,384.4609 101,326.8516 86,326.8516 L76,326.8516 " fill="none" style="stroke:#181818;stroke-width:1.0;"/><rect fill="#F1F1F1" height="37.6094" rx="12.5" ry="12.5" style="stroke:#181818;stroke-width:1.5;" width="42" x="34" y="365.6563"/><text fill="#000000" font-family="sans-serif" font-size="14" lengthAdjust="spacing" textLength="22" x="44" y="390.1895">A\B</text><path d="M126,384.4609 L116,384.4609 C101,384.4609 101,384.4609 86,384.4609 L76,384.4609 " fill="none" style="stroke:#181818;stroke-width:1.0;"/><rect fill="#F1F1F1" height="37.6094" rx="12.5" ry="12.5" style="stroke:#181818;stroke-width:1.5;" width="60" x="16" y="423.2656"/><text fill="#000000" font-family="sans-serif" font-size="14" lengthAdjust="spacing" textLength="40" x="26" y="447.7988">Green</text><path d="M126,384.4609 L116,384.4609 C101,384.4609 101,442.0703 86,442.0703 L76,442.0703 " fill="none" style="stroke:#181818;stroke-width:1.0;"/><path d="M362,355.6563 L352,355.6563 C337,355.6563 337,384.4609 322,384.4609 L312,384.4609 " fill="none" style="stroke:#181818;stroke-width:1.0;"/><rect fill="#F1F1F1" height="37.6094" rx="12.5" ry="12.5" style="stroke:#181818;stroke-width:1.5;" width="86" x="226" y="567.2891"/><text fill="#000000" font-family="sans-serif" font-size="14" lengthAdjust="spacing" textLength="66" x="236" y="591.8223">&#1042;&#1072;&#1088;&#1080;&#1072;&#1085;&#1090;&#1099;</text><rect fill="#F1F1F1" height="37.6094" rx="12.5" ry="12.5" style="stroke:#181818;stroke-width:1.5;" width="88" x="88" y="480.875"/><text fill="#000000" font-family="sans-serif" font-size="14" lengthAdjust="spacing" textLength="68" x="98" y="505.4082">Istio Envoy</text><path d="M226,586.0938 L216,586.0938 C201,586.0938 201,499.6797 186,499.6797 L176,499.6797 " fill="none" style="stroke:#181818;stroke-width:1.0;"/><rect fill="#F1F1F1" height="37.6094" rx="12.5" ry="12.5" style="stroke:#181818;stroke-width:1.5;" width="82" x="94" y="538.4844"/><text fill="#000000" font-family="sans-serif" font-size="14" lengthAdjust="spacing" textLength="62" x="104" y="563.0176">Nginx Lua</text><path d="M226,586.0938 L216,586.0938 C201,586.0938 201,557.2891 186,557.2891 L176,557.2891 " fill="none" style="stroke:#181818;stroke-width:1.0;"/><rect fill="#F1F1F1" height="37.6094" rx="12.5" ry="12.5" style="stroke:#181818;stroke-width:1.5;" width="73" x="103" y="596.0938"/><text fill="#000000" font-family="sans-serif" font-size="14" lengthAdjust="spacing" textLength="53" x="113" y="620.627">HAProxy</text><path d="M226,586.0938 L216,586.0938 C201,586.0938 201,614.8984 186,614.8984 L176,614.8984 " fill="none" style="stroke:#181818;stroke-width:1.0;"/><rect fill="#F1F1F1" height="37.6094" rx="12.5" ry="12.5" style="stroke:#181818;stroke-width:1.5;" width="53" x="123" y="653.7031"/><text fill="#000000" font-family="sans-serif" font-size="14" lengthAdjust="spacing" textLength="33" x="133" y="678.2363">Kong</text><path d="M226,586.0938 L216,586.0938 C201,586.0938 201,672.5078 186,672.5078 L176,672.5078 " fill="none" style="stroke:#181818;stroke-width:1.0;"/><path d="M362,355.6563 L352,355.6563 C337,355.6563 337,586.0938 322,586.0938 L312,586.0938 " fill="none" style="stroke:#181818;stroke-width:1.0;"/><!--SRC=[]--></g></svg>