<?xml version="1.0" encoding="UTF-8" standalone="no"?><svg xmlns="http://www.w3.org/2000/svg" xmlns:xlink="http://www.w3.org/1999/xlink" contentStyleType="text/css" height="607px" preserveAspectRatio="none" style="width:1761px;height:607px;background:#FFFFFF;" version="1.1" viewBox="0 0 1761 607" width="1761px" zoomAndPan="magnify"><defs/><g><rect fill="none" height="27.6094" id="_title" style="stroke:none;stroke-width:1.0;" width="249" x="749.475" y="5"/><text fill="#000000" font-family="sans-serif" font-size="14" font-weight="bold" lengthAdjust="spacing" textLength="239" x="754.475" y="24.5332">Паттерны распила монолита: Код</text><!--MD5=[42778adc35e2fc9222188a7da5505b48]
class Измнение монолита возможно--><g id="elem_Измнение монолита возможно"><rect codeLine="4" fill="#F1F1F1" height="48" id="Измнение монолита возможно" rx="2.5" ry="2.5" style="stroke:#181818;stroke-width:0.5;" width="235" x="330.45" y="52.1094"/><ellipse cx="345.45" cy="68.1094" fill="#ADD1B2" rx="11" ry="11" style="stroke:#181818;stroke-width:1.0;"/><path d="M348.2156,63.9844 Q348.3719,63.7656 348.5594,63.6563 Q348.7469,63.5469 348.9656,63.5469 Q349.3406,63.5469 349.575,63.8047 Q349.8094,64.0625 349.8094,64.6719 L349.8094,66.125 Q349.8094,66.7344 349.575,67 Q349.3406,67.2656 348.9656,67.2656 Q348.6219,67.2656 348.4188,67.0625 Q348.2156,66.875 348.1063,66.3594 Q348.0594,66 347.8719,65.8125 Q347.5438,65.4375 346.9344,65.2188 Q346.325,65 345.7,65 Q344.9344,65 344.3016,65.3281 Q343.6688,65.6563 343.1766,66.4063 Q342.6844,67.1563 342.6844,68.1875 L342.6844,69.2813 Q342.6844,70.5156 343.575,71.3359 Q344.4656,72.1563 346.0594,72.1563 Q346.9969,72.1563 347.6531,71.9063 Q348.0438,71.75 348.4656,71.3125 Q348.7313,71.0469 348.8797,70.9688 Q349.0281,70.8906 349.2313,70.8906 Q349.5594,70.8906 349.8172,71.1484 Q350.075,71.4063 350.075,71.75 Q350.075,72.0938 349.7313,72.5 Q349.2313,73.0781 348.4344,73.4063 Q347.3563,73.8594 346.0594,73.8594 Q344.5438,73.8594 343.3406,73.2344 Q342.3563,72.7344 341.6688,71.6641 Q340.9813,70.5938 340.9813,69.3125 L340.9813,68.1563 Q340.9813,66.8281 341.5984,65.6797 Q342.2156,64.5313 343.3094,63.9141 Q344.4031,63.2969 345.6375,63.2969 Q346.3719,63.2969 347.0203,63.4609 Q347.6688,63.625 348.2156,63.9844 Z " fill="#000000"/><text fill="#000000" font-family="sans-serif" font-size="14" lengthAdjust="spacing" textLength="203" x="359.45" y="73.8379">Измнение монолита возможно</text><line style="stroke:#181818;stroke-width:0.5;" x1="331.45" x2="564.45" y1="84.1094" y2="84.1094"/><line style="stroke:#181818;stroke-width:0.5;" x1="331.45" x2="564.45" y1="92.1094" y2="92.1094"/></g><!--MD5=[bbcde3162ec868edaec063b2b31c246c]
class Паттерн Фикус-удавка--><g id="elem_Паттерн Фикус-удавка"><rect codeLine="5" fill="#F1F1F1" height="48" id="Паттерн Фикус-удавка" rx="2.5" ry="2.5" style="stroke:#181818;stroke-width:0.5;" width="179" x="262.45" y="304.6094"/><ellipse cx="277.45" cy="320.6094" fill="#ADD1B2" rx="11" ry="11" style="stroke:#181818;stroke-width:1.0;"/><path d="M280.2156,316.4844 Q280.3719,316.2656 280.5594,316.1563 Q280.7469,316.0469 280.9656,316.0469 Q281.3406,316.0469 281.575,316.3047 Q281.8094,316.5625 281.8094,317.1719 L281.8094,318.625 Q281.8094,319.2344 281.575,319.5 Q281.3406,319.7656 280.9656,319.7656 Q280.6219,319.7656 280.4188,319.5625 Q280.2156,319.375 280.1063,318.8594 Q280.0594,318.5 279.8719,318.3125 Q279.5438,317.9375 278.9344,317.7188 Q278.325,317.5 277.7,317.5 Q276.9344,317.5 276.3016,317.8281 Q275.6688,318.1563 275.1766,318.9063 Q274.6844,319.6563 274.6844,320.6875 L274.6844,321.7813 Q274.6844,323.0156 275.575,323.8359 Q276.4656,324.6563 278.0594,324.6563 Q278.9969,324.6563 279.6531,324.4063 Q280.0438,324.25 280.4656,323.8125 Q280.7313,323.5469 280.8797,323.4688 Q281.0281,323.3906 281.2313,323.3906 Q281.5594,323.3906 281.8172,323.6484 Q282.075,323.9063 282.075,324.25 Q282.075,324.5938 281.7313,325 Q281.2313,325.5781 280.4344,325.9063 Q279.3563,326.3594 278.0594,326.3594 Q276.5438,326.3594 275.3406,325.7344 Q274.3563,325.2344 273.6688,324.1641 Q272.9813,323.0938 272.9813,321.8125 L272.9813,320.6563 Q272.9813,319.3281 273.5984,318.1797 Q274.2156,317.0313 275.3094,316.4141 Q276.4031,315.7969 277.6375,315.7969 Q278.3719,315.7969 279.0203,315.9609 Q279.6688,316.125 280.2156,316.4844 Z " fill="#000000"/><text fill="#000000" font-family="sans-serif" font-size="14" lengthAdjust="spacing" textLength="147" x="291.45" y="326.3379">Паттерн Фикус-удавка</text><line style="stroke:#181818;stroke-width:0.5;" x1="263.45" x2="440.45" y1="336.6094" y2="336.6094"/><line style="stroke:#181818;stroke-width:0.5;" x1="263.45" x2="440.45" y1="344.6094" y2="344.6094"/></g><!--MD5=[e75a61fe509205e824b3fbbbc7c521ad]
class ФБ вышестоящий \n без зависимостей--><g id="elem_ФБ вышестоящий \n без зависимостей"><rect codeLine="6" fill="#F1F1F1" height="61.2188" id="ФБ вышестоящий \n без зависимостей" rx="2.5" ry="2.5" style="stroke:#181818;stroke-width:0.5;" width="154" x="290.95" y="175.1094"/><ellipse cx="305.95" cy="197.7188" fill="#ADD1B2" rx="11" ry="11" style="stroke:#181818;stroke-width:1.0;"/><path d="M308.7156,193.5938 Q308.8719,193.375 309.0594,193.2656 Q309.2469,193.1563 309.4656,193.1563 Q309.8406,193.1563 310.075,193.4141 Q310.3094,193.6719 310.3094,194.2813 L310.3094,195.7344 Q310.3094,196.3438 310.075,196.6094 Q309.8406,196.875 309.4656,196.875 Q309.1219,196.875 308.9188,196.6719 Q308.7156,196.4844 308.6063,195.9688 Q308.5594,195.6094 308.3719,195.4219 Q308.0438,195.0469 307.4344,194.8281 Q306.825,194.6094 306.2,194.6094 Q305.4344,194.6094 304.8016,194.9375 Q304.1688,195.2656 303.6766,196.0156 Q303.1844,196.7656 303.1844,197.7969 L303.1844,198.8906 Q303.1844,200.125 304.075,200.9453 Q304.9656,201.7656 306.5594,201.7656 Q307.4969,201.7656 308.1531,201.5156 Q308.5438,201.3594 308.9656,200.9219 Q309.2313,200.6563 309.3797,200.5781 Q309.5281,200.5 309.7313,200.5 Q310.0594,200.5 310.3172,200.7578 Q310.575,201.0156 310.575,201.3594 Q310.575,201.7031 310.2313,202.1094 Q309.7313,202.6875 308.9344,203.0156 Q307.8563,203.4688 306.5594,203.4688 Q305.0438,203.4688 303.8406,202.8438 Q302.8563,202.3438 302.1688,201.2734 Q301.4813,200.2031 301.4813,198.9219 L301.4813,197.7656 Q301.4813,196.4375 302.0984,195.2891 Q302.7156,194.1406 303.8094,193.5234 Q304.9031,192.9063 306.1375,192.9063 Q306.8719,192.9063 307.5203,193.0703 Q308.1688,193.2344 308.7156,193.5938 Z " fill="#000000"/><text fill="#000000" font-family="sans-serif" font-size="14" lengthAdjust="spacing" textLength="117" x="320.45" y="194.6426">ФБ вышестоящий</text><text fill="#000000" font-family="sans-serif" font-size="14" lengthAdjust="spacing" textLength="118" x="323.95" y="212.252">без зависимостей</text><line style="stroke:#181818;stroke-width:0.5;" x1="291.95" x2="443.95" y1="220.3281" y2="220.3281"/><line style="stroke:#181818;stroke-width:0.5;" x1="291.95" x2="443.95" y1="228.3281" y2="228.3281"/></g><!--MD5=[7bc8a90c802e5906b4cb5075da5beb8f]
class API Gateway--><g id="elem_API Gateway"><rect codeLine="9" fill="#F1F1F1" height="48" id="API Gateway" rx="2.5" ry="2.5" style="stroke:#181818;stroke-width:0.5;" width="112" x="70.95" y="546.1094"/><ellipse cx="85.95" cy="562.1094" fill="#ADD1B2" rx="11" ry="11" style="stroke:#181818;stroke-width:1.0;"/><path d="M88.7156,557.9844 Q88.8719,557.7656 89.0594,557.6563 Q89.2469,557.5469 89.4656,557.5469 Q89.8406,557.5469 90.075,557.8047 Q90.3094,558.0625 90.3094,558.6719 L90.3094,560.125 Q90.3094,560.7344 90.075,561 Q89.8406,561.2656 89.4656,561.2656 Q89.1219,561.2656 88.9188,561.0625 Q88.7156,560.875 88.6063,560.3594 Q88.5594,560 88.3719,559.8125 Q88.0438,559.4375 87.4344,559.2188 Q86.825,559 86.2,559 Q85.4344,559 84.8016,559.3281 Q84.1688,559.6563 83.6766,560.4063 Q83.1844,561.1563 83.1844,562.1875 L83.1844,563.2813 Q83.1844,564.5156 84.075,565.3359 Q84.9656,566.1563 86.5594,566.1563 Q87.4969,566.1563 88.1531,565.9063 Q88.5438,565.75 88.9656,565.3125 Q89.2313,565.0469 89.3797,564.9688 Q89.5281,564.8906 89.7313,564.8906 Q90.0594,564.8906 90.3172,565.1484 Q90.575,565.4063 90.575,565.75 Q90.575,566.0938 90.2313,566.5 Q89.7313,567.0781 88.9344,567.4063 Q87.8563,567.8594 86.5594,567.8594 Q85.0438,567.8594 83.8406,567.2344 Q82.8563,566.7344 82.1688,565.6641 Q81.4813,564.5938 81.4813,563.3125 L81.4813,562.1563 Q81.4813,560.8281 82.0984,559.6797 Q82.7156,558.5313 83.8094,557.9141 Q84.9031,557.2969 86.1375,557.2969 Q86.8719,557.2969 87.5203,557.4609 Q88.1688,557.625 88.7156,557.9844 Z " fill="#000000"/><text fill="#000000" font-family="sans-serif" font-size="14" lengthAdjust="spacing" textLength="80" x="99.95" y="567.8379">API Gateway</text><line style="stroke:#181818;stroke-width:0.5;" x1="71.95" x2="181.95" y1="578.1094" y2="578.1094"/><line style="stroke:#181818;stroke-width:0.5;" x1="71.95" x2="181.95" y1="586.1094" y2="586.1094"/></g><!--MD5=[cc46dca9b950df3e016f4495a3b4ae64]
class SyncAPI--><g id="elem_SyncAPI"><rect codeLine="10" fill="#F1F1F1" height="48" id="SyncAPI" rx="2.5" ry="2.5" style="stroke:#181818;stroke-width:0.5;" width="84" x="189.95" y="413.6094"/><ellipse cx="204.95" cy="429.6094" fill="#ADD1B2" rx="11" ry="11" style="stroke:#181818;stroke-width:1.0;"/><path d="M207.7156,425.4844 Q207.8719,425.2656 208.0594,425.1563 Q208.2469,425.0469 208.4656,425.0469 Q208.8406,425.0469 209.075,425.3047 Q209.3094,425.5625 209.3094,426.1719 L209.3094,427.625 Q209.3094,428.2344 209.075,428.5 Q208.8406,428.7656 208.4656,428.7656 Q208.1219,428.7656 207.9188,428.5625 Q207.7156,428.375 207.6063,427.8594 Q207.5594,427.5 207.3719,427.3125 Q207.0438,426.9375 206.4344,426.7188 Q205.825,426.5 205.2,426.5 Q204.4344,426.5 203.8016,426.8281 Q203.1688,427.1563 202.6766,427.9063 Q202.1844,428.6563 202.1844,429.6875 L202.1844,430.7813 Q202.1844,432.0156 203.075,432.8359 Q203.9656,433.6563 205.5594,433.6563 Q206.4969,433.6563 207.1531,433.4063 Q207.5438,433.25 207.9656,432.8125 Q208.2313,432.5469 208.3797,432.4688 Q208.5281,432.3906 208.7313,432.3906 Q209.0594,432.3906 209.3172,432.6484 Q209.575,432.9063 209.575,433.25 Q209.575,433.5938 209.2313,434 Q208.7313,434.5781 207.9344,434.9063 Q206.8563,435.3594 205.5594,435.3594 Q204.0438,435.3594 202.8406,434.7344 Q201.8563,434.2344 201.1688,433.1641 Q200.4813,432.0938 200.4813,430.8125 L200.4813,429.6563 Q200.4813,428.3281 201.0984,427.1797 Q201.7156,426.0313 202.8094,425.4141 Q203.9031,424.7969 205.1375,424.7969 Q205.8719,424.7969 206.5203,424.9609 Q207.1688,425.125 207.7156,425.4844 Z " fill="#000000"/><text fill="#000000" font-family="sans-serif" font-size="14" lengthAdjust="spacing" textLength="52" x="218.95" y="435.3379">SyncAPI</text><line style="stroke:#181818;stroke-width:0.5;" x1="190.95" x2="272.95" y1="445.6094" y2="445.6094"/><line style="stroke:#181818;stroke-width:0.5;" x1="190.95" x2="272.95" y1="453.6094" y2="453.6094"/></g><!--MD5=[8a52f531867085e13cab7020000611ac]
class Service Mesh--><g id="elem_Service Mesh"><rect codeLine="14" fill="#F1F1F1" height="48" id="Service Mesh" rx="2.5" ry="2.5" style="stroke:#181818;stroke-width:0.5;" width="117" x="374.45" y="546.1094"/><ellipse cx="389.45" cy="562.1094" fill="#ADD1B2" rx="11" ry="11" style="stroke:#181818;stroke-width:1.0;"/><path d="M392.2156,557.9844 Q392.3719,557.7656 392.5594,557.6563 Q392.7469,557.5469 392.9656,557.5469 Q393.3406,557.5469 393.575,557.8047 Q393.8094,558.0625 393.8094,558.6719 L393.8094,560.125 Q393.8094,560.7344 393.575,561 Q393.3406,561.2656 392.9656,561.2656 Q392.6219,561.2656 392.4188,561.0625 Q392.2156,560.875 392.1063,560.3594 Q392.0594,560 391.8719,559.8125 Q391.5438,559.4375 390.9344,559.2188 Q390.325,559 389.7,559 Q388.9344,559 388.3016,559.3281 Q387.6688,559.6563 387.1766,560.4063 Q386.6844,561.1563 386.6844,562.1875 L386.6844,563.2813 Q386.6844,564.5156 387.575,565.3359 Q388.4656,566.1563 390.0594,566.1563 Q390.9969,566.1563 391.6531,565.9063 Q392.0438,565.75 392.4656,565.3125 Q392.7313,565.0469 392.8797,564.9688 Q393.0281,564.8906 393.2313,564.8906 Q393.5594,564.8906 393.8172,565.1484 Q394.075,565.4063 394.075,565.75 Q394.075,566.0938 393.7313,566.5 Q393.2313,567.0781 392.4344,567.4063 Q391.3563,567.8594 390.0594,567.8594 Q388.5438,567.8594 387.3406,567.2344 Q386.3563,566.7344 385.6688,565.6641 Q384.9813,564.5938 384.9813,563.3125 L384.9813,562.1563 Q384.9813,560.8281 385.5984,559.6797 Q386.2156,558.5313 387.3094,557.9141 Q388.4031,557.2969 389.6375,557.2969 Q390.3719,557.2969 391.0203,557.4609 Q391.6688,557.625 392.2156,557.9844 Z " fill="#000000"/><text fill="#000000" font-family="sans-serif" font-size="14" lengthAdjust="spacing" textLength="85" x="403.45" y="567.8379">Service Mesh</text><line style="stroke:#181818;stroke-width:0.5;" x1="375.45" x2="490.45" y1="578.1094" y2="578.1094"/><line style="stroke:#181818;stroke-width:0.5;" x1="375.45" x2="490.45" y1="586.1094" y2="586.1094"/></g><!--MD5=[a587fb39236f5cca4959b8c2dec6fc2a]
class AsyncAPI--><g id="elem_AsyncAPI"><rect codeLine="17" fill="#F1F1F1" height="48" id="AsyncAPI" rx="2.5" ry="2.5" style="stroke:#181818;stroke-width:0.5;" width="91" x="567.45" y="413.6094"/><ellipse cx="582.45" cy="429.6094" fill="#ADD1B2" rx="11" ry="11" style="stroke:#181818;stroke-width:1.0;"/><path d="M585.2156,425.4844 Q585.3719,425.2656 585.5594,425.1563 Q585.7469,425.0469 585.9656,425.0469 Q586.3406,425.0469 586.575,425.3047 Q586.8094,425.5625 586.8094,426.1719 L586.8094,427.625 Q586.8094,428.2344 586.575,428.5 Q586.3406,428.7656 585.9656,428.7656 Q585.6219,428.7656 585.4187,428.5625 Q585.2156,428.375 585.1062,427.8594 Q585.0594,427.5 584.8719,427.3125 Q584.5437,426.9375 583.9344,426.7188 Q583.325,426.5 582.7,426.5 Q581.9344,426.5 581.3016,426.8281 Q580.6687,427.1563 580.1766,427.9063 Q579.6844,428.6563 579.6844,429.6875 L579.6844,430.7813 Q579.6844,432.0156 580.575,432.8359 Q581.4656,433.6563 583.0594,433.6563 Q583.9969,433.6563 584.6531,433.4063 Q585.0437,433.25 585.4656,432.8125 Q585.7312,432.5469 585.8797,432.4688 Q586.0281,432.3906 586.2312,432.3906 Q586.5594,432.3906 586.8172,432.6484 Q587.075,432.9063 587.075,433.25 Q587.075,433.5938 586.7312,434 Q586.2312,434.5781 585.4344,434.9063 Q584.3562,435.3594 583.0594,435.3594 Q581.5437,435.3594 580.3406,434.7344 Q579.3562,434.2344 578.6687,433.1641 Q577.9812,432.0938 577.9812,430.8125 L577.9812,429.6563 Q577.9812,428.3281 578.5984,427.1797 Q579.2156,426.0313 580.3094,425.4141 Q581.4031,424.7969 582.6375,424.7969 Q583.3719,424.7969 584.0203,424.9609 Q584.6687,425.125 585.2156,425.4844 Z " fill="#000000"/><text fill="#000000" font-family="sans-serif" font-size="14" lengthAdjust="spacing" textLength="59" x="596.45" y="435.3379">AsyncAPI</text><line style="stroke:#181818;stroke-width:0.5;" x1="568.45" x2="657.45" y1="445.6094" y2="445.6094"/><line style="stroke:#181818;stroke-width:0.5;" x1="568.45" x2="657.45" y1="453.6094" y2="453.6094"/></g><!--MD5=[c8132d8aedca3531320983a3f6c712e9]
class Маршрутизация на \n основе содержимого--><g id="elem_Маршрутизация на \n основе содержимого"><rect fill="#F1F1F1" height="61.2188" id="Маршрутизация на \n основе содержимого" rx="2.5" ry="2.5" style="stroke:#181818;stroke-width:0.5;" width="173" x="526.45" y="539.6094"/><ellipse cx="541.45" cy="562.2188" fill="#ADD1B2" rx="11" ry="11" style="stroke:#181818;stroke-width:1.0;"/><path d="M544.2156,558.0938 Q544.3719,557.875 544.5594,557.7656 Q544.7469,557.6563 544.9656,557.6563 Q545.3406,557.6563 545.575,557.9141 Q545.8094,558.1719 545.8094,558.7813 L545.8094,560.2344 Q545.8094,560.8438 545.575,561.1094 Q545.3406,561.375 544.9656,561.375 Q544.6219,561.375 544.4187,561.1719 Q544.2156,560.9844 544.1062,560.4688 Q544.0594,560.1094 543.8719,559.9219 Q543.5437,559.5469 542.9344,559.3281 Q542.325,559.1094 541.7,559.1094 Q540.9344,559.1094 540.3016,559.4375 Q539.6687,559.7656 539.1766,560.5156 Q538.6844,561.2656 538.6844,562.2969 L538.6844,563.3906 Q538.6844,564.625 539.575,565.4453 Q540.4656,566.2656 542.0594,566.2656 Q542.9969,566.2656 543.6531,566.0156 Q544.0437,565.8594 544.4656,565.4219 Q544.7312,565.1563 544.8797,565.0781 Q545.0281,565 545.2312,565 Q545.5594,565 545.8172,565.2578 Q546.075,565.5156 546.075,565.8594 Q546.075,566.2031 545.7312,566.6094 Q545.2312,567.1875 544.4344,567.5156 Q543.3562,567.9688 542.0594,567.9688 Q540.5437,567.9688 539.3406,567.3438 Q538.3562,566.8438 537.6687,565.7734 Q536.9812,564.7031 536.9812,563.4219 L536.9812,562.2656 Q536.9812,560.9375 537.5984,559.7891 Q538.2156,558.6406 539.3094,558.0234 Q540.4031,557.4063 541.6375,557.4063 Q542.3719,557.4063 543.0203,557.5703 Q543.6687,557.7344 544.2156,558.0938 Z " fill="#000000"/><text fill="#000000" font-family="sans-serif" font-size="14" lengthAdjust="spacing" textLength="127" x="560.45" y="559.1426">Маршрутизация на</text><text fill="#000000" font-family="sans-serif" font-size="14" lengthAdjust="spacing" textLength="137" x="559.45" y="576.752">основе содержимого</text><line style="stroke:#181818;stroke-width:0.5;" x1="527.45" x2="698.45" y1="584.8281" y2="584.8281"/><line style="stroke:#181818;stroke-width:0.5;" x1="527.45" x2="698.45" y1="592.8281" y2="592.8281"/></g><!--MD5=[be734ecffc18bcbc69a72ba8a0d74b05]
class Селективное \n потребление--><g id="elem_Селективное \n потребление"><rect fill="#F1F1F1" height="61.2188" id="Селективное \n потребление" rx="2.5" ry="2.5" style="stroke:#181818;stroke-width:0.5;" width="123" x="734.45" y="539.6094"/><ellipse cx="749.45" cy="562.2188" fill="#ADD1B2" rx="11" ry="11" style="stroke:#181818;stroke-width:1.0;"/><path d="M752.2156,558.0938 Q752.3719,557.875 752.5594,557.7656 Q752.7469,557.6563 752.9656,557.6563 Q753.3406,557.6563 753.575,557.9141 Q753.8094,558.1719 753.8094,558.7813 L753.8094,560.2344 Q753.8094,560.8438 753.575,561.1094 Q753.3406,561.375 752.9656,561.375 Q752.6219,561.375 752.4187,561.1719 Q752.2156,560.9844 752.1062,560.4688 Q752.0594,560.1094 751.8719,559.9219 Q751.5437,559.5469 750.9344,559.3281 Q750.325,559.1094 749.7,559.1094 Q748.9344,559.1094 748.3016,559.4375 Q747.6687,559.7656 747.1766,560.5156 Q746.6844,561.2656 746.6844,562.2969 L746.6844,563.3906 Q746.6844,564.625 747.575,565.4453 Q748.4656,566.2656 750.0594,566.2656 Q750.9969,566.2656 751.6531,566.0156 Q752.0437,565.8594 752.4656,565.4219 Q752.7312,565.1563 752.8797,565.0781 Q753.0281,565 753.2312,565 Q753.5594,565 753.8172,565.2578 Q754.075,565.5156 754.075,565.8594 Q754.075,566.2031 753.7312,566.6094 Q753.2312,567.1875 752.4344,567.5156 Q751.3562,567.9688 750.0594,567.9688 Q748.5437,567.9688 747.3406,567.3438 Q746.3562,566.8438 745.6687,565.7734 Q744.9812,564.7031 744.9812,563.4219 L744.9812,562.2656 Q744.9812,560.9375 745.5984,559.7891 Q746.2156,558.6406 747.3094,558.0234 Q748.4031,557.4063 749.6375,557.4063 Q750.3719,557.4063 751.0203,557.5703 Q751.6687,557.7344 752.2156,558.0938 Z " fill="#000000"/><text fill="#000000" font-family="sans-serif" font-size="14" lengthAdjust="spacing" textLength="86" x="763.95" y="559.1426">Селективное</text><text fill="#000000" font-family="sans-serif" font-size="14" lengthAdjust="spacing" textLength="87" x="767.45" y="576.752">потребление</text><line style="stroke:#181818;stroke-width:0.5;" x1="735.45" x2="856.45" y1="584.8281" y2="584.8281"/><line style="stroke:#181818;stroke-width:0.5;" x1="735.45" x2="856.45" y1="592.8281" y2="592.8281"/></g><!--MD5=[c65c25f5be72b386193639401ffb0d97]
class ФБ нижестоящий--><g id="elem_ФБ нижестоящий"><rect codeLine="23" fill="#F1F1F1" height="48" id="ФБ нижестоящий" rx="2.5" ry="2.5" style="stroke:#181818;stroke-width:0.5;" width="146" x="484.95" y="181.6094"/><ellipse cx="499.95" cy="197.6094" fill="#ADD1B2" rx="11" ry="11" style="stroke:#181818;stroke-width:1.0;"/><path d="M502.7156,193.4844 Q502.8719,193.2656 503.0594,193.1563 Q503.2469,193.0469 503.4656,193.0469 Q503.8406,193.0469 504.075,193.3047 Q504.3094,193.5625 504.3094,194.1719 L504.3094,195.625 Q504.3094,196.2344 504.075,196.5 Q503.8406,196.7656 503.4656,196.7656 Q503.1219,196.7656 502.9188,196.5625 Q502.7156,196.375 502.6063,195.8594 Q502.5594,195.5 502.3719,195.3125 Q502.0438,194.9375 501.4344,194.7188 Q500.825,194.5 500.2,194.5 Q499.4344,194.5 498.8016,194.8281 Q498.1688,195.1563 497.6766,195.9063 Q497.1844,196.6563 497.1844,197.6875 L497.1844,198.7813 Q497.1844,200.0156 498.075,200.8359 Q498.9656,201.6563 500.5594,201.6563 Q501.4969,201.6563 502.1531,201.4063 Q502.5438,201.25 502.9656,200.8125 Q503.2313,200.5469 503.3797,200.4688 Q503.5281,200.3906 503.7313,200.3906 Q504.0594,200.3906 504.3172,200.6484 Q504.575,200.9063 504.575,201.25 Q504.575,201.5938 504.2313,202 Q503.7313,202.5781 502.9344,202.9063 Q501.8563,203.3594 500.5594,203.3594 Q499.0438,203.3594 497.8406,202.7344 Q496.8563,202.2344 496.1688,201.1641 Q495.4813,200.0938 495.4813,198.8125 L495.4813,197.6563 Q495.4813,196.3281 496.0984,195.1797 Q496.7156,194.0313 497.8094,193.4141 Q498.9031,192.7969 500.1375,192.7969 Q500.8719,192.7969 501.5203,192.9609 Q502.1688,193.125 502.7156,193.4844 Z " fill="#000000"/><text fill="#000000" font-family="sans-serif" font-size="14" lengthAdjust="spacing" textLength="114" x="513.95" y="203.3379">ФБ нижестоящий</text><line style="stroke:#181818;stroke-width:0.5;" x1="485.95" x2="629.95" y1="213.6094" y2="213.6094"/><line style="stroke:#181818;stroke-width:0.5;" x1="485.95" x2="629.95" y1="221.6094" y2="221.6094"/></g><!--MD5=[995f02487e35f2f98ec3aa17ff11fc5c]
class Ветвление по абстракции--><g id="elem_Ветвление по абстракции"><rect codeLine="25" fill="#F1F1F1" height="48" id="Ветвление по абстракции" rx="2.5" ry="2.5" style="stroke:#181818;stroke-width:0.5;" width="204" x="476.95" y="304.6094"/><ellipse cx="491.95" cy="320.6094" fill="#ADD1B2" rx="11" ry="11" style="stroke:#181818;stroke-width:1.0;"/><path d="M494.7156,316.4844 Q494.8719,316.2656 495.0594,316.1563 Q495.2469,316.0469 495.4656,316.0469 Q495.8406,316.0469 496.075,316.3047 Q496.3094,316.5625 496.3094,317.1719 L496.3094,318.625 Q496.3094,319.2344 496.075,319.5 Q495.8406,319.7656 495.4656,319.7656 Q495.1219,319.7656 494.9188,319.5625 Q494.7156,319.375 494.6063,318.8594 Q494.5594,318.5 494.3719,318.3125 Q494.0438,317.9375 493.4344,317.7188 Q492.825,317.5 492.2,317.5 Q491.4344,317.5 490.8016,317.8281 Q490.1688,318.1563 489.6766,318.9063 Q489.1844,319.6563 489.1844,320.6875 L489.1844,321.7813 Q489.1844,323.0156 490.075,323.8359 Q490.9656,324.6563 492.5594,324.6563 Q493.4969,324.6563 494.1531,324.4063 Q494.5438,324.25 494.9656,323.8125 Q495.2313,323.5469 495.3797,323.4688 Q495.5281,323.3906 495.7313,323.3906 Q496.0594,323.3906 496.3172,323.6484 Q496.575,323.9063 496.575,324.25 Q496.575,324.5938 496.2313,325 Q495.7313,325.5781 494.9344,325.9063 Q493.8563,326.3594 492.5594,326.3594 Q491.0438,326.3594 489.8406,325.7344 Q488.8563,325.2344 488.1688,324.1641 Q487.4813,323.0938 487.4813,321.8125 L487.4813,320.6563 Q487.4813,319.3281 488.0984,318.1797 Q488.7156,317.0313 489.8094,316.4141 Q490.9031,315.7969 492.1375,315.7969 Q492.8719,315.7969 493.5203,315.9609 Q494.1688,316.125 494.7156,316.4844 Z " fill="#000000"/><text fill="#000000" font-family="sans-serif" font-size="14" lengthAdjust="spacing" textLength="172" x="505.95" y="326.3379">Ветвление по абстракции</text><line style="stroke:#181818;stroke-width:0.5;" x1="477.95" x2="679.95" y1="336.6094" y2="336.6094"/><line style="stroke:#181818;stroke-width:0.5;" x1="477.95" x2="679.95" y1="344.6094" y2="344.6094"/></g><!--MD5=[ae60970542a3cbe07fb8608af751786a]
class Тестирование \n новых сервисов--><g id="elem_Тестирование \n новых сервисов"><rect codeLine="29" fill="#F1F1F1" height="61.2188" id="Тестирование \n новых сервисов" rx="2.5" ry="2.5" style="stroke:#181818;stroke-width:0.5;" width="139" x="974.45" y="45.6094"/><ellipse cx="989.45" cy="68.2188" fill="#ADD1B2" rx="11" ry="11" style="stroke:#181818;stroke-width:1.0;"/><path d="M992.2156,64.0938 Q992.3719,63.875 992.5594,63.7656 Q992.7469,63.6563 992.9656,63.6563 Q993.3406,63.6563 993.575,63.9141 Q993.8094,64.1719 993.8094,64.7813 L993.8094,66.2344 Q993.8094,66.8438 993.575,67.1094 Q993.3406,67.375 992.9656,67.375 Q992.6219,67.375 992.4187,67.1719 Q992.2156,66.9844 992.1062,66.4688 Q992.0594,66.1094 991.8719,65.9219 Q991.5437,65.5469 990.9344,65.3281 Q990.325,65.1094 989.7,65.1094 Q988.9344,65.1094 988.3016,65.4375 Q987.6687,65.7656 987.1766,66.5156 Q986.6844,67.2656 986.6844,68.2969 L986.6844,69.3906 Q986.6844,70.625 987.575,71.4453 Q988.4656,72.2656 990.0594,72.2656 Q990.9969,72.2656 991.6531,72.0156 Q992.0437,71.8594 992.4656,71.4219 Q992.7312,71.1563 992.8797,71.0781 Q993.0281,71 993.2312,71 Q993.5594,71 993.8172,71.2578 Q994.075,71.5156 994.075,71.8594 Q994.075,72.2031 993.7312,72.6094 Q993.2312,73.1875 992.4344,73.5156 Q991.3562,73.9688 990.0594,73.9688 Q988.5437,73.9688 987.3406,73.3438 Q986.3562,72.8438 985.6687,71.7734 Q984.9812,70.7031 984.9812,69.4219 L984.9812,68.2656 Q984.9812,66.9375 985.5984,65.7891 Q986.2156,64.6406 987.3094,64.0234 Q988.4031,63.4063 989.6375,63.4063 Q990.3719,63.4063 991.0203,63.5703 Q991.6687,63.7344 992.2156,64.0938 Z " fill="#000000"/><text fill="#000000" font-family="sans-serif" font-size="14" lengthAdjust="spacing" textLength="94" x="1007.95" y="65.1426">Тестирование</text><text fill="#000000" font-family="sans-serif" font-size="14" lengthAdjust="spacing" textLength="103" x="1007.45" y="82.752">новых сервисов</text><line style="stroke:#181818;stroke-width:0.5;" x1="975.45" x2="1112.45" y1="90.8281" y2="90.8281"/><line style="stroke:#181818;stroke-width:0.5;" x1="975.45" x2="1112.45" y1="98.8281" y2="98.8281"/></g><!--MD5=[6cdcf9f1fecd7092689d326cf6e35e24]
class Параллельное выполнение--><g id="elem_Параллельное выполнение"><rect codeLine="30" fill="#F1F1F1" height="48" id="Параллельное выполнение" rx="2.5" ry="2.5" style="stroke:#181818;stroke-width:0.5;" width="214" x="712.95" y="181.6094"/><ellipse cx="727.95" cy="197.6094" fill="#ADD1B2" rx="11" ry="11" style="stroke:#181818;stroke-width:1.0;"/><path d="M730.7156,193.4844 Q730.8719,193.2656 731.0594,193.1563 Q731.2469,193.0469 731.4656,193.0469 Q731.8406,193.0469 732.075,193.3047 Q732.3094,193.5625 732.3094,194.1719 L732.3094,195.625 Q732.3094,196.2344 732.075,196.5 Q731.8406,196.7656 731.4656,196.7656 Q731.1219,196.7656 730.9187,196.5625 Q730.7156,196.375 730.6062,195.8594 Q730.5594,195.5 730.3719,195.3125 Q730.0437,194.9375 729.4344,194.7188 Q728.825,194.5 728.2,194.5 Q727.4344,194.5 726.8016,194.8281 Q726.1687,195.1563 725.6766,195.9063 Q725.1844,196.6563 725.1844,197.6875 L725.1844,198.7813 Q725.1844,200.0156 726.075,200.8359 Q726.9656,201.6563 728.5594,201.6563 Q729.4969,201.6563 730.1531,201.4063 Q730.5437,201.25 730.9656,200.8125 Q731.2312,200.5469 731.3797,200.4688 Q731.5281,200.3906 731.7312,200.3906 Q732.0594,200.3906 732.3172,200.6484 Q732.575,200.9063 732.575,201.25 Q732.575,201.5938 732.2312,202 Q731.7312,202.5781 730.9344,202.9063 Q729.8562,203.3594 728.5594,203.3594 Q727.0437,203.3594 725.8406,202.7344 Q724.8562,202.2344 724.1687,201.1641 Q723.4812,200.0938 723.4812,198.8125 L723.4812,197.6563 Q723.4812,196.3281 724.0984,195.1797 Q724.7156,194.0313 725.8094,193.4141 Q726.9031,192.7969 728.1375,192.7969 Q728.8719,192.7969 729.5203,192.9609 Q730.1687,193.125 730.7156,193.4844 Z " fill="#000000"/><text fill="#000000" font-family="sans-serif" font-size="14" lengthAdjust="spacing" textLength="182" x="741.95" y="203.3379">Параллельное выполнение</text><line style="stroke:#181818;stroke-width:0.5;" x1="713.95" x2="925.95" y1="213.6094" y2="213.6094"/><line style="stroke:#181818;stroke-width:0.5;" x1="713.95" x2="925.95" y1="221.6094" y2="221.6094"/></g><!--MD5=[8cbb30f28affdc184b77d1b904b4aefb]
class Канареечный релиз--><g id="elem_Канареечный релиз"><rect codeLine="31" fill="#F1F1F1" height="58.7031" id="Канареечный релиз" rx="2.5" ry="2.5" style="stroke:#181818;stroke-width:0.5;" width="163" x="962.45" y="176.1094"/><ellipse cx="977.45" cy="197.4609" fill="#ADD1B2" rx="11" ry="11" style="stroke:#181818;stroke-width:1.0;"/><path d="M980.2156,193.3359 Q980.3719,193.1172 980.5594,193.0078 Q980.7469,192.8984 980.9656,192.8984 Q981.3406,192.8984 981.575,193.1563 Q981.8094,193.4141 981.8094,194.0234 L981.8094,195.4766 Q981.8094,196.0859 981.575,196.3516 Q981.3406,196.6172 980.9656,196.6172 Q980.6219,196.6172 980.4187,196.4141 Q980.2156,196.2266 980.1062,195.7109 Q980.0594,195.3516 979.8719,195.1641 Q979.5437,194.7891 978.9344,194.5703 Q978.325,194.3516 977.7,194.3516 Q976.9344,194.3516 976.3016,194.6797 Q975.6687,195.0078 975.1766,195.7578 Q974.6844,196.5078 974.6844,197.5391 L974.6844,198.6328 Q974.6844,199.8672 975.575,200.6875 Q976.4656,201.5078 978.0594,201.5078 Q978.9969,201.5078 979.6531,201.2578 Q980.0437,201.1016 980.4656,200.6641 Q980.7312,200.3984 980.8797,200.3203 Q981.0281,200.2422 981.2312,200.2422 Q981.5594,200.2422 981.8172,200.5 Q982.075,200.7578 982.075,201.1016 Q982.075,201.4453 981.7312,201.8516 Q981.2312,202.4297 980.4344,202.7578 Q979.3562,203.2109 978.0594,203.2109 Q976.5437,203.2109 975.3406,202.5859 Q974.3562,202.0859 973.6687,201.0156 Q972.9812,199.9453 972.9812,198.6641 L972.9812,197.5078 Q972.9812,196.1797 973.5984,195.0313 Q974.2156,193.8828 975.3094,193.2656 Q976.4031,192.6484 977.6375,192.6484 Q978.3719,192.6484 979.0203,192.8125 Q979.6687,192.9766 980.2156,193.3359 Z " fill="#000000"/><text fill="#000000" font-family="sans-serif" font-size="12" font-style="italic" lengthAdjust="spacing" textLength="95" x="1009.45" y="193.5664">«canary release»</text><text fill="#000000" font-family="sans-serif" font-size="14" lengthAdjust="spacing" textLength="131" x="991.45" y="210.7363">Канареечный релиз</text><line style="stroke:#181818;stroke-width:0.5;" x1="963.45" x2="1124.45" y1="218.8125" y2="218.8125"/><line style="stroke:#181818;stroke-width:0.5;" x1="963.45" x2="1124.45" y1="226.8125" y2="226.8125"/></g><!--MD5=[f8f35ce626e3e13a83707029cb2e4d4d]
class Dark (скрытые) \n или А/В-развертывания--><g id="elem_Dark (скрытые) \n или А/В-развертывания"><rect codeLine="32" fill="#F1F1F1" height="76.3125" id="Dark (скрытые) \n или А/В-развертывания" rx="2.5" ry="2.5" style="stroke:#181818;stroke-width:0.5;" width="192" x="1160.95" y="167.6094"/><ellipse cx="1175.95" cy="197.7656" fill="#ADD1B2" rx="11" ry="11" style="stroke:#181818;stroke-width:1.0;"/><path d="M1178.7156,193.6406 Q1178.8719,193.4219 1179.0594,193.3125 Q1179.2469,193.2031 1179.4656,193.2031 Q1179.8406,193.2031 1180.075,193.4609 Q1180.3094,193.7188 1180.3094,194.3281 L1180.3094,195.7813 Q1180.3094,196.3906 1180.075,196.6563 Q1179.8406,196.9219 1179.4656,196.9219 Q1179.1219,196.9219 1178.9188,196.7188 Q1178.7156,196.5313 1178.6063,196.0156 Q1178.5594,195.6563 1178.3719,195.4688 Q1178.0438,195.0938 1177.4344,194.875 Q1176.825,194.6563 1176.2,194.6563 Q1175.4344,194.6563 1174.8016,194.9844 Q1174.1688,195.3125 1173.6766,196.0625 Q1173.1844,196.8125 1173.1844,197.8438 L1173.1844,198.9375 Q1173.1844,200.1719 1174.075,200.9922 Q1174.9656,201.8125 1176.5594,201.8125 Q1177.4969,201.8125 1178.1531,201.5625 Q1178.5438,201.4063 1178.9656,200.9688 Q1179.2313,200.7031 1179.3797,200.625 Q1179.5281,200.5469 1179.7313,200.5469 Q1180.0594,200.5469 1180.3172,200.8047 Q1180.575,201.0625 1180.575,201.4063 Q1180.575,201.75 1180.2313,202.1563 Q1179.7313,202.7344 1178.9344,203.0625 Q1177.8563,203.5156 1176.5594,203.5156 Q1175.0438,203.5156 1173.8406,202.8906 Q1172.8563,202.3906 1172.1688,201.3203 Q1171.4813,200.25 1171.4813,198.9688 L1171.4813,197.8125 Q1171.4813,196.4844 1172.0984,195.3359 Q1172.7156,194.1875 1173.8094,193.5703 Q1174.9031,192.9531 1176.1375,192.9531 Q1176.8719,192.9531 1177.5203,193.1172 Q1178.1688,193.2813 1178.7156,193.6406 Z " fill="#000000"/><text fill="#000000" font-family="sans-serif" font-size="12" font-style="italic" lengthAdjust="spacing" textLength="96" x="1221.95" y="185.0664">«dark launching»</text><text fill="#000000" font-family="sans-serif" font-size="14" lengthAdjust="spacing" textLength="100" x="1217.95" y="202.2363">Dark (скрытые)</text><text fill="#000000" font-family="sans-serif" font-size="14" lengthAdjust="spacing" textLength="156" x="1193.95" y="219.8457">или А/В-развертывания</text><line style="stroke:#181818;stroke-width:0.5;" x1="1161.95" x2="1351.95" y1="227.9219" y2="227.9219"/><line style="stroke:#181818;stroke-width:0.5;" x1="1161.95" x2="1351.95" y1="235.9219" y2="235.9219"/></g><!--MD5=[e39614491d1bc30f0ccb248828774f1c]
class Методы верификации--><g id="elem_Методы верификации"><rect fill="#F1F1F1" height="48" id="Методы верификации" rx="2.5" ry="2.5" style="stroke:#181818;stroke-width:0.5;" width="177" x="731.45" y="304.6094"/><ellipse cx="746.45" cy="320.6094" fill="#ADD1B2" rx="11" ry="11" style="stroke:#181818;stroke-width:1.0;"/><path d="M749.2156,316.4844 Q749.3719,316.2656 749.5594,316.1563 Q749.7469,316.0469 749.9656,316.0469 Q750.3406,316.0469 750.575,316.3047 Q750.8094,316.5625 750.8094,317.1719 L750.8094,318.625 Q750.8094,319.2344 750.575,319.5 Q750.3406,319.7656 749.9656,319.7656 Q749.6219,319.7656 749.4187,319.5625 Q749.2156,319.375 749.1062,318.8594 Q749.0594,318.5 748.8719,318.3125 Q748.5437,317.9375 747.9344,317.7188 Q747.325,317.5 746.7,317.5 Q745.9344,317.5 745.3016,317.8281 Q744.6687,318.1563 744.1766,318.9063 Q743.6844,319.6563 743.6844,320.6875 L743.6844,321.7813 Q743.6844,323.0156 744.575,323.8359 Q745.4656,324.6563 747.0594,324.6563 Q747.9969,324.6563 748.6531,324.4063 Q749.0437,324.25 749.4656,323.8125 Q749.7312,323.5469 749.8797,323.4688 Q750.0281,323.3906 750.2312,323.3906 Q750.5594,323.3906 750.8172,323.6484 Q751.075,323.9063 751.075,324.25 Q751.075,324.5938 750.7312,325 Q750.2312,325.5781 749.4344,325.9063 Q748.3562,326.3594 747.0594,326.3594 Q745.5437,326.3594 744.3406,325.7344 Q743.3562,325.2344 742.6687,324.1641 Q741.9812,323.0938 741.9812,321.8125 L741.9812,320.6563 Q741.9812,319.3281 742.5984,318.1797 Q743.2156,317.0313 744.3094,316.4141 Q745.4031,315.7969 746.6375,315.7969 Q747.3719,315.7969 748.0203,315.9609 Q748.6687,316.125 749.2156,316.4844 Z " fill="#000000"/><text fill="#000000" font-family="sans-serif" font-size="14" lengthAdjust="spacing" textLength="145" x="760.45" y="326.3379">Методы верификации</text><line style="stroke:#181818;stroke-width:0.5;" x1="732.45" x2="907.45" y1="336.6094" y2="336.6094"/><line style="stroke:#181818;stroke-width:0.5;" x1="732.45" x2="907.45" y1="344.6094" y2="344.6094"/></g><!--MD5=[1b38757fbce73947cc7b859eaa5df84a]
class Шпионы--><g id="elem_Шпионы"><rect fill="#F1F1F1" height="48" id="Шпионы" rx="2.5" ry="2.5" style="stroke:#181818;stroke-width:0.5;" width="87" x="776.45" y="413.6094"/><ellipse cx="791.45" cy="429.6094" fill="#ADD1B2" rx="11" ry="11" style="stroke:#181818;stroke-width:1.0;"/><path d="M794.2156,425.4844 Q794.3719,425.2656 794.5594,425.1563 Q794.7469,425.0469 794.9656,425.0469 Q795.3406,425.0469 795.575,425.3047 Q795.8094,425.5625 795.8094,426.1719 L795.8094,427.625 Q795.8094,428.2344 795.575,428.5 Q795.3406,428.7656 794.9656,428.7656 Q794.6219,428.7656 794.4187,428.5625 Q794.2156,428.375 794.1062,427.8594 Q794.0594,427.5 793.8719,427.3125 Q793.5437,426.9375 792.9344,426.7188 Q792.325,426.5 791.7,426.5 Q790.9344,426.5 790.3016,426.8281 Q789.6687,427.1563 789.1766,427.9063 Q788.6844,428.6563 788.6844,429.6875 L788.6844,430.7813 Q788.6844,432.0156 789.575,432.8359 Q790.4656,433.6563 792.0594,433.6563 Q792.9969,433.6563 793.6531,433.4063 Q794.0437,433.25 794.4656,432.8125 Q794.7312,432.5469 794.8797,432.4688 Q795.0281,432.3906 795.2312,432.3906 Q795.5594,432.3906 795.8172,432.6484 Q796.075,432.9063 796.075,433.25 Q796.075,433.5938 795.7312,434 Q795.2312,434.5781 794.4344,434.9063 Q793.3562,435.3594 792.0594,435.3594 Q790.5437,435.3594 789.3406,434.7344 Q788.3562,434.2344 787.6687,433.1641 Q786.9812,432.0938 786.9812,430.8125 L786.9812,429.6563 Q786.9812,428.3281 787.5984,427.1797 Q788.2156,426.0313 789.3094,425.4141 Q790.4031,424.7969 791.6375,424.7969 Q792.3719,424.7969 793.0203,424.9609 Q793.6687,425.125 794.2156,425.4844 Z " fill="#000000"/><text fill="#000000" font-family="sans-serif" font-size="14" lengthAdjust="spacing" textLength="55" x="805.45" y="435.3379">Шпионы</text><line style="stroke:#181818;stroke-width:0.5;" x1="777.45" x2="862.45" y1="445.6094" y2="445.6094"/><line style="stroke:#181818;stroke-width:0.5;" x1="777.45" x2="862.45" y1="453.6094" y2="453.6094"/></g><!--MD5=[589d82a0fd04ab26d20d18acb87da427]
class Измнение монолита \n НЕ возможно--><g id="elem_Измнение монолита \n НЕ возможно"><rect codeLine="40" fill="#F1F1F1" height="61.2188" id="Измнение монолита \n НЕ возможно" rx="2.5" ry="2.5" style="stroke:#181818;stroke-width:0.5;" width="171" x="1491.45" y="45.6094"/><ellipse cx="1506.45" cy="68.2188" fill="#ADD1B2" rx="11" ry="11" style="stroke:#181818;stroke-width:1.0;"/><path d="M1509.2156,64.0938 Q1509.3719,63.875 1509.5594,63.7656 Q1509.7469,63.6563 1509.9656,63.6563 Q1510.3406,63.6563 1510.575,63.9141 Q1510.8094,64.1719 1510.8094,64.7813 L1510.8094,66.2344 Q1510.8094,66.8438 1510.575,67.1094 Q1510.3406,67.375 1509.9656,67.375 Q1509.6219,67.375 1509.4188,67.1719 Q1509.2156,66.9844 1509.1063,66.4688 Q1509.0594,66.1094 1508.8719,65.9219 Q1508.5438,65.5469 1507.9344,65.3281 Q1507.325,65.1094 1506.7,65.1094 Q1505.9344,65.1094 1505.3016,65.4375 Q1504.6688,65.7656 1504.1766,66.5156 Q1503.6844,67.2656 1503.6844,68.2969 L1503.6844,69.3906 Q1503.6844,70.625 1504.575,71.4453 Q1505.4656,72.2656 1507.0594,72.2656 Q1507.9969,72.2656 1508.6531,72.0156 Q1509.0438,71.8594 1509.4656,71.4219 Q1509.7313,71.1563 1509.8797,71.0781 Q1510.0281,71 1510.2313,71 Q1510.5594,71 1510.8172,71.2578 Q1511.075,71.5156 1511.075,71.8594 Q1511.075,72.2031 1510.7313,72.6094 Q1510.2313,73.1875 1509.4344,73.5156 Q1508.3563,73.9688 1507.0594,73.9688 Q1505.5438,73.9688 1504.3406,73.3438 Q1503.3563,72.8438 1502.6688,71.7734 Q1501.9813,70.7031 1501.9813,69.4219 L1501.9813,68.2656 Q1501.9813,66.9375 1502.5984,65.7891 Q1503.2156,64.6406 1504.3094,64.0234 Q1505.4031,63.4063 1506.6375,63.4063 Q1507.3719,63.4063 1508.0203,63.5703 Q1508.6688,63.7344 1509.2156,64.0938 Z " fill="#000000"/><text fill="#000000" font-family="sans-serif" font-size="14" lengthAdjust="spacing" textLength="135" x="1520.45" y="65.1426">Измнение монолита</text><text fill="#000000" font-family="sans-serif" font-size="14" lengthAdjust="spacing" textLength="86" x="1548.95" y="82.752">НЕ возможно</text><line style="stroke:#181818;stroke-width:0.5;" x1="1492.45" x2="1661.45" y1="90.8281" y2="90.8281"/><line style="stroke:#181818;stroke-width:0.5;" x1="1492.45" x2="1661.45" y1="98.8281" y2="98.8281"/></g><!--MD5=[a11ed597a8285b84ba38316be3faa11e]
class Сотрудник декоратор--><g id="elem_Сотрудник декоратор"><rect fill="#F1F1F1" height="48" id="Сотрудник декоратор" rx="2.5" ry="2.5" style="stroke:#181818;stroke-width:0.5;" width="175" x="1388.45" y="181.6094"/><ellipse cx="1403.45" cy="197.6094" fill="#ADD1B2" rx="11" ry="11" style="stroke:#181818;stroke-width:1.0;"/><path d="M1406.2156,193.4844 Q1406.3719,193.2656 1406.5594,193.1563 Q1406.7469,193.0469 1406.9656,193.0469 Q1407.3406,193.0469 1407.575,193.3047 Q1407.8094,193.5625 1407.8094,194.1719 L1407.8094,195.625 Q1407.8094,196.2344 1407.575,196.5 Q1407.3406,196.7656 1406.9656,196.7656 Q1406.6219,196.7656 1406.4188,196.5625 Q1406.2156,196.375 1406.1063,195.8594 Q1406.0594,195.5 1405.8719,195.3125 Q1405.5438,194.9375 1404.9344,194.7188 Q1404.325,194.5 1403.7,194.5 Q1402.9344,194.5 1402.3016,194.8281 Q1401.6688,195.1563 1401.1766,195.9063 Q1400.6844,196.6563 1400.6844,197.6875 L1400.6844,198.7813 Q1400.6844,200.0156 1401.575,200.8359 Q1402.4656,201.6563 1404.0594,201.6563 Q1404.9969,201.6563 1405.6531,201.4063 Q1406.0438,201.25 1406.4656,200.8125 Q1406.7313,200.5469 1406.8797,200.4688 Q1407.0281,200.3906 1407.2313,200.3906 Q1407.5594,200.3906 1407.8172,200.6484 Q1408.075,200.9063 1408.075,201.25 Q1408.075,201.5938 1407.7313,202 Q1407.2313,202.5781 1406.4344,202.9063 Q1405.3563,203.3594 1404.0594,203.3594 Q1402.5438,203.3594 1401.3406,202.7344 Q1400.3563,202.2344 1399.6688,201.1641 Q1398.9813,200.0938 1398.9813,198.8125 L1398.9813,197.6563 Q1398.9813,196.3281 1399.5984,195.1797 Q1400.2156,194.0313 1401.3094,193.4141 Q1402.4031,192.7969 1403.6375,192.7969 Q1404.3719,192.7969 1405.0203,192.9609 Q1405.6688,193.125 1406.2156,193.4844 Z " fill="#000000"/><text fill="#000000" font-family="sans-serif" font-size="14" lengthAdjust="spacing" textLength="143" x="1417.45" y="203.3379">Сотрудник декоратор</text><line style="stroke:#181818;stroke-width:0.5;" x1="1389.45" x2="1562.45" y1="213.6094" y2="213.6094"/><line style="stroke:#181818;stroke-width:0.5;" x1="1389.45" x2="1562.45" y1="221.6094" y2="221.6094"/></g><!--MD5=[8fe4df492057df3fbd5c0103db52e1c5]
class Захват изменений \n в данных--><g id="elem_Захват изменений \n в данных"><rect codeLine="42" fill="#F1F1F1" height="76.3125" id="Захват изменений \n в данных" rx="2.5" ry="2.5" style="stroke:#181818;stroke-width:0.5;" width="156" x="1598.95" y="167.6094"/><ellipse cx="1613.95" cy="197.7656" fill="#ADD1B2" rx="11" ry="11" style="stroke:#181818;stroke-width:1.0;"/><path d="M1616.7156,193.6406 Q1616.8719,193.4219 1617.0594,193.3125 Q1617.2469,193.2031 1617.4656,193.2031 Q1617.8406,193.2031 1618.075,193.4609 Q1618.3094,193.7188 1618.3094,194.3281 L1618.3094,195.7813 Q1618.3094,196.3906 1618.075,196.6563 Q1617.8406,196.9219 1617.4656,196.9219 Q1617.1219,196.9219 1616.9188,196.7188 Q1616.7156,196.5313 1616.6063,196.0156 Q1616.5594,195.6563 1616.3719,195.4688 Q1616.0438,195.0938 1615.4344,194.875 Q1614.825,194.6563 1614.2,194.6563 Q1613.4344,194.6563 1612.8016,194.9844 Q1612.1688,195.3125 1611.6766,196.0625 Q1611.1844,196.8125 1611.1844,197.8438 L1611.1844,198.9375 Q1611.1844,200.1719 1612.075,200.9922 Q1612.9656,201.8125 1614.5594,201.8125 Q1615.4969,201.8125 1616.1531,201.5625 Q1616.5438,201.4063 1616.9656,200.9688 Q1617.2313,200.7031 1617.3797,200.625 Q1617.5281,200.5469 1617.7313,200.5469 Q1618.0594,200.5469 1618.3172,200.8047 Q1618.575,201.0625 1618.575,201.4063 Q1618.575,201.75 1618.2313,202.1563 Q1617.7313,202.7344 1616.9344,203.0625 Q1615.8563,203.5156 1614.5594,203.5156 Q1613.0438,203.5156 1611.8406,202.8906 Q1610.8563,202.3906 1610.1688,201.3203 Q1609.4813,200.25 1609.4813,198.9688 L1609.4813,197.8125 Q1609.4813,196.4844 1610.0984,195.3359 Q1610.7156,194.1875 1611.8094,193.5703 Q1612.9031,192.9531 1614.1375,192.9531 Q1614.8719,192.9531 1615.5203,193.1172 Q1616.1688,193.2813 1616.7156,193.6406 Z " fill="#000000"/><text fill="#000000" font-family="sans-serif" font-size="12" font-style="italic" lengthAdjust="spacing" textLength="41" x="1669.45" y="185.0664">«CDC»</text><text fill="#000000" font-family="sans-serif" font-size="14" lengthAdjust="spacing" textLength="120" x="1627.95" y="202.2363">Захват изменений</text><text fill="#000000" font-family="sans-serif" font-size="14" lengthAdjust="spacing" textLength="59" x="1662.45" y="219.8457">в данных</text><line style="stroke:#181818;stroke-width:0.5;" x1="1599.95" x2="1753.95" y1="227.9219" y2="227.9219"/><line style="stroke:#181818;stroke-width:0.5;" x1="1599.95" x2="1753.95" y1="235.9219" y2="235.9219"/></g><!--MD5=[4edb8b6b5d6191087e5220b2d447ded8]
link Измнение монолита возможно to ФБ вышестоящий \n без зависимостей--><g id="link_Измнение монолита возможно_ФБ вышестоящий \n без зависимостей"><path codeLine="7" d="M433.46,100.1994 C420.32,121.1494 400.86,152.1694 386.56,174.9494 " fill="none" id="Измнение монолита возможно-ФБ вышестоящий \n без зависимостей" style="stroke:#181818;stroke-width:1.0;"/></g><!--MD5=[5d7c984a1b77a8709e36b344bd7e4a6d]
link ФБ вышестоящий \n без зависимостей to Паттерн Фикус-удавка--><g id="link_ФБ вышестоящий \n без зависимостей_Паттерн Фикус-удавка"><path codeLine="8" d="M364.04,236.2094 C361.26,257.1994 357.59,284.9694 355.02,304.3694 " fill="none" id="ФБ вышестоящий \n без зависимостей-Паттерн Фикус-удавка" style="stroke:#181818;stroke-width:1.0;"/></g><!--MD5=[3dfb64d772a9f657cec042e8939f963b]
link Паттерн Фикус-удавка to SyncAPI--><g id="link_Паттерн Фикус-удавка_SyncAPI"><path codeLine="11" d="M325.91,352.8294 C305.79,370.7694 278.05,395.4994 257.94,413.4394 " fill="none" id="Паттерн Фикус-удавка-SyncAPI" style="stroke:#181818;stroke-width:1.0;"/></g><!--MD5=[d66b361e23d7edca6f14b41e79ebcb08]
link SyncAPI to API Gateway--><g id="link_SyncAPI_API Gateway"><path codeLine="12" d="M189.81,443.3494 C135.3,450.4394 44.97,465.8194 24.95,491.6094 C6,516.0294 37.7,536.7794 70.63,550.6494 " fill="none" id="SyncAPI-API Gateway" style="stroke:#181818;stroke-width:1.0;"/><text fill="#000000" font-family="sans-serif" font-size="13" lengthAdjust="spacing" textLength="155" x="25.95" y="506.1045">Маршрутизация запросов</text></g><!--MD5=[d66b361e23d7edca6f14b41e79ebcb08]
link SyncAPI to API Gateway--><g id="link_SyncAPI_API Gateway"><path codeLine="13" d="M218.59,461.8194 C209.96,476.1094 198.11,494.5094 185.95,509.6094 C175.73,522.2994 163.16,535.2694 152.25,545.8594 " fill="none" id="SyncAPI-API Gateway-1" style="stroke:#181818;stroke-width:1.0;"/><text fill="#000000" font-family="sans-serif" font-size="13" lengthAdjust="spacing" textLength="166" x="199.95" y="506.1045">Трансформация протоколов</text></g><!--MD5=[2cf30ce27a2c3333d79aec813ecbbaa4]
link SyncAPI to Service Mesh--><g id="link_SyncAPI_Service Mesh"><path codeLine="15" d="M274.17,447.4794 C304.41,455.3594 344.94,469.1894 374.95,491.6094 C394.34,506.0894 410.27,528.7994 420.49,545.8994 " fill="none" id="SyncAPI-Service Mesh" style="stroke:#181818;stroke-width:1.0;"/><text fill="#000000" font-family="sans-serif" font-size="13" lengthAdjust="spacing" textLength="155" x="395.95" y="506.1045">Маршрутизация в Sidecar</text></g><!--MD5=[f61b9d8f272b2c823ce43e212b7a4cab]
link Паттерн Фикус-удавка to AsyncAPI--><g id="link_Паттерн Фикус-удавка_AsyncAPI"><path codeLine="18" d="M408.26,352.6994 C455.77,372.1694 522.91,399.6994 567.17,417.8394 " fill="none" id="Паттерн Фикус-удавка-AsyncAPI" style="stroke:#181818;stroke-width:1.0;"/></g><!--MD5=[acaf8638a776ee926ab32996e0905dd0]
link AsyncAPI to Маршрутизация на \n основе содержимого--><g id="link_AsyncAPI_Маршрутизация на \n основе содержимого"><path codeLine="19" d="M612.95,461.6394 C612.95,483.2994 612.95,515.8294 612.95,539.4294 " fill="none" id="AsyncAPI-Маршрутизация на \n основе содержимого" style="stroke:#181818;stroke-width:1.0;"/></g><!--MD5=[4430ca51f4da815ba31b026757d37142]
link AsyncAPI to Селективное \n потребление--><g id="link_AsyncAPI_Селективное \n потребление"><path codeLine="20" d="M645.25,461.6394 C675.62,483.2994 721.24,515.8294 754.33,539.4294 " fill="none" id="AsyncAPI-Селективное \n потребление" style="stroke:#181818;stroke-width:1.0;"/></g><!--MD5=[154d333139816574f21fb63f1680245e]
link Измнение монолита возможно to ФБ нижестоящий--><g id="link_Измнение монолита возможно_ФБ нижестоящий"><path codeLine="24" d="M467.87,100.1994 C487.68,123.1594 517.92,158.2094 537.81,181.2594 " fill="none" id="Измнение монолита возможно-ФБ нижестоящий" style="stroke:#181818;stroke-width:1.0;"/></g><!--MD5=[adfbd58202b2c26694b0d24eb9cda06c]
link ФБ нижестоящий to Ветвление по абстракции--><g id="link_ФБ нижестоящий_Ветвление по абстракции"><path codeLine="26" d="M561.95,229.6494 C565.66,251.0494 571.16,282.7394 574.9,304.2394 " fill="none" id="ФБ нижестоящий-Ветвление по абстракции" style="stroke:#181818;stroke-width:1.0;"/></g><!--MD5=[cc69e1f53c76665e521d6eb324ac5815]
link Тестирование \n новых сервисов to Параллельное выполнение--><g id="link_Тестирование \n новых сервисов_Параллельное выполнение"><path codeLine="33" d="M992,106.6794 C951.93,129.4894 897.31,160.5794 860.45,181.5594 " fill="none" id="Тестирование \n новых сервисов-Параллельное выполнение" style="stroke:#181818;stroke-width:1.0;"/></g><!--MD5=[43a9c6bc76e07740d44ceaf4138e33e6]
link Тестирование \n новых сервисов to Канареечный релиз--><g id="link_Тестирование \n новых сервисов_Канареечный релиз"><path codeLine="34" d="M1043.95,106.6794 C1043.95,127.5694 1043.95,155.4194 1043.95,176.0794 " fill="none" id="Тестирование \n новых сервисов-Канареечный релиз" style="stroke:#181818;stroke-width:1.0;"/></g><!--MD5=[4566301ccdb170140346887fc73e1758]
link Тестирование \n новых сервисов to Dark (скрытые) \n или А/В-развертывания--><g id="link_Тестирование \n новых сервисов_Dark (скрытые) \n или А/В-развертывания"><path codeLine="35" d="M1093.35,106.6794 C1123.59,124.7794 1162.53,148.0894 1194.84,167.4294 " fill="none" id="Тестирование \n новых сервисов-Dark (скрытые) \n или А/В-развертывания" style="stroke:#181818;stroke-width:1.0;"/></g><!--MD5=[458576fa8befe670be3a2bb977e6d3fb]
link Параллельное выполнение to Методы верификации--><g id="link_Параллельное выполнение_Методы верификации"><path codeLine="37" d="M819.95,229.6494 C819.95,251.0494 819.95,282.7394 819.95,304.2394 " fill="none" id="Параллельное выполнение-Методы верификации" style="stroke:#181818;stroke-width:1.0;"/></g><!--MD5=[6d902d00e21b7000e9f1879b97b74ef7]
link Методы верификации to Шпионы--><g id="link_Методы верификации_Шпионы"><path codeLine="38" d="M819.95,352.8294 C819.95,370.7694 819.95,395.4994 819.95,413.4394 " fill="none" id="Методы верификации-Шпионы" style="stroke:#181818;stroke-width:1.0;"/></g><!--MD5=[1f1726014f88adb2e1e3c40bb18aba07]
link Измнение монолита \n НЕ возможно to Сотрудник декоратор--><g id="link_Измнение монолита \n НЕ возможно_Сотрудник декоратор"><path codeLine="41" d="M1553.53,106.6794 C1535.46,129.4894 1510.83,160.5794 1494.21,181.5594 " fill="none" id="Измнение монолита \n НЕ возможно-Сотрудник декоратор" style="stroke:#181818;stroke-width:1.0;"/></g><!--MD5=[8ed1a1be5b25a56dc87cbc961b4dadbe]
link Измнение монолита \n НЕ возможно to Захват изменений \n в данных--><g id="link_Измнение монолита \n НЕ возможно_Захват изменений \n в данных"><path codeLine="43" d="M1600.14,106.6794 C1614.34,124.7794 1632.62,148.0894 1647.79,167.4294 " fill="none" id="Измнение монолита \n НЕ возможно-Захват изменений \n в данных" style="stroke:#181818;stroke-width:1.0;"/></g><!--MD5=[a3919c876e1b2eb465379c4bbc05fb7d]
@startuml (@id=code)

title Паттерны распила монолита: Код

class "Измнение монолита возможно"
class "Паттерн Фикус-удавка"
class "ФБ вышестоящий \n без зависимостей"
"Измнение монолита возможно" - - "ФБ вышестоящий \n без зависимостей"
"ФБ вышестоящий \n без зависимостей" - - "Паттерн Фикус-удавка" 
class "API Gateway"
class SyncAPI 
"Паттерн Фикус-удавка" - - SyncAPI 
SyncAPI - - "API Gateway" : Маршрутизация запросов
SyncAPI - - "API Gateway" : Трансформация протоколов
class "Service Mesh" 
SyncAPI - - "Service Mesh" : Маршрутизация в Sidecar 

class AsyncAPI
"Паттерн Фикус-удавка" - - AsyncAPI 
AsyncAPI - - "Маршрутизация на \n основе содержимого"
AsyncAPI - - "Селективное \n потребление"


class "ФБ нижестоящий"
"Измнение монолита возможно" - - "ФБ нижестоящий"
class "Ветвление по абстракции"
"ФБ нижестоящий" - - "Ветвление по абстракции" 


class "Тестирование \n новых сервисов"
class "Параллельное выполнение"
class "Канареечный релиз" <<canary release>>
class "Dark (скрытые) \n или А/В-развертывания" <<dark launching>>
"Тестирование \n новых сервисов" - - "Параллельное выполнение"
"Тестирование \n новых сервисов" - - "Канареечный релиз"
"Тестирование \n новых сервисов" - - "Dark (скрытые) \n или А/В-развертывания"

"Параллельное выполнение" - - "Методы верификации"
"Методы верификации" - - "Шпионы"

class "Измнение монолита \n НЕ возможно"
"Измнение монолита \n НЕ возможно" - - "Сотрудник декоратор"
class "Захват изменений \n в данных" <<CDC>>
"Измнение монолита \n НЕ возможно" - - "Захват изменений \n в данных"

@enduml

PlantUML version 1.2022.7(Mon Aug 22 21:01:30 GMT+04:00 2022)
(GPL source distribution)
Java Runtime: Java(TM) SE Runtime Environment
JVM: Java HotSpot(TM) 64-Bit Server VM
Default Encoding: Cp1251
Language: ru
Country: RU
--></g></svg>