<?xml version="1.0" encoding="us-ascii" standalone="no"?><svg xmlns="http://www.w3.org/2000/svg" xmlns:xlink="http://www.w3.org/1999/xlink" contentStyleType="text/css" height="615px" preserveAspectRatio="none" style="width:709px;height:615px;background:#FFFFFF;" version="1.1" viewBox="0 0 709 615" width="709px" zoomAndPan="magnify"><defs/><g><rect fill="#F1F1F1" height="37.6094" rx="12.5" ry="12.5" style="stroke:#181818;stroke-width:1.5;" width="42" x="344" y="288.0469"/><text fill="#000000" font-family="sans-serif" font-size="14" lengthAdjust="spacing" textLength="22" x="354" y="312.5801">k8s</text><rect fill="#F1F1F1" height="37.6094" rx="12.5" ry="12.5" style="stroke:#181818;stroke-width:1.5;" width="132" x="436" y="20"/><text fill="#000000" font-family="sans-serif" font-size="14" lengthAdjust="spacing" textLength="112" x="446" y="44.5332">Deployment CICD</text><path d="M386,306.8516 L396,306.8516 C411,306.8516 411,38.8047 426,38.8047 L436,38.8047 " fill="none" style="stroke:#181818;stroke-width:1.0;"/><rect fill="#F1F1F1" height="37.6094" rx="12.5" ry="12.5" style="stroke:#181818;stroke-width:1.5;" width="67" x="436" y="135.2188"/><text fill="#000000" font-family="sans-serif" font-size="14" lengthAdjust="spacing" textLength="47" x="446" y="159.752">Volume</text><rect fill="#F1F1F1" height="37.6094" rx="12.5" ry="12.5" style="stroke:#181818;stroke-width:1.5;" width="46" x="553" y="77.6094"/><text fill="#000000" font-family="sans-serif" font-size="14" lengthAdjust="spacing" textLength="26" x="563" y="102.1426">Size</text><path d="M503,154.0234 L513,154.0234 C528,154.0234 528,96.4141 543,96.4141 L553,96.4141 " fill="none" style="stroke:#181818;stroke-width:1.0;"/><rect fill="#F1F1F1" height="37.6094" rx="12.5" ry="12.5" style="stroke:#181818;stroke-width:1.5;" width="101" x="553" y="135.2188"/><text fill="#000000" font-family="sans-serif" font-size="14" lengthAdjust="spacing" textLength="81" x="563" y="159.752">Access Type</text><path d="M503,154.0234 L513,154.0234 C528,154.0234 528,154.0234 543,154.0234 L553,154.0234 " fill="none" style="stroke:#181818;stroke-width:1.0;"/><rect fill="#F1F1F1" height="37.6094" rx="12.5" ry="12.5" style="stroke:#181818;stroke-width:1.5;" width="109" x="553" y="192.8281"/><text fill="#000000" font-family="sans-serif" font-size="14" lengthAdjust="spacing" textLength="89" x="563" y="217.3613">Storage Class</text><path d="M503,154.0234 L513,154.0234 C528,154.0234 528,211.6328 543,211.6328 L553,211.6328 " fill="none" style="stroke:#181818;stroke-width:1.0;"/><path d="M386,306.8516 L396,306.8516 C411,306.8516 411,154.0234 426,154.0234 L436,154.0234 " fill="none" style="stroke:#181818;stroke-width:1.0;"/><rect fill="#F1F1F1" height="37.6094" rx="12.5" ry="12.5" style="stroke:#181818;stroke-width:1.5;" width="124" x="436" y="250.4375"/><text fill="#000000" font-family="sans-serif" font-size="14" lengthAdjust="spacing" textLength="104" x="446" y="274.9707">YAML &#1086;&#1087;&#1080;&#1089;&#1072;&#1085;&#1080;&#1077;</text><path d="M386,306.8516 L396,306.8516 C411,306.8516 411,269.2422 426,269.2422 L436,269.2422 " fill="none" style="stroke:#181818;stroke-width:1.0;"/><rect fill="#F1F1F1" height="55.2188" rx="12.5" ry="12.5" style="stroke:#181818;stroke-width:1.5;" width="198" x="436" y="308.0469"/><text fill="#000000" font-family="sans-serif" font-size="14" lengthAdjust="spacing" textLength="68" x="446" y="332.5801">ReplicaSet</text><text fill="#000000" font-family="sans-serif" font-size="14" lengthAdjust="spacing" textLength="174" x="450" y="350.1895">&#1084;&#1072;&#1089;&#1096;&#1090;&#1072;&#1073;&#1080;&#1088;&#1086;&#1074;&#1072;&#1085;&#1080;&#1077; &#1075;&#1086;&#1088;&#1080;&#1079;-&#1077;</text><path d="M386,306.8516 L396,306.8516 C411,306.8516 411,335.6563 426,335.6563 L436,335.6563 " fill="none" style="stroke:#181818;stroke-width:1.0;"/><rect fill="#F1F1F1" height="37.6094" rx="12.5" ry="12.5" style="stroke:#181818;stroke-width:1.5;" width="45" x="436" y="440.875"/><text fill="#000000" font-family="sans-serif" font-size="14" lengthAdjust="spacing" textLength="25" x="446" y="465.4082">Pod</text><rect fill="#F1F1F1" height="37.6094" rx="12.5" ry="12.5" style="stroke:#181818;stroke-width:1.5;" width="166" x="531" y="383.2656"/><text fill="#000000" font-family="sans-serif" font-size="14" lengthAdjust="spacing" textLength="146" x="541" y="407.7988">&#1086;&#1076;&#1080;&#1085; IP, &#1086;&#1076;&#1085;&#1072; &#1087;&#1086;&#1076;&#1089;&#1077;&#1090;&#1100;</text><path d="M481,459.6797 L491,459.6797 C506,459.6797 506,402.0703 521,402.0703 L531,402.0703 " fill="none" style="stroke:#181818;stroke-width:1.0;"/><rect fill="#F1F1F1" height="37.6094" rx="12.5" ry="12.5" style="stroke:#181818;stroke-width:1.5;" width="91" x="531" y="440.875"/><text fill="#000000" font-family="sans-serif" font-size="14" lengthAdjust="spacing" textLength="71" x="541" y="465.4082">&#1050;&#1086;&#1085;&#1090;&#1077;&#1081;&#1085;&#1077;&#1088;</text><path d="M481,459.6797 L491,459.6797 C506,459.6797 506,459.6797 521,459.6797 L531,459.6797 " fill="none" style="stroke:#181818;stroke-width:1.0;"/><rect fill="#F1F1F1" height="37.6094" rx="12.5" ry="12.5" style="stroke:#181818;stroke-width:1.5;" width="55" x="531" y="498.4844"/><text fill="#000000" font-family="sans-serif" font-size="14" lengthAdjust="spacing" textLength="35" x="541" y="523.0176">Label</text><path d="M481,459.6797 L491,459.6797 C506,459.6797 506,517.2891 521,517.2891 L531,517.2891 " fill="none" style="stroke:#181818;stroke-width:1.0;"/><path d="M386,306.8516 L396,306.8516 C411,306.8516 411,459.6797 426,459.6797 L436,459.6797 " fill="none" style="stroke:#181818;stroke-width:1.0;"/><rect fill="#F1F1F1" height="37.6094" rx="12.5" ry="12.5" style="stroke:#181818;stroke-width:1.5;" width="112" x="436" y="556.0938"/><text fill="#000000" font-family="sans-serif" font-size="14" lengthAdjust="spacing" textLength="92" x="446" y="580.627">Load Balancer</text><path d="M386,306.8516 L396,306.8516 C411,306.8516 411,574.8984 426,574.8984 L436,574.8984 " fill="none" style="stroke:#181818;stroke-width:1.0;"/><rect fill="#F1F1F1" height="37.6094" rx="12.5" ry="12.5" style="stroke:#181818;stroke-width:1.5;" width="67" x="227" y="144.0234"/><text fill="#000000" font-family="sans-serif" font-size="14" lengthAdjust="spacing" textLength="47" x="237" y="168.5566">Service</text><rect fill="#F1F1F1" height="37.6094" rx="12.5" ry="12.5" style="stroke:#181818;stroke-width:1.5;" width="52" x="125" y="115.2188"/><text fill="#000000" font-family="sans-serif" font-size="14" lengthAdjust="spacing" textLength="32" x="135" y="139.752">Pods</text><path d="M227,162.8281 L217,162.8281 C202,162.8281 202,134.0234 187,134.0234 L177,134.0234 " fill="none" style="stroke:#181818;stroke-width:1.0;"/><rect fill="#F1F1F1" height="37.6094" rx="12.5" ry="12.5" style="stroke:#181818;stroke-width:1.5;" width="48" x="129" y="172.8281"/><text fill="#000000" font-family="sans-serif" font-size="14" lengthAdjust="spacing" textLength="28" x="139" y="197.3613">DNS</text><path d="M227,162.8281 L217,162.8281 C202,162.8281 202,191.6328 187,191.6328 L177,191.6328 " fill="none" style="stroke:#181818;stroke-width:1.0;"/><path d="M344,306.8516 L334,306.8516 C319,306.8516 319,162.8281 304,162.8281 L294,162.8281 " fill="none" style="stroke:#181818;stroke-width:1.0;"/><rect fill="#F1F1F1" height="37.6094" rx="12.5" ry="12.5" style="stroke:#181818;stroke-width:1.5;" width="65" x="229" y="259.2422"/><text fill="#000000" font-family="sans-serif" font-size="14" lengthAdjust="spacing" textLength="45" x="239" y="283.7754">Cluster</text><rect fill="#F1F1F1" height="37.6094" rx="12.5" ry="12.5" style="stroke:#181818;stroke-width:1.5;" width="53" x="126" y="259.2422"/><text fill="#000000" font-family="sans-serif" font-size="14" lengthAdjust="spacing" textLength="33" x="136" y="283.7754">Node</text><rect fill="#F1F1F1" height="37.6094" rx="12.5" ry="12.5" style="stroke:#181818;stroke-width:1.5;" width="66" x="10" y="230.4375"/><text fill="#000000" font-family="sans-serif" font-size="14" lengthAdjust="spacing" textLength="46" x="20" y="254.9707">Worker</text><path d="M126,278.0469 L116,278.0469 C101,278.0469 101,249.2422 86,249.2422 L76,249.2422 " fill="none" style="stroke:#181818;stroke-width:1.0;"/><rect fill="#F1F1F1" height="37.6094" rx="12.5" ry="12.5" style="stroke:#181818;stroke-width:1.5;" width="63" x="13" y="288.0469"/><text fill="#000000" font-family="sans-serif" font-size="14" lengthAdjust="spacing" textLength="43" x="23" y="312.5801">Master</text><path d="M126,278.0469 L116,278.0469 C101,278.0469 101,306.8516 86,306.8516 L76,306.8516 " fill="none" style="stroke:#181818;stroke-width:1.0;"/><path d="M229,278.0469 L219,278.0469 C204,278.0469 204,278.0469 189,278.0469 L179,278.0469 " fill="none" style="stroke:#181818;stroke-width:1.0;"/><path d="M344,306.8516 L334,306.8516 C319,306.8516 319,278.0469 304,278.0469 L294,278.0469 " fill="none" style="stroke:#181818;stroke-width:1.0;"/><rect fill="#F1F1F1" height="37.6094" rx="12.5" ry="12.5" style="stroke:#181818;stroke-width:1.5;" width="42" x="252" y="374.4609"/><text fill="#000000" font-family="sans-serif" font-size="14" lengthAdjust="spacing" textLength="22" x="262" y="398.9941">Job</text><rect fill="#F1F1F1" height="37.6094" rx="12.5" ry="12.5" style="stroke:#181818;stroke-width:1.5;" width="73" x="129" y="345.6563"/><text fill="#000000" font-family="sans-serif" font-size="14" lengthAdjust="spacing" textLength="53" x="139" y="370.1895">CronJob</text><path d="M252,393.2656 L242,393.2656 C227,393.2656 227,364.4609 212,364.4609 L202,364.4609 " fill="none" style="stroke:#181818;stroke-width:1.0;"/><rect fill="#F1F1F1" height="37.6094" rx="12.5" ry="12.5" style="stroke:#181818;stroke-width:1.5;" width="114" x="88" y="403.2656"/><text fill="#000000" font-family="sans-serif" font-size="14" lengthAdjust="spacing" textLength="94" x="98" y="427.7988">Migrations Pod</text><path d="M252,393.2656 L242,393.2656 C227,393.2656 227,422.0703 212,422.0703 L202,422.0703 " fill="none" style="stroke:#181818;stroke-width:1.0;"/><path d="M344,306.8516 L334,306.8516 C319,306.8516 319,393.2656 304,393.2656 L294,393.2656 " fill="none" style="stroke:#181818;stroke-width:1.0;"/><rect fill="#F1F1F1" height="37.6094" rx="12.5" ry="12.5" style="stroke:#181818;stroke-width:1.5;" width="130" x="164" y="460.875"/><text fill="#000000" font-family="sans-serif" font-size="14" lengthAdjust="spacing" textLength="110" x="174" y="485.4082">Namespace Tags</text><path d="M344,306.8516 L334,306.8516 C319,306.8516 319,479.6797 304,479.6797 L294,479.6797 " fill="none" style="stroke:#181818;stroke-width:1.0;"/><!--SRC=[xPBDRjD04CVl-nHp8p5jvQG9GfQGsZgbDBAZA4w3aBXixAsxgksrTjUHqbFR4mUUWAT8WOWWaV8AwpTYR2TtZXmuxSn_VlEnEtkYD9KwvLcKqXnQF7fp-rgrYGLu4Ck20SiJiKnPfi6zT0ULD1D9aJAqB0ZuNMESXY5J2gRBV1VGGjAOWPjGLTVvSEfxO9xDRxCf7ypARCt6hAl011lma0PCmySCp2-pAX_AJ-KZCa_8tcFErpqFvfjvHcbZVXmssMCHrVsG-exo5Yx71uspDIl0RcXYltNvM7vkm2yeRR7ysln4PbtUrx97voof2dg2Hd164vg5J1AIi6iDYaUCl039uvkTKv41amiUDjV5CLHj34P15NEJGcdChwIHY6h8WlT2tZQY1JxT0J0KyvfpfSZsjizZIJKNcThT44OqPIgd8OCfZHKX9mmtrcmDdVzB_Bib_cDx6-E4-WhVTC6amYpe77NjRk_ek3MzAU0jcqEd3zrZfsSxTXyk_EbBk-VODbHGcxGknjwY2qeK4ij7N6d9vqNLlKs6T45XKcIQfyo1ocjD_JO4vtiHphC5nychJq66Cx-1u9tGGIvq3R_g7PvnNRyNap3poO1TqoBHc1gAY6Un0sxUwVOxnADPNE1FSK0Mn1NOGIuTc5pz0G00]--></g></svg>