<?xml version="1.0" encoding="us-ascii" standalone="no"?><svg xmlns="http://www.w3.org/2000/svg" xmlns:xlink="http://www.w3.org/1999/xlink" contentStyleType="text/css" height="933px" preserveAspectRatio="none" style="width:2059px;height:933px;background:#FFFFFF;" version="1.1" viewBox="0 0 2059 933" width="2059px" zoomAndPan="magnify"><defs/><g><!--cluster Apache--><g id="cluster_Apache"><path d="M616.5,734 L669.5,734 A3.75,3.75 0 0 1 672,736.5 L679,757.6094 L819.5,757.6094 A2.5,2.5 0 0 1 822,760.1094 L822,831.5 A2.5,2.5 0 0 1 819.5,834 L616.5,834 A2.5,2.5 0 0 1 614,831.5 L614,736.5 A2.5,2.5 0 0 1 616.5,734 " fill="none" style="stroke:#000000;stroke-width:1.5;"/><line style="stroke:#000000;stroke-width:1.5;" x1="614" x2="679" y1="757.6094" y2="757.6094"/><text fill="#000000" font-family="sans-serif" font-size="14" font-weight="bold" lengthAdjust="spacing" textLength="52" x="618" y="750.5332">Apache</text></g><!--class Hive--><g id="elem_Hive"><rect fill="#F1F1F1" height="48" id="Hive" rx="2.5" ry="2.5" style="stroke:#181818;stroke-width:0.5;" width="59" x="746.5" y="770"/><ellipse cx="761.5" cy="786" fill="#ADD1B2" rx="11" ry="11" style="stroke:#181818;stroke-width:1.0;"/><path d="M764.2656,781.875 Q764.4219,781.6563 764.6094,781.5469 Q764.7969,781.4375 765.0156,781.4375 Q765.3906,781.4375 765.625,781.6953 Q765.8594,781.9531 765.8594,782.5625 L765.8594,784.0156 Q765.8594,784.625 765.625,784.8906 Q765.3906,785.1563 765.0156,785.1563 Q764.6719,785.1563 764.4688,784.9531 Q764.2656,784.7656 764.1563,784.25 Q764.1094,783.8906 763.9219,783.7031 Q763.5938,783.3281 762.9844,783.1094 Q762.375,782.8906 761.75,782.8906 Q760.9844,782.8906 760.3516,783.2188 Q759.7188,783.5469 759.2266,784.2969 Q758.7344,785.0469 758.7344,786.0781 L758.7344,787.1719 Q758.7344,788.4063 759.625,789.2266 Q760.5156,790.0469 762.1094,790.0469 Q763.0469,790.0469 763.7031,789.7969 Q764.0938,789.6406 764.5156,789.2031 Q764.7813,788.9375 764.9297,788.8594 Q765.0781,788.7813 765.2813,788.7813 Q765.6094,788.7813 765.8672,789.0391 Q766.125,789.2969 766.125,789.6406 Q766.125,789.9844 765.7813,790.3906 Q765.2813,790.9688 764.4844,791.2969 Q763.4063,791.75 762.1094,791.75 Q760.5938,791.75 759.3906,791.125 Q758.4063,790.625 757.7188,789.5547 Q757.0313,788.4844 757.0313,787.2031 L757.0313,786.0469 Q757.0313,784.7188 757.6484,783.5703 Q758.2656,782.4219 759.3594,781.8047 Q760.4531,781.1875 761.6875,781.1875 Q762.4219,781.1875 763.0703,781.3516 Q763.7188,781.5156 764.2656,781.875 Z " fill="#000000"/><text fill="#000000" font-family="sans-serif" font-size="14" lengthAdjust="spacing" textLength="27" x="775.5" y="791.7285">Hive</text><line style="stroke:#181818;stroke-width:0.5;" x1="747.5" x2="804.5" y1="802" y2="802"/><line style="stroke:#181818;stroke-width:0.5;" x1="747.5" x2="804.5" y1="810" y2="810"/></g><!--class Hadoop--><g id="elem_Hadoop"><rect fill="#F1F1F1" height="48" id="Hadoop" rx="2.5" ry="2.5" style="stroke:#181818;stroke-width:0.5;" width="81" x="630.5" y="770"/><ellipse cx="645.5" cy="786" fill="#ADD1B2" rx="11" ry="11" style="stroke:#181818;stroke-width:1.0;"/><path d="M648.2656,781.875 Q648.4219,781.6563 648.6094,781.5469 Q648.7969,781.4375 649.0156,781.4375 Q649.3906,781.4375 649.625,781.6953 Q649.8594,781.9531 649.8594,782.5625 L649.8594,784.0156 Q649.8594,784.625 649.625,784.8906 Q649.3906,785.1563 649.0156,785.1563 Q648.6719,785.1563 648.4688,784.9531 Q648.2656,784.7656 648.1563,784.25 Q648.1094,783.8906 647.9219,783.7031 Q647.5938,783.3281 646.9844,783.1094 Q646.375,782.8906 645.75,782.8906 Q644.9844,782.8906 644.3516,783.2188 Q643.7188,783.5469 643.2266,784.2969 Q642.7344,785.0469 642.7344,786.0781 L642.7344,787.1719 Q642.7344,788.4063 643.625,789.2266 Q644.5156,790.0469 646.1094,790.0469 Q647.0469,790.0469 647.7031,789.7969 Q648.0938,789.6406 648.5156,789.2031 Q648.7813,788.9375 648.9297,788.8594 Q649.0781,788.7813 649.2813,788.7813 Q649.6094,788.7813 649.8672,789.0391 Q650.125,789.2969 650.125,789.6406 Q650.125,789.9844 649.7813,790.3906 Q649.2813,790.9688 648.4844,791.2969 Q647.4063,791.75 646.1094,791.75 Q644.5938,791.75 643.3906,791.125 Q642.4063,790.625 641.7188,789.5547 Q641.0313,788.4844 641.0313,787.2031 L641.0313,786.0469 Q641.0313,784.7188 641.6484,783.5703 Q642.2656,782.4219 643.3594,781.8047 Q644.4531,781.1875 645.6875,781.1875 Q646.4219,781.1875 647.0703,781.3516 Q647.7188,781.5156 648.2656,781.875 Z " fill="#000000"/><text fill="#000000" font-family="sans-serif" font-size="14" lengthAdjust="spacing" textLength="49" x="659.5" y="791.7285">Hadoop</text><line style="stroke:#181818;stroke-width:0.5;" x1="631.5" x2="710.5" y1="802" y2="802"/><line style="stroke:#181818;stroke-width:0.5;" x1="631.5" x2="710.5" y1="810" y2="810"/></g><!--class BD--><g id="elem_BD"><rect codeLine="2" fill="#F1F1F1" height="48" id="BD" rx="2.5" ry="2.5" style="stroke:#181818;stroke-width:0.5;" width="82" x="1125" y="7"/><ellipse cx="1140" cy="23" fill="#ADD1B2" rx="11" ry="11" style="stroke:#181818;stroke-width:1.0;"/><path d="M1142.7656,18.875 Q1142.9219,18.6563 1143.1094,18.5469 Q1143.2969,18.4375 1143.5156,18.4375 Q1143.8906,18.4375 1144.125,18.6953 Q1144.3594,18.9531 1144.3594,19.5625 L1144.3594,21.0156 Q1144.3594,21.625 1144.125,21.8906 Q1143.8906,22.1563 1143.5156,22.1563 Q1143.1719,22.1563 1142.9688,21.9531 Q1142.7656,21.7656 1142.6563,21.25 Q1142.6094,20.8906 1142.4219,20.7031 Q1142.0938,20.3281 1141.4844,20.1094 Q1140.875,19.8906 1140.25,19.8906 Q1139.4844,19.8906 1138.8516,20.2188 Q1138.2188,20.5469 1137.7266,21.2969 Q1137.2344,22.0469 1137.2344,23.0781 L1137.2344,24.1719 Q1137.2344,25.4063 1138.125,26.2266 Q1139.0156,27.0469 1140.6094,27.0469 Q1141.5469,27.0469 1142.2031,26.7969 Q1142.5938,26.6406 1143.0156,26.2031 Q1143.2813,25.9375 1143.4297,25.8594 Q1143.5781,25.7813 1143.7813,25.7813 Q1144.1094,25.7813 1144.3672,26.0391 Q1144.625,26.2969 1144.625,26.6406 Q1144.625,26.9844 1144.2813,27.3906 Q1143.7813,27.9688 1142.9844,28.2969 Q1141.9063,28.75 1140.6094,28.75 Q1139.0938,28.75 1137.8906,28.125 Q1136.9063,27.625 1136.2188,26.5547 Q1135.5313,25.4844 1135.5313,24.2031 L1135.5313,23.0469 Q1135.5313,21.7188 1136.1484,20.5703 Q1136.7656,19.4219 1137.8594,18.8047 Q1138.9531,18.1875 1140.1875,18.1875 Q1140.9219,18.1875 1141.5703,18.3516 Q1142.2188,18.5156 1142.7656,18.875 Z " fill="#000000"/><text fill="#000000" font-family="sans-serif" font-size="14" lengthAdjust="spacing" textLength="50" x="1154" y="28.7285">BigData</text><line style="stroke:#181818;stroke-width:0.5;" x1="1126" x2="1206" y1="39" y2="39"/><line style="stroke:#181818;stroke-width:0.5;" x1="1126" x2="1206" y1="47" y2="47"/></g><!--class ????????????????????--><g id="elem_&#1061;&#1072;&#1088;&#1072;&#1082;&#1090;&#1077;&#1088;&#1080;&#1089;&#1090;&#1080;&#1082;&#1080;&#1044;&#1072;&#1085;&#1085;&#1099;&#1093;"><rect fill="#F1F1F1" height="48" id="&#1061;&#1072;&#1088;&#1072;&#1082;&#1090;&#1077;&#1088;&#1080;&#1089;&#1090;&#1080;&#1082;&#1080;&#1044;&#1072;&#1085;&#1085;&#1099;&#1093;" rx="2.5" ry="2.5" style="stroke:#181818;stroke-width:0.5;" width="186" x="1690" y="137"/><ellipse cx="1705" cy="153" fill="#ADD1B2" rx="11" ry="11" style="stroke:#181818;stroke-width:1.0;"/><path d="M1707.7656,148.875 Q1707.9219,148.6563 1708.1094,148.5469 Q1708.2969,148.4375 1708.5156,148.4375 Q1708.8906,148.4375 1709.125,148.6953 Q1709.3594,148.9531 1709.3594,149.5625 L1709.3594,151.0156 Q1709.3594,151.625 1709.125,151.8906 Q1708.8906,152.1563 1708.5156,152.1563 Q1708.1719,152.1563 1707.9688,151.9531 Q1707.7656,151.7656 1707.6563,151.25 Q1707.6094,150.8906 1707.4219,150.7031 Q1707.0938,150.3281 1706.4844,150.1094 Q1705.875,149.8906 1705.25,149.8906 Q1704.4844,149.8906 1703.8516,150.2188 Q1703.2188,150.5469 1702.7266,151.2969 Q1702.2344,152.0469 1702.2344,153.0781 L1702.2344,154.1719 Q1702.2344,155.4063 1703.125,156.2266 Q1704.0156,157.0469 1705.6094,157.0469 Q1706.5469,157.0469 1707.2031,156.7969 Q1707.5938,156.6406 1708.0156,156.2031 Q1708.2813,155.9375 1708.4297,155.8594 Q1708.5781,155.7813 1708.7813,155.7813 Q1709.1094,155.7813 1709.3672,156.0391 Q1709.625,156.2969 1709.625,156.6406 Q1709.625,156.9844 1709.2813,157.3906 Q1708.7813,157.9688 1707.9844,158.2969 Q1706.9063,158.75 1705.6094,158.75 Q1704.0938,158.75 1702.8906,158.125 Q1701.9063,157.625 1701.2188,156.5547 Q1700.5313,155.4844 1700.5313,154.2031 L1700.5313,153.0469 Q1700.5313,151.7188 1701.1484,150.5703 Q1701.7656,149.4219 1702.8594,148.8047 Q1703.9531,148.1875 1705.1875,148.1875 Q1705.9219,148.1875 1706.5703,148.3516 Q1707.2188,148.5156 1707.7656,148.875 Z " fill="#000000"/><text fill="#000000" font-family="sans-serif" font-size="14" lengthAdjust="spacing" textLength="154" x="1719" y="158.7285">&#1061;&#1072;&#1088;&#1072;&#1082;&#1090;&#1077;&#1088;&#1080;&#1089;&#1090;&#1080;&#1082;&#1080;&#1044;&#1072;&#1085;&#1085;&#1099;&#1093;</text><line style="stroke:#181818;stroke-width:0.5;" x1="1691" x2="1875" y1="169" y2="169"/><line style="stroke:#181818;stroke-width:0.5;" x1="1691" x2="1875" y1="177" y2="177"/></g><!--class ?????V--><g id="elem_&#1064;&#1077;&#1089;&#1090;&#1100;V"><rect fill="#F1F1F1" height="48" id="&#1064;&#1077;&#1089;&#1090;&#1100;V" rx="2.5" ry="2.5" style="stroke:#181818;stroke-width:0.5;" width="84" x="1759" y="297"/><ellipse cx="1774" cy="313" fill="#ADD1B2" rx="11" ry="11" style="stroke:#181818;stroke-width:1.0;"/><path d="M1776.7656,308.875 Q1776.9219,308.6563 1777.1094,308.5469 Q1777.2969,308.4375 1777.5156,308.4375 Q1777.8906,308.4375 1778.125,308.6953 Q1778.3594,308.9531 1778.3594,309.5625 L1778.3594,311.0156 Q1778.3594,311.625 1778.125,311.8906 Q1777.8906,312.1563 1777.5156,312.1563 Q1777.1719,312.1563 1776.9688,311.9531 Q1776.7656,311.7656 1776.6563,311.25 Q1776.6094,310.8906 1776.4219,310.7031 Q1776.0938,310.3281 1775.4844,310.1094 Q1774.875,309.8906 1774.25,309.8906 Q1773.4844,309.8906 1772.8516,310.2188 Q1772.2188,310.5469 1771.7266,311.2969 Q1771.2344,312.0469 1771.2344,313.0781 L1771.2344,314.1719 Q1771.2344,315.4063 1772.125,316.2266 Q1773.0156,317.0469 1774.6094,317.0469 Q1775.5469,317.0469 1776.2031,316.7969 Q1776.5938,316.6406 1777.0156,316.2031 Q1777.2813,315.9375 1777.4297,315.8594 Q1777.5781,315.7813 1777.7813,315.7813 Q1778.1094,315.7813 1778.3672,316.0391 Q1778.625,316.2969 1778.625,316.6406 Q1778.625,316.9844 1778.2813,317.3906 Q1777.7813,317.9688 1776.9844,318.2969 Q1775.9063,318.75 1774.6094,318.75 Q1773.0938,318.75 1771.8906,318.125 Q1770.9063,317.625 1770.2188,316.5547 Q1769.5313,315.4844 1769.5313,314.2031 L1769.5313,313.0469 Q1769.5313,311.7188 1770.1484,310.5703 Q1770.7656,309.4219 1771.8594,308.8047 Q1772.9531,308.1875 1774.1875,308.1875 Q1774.9219,308.1875 1775.5703,308.3516 Q1776.2188,308.5156 1776.7656,308.875 Z " fill="#000000"/><text fill="#000000" font-family="sans-serif" font-size="14" lengthAdjust="spacing" textLength="52" x="1788" y="318.7285">&#1064;&#1077;&#1089;&#1090;&#1100;V</text><line style="stroke:#181818;stroke-width:0.5;" x1="1760" x2="1842" y1="329" y2="329"/><line style="stroke:#181818;stroke-width:0.5;" x1="1760" x2="1842" y1="337" y2="337"/></g><g id="elem_GMN7"><path d="M1878,267 L1878,317 L1843.28,321 L1878,325 L1878,375.1094 A0,0 0 0 0 1878,375.1094 L2052,375.1094 A0,0 0 0 0 2052,375.1094 L2052,277 L2042,267 L1878,267 A0,0 0 0 0 1878,267 " fill="#FEFFDD" style="stroke:#181818;stroke-width:0.5;"/><path d="M2042,267 L2042,277 L2052,277 L2042,267 " fill="#FEFFDD" style="stroke:#181818;stroke-width:0.5;"/><text fill="#000000" font-family="sans-serif" font-size="13" lengthAdjust="spacing" textLength="144" x="1884" y="285.4951">Volume &#1086;&#1073;&#1098;&#1077;&#1084; &gt;150gb\d</text><text fill="#000000" font-family="sans-serif" font-size="13" lengthAdjust="spacing" textLength="104" x="1884" y="301.8467">Velocity &#1089;&#1082;&#1086;&#1088;&#1086;&#1089;&#1090;&#1100;</text><text fill="#000000" font-family="sans-serif" font-size="13" lengthAdjust="spacing" textLength="127" x="1884" y="318.1982">Variety &#1088;&#1072;&#1079;&#1085;&#1086;&#1086;&#1073;&#1088;&#1072;&#1079;&#1080;&#1077;</text><text fill="#000000" font-family="sans-serif" font-size="13" lengthAdjust="spacing" textLength="140" x="1884" y="334.5498">Veracity &#1076;&#1086;&#1089;&#1090;&#1086;&#1074;&#1077;&#1088;&#1085;&#1086;&#1089;&#1090;&#1100;</text><text fill="#000000" font-family="sans-serif" font-size="13" lengthAdjust="spacing" textLength="153" x="1884" y="350.9014">Variability &#1080;&#1079;&#1084;&#1077;&#1085;&#1095;&#1080;&#1084;&#1086;&#1074;&#1089;&#1090;&#1100;</text><text fill="#000000" font-family="sans-serif" font-size="13" lengthAdjust="spacing" textLength="91" x="1884" y="367.2529">Value &#1094;&#1077;&#1085;&#1085;&#1086;&#1089;&#1090;&#1100;</text></g><!--class ????--><g id="elem_&#1057;&#1073;&#1086;&#1088;"><rect codeLine="15" fill="#F1F1F1" height="48" id="&#1057;&#1073;&#1086;&#1088;" rx="2.5" ry="2.5" style="stroke:#181818;stroke-width:0.5;" width="78" x="1404" y="137"/><ellipse cx="1419" cy="153" fill="#ADD1B2" rx="11" ry="11" style="stroke:#181818;stroke-width:1.0;"/><path d="M1421.7656,148.875 Q1421.9219,148.6563 1422.1094,148.5469 Q1422.2969,148.4375 1422.5156,148.4375 Q1422.8906,148.4375 1423.125,148.6953 Q1423.3594,148.9531 1423.3594,149.5625 L1423.3594,151.0156 Q1423.3594,151.625 1423.125,151.8906 Q1422.8906,152.1563 1422.5156,152.1563 Q1422.1719,152.1563 1421.9688,151.9531 Q1421.7656,151.7656 1421.6563,151.25 Q1421.6094,150.8906 1421.4219,150.7031 Q1421.0938,150.3281 1420.4844,150.1094 Q1419.875,149.8906 1419.25,149.8906 Q1418.4844,149.8906 1417.8516,150.2188 Q1417.2188,150.5469 1416.7266,151.2969 Q1416.2344,152.0469 1416.2344,153.0781 L1416.2344,154.1719 Q1416.2344,155.4063 1417.125,156.2266 Q1418.0156,157.0469 1419.6094,157.0469 Q1420.5469,157.0469 1421.2031,156.7969 Q1421.5938,156.6406 1422.0156,156.2031 Q1422.2813,155.9375 1422.4297,155.8594 Q1422.5781,155.7813 1422.7813,155.7813 Q1423.1094,155.7813 1423.3672,156.0391 Q1423.625,156.2969 1423.625,156.6406 Q1423.625,156.9844 1423.2813,157.3906 Q1422.7813,157.9688 1421.9844,158.2969 Q1420.9063,158.75 1419.6094,158.75 Q1418.0938,158.75 1416.8906,158.125 Q1415.9063,157.625 1415.2188,156.5547 Q1414.5313,155.4844 1414.5313,154.2031 L1414.5313,153.0469 Q1414.5313,151.7188 1415.1484,150.5703 Q1415.7656,149.4219 1416.8594,148.8047 Q1417.9531,148.1875 1419.1875,148.1875 Q1419.9219,148.1875 1420.5703,148.3516 Q1421.2188,148.5156 1421.7656,148.875 Z " fill="#000000"/><text fill="#000000" font-family="sans-serif" font-size="14" lengthAdjust="spacing" textLength="46" x="1433" y="158.7285">1 &#1057;&#1073;&#1086;&#1088;</text><line style="stroke:#181818;stroke-width:0.5;" x1="1405" x2="1481" y1="169" y2="169"/><line style="stroke:#181818;stroke-width:0.5;" x1="1405" x2="1481" y1="177" y2="177"/></g><g id="elem_GMN12"><path d="M1517.5,115 L1517.5,157 L1482.26,161 L1517.5,165 L1517.5,206.7578 A0,0 0 0 0 1517.5,206.7578 L1636.5,206.7578 A0,0 0 0 0 1636.5,206.7578 L1636.5,125 L1626.5,115 L1517.5,115 A0,0 0 0 0 1517.5,115 " fill="#FEFFDD" style="stroke:#181818;stroke-width:0.5;"/><path d="M1626.5,115 L1626.5,125 L1636.5,125 L1626.5,115 " fill="#FEFFDD" style="stroke:#181818;stroke-width:0.5;"/><text fill="#000000" font-family="sans-serif" font-size="13" lengthAdjust="spacing" textLength="74" x="1523.5" y="133.4951">&#1057;&#1086;&#1094;&#1080;&#1072;&#1083;&#1100;&#1085;&#1099;&#1077;</text><text fill="#000000" font-family="sans-serif" font-size="13" lengthAdjust="spacing" textLength="93" x="1523.5" y="149.8467">&#1057;&#1090;&#1072;&#1090;&#1080;&#1089;&#1090;&#1080;&#1095;&#1077;&#1089;&#1082;&#1080;&#1077;</text><text fill="#000000" font-family="sans-serif" font-size="13" lengthAdjust="spacing" textLength="81" x="1523.5" y="166.1982">&#1052;&#1077;&#1076;&#1080;&#1094;&#1080;&#1085;&#1089;&#1082;&#1080;&#1077;</text><text fill="#000000" font-family="sans-serif" font-size="13" lengthAdjust="spacing" textLength="66" x="1523.5" y="182.5498">&#1052;&#1072;&#1096;&#1080;&#1085;&#1085;&#1099;&#1077;</text><text fill="#000000" font-family="sans-serif" font-size="13" lengthAdjust="spacing" textLength="98" x="1523.5" y="198.9014">&#1058;&#1088;&#1072;&#1085;&#1079;&#1072;&#1082;&#1094;&#1080;&#1086;&#1085;&#1085;&#1099;&#1077;</text></g><!--class DataClearning--><g id="elem_DataClearning"><rect fill="#F1F1F1" height="48" id="DataClearning" rx="2.5" ry="2.5" style="stroke:#181818;stroke-width:0.5;" width="123" x="1481.5" y="440.5"/><ellipse cx="1496.5" cy="456.5" fill="#ADD1B2" rx="11" ry="11" style="stroke:#181818;stroke-width:1.0;"/><path d="M1499.2656,452.375 Q1499.4219,452.1563 1499.6094,452.0469 Q1499.7969,451.9375 1500.0156,451.9375 Q1500.3906,451.9375 1500.625,452.1953 Q1500.8594,452.4531 1500.8594,453.0625 L1500.8594,454.5156 Q1500.8594,455.125 1500.625,455.3906 Q1500.3906,455.6563 1500.0156,455.6563 Q1499.6719,455.6563 1499.4688,455.4531 Q1499.2656,455.2656 1499.1563,454.75 Q1499.1094,454.3906 1498.9219,454.2031 Q1498.5938,453.8281 1497.9844,453.6094 Q1497.375,453.3906 1496.75,453.3906 Q1495.9844,453.3906 1495.3516,453.7188 Q1494.7188,454.0469 1494.2266,454.7969 Q1493.7344,455.5469 1493.7344,456.5781 L1493.7344,457.6719 Q1493.7344,458.9063 1494.625,459.7266 Q1495.5156,460.5469 1497.1094,460.5469 Q1498.0469,460.5469 1498.7031,460.2969 Q1499.0938,460.1406 1499.5156,459.7031 Q1499.7813,459.4375 1499.9297,459.3594 Q1500.0781,459.2813 1500.2813,459.2813 Q1500.6094,459.2813 1500.8672,459.5391 Q1501.125,459.7969 1501.125,460.1406 Q1501.125,460.4844 1500.7813,460.8906 Q1500.2813,461.4688 1499.4844,461.7969 Q1498.4063,462.25 1497.1094,462.25 Q1495.5938,462.25 1494.3906,461.625 Q1493.4063,461.125 1492.7188,460.0547 Q1492.0313,458.9844 1492.0313,457.7031 L1492.0313,456.5469 Q1492.0313,455.2188 1492.6484,454.0703 Q1493.2656,452.9219 1494.3594,452.3047 Q1495.4531,451.6875 1496.6875,451.6875 Q1497.4219,451.6875 1498.0703,451.8516 Q1498.7188,452.0156 1499.2656,452.375 Z " fill="#000000"/><text fill="#000000" font-family="sans-serif" font-size="14" lengthAdjust="spacing" textLength="91" x="1510.5" y="462.2285">DataClearning</text><line style="stroke:#181818;stroke-width:0.5;" x1="1482.5" x2="1603.5" y1="472.5" y2="472.5"/><line style="stroke:#181818;stroke-width:0.5;" x1="1482.5" x2="1603.5" y1="480.5" y2="480.5"/></g><!--class SyncData--><g id="elem_SyncData"><rect fill="#F1F1F1" height="48" id="SyncData" rx="2.5" ry="2.5" style="stroke:#181818;stroke-width:0.5;" width="93" x="1396.5" y="297"/><ellipse cx="1411.5" cy="313" fill="#ADD1B2" rx="11" ry="11" style="stroke:#181818;stroke-width:1.0;"/><path d="M1414.2656,308.875 Q1414.4219,308.6563 1414.6094,308.5469 Q1414.7969,308.4375 1415.0156,308.4375 Q1415.3906,308.4375 1415.625,308.6953 Q1415.8594,308.9531 1415.8594,309.5625 L1415.8594,311.0156 Q1415.8594,311.625 1415.625,311.8906 Q1415.3906,312.1563 1415.0156,312.1563 Q1414.6719,312.1563 1414.4688,311.9531 Q1414.2656,311.7656 1414.1563,311.25 Q1414.1094,310.8906 1413.9219,310.7031 Q1413.5938,310.3281 1412.9844,310.1094 Q1412.375,309.8906 1411.75,309.8906 Q1410.9844,309.8906 1410.3516,310.2188 Q1409.7188,310.5469 1409.2266,311.2969 Q1408.7344,312.0469 1408.7344,313.0781 L1408.7344,314.1719 Q1408.7344,315.4063 1409.625,316.2266 Q1410.5156,317.0469 1412.1094,317.0469 Q1413.0469,317.0469 1413.7031,316.7969 Q1414.0938,316.6406 1414.5156,316.2031 Q1414.7813,315.9375 1414.9297,315.8594 Q1415.0781,315.7813 1415.2813,315.7813 Q1415.6094,315.7813 1415.8672,316.0391 Q1416.125,316.2969 1416.125,316.6406 Q1416.125,316.9844 1415.7813,317.3906 Q1415.2813,317.9688 1414.4844,318.2969 Q1413.4063,318.75 1412.1094,318.75 Q1410.5938,318.75 1409.3906,318.125 Q1408.4063,317.625 1407.7188,316.5547 Q1407.0313,315.4844 1407.0313,314.2031 L1407.0313,313.0469 Q1407.0313,311.7188 1407.6484,310.5703 Q1408.2656,309.4219 1409.3594,308.8047 Q1410.4531,308.1875 1411.6875,308.1875 Q1412.4219,308.1875 1413.0703,308.3516 Q1413.7188,308.5156 1414.2656,308.875 Z " fill="#000000"/><text fill="#000000" font-family="sans-serif" font-size="14" lengthAdjust="spacing" textLength="61" x="1425.5" y="318.7285">SyncData</text><line style="stroke:#181818;stroke-width:0.5;" x1="1397.5" x2="1488.5" y1="329" y2="329"/><line style="stroke:#181818;stroke-width:0.5;" x1="1397.5" x2="1488.5" y1="337" y2="337"/></g><g id="elem_GMN19"><path d="M1596,283.5 L1596,317 L1489.62,321 L1596,325 L1596,358.9063 A0,0 0 0 0 1596,358.9063 L1724,358.9063 A0,0 0 0 0 1724,358.9063 L1724,293.5 L1714,283.5 L1596,283.5 A0,0 0 0 0 1596,283.5 " fill="#FEFFDD" style="stroke:#181818;stroke-width:0.5;"/><path d="M1714,283.5 L1714,293.5 L1724,293.5 L1714,283.5 " fill="#FEFFDD" style="stroke:#181818;stroke-width:0.5;"/><text fill="#000000" font-family="sans-serif" font-size="13" lengthAdjust="spacing" textLength="81" x="1602" y="301.9951">CDC ETL ELT</text><text fill="#000000" font-family="sans-serif" font-size="13" lengthAdjust="spacing" textLength="64" x="1602" y="318.3467">Replication</text><text fill="#000000" font-family="sans-serif" font-size="13" lengthAdjust="spacing" textLength="100" x="1602" y="334.6982">Streaming (Kafka</text><text fill="#000000" font-family="sans-serif" font-size="13" lengthAdjust="spacing" textLength="107" x="1602" y="351.0498">, Amazon Kinezis)</text></g><!--class ????????--><g id="elem_&#1061;&#1088;&#1072;&#1085;&#1077;&#1085;&#1080;&#1077;"><rect codeLine="33" fill="#F1F1F1" height="48" id="&#1061;&#1088;&#1072;&#1085;&#1077;&#1085;&#1080;&#1077;" rx="2.5" ry="2.5" style="stroke:#181818;stroke-width:0.5;" width="108" x="528" y="137"/><ellipse cx="543" cy="153" fill="#ADD1B2" rx="11" ry="11" style="stroke:#181818;stroke-width:1.0;"/><path d="M545.7656,148.875 Q545.9219,148.6563 546.1094,148.5469 Q546.2969,148.4375 546.5156,148.4375 Q546.8906,148.4375 547.125,148.6953 Q547.3594,148.9531 547.3594,149.5625 L547.3594,151.0156 Q547.3594,151.625 547.125,151.8906 Q546.8906,152.1563 546.5156,152.1563 Q546.1719,152.1563 545.9688,151.9531 Q545.7656,151.7656 545.6563,151.25 Q545.6094,150.8906 545.4219,150.7031 Q545.0938,150.3281 544.4844,150.1094 Q543.875,149.8906 543.25,149.8906 Q542.4844,149.8906 541.8516,150.2188 Q541.2188,150.5469 540.7266,151.2969 Q540.2344,152.0469 540.2344,153.0781 L540.2344,154.1719 Q540.2344,155.4063 541.125,156.2266 Q542.0156,157.0469 543.6094,157.0469 Q544.5469,157.0469 545.2031,156.7969 Q545.5938,156.6406 546.0156,156.2031 Q546.2813,155.9375 546.4297,155.8594 Q546.5781,155.7813 546.7813,155.7813 Q547.1094,155.7813 547.3672,156.0391 Q547.625,156.2969 547.625,156.6406 Q547.625,156.9844 547.2813,157.3906 Q546.7813,157.9688 545.9844,158.2969 Q544.9063,158.75 543.6094,158.75 Q542.0938,158.75 540.8906,158.125 Q539.9063,157.625 539.2188,156.5547 Q538.5313,155.4844 538.5313,154.2031 L538.5313,153.0469 Q538.5313,151.7188 539.1484,150.5703 Q539.7656,149.4219 540.8594,148.8047 Q541.9531,148.1875 543.1875,148.1875 Q543.9219,148.1875 544.5703,148.3516 Q545.2188,148.5156 545.7656,148.875 Z " fill="#000000"/><text fill="#000000" font-family="sans-serif" font-size="14" lengthAdjust="spacing" textLength="76" x="557" y="158.7285">2 &#1061;&#1088;&#1072;&#1085;&#1077;&#1085;&#1080;&#1077;</text><line style="stroke:#181818;stroke-width:0.5;" x1="529" x2="635" y1="169" y2="169"/><line style="stroke:#181818;stroke-width:0.5;" x1="529" x2="635" y1="177" y2="177"/></g><!--class DWH--><g id="elem_DWH"><rect fill="#F1F1F1" height="48" id="DWH" rx="2.5" ry="2.5" style="stroke:#181818;stroke-width:0.5;" width="64" x="255" y="440.5"/><ellipse cx="270" cy="456.5" fill="#ADD1B2" rx="11" ry="11" style="stroke:#181818;stroke-width:1.0;"/><path d="M272.7656,452.375 Q272.9219,452.1563 273.1094,452.0469 Q273.2969,451.9375 273.5156,451.9375 Q273.8906,451.9375 274.125,452.1953 Q274.3594,452.4531 274.3594,453.0625 L274.3594,454.5156 Q274.3594,455.125 274.125,455.3906 Q273.8906,455.6563 273.5156,455.6563 Q273.1719,455.6563 272.9688,455.4531 Q272.7656,455.2656 272.6563,454.75 Q272.6094,454.3906 272.4219,454.2031 Q272.0938,453.8281 271.4844,453.6094 Q270.875,453.3906 270.25,453.3906 Q269.4844,453.3906 268.8516,453.7188 Q268.2188,454.0469 267.7266,454.7969 Q267.2344,455.5469 267.2344,456.5781 L267.2344,457.6719 Q267.2344,458.9063 268.125,459.7266 Q269.0156,460.5469 270.6094,460.5469 Q271.5469,460.5469 272.2031,460.2969 Q272.5938,460.1406 273.0156,459.7031 Q273.2813,459.4375 273.4297,459.3594 Q273.5781,459.2813 273.7813,459.2813 Q274.1094,459.2813 274.3672,459.5391 Q274.625,459.7969 274.625,460.1406 Q274.625,460.4844 274.2813,460.8906 Q273.7813,461.4688 272.9844,461.7969 Q271.9063,462.25 270.6094,462.25 Q269.0938,462.25 267.8906,461.625 Q266.9063,461.125 266.2188,460.0547 Q265.5313,458.9844 265.5313,457.7031 L265.5313,456.5469 Q265.5313,455.2188 266.1484,454.0703 Q266.7656,452.9219 267.8594,452.3047 Q268.9531,451.6875 270.1875,451.6875 Q270.9219,451.6875 271.5703,451.8516 Q272.2188,452.0156 272.7656,452.375 Z " fill="#000000"/><text fill="#000000" font-family="sans-serif" font-size="14" lengthAdjust="spacing" textLength="32" x="284" y="462.2285">DWH</text><line style="stroke:#181818;stroke-width:0.5;" x1="256" x2="318" y1="472.5" y2="472.5"/><line style="stroke:#181818;stroke-width:0.5;" x1="256" x2="318" y1="480.5" y2="480.5"/></g><g id="elem_GMN26"><path d="M354.5,435 L354.5,460.5 L319,464.5 L354.5,468.5 L354.5,494.0547 A0,0 0 0 0 354.5,494.0547 L475.5,494.0547 A0,0 0 0 0 475.5,494.0547 L475.5,445 L465.5,435 L354.5,435 A0,0 0 0 0 354.5,435 " fill="#FEFFDD" style="stroke:#181818;stroke-width:0.5;"/><path d="M465.5,435 L465.5,445 L475.5,445 L465.5,435 " fill="#FEFFDD" style="stroke:#181818;stroke-width:0.5;"/><text fill="#000000" font-family="sans-serif" font-size="13" lengthAdjust="spacing" textLength="68" x="360.5" y="453.4951">&#1093;&#1088;&#1086;&#1085;&#1086;&#1083;&#1086;&#1075;&#1080;&#1103;</text><text fill="#000000" font-family="sans-serif" font-size="13" lengthAdjust="spacing" textLength="100" x="360.5" y="469.8467">&#1089;&#1090;&#1088;&#1091;&#1082;&#1090;&#1091;&#1088;&#1080;&#1088;&#1086;&#1074;&#1072;&#1085;&#1086;</text><text fill="#000000" font-family="sans-serif" font-size="13" lengthAdjust="spacing" textLength="23" x="360.5" y="486.1982">ETL</text></g><!--class ?????--><g id="elem_&#1056;&#1057;&#1059;&#1041;&#1044;"><rect fill="#F1F1F1" height="48" id="&#1056;&#1057;&#1059;&#1041;&#1044;" rx="2.5" ry="2.5" style="stroke:#181818;stroke-width:0.5;" width="78" x="248" y="554"/><ellipse cx="263" cy="570" fill="#ADD1B2" rx="11" ry="11" style="stroke:#181818;stroke-width:1.0;"/><path d="M265.7656,565.875 Q265.9219,565.6563 266.1094,565.5469 Q266.2969,565.4375 266.5156,565.4375 Q266.8906,565.4375 267.125,565.6953 Q267.3594,565.9531 267.3594,566.5625 L267.3594,568.0156 Q267.3594,568.625 267.125,568.8906 Q266.8906,569.1563 266.5156,569.1563 Q266.1719,569.1563 265.9688,568.9531 Q265.7656,568.7656 265.6563,568.25 Q265.6094,567.8906 265.4219,567.7031 Q265.0938,567.3281 264.4844,567.1094 Q263.875,566.8906 263.25,566.8906 Q262.4844,566.8906 261.8516,567.2188 Q261.2188,567.5469 260.7266,568.2969 Q260.2344,569.0469 260.2344,570.0781 L260.2344,571.1719 Q260.2344,572.4063 261.125,573.2266 Q262.0156,574.0469 263.6094,574.0469 Q264.5469,574.0469 265.2031,573.7969 Q265.5938,573.6406 266.0156,573.2031 Q266.2813,572.9375 266.4297,572.8594 Q266.5781,572.7813 266.7813,572.7813 Q267.1094,572.7813 267.3672,573.0391 Q267.625,573.2969 267.625,573.6406 Q267.625,573.9844 267.2813,574.3906 Q266.7813,574.9688 265.9844,575.2969 Q264.9063,575.75 263.6094,575.75 Q262.0938,575.75 260.8906,575.125 Q259.9063,574.625 259.2188,573.5547 Q258.5313,572.4844 258.5313,571.2031 L258.5313,570.0469 Q258.5313,568.7188 259.1484,567.5703 Q259.7656,566.4219 260.8594,565.8047 Q261.9531,565.1875 263.1875,565.1875 Q263.9219,565.1875 264.5703,565.3516 Q265.2188,565.5156 265.7656,565.875 Z " fill="#000000"/><text fill="#000000" font-family="sans-serif" font-size="14" lengthAdjust="spacing" textLength="46" x="277" y="575.7285">&#1056;&#1057;&#1059;&#1041;&#1044;</text><line style="stroke:#181818;stroke-width:0.5;" x1="249" x2="325" y1="586" y2="586"/><line style="stroke:#181818;stroke-width:0.5;" x1="249" x2="325" y1="594" y2="594"/></g><!--class DataMart--><g id="elem_DataMart"><rect fill="#F1F1F1" height="48" id="DataMart" rx="2.5" ry="2.5" style="stroke:#181818;stroke-width:0.5;" width="90" x="361" y="554"/><ellipse cx="376" cy="570" fill="#ADD1B2" rx="11" ry="11" style="stroke:#181818;stroke-width:1.0;"/><path d="M378.7656,565.875 Q378.9219,565.6563 379.1094,565.5469 Q379.2969,565.4375 379.5156,565.4375 Q379.8906,565.4375 380.125,565.6953 Q380.3594,565.9531 380.3594,566.5625 L380.3594,568.0156 Q380.3594,568.625 380.125,568.8906 Q379.8906,569.1563 379.5156,569.1563 Q379.1719,569.1563 378.9688,568.9531 Q378.7656,568.7656 378.6563,568.25 Q378.6094,567.8906 378.4219,567.7031 Q378.0938,567.3281 377.4844,567.1094 Q376.875,566.8906 376.25,566.8906 Q375.4844,566.8906 374.8516,567.2188 Q374.2188,567.5469 373.7266,568.2969 Q373.2344,569.0469 373.2344,570.0781 L373.2344,571.1719 Q373.2344,572.4063 374.125,573.2266 Q375.0156,574.0469 376.6094,574.0469 Q377.5469,574.0469 378.2031,573.7969 Q378.5938,573.6406 379.0156,573.2031 Q379.2813,572.9375 379.4297,572.8594 Q379.5781,572.7813 379.7813,572.7813 Q380.1094,572.7813 380.3672,573.0391 Q380.625,573.2969 380.625,573.6406 Q380.625,573.9844 380.2813,574.3906 Q379.7813,574.9688 378.9844,575.2969 Q377.9063,575.75 376.6094,575.75 Q375.0938,575.75 373.8906,575.125 Q372.9063,574.625 372.2188,573.5547 Q371.5313,572.4844 371.5313,571.2031 L371.5313,570.0469 Q371.5313,568.7188 372.1484,567.5703 Q372.7656,566.4219 373.8594,565.8047 Q374.9531,565.1875 376.1875,565.1875 Q376.9219,565.1875 377.5703,565.3516 Q378.2188,565.5156 378.7656,565.875 Z " fill="#000000"/><text fill="#000000" font-family="sans-serif" font-size="14" lengthAdjust="spacing" textLength="58" x="390" y="575.7285">DataMart</text><line style="stroke:#181818;stroke-width:0.5;" x1="362" x2="450" y1="586" y2="586"/><line style="stroke:#181818;stroke-width:0.5;" x1="362" x2="450" y1="594" y2="594"/></g><!--class ???????????????--><g id="elem_&#1052;&#1086;&#1076;&#1077;&#1083;&#1100;&#1061;&#1088;&#1072;&#1085;&#1080;&#1083;&#1080;&#1097;&#1072;"><rect fill="#F1F1F1" height="48" id="&#1052;&#1086;&#1076;&#1077;&#1083;&#1100;&#1061;&#1088;&#1072;&#1085;&#1080;&#1083;&#1080;&#1097;&#1072;" rx="2.5" ry="2.5" style="stroke:#181818;stroke-width:0.5;" width="158" x="55" y="554"/><ellipse cx="70" cy="570" fill="#ADD1B2" rx="11" ry="11" style="stroke:#181818;stroke-width:1.0;"/><path d="M72.7656,565.875 Q72.9219,565.6563 73.1094,565.5469 Q73.2969,565.4375 73.5156,565.4375 Q73.8906,565.4375 74.125,565.6953 Q74.3594,565.9531 74.3594,566.5625 L74.3594,568.0156 Q74.3594,568.625 74.125,568.8906 Q73.8906,569.1563 73.5156,569.1563 Q73.1719,569.1563 72.9688,568.9531 Q72.7656,568.7656 72.6563,568.25 Q72.6094,567.8906 72.4219,567.7031 Q72.0938,567.3281 71.4844,567.1094 Q70.875,566.8906 70.25,566.8906 Q69.4844,566.8906 68.8516,567.2188 Q68.2188,567.5469 67.7266,568.2969 Q67.2344,569.0469 67.2344,570.0781 L67.2344,571.1719 Q67.2344,572.4063 68.125,573.2266 Q69.0156,574.0469 70.6094,574.0469 Q71.5469,574.0469 72.2031,573.7969 Q72.5938,573.6406 73.0156,573.2031 Q73.2813,572.9375 73.4297,572.8594 Q73.5781,572.7813 73.7813,572.7813 Q74.1094,572.7813 74.3672,573.0391 Q74.625,573.2969 74.625,573.6406 Q74.625,573.9844 74.2813,574.3906 Q73.7813,574.9688 72.9844,575.2969 Q71.9063,575.75 70.6094,575.75 Q69.0938,575.75 67.8906,575.125 Q66.9063,574.625 66.2188,573.5547 Q65.5313,572.4844 65.5313,571.2031 L65.5313,570.0469 Q65.5313,568.7188 66.1484,567.5703 Q66.7656,566.4219 67.8594,565.8047 Q68.9531,565.1875 70.1875,565.1875 Q70.9219,565.1875 71.5703,565.3516 Q72.2188,565.5156 72.7656,565.875 Z " fill="#000000"/><text fill="#000000" font-family="sans-serif" font-size="14" lengthAdjust="spacing" textLength="126" x="84" y="575.7285">&#1052;&#1086;&#1076;&#1077;&#1083;&#1100;&#1061;&#1088;&#1072;&#1085;&#1080;&#1083;&#1080;&#1097;&#1072;</text><line style="stroke:#181818;stroke-width:0.5;" x1="56" x2="212" y1="586" y2="586"/><line style="stroke:#181818;stroke-width:0.5;" x1="56" x2="212" y1="594" y2="594"/></g><!--class DataVault--><g id="elem_DataVault"><rect fill="#F1F1F1" height="48" id="DataVault" rx="2.5" ry="2.5" style="stroke:#181818;stroke-width:0.5;" width="94" x="87" y="662"/><ellipse cx="102" cy="678" fill="#ADD1B2" rx="11" ry="11" style="stroke:#181818;stroke-width:1.0;"/><path d="M104.7656,673.875 Q104.9219,673.6563 105.1094,673.5469 Q105.2969,673.4375 105.5156,673.4375 Q105.8906,673.4375 106.125,673.6953 Q106.3594,673.9531 106.3594,674.5625 L106.3594,676.0156 Q106.3594,676.625 106.125,676.8906 Q105.8906,677.1563 105.5156,677.1563 Q105.1719,677.1563 104.9688,676.9531 Q104.7656,676.7656 104.6563,676.25 Q104.6094,675.8906 104.4219,675.7031 Q104.0938,675.3281 103.4844,675.1094 Q102.875,674.8906 102.25,674.8906 Q101.4844,674.8906 100.8516,675.2188 Q100.2188,675.5469 99.7266,676.2969 Q99.2344,677.0469 99.2344,678.0781 L99.2344,679.1719 Q99.2344,680.4063 100.125,681.2266 Q101.0156,682.0469 102.6094,682.0469 Q103.5469,682.0469 104.2031,681.7969 Q104.5938,681.6406 105.0156,681.2031 Q105.2813,680.9375 105.4297,680.8594 Q105.5781,680.7813 105.7813,680.7813 Q106.1094,680.7813 106.3672,681.0391 Q106.625,681.2969 106.625,681.6406 Q106.625,681.9844 106.2813,682.3906 Q105.7813,682.9688 104.9844,683.2969 Q103.9063,683.75 102.6094,683.75 Q101.0938,683.75 99.8906,683.125 Q98.9063,682.625 98.2188,681.5547 Q97.5313,680.4844 97.5313,679.2031 L97.5313,678.0469 Q97.5313,676.7188 98.1484,675.5703 Q98.7656,674.4219 99.8594,673.8047 Q100.9531,673.1875 102.1875,673.1875 Q102.9219,673.1875 103.5703,673.3516 Q104.2188,673.5156 104.7656,673.875 Z " fill="#000000"/><text fill="#000000" font-family="sans-serif" font-size="14" lengthAdjust="spacing" textLength="62" x="116" y="683.7285">DataVault</text><line style="stroke:#181818;stroke-width:0.5;" x1="88" x2="180" y1="694" y2="694"/><line style="stroke:#181818;stroke-width:0.5;" x1="88" x2="180" y1="702" y2="702"/></g><!--class ?????????--><g id="elem_&#1057;&#1090;&#1088;&#1091;&#1082;&#1090;&#1091;&#1088;&#1072;"><rect fill="#F1F1F1" height="48" id="&#1057;&#1090;&#1088;&#1091;&#1082;&#1090;&#1091;&#1088;&#1072;" rx="2.5" ry="2.5" style="stroke:#181818;stroke-width:0.5;" width="100" x="84" y="770"/><ellipse cx="99" cy="786" fill="#ADD1B2" rx="11" ry="11" style="stroke:#181818;stroke-width:1.0;"/><path d="M101.7656,781.875 Q101.9219,781.6563 102.1094,781.5469 Q102.2969,781.4375 102.5156,781.4375 Q102.8906,781.4375 103.125,781.6953 Q103.3594,781.9531 103.3594,782.5625 L103.3594,784.0156 Q103.3594,784.625 103.125,784.8906 Q102.8906,785.1563 102.5156,785.1563 Q102.1719,785.1563 101.9688,784.9531 Q101.7656,784.7656 101.6563,784.25 Q101.6094,783.8906 101.4219,783.7031 Q101.0938,783.3281 100.4844,783.1094 Q99.875,782.8906 99.25,782.8906 Q98.4844,782.8906 97.8516,783.2188 Q97.2188,783.5469 96.7266,784.2969 Q96.2344,785.0469 96.2344,786.0781 L96.2344,787.1719 Q96.2344,788.4063 97.125,789.2266 Q98.0156,790.0469 99.6094,790.0469 Q100.5469,790.0469 101.2031,789.7969 Q101.5938,789.6406 102.0156,789.2031 Q102.2813,788.9375 102.4297,788.8594 Q102.5781,788.7813 102.7813,788.7813 Q103.1094,788.7813 103.3672,789.0391 Q103.625,789.2969 103.625,789.6406 Q103.625,789.9844 103.2813,790.3906 Q102.7813,790.9688 101.9844,791.2969 Q100.9063,791.75 99.6094,791.75 Q98.0938,791.75 96.8906,791.125 Q95.9063,790.625 95.2188,789.5547 Q94.5313,788.4844 94.5313,787.2031 L94.5313,786.0469 Q94.5313,784.7188 95.1484,783.5703 Q95.7656,782.4219 96.8594,781.8047 Q97.9531,781.1875 99.1875,781.1875 Q99.9219,781.1875 100.5703,781.3516 Q101.2188,781.5156 101.7656,781.875 Z " fill="#000000"/><text fill="#000000" font-family="sans-serif" font-size="14" lengthAdjust="spacing" textLength="68" x="113" y="791.7285">&#1057;&#1090;&#1088;&#1091;&#1082;&#1090;&#1091;&#1088;&#1072;</text><line style="stroke:#181818;stroke-width:0.5;" x1="85" x2="183" y1="802" y2="802"/><line style="stroke:#181818;stroke-width:0.5;" x1="85" x2="183" y1="810" y2="810"/></g><!--class ???--><g id="elem_&#1061;&#1072;&#1073;"><rect fill="#F1F1F1" height="48" id="&#1061;&#1072;&#1073;" rx="2.5" ry="2.5" style="stroke:#181818;stroke-width:0.5;" width="56" x="7" y="878"/><ellipse cx="22" cy="894" fill="#ADD1B2" rx="11" ry="11" style="stroke:#181818;stroke-width:1.0;"/><path d="M24.7656,889.875 Q24.9219,889.6563 25.1094,889.5469 Q25.2969,889.4375 25.5156,889.4375 Q25.8906,889.4375 26.125,889.6953 Q26.3594,889.9531 26.3594,890.5625 L26.3594,892.0156 Q26.3594,892.625 26.125,892.8906 Q25.8906,893.1563 25.5156,893.1563 Q25.1719,893.1563 24.9688,892.9531 Q24.7656,892.7656 24.6563,892.25 Q24.6094,891.8906 24.4219,891.7031 Q24.0938,891.3281 23.4844,891.1094 Q22.875,890.8906 22.25,890.8906 Q21.4844,890.8906 20.8516,891.2188 Q20.2188,891.5469 19.7266,892.2969 Q19.2344,893.0469 19.2344,894.0781 L19.2344,895.1719 Q19.2344,896.4063 20.125,897.2266 Q21.0156,898.0469 22.6094,898.0469 Q23.5469,898.0469 24.2031,897.7969 Q24.5938,897.6406 25.0156,897.2031 Q25.2813,896.9375 25.4297,896.8594 Q25.5781,896.7813 25.7813,896.7813 Q26.1094,896.7813 26.3672,897.0391 Q26.625,897.2969 26.625,897.6406 Q26.625,897.9844 26.2813,898.3906 Q25.7813,898.9688 24.9844,899.2969 Q23.9063,899.75 22.6094,899.75 Q21.0938,899.75 19.8906,899.125 Q18.9063,898.625 18.2188,897.5547 Q17.5313,896.4844 17.5313,895.2031 L17.5313,894.0469 Q17.5313,892.7188 18.1484,891.5703 Q18.7656,890.4219 19.8594,889.8047 Q20.9531,889.1875 22.1875,889.1875 Q22.9219,889.1875 23.5703,889.3516 Q24.2188,889.5156 24.7656,889.875 Z " fill="#000000"/><text fill="#000000" font-family="sans-serif" font-size="14" lengthAdjust="spacing" textLength="24" x="36" y="899.7285">&#1061;&#1072;&#1073;</text><line style="stroke:#181818;stroke-width:0.5;" x1="8" x2="62" y1="910" y2="910"/><line style="stroke:#181818;stroke-width:0.5;" x1="8" x2="62" y1="918" y2="918"/></g><!--class ?????--><g id="elem_&#1057;&#1074;&#1103;&#1079;&#1100;"><rect fill="#F1F1F1" height="48" id="&#1057;&#1074;&#1103;&#1079;&#1100;" rx="2.5" ry="2.5" style="stroke:#181818;stroke-width:0.5;" width="71" x="98.5" y="878"/><ellipse cx="113.5" cy="894" fill="#ADD1B2" rx="11" ry="11" style="stroke:#181818;stroke-width:1.0;"/><path d="M116.2656,889.875 Q116.4219,889.6563 116.6094,889.5469 Q116.7969,889.4375 117.0156,889.4375 Q117.3906,889.4375 117.625,889.6953 Q117.8594,889.9531 117.8594,890.5625 L117.8594,892.0156 Q117.8594,892.625 117.625,892.8906 Q117.3906,893.1563 117.0156,893.1563 Q116.6719,893.1563 116.4688,892.9531 Q116.2656,892.7656 116.1563,892.25 Q116.1094,891.8906 115.9219,891.7031 Q115.5938,891.3281 114.9844,891.1094 Q114.375,890.8906 113.75,890.8906 Q112.9844,890.8906 112.3516,891.2188 Q111.7188,891.5469 111.2266,892.2969 Q110.7344,893.0469 110.7344,894.0781 L110.7344,895.1719 Q110.7344,896.4063 111.625,897.2266 Q112.5156,898.0469 114.1094,898.0469 Q115.0469,898.0469 115.7031,897.7969 Q116.0938,897.6406 116.5156,897.2031 Q116.7813,896.9375 116.9297,896.8594 Q117.0781,896.7813 117.2813,896.7813 Q117.6094,896.7813 117.8672,897.0391 Q118.125,897.2969 118.125,897.6406 Q118.125,897.9844 117.7813,898.3906 Q117.2813,898.9688 116.4844,899.2969 Q115.4063,899.75 114.1094,899.75 Q112.5938,899.75 111.3906,899.125 Q110.4063,898.625 109.7188,897.5547 Q109.0313,896.4844 109.0313,895.2031 L109.0313,894.0469 Q109.0313,892.7188 109.6484,891.5703 Q110.2656,890.4219 111.3594,889.8047 Q112.4531,889.1875 113.6875,889.1875 Q114.4219,889.1875 115.0703,889.3516 Q115.7188,889.5156 116.2656,889.875 Z " fill="#000000"/><text fill="#000000" font-family="sans-serif" font-size="14" lengthAdjust="spacing" textLength="39" x="127.5" y="899.7285">&#1057;&#1074;&#1103;&#1079;&#1100;</text><line style="stroke:#181818;stroke-width:0.5;" x1="99.5" x2="168.5" y1="910" y2="910"/><line style="stroke:#181818;stroke-width:0.5;" x1="99.5" x2="168.5" y1="918" y2="918"/></g><!--class ????????--><g id="elem_&#1057;&#1072;&#1090;&#1077;&#1083;&#1083;&#1080;&#1090;"><rect fill="#F1F1F1" height="48" id="&#1057;&#1072;&#1090;&#1077;&#1083;&#1083;&#1080;&#1090;" rx="2.5" ry="2.5" style="stroke:#181818;stroke-width:0.5;" width="96" x="205" y="878"/><ellipse cx="220" cy="894" fill="#ADD1B2" rx="11" ry="11" style="stroke:#181818;stroke-width:1.0;"/><path d="M222.7656,889.875 Q222.9219,889.6563 223.1094,889.5469 Q223.2969,889.4375 223.5156,889.4375 Q223.8906,889.4375 224.125,889.6953 Q224.3594,889.9531 224.3594,890.5625 L224.3594,892.0156 Q224.3594,892.625 224.125,892.8906 Q223.8906,893.1563 223.5156,893.1563 Q223.1719,893.1563 222.9688,892.9531 Q222.7656,892.7656 222.6563,892.25 Q222.6094,891.8906 222.4219,891.7031 Q222.0938,891.3281 221.4844,891.1094 Q220.875,890.8906 220.25,890.8906 Q219.4844,890.8906 218.8516,891.2188 Q218.2188,891.5469 217.7266,892.2969 Q217.2344,893.0469 217.2344,894.0781 L217.2344,895.1719 Q217.2344,896.4063 218.125,897.2266 Q219.0156,898.0469 220.6094,898.0469 Q221.5469,898.0469 222.2031,897.7969 Q222.5938,897.6406 223.0156,897.2031 Q223.2813,896.9375 223.4297,896.8594 Q223.5781,896.7813 223.7813,896.7813 Q224.1094,896.7813 224.3672,897.0391 Q224.625,897.2969 224.625,897.6406 Q224.625,897.9844 224.2813,898.3906 Q223.7813,898.9688 222.9844,899.2969 Q221.9063,899.75 220.6094,899.75 Q219.0938,899.75 217.8906,899.125 Q216.9063,898.625 216.2188,897.5547 Q215.5313,896.4844 215.5313,895.2031 L215.5313,894.0469 Q215.5313,892.7188 216.1484,891.5703 Q216.7656,890.4219 217.8594,889.8047 Q218.9531,889.1875 220.1875,889.1875 Q220.9219,889.1875 221.5703,889.3516 Q222.2188,889.5156 222.7656,889.875 Z " fill="#000000"/><text fill="#000000" font-family="sans-serif" font-size="14" lengthAdjust="spacing" textLength="64" x="234" y="899.7285">&#1057;&#1072;&#1090;&#1077;&#1083;&#1083;&#1080;&#1090;</text><line style="stroke:#181818;stroke-width:0.5;" x1="206" x2="300" y1="910" y2="910"/><line style="stroke:#181818;stroke-width:0.5;" x1="206" x2="300" y1="918" y2="918"/></g><!--class DataLake--><g id="elem_DataLake"><rect fill="#F1F1F1" height="48" id="DataLake" rx="2.5" ry="2.5" style="stroke:#181818;stroke-width:0.5;" width="93" x="535.5" y="297"/><ellipse cx="550.5" cy="313" fill="#ADD1B2" rx="11" ry="11" style="stroke:#181818;stroke-width:1.0;"/><path d="M553.2656,308.875 Q553.4219,308.6563 553.6094,308.5469 Q553.7969,308.4375 554.0156,308.4375 Q554.3906,308.4375 554.625,308.6953 Q554.8594,308.9531 554.8594,309.5625 L554.8594,311.0156 Q554.8594,311.625 554.625,311.8906 Q554.3906,312.1563 554.0156,312.1563 Q553.6719,312.1563 553.4688,311.9531 Q553.2656,311.7656 553.1563,311.25 Q553.1094,310.8906 552.9219,310.7031 Q552.5938,310.3281 551.9844,310.1094 Q551.375,309.8906 550.75,309.8906 Q549.9844,309.8906 549.3516,310.2188 Q548.7188,310.5469 548.2266,311.2969 Q547.7344,312.0469 547.7344,313.0781 L547.7344,314.1719 Q547.7344,315.4063 548.625,316.2266 Q549.5156,317.0469 551.1094,317.0469 Q552.0469,317.0469 552.7031,316.7969 Q553.0938,316.6406 553.5156,316.2031 Q553.7813,315.9375 553.9297,315.8594 Q554.0781,315.7813 554.2813,315.7813 Q554.6094,315.7813 554.8672,316.0391 Q555.125,316.2969 555.125,316.6406 Q555.125,316.9844 554.7813,317.3906 Q554.2813,317.9688 553.4844,318.2969 Q552.4063,318.75 551.1094,318.75 Q549.5938,318.75 548.3906,318.125 Q547.4063,317.625 546.7188,316.5547 Q546.0313,315.4844 546.0313,314.2031 L546.0313,313.0469 Q546.0313,311.7188 546.6484,310.5703 Q547.2656,309.4219 548.3594,308.8047 Q549.4531,308.1875 550.6875,308.1875 Q551.4219,308.1875 552.0703,308.3516 Q552.7188,308.5156 553.2656,308.875 Z " fill="#000000"/><text fill="#000000" font-family="sans-serif" font-size="14" lengthAdjust="spacing" textLength="61" x="564.5" y="318.7285">DataLake</text><line style="stroke:#181818;stroke-width:0.5;" x1="536.5" x2="627.5" y1="329" y2="329"/><line style="stroke:#181818;stroke-width:0.5;" x1="536.5" x2="627.5" y1="337" y2="337"/></g><g id="elem_GMN47"><path d="M663.5,299.5 L663.5,317 L628.59,321 L663.5,325 L663.5,342.2031 A0,0 0 0 0 663.5,342.2031 L784.5,342.2031 A0,0 0 0 0 784.5,342.2031 L784.5,309.5 L774.5,299.5 L663.5,299.5 A0,0 0 0 0 663.5,299.5 " fill="#FEFFDD" style="stroke:#181818;stroke-width:0.5;"/><path d="M774.5,299.5 L774.5,309.5 L784.5,309.5 L774.5,299.5 " fill="#FEFFDD" style="stroke:#181818;stroke-width:0.5;"/><text fill="#000000" font-family="sans-serif" font-size="13" lengthAdjust="spacing" textLength="71" x="669.5" y="317.9951">&#1085;&#1077;&#1090; &#1077;&#1076;&#1080;&#1085;&#1086;&#1075;&#1086;</text><text fill="#000000" font-family="sans-serif" font-size="13" lengthAdjust="spacing" textLength="100" x="669.5" y="334.3467">&#1092;&#1086;&#1088;&#1084;&#1072;&#1090;&#1072; &#1076;&#1072;&#1085;&#1085;&#1099;&#1093;</text></g><!--class ????????????????--><g id="elem_&#1055;&#1088;&#1086;&#1094;&#1077;&#1089;&#1089;&#1054;&#1073;&#1088;&#1072;&#1073;&#1086;&#1090;&#1082;&#1080;"><rect fill="#F1F1F1" height="48" id="&#1055;&#1088;&#1086;&#1094;&#1077;&#1089;&#1089;&#1054;&#1073;&#1088;&#1072;&#1073;&#1086;&#1090;&#1082;&#1080;" rx="2.5" ry="2.5" style="stroke:#181818;stroke-width:0.5;" width="160" x="689" y="440.5"/><ellipse cx="704" cy="456.5" fill="#ADD1B2" rx="11" ry="11" style="stroke:#181818;stroke-width:1.0;"/><path d="M706.7656,452.375 Q706.9219,452.1563 707.1094,452.0469 Q707.2969,451.9375 707.5156,451.9375 Q707.8906,451.9375 708.125,452.1953 Q708.3594,452.4531 708.3594,453.0625 L708.3594,454.5156 Q708.3594,455.125 708.125,455.3906 Q707.8906,455.6563 707.5156,455.6563 Q707.1719,455.6563 706.9688,455.4531 Q706.7656,455.2656 706.6563,454.75 Q706.6094,454.3906 706.4219,454.2031 Q706.0938,453.8281 705.4844,453.6094 Q704.875,453.3906 704.25,453.3906 Q703.4844,453.3906 702.8516,453.7188 Q702.2188,454.0469 701.7266,454.7969 Q701.2344,455.5469 701.2344,456.5781 L701.2344,457.6719 Q701.2344,458.9063 702.125,459.7266 Q703.0156,460.5469 704.6094,460.5469 Q705.5469,460.5469 706.2031,460.2969 Q706.5938,460.1406 707.0156,459.7031 Q707.2813,459.4375 707.4297,459.3594 Q707.5781,459.2813 707.7813,459.2813 Q708.1094,459.2813 708.3672,459.5391 Q708.625,459.7969 708.625,460.1406 Q708.625,460.4844 708.2813,460.8906 Q707.7813,461.4688 706.9844,461.7969 Q705.9063,462.25 704.6094,462.25 Q703.0938,462.25 701.8906,461.625 Q700.9063,461.125 700.2188,460.0547 Q699.5313,458.9844 699.5313,457.7031 L699.5313,456.5469 Q699.5313,455.2188 700.1484,454.0703 Q700.7656,452.9219 701.8594,452.3047 Q702.9531,451.6875 704.1875,451.6875 Q704.9219,451.6875 705.5703,451.8516 Q706.2188,452.0156 706.7656,452.375 Z " fill="#000000"/><text fill="#000000" font-family="sans-serif" font-size="14" lengthAdjust="spacing" textLength="128" x="718" y="462.2285">&#1055;&#1088;&#1086;&#1094;&#1077;&#1089;&#1089;&#1054;&#1073;&#1088;&#1072;&#1073;&#1086;&#1090;&#1082;&#1080;</text><line style="stroke:#181818;stroke-width:0.5;" x1="690" x2="848" y1="472.5" y2="472.5"/><line style="stroke:#181818;stroke-width:0.5;" x1="690" x2="848" y1="480.5" y2="480.5"/></g><!--class Batch--><g id="elem_Batch"><rect fill="#F1F1F1" height="48" id="Batch" rx="2.5" ry="2.5" style="stroke:#181818;stroke-width:0.5;" width="68" x="690" y="662"/><ellipse cx="705" cy="678" fill="#ADD1B2" rx="11" ry="11" style="stroke:#181818;stroke-width:1.0;"/><path d="M707.7656,673.875 Q707.9219,673.6563 708.1094,673.5469 Q708.2969,673.4375 708.5156,673.4375 Q708.8906,673.4375 709.125,673.6953 Q709.3594,673.9531 709.3594,674.5625 L709.3594,676.0156 Q709.3594,676.625 709.125,676.8906 Q708.8906,677.1563 708.5156,677.1563 Q708.1719,677.1563 707.9688,676.9531 Q707.7656,676.7656 707.6563,676.25 Q707.6094,675.8906 707.4219,675.7031 Q707.0938,675.3281 706.4844,675.1094 Q705.875,674.8906 705.25,674.8906 Q704.4844,674.8906 703.8516,675.2188 Q703.2188,675.5469 702.7266,676.2969 Q702.2344,677.0469 702.2344,678.0781 L702.2344,679.1719 Q702.2344,680.4063 703.125,681.2266 Q704.0156,682.0469 705.6094,682.0469 Q706.5469,682.0469 707.2031,681.7969 Q707.5938,681.6406 708.0156,681.2031 Q708.2813,680.9375 708.4297,680.8594 Q708.5781,680.7813 708.7813,680.7813 Q709.1094,680.7813 709.3672,681.0391 Q709.625,681.2969 709.625,681.6406 Q709.625,681.9844 709.2813,682.3906 Q708.7813,682.9688 707.9844,683.2969 Q706.9063,683.75 705.6094,683.75 Q704.0938,683.75 702.8906,683.125 Q701.9063,682.625 701.2188,681.5547 Q700.5313,680.4844 700.5313,679.2031 L700.5313,678.0469 Q700.5313,676.7188 701.1484,675.5703 Q701.7656,674.4219 702.8594,673.8047 Q703.9531,673.1875 705.1875,673.1875 Q705.9219,673.1875 706.5703,673.3516 Q707.2188,673.5156 707.7656,673.875 Z " fill="#000000"/><text fill="#000000" font-family="sans-serif" font-size="14" lengthAdjust="spacing" textLength="36" x="719" y="683.7285">Batch</text><line style="stroke:#181818;stroke-width:0.5;" x1="691" x2="757" y1="694" y2="694"/><line style="stroke:#181818;stroke-width:0.5;" x1="691" x2="757" y1="702" y2="702"/></g><g id="elem_GMN54"><path d="M611,673 L611,699.3516 A0,0 0 0 0 611,699.3516 L655,699.3516 A0,0 0 0 0 655,699.3516 L655,691 L689.79,686 L655,683 L655,683 L645,673 L611,673 A0,0 0 0 0 611,673 " fill="#FEFFDD" style="stroke:#181818;stroke-width:0.5;"/><path d="M645,673 L645,683 L655,683 L645,673 " fill="#FEFFDD" style="stroke:#181818;stroke-width:0.5;"/><text fill="#000000" font-family="sans-serif" font-size="13" lengthAdjust="spacing" textLength="23" x="617" y="691.4951">ELT</text></g><!--class Stream--><g id="elem_Stream"><rect fill="#F1F1F1" height="48" id="Stream" rx="2.5" ry="2.5" style="stroke:#181818;stroke-width:0.5;" width="77" x="785.5" y="554"/><ellipse cx="800.5" cy="570" fill="#ADD1B2" rx="11" ry="11" style="stroke:#181818;stroke-width:1.0;"/><path d="M803.2656,565.875 Q803.4219,565.6563 803.6094,565.5469 Q803.7969,565.4375 804.0156,565.4375 Q804.3906,565.4375 804.625,565.6953 Q804.8594,565.9531 804.8594,566.5625 L804.8594,568.0156 Q804.8594,568.625 804.625,568.8906 Q804.3906,569.1563 804.0156,569.1563 Q803.6719,569.1563 803.4688,568.9531 Q803.2656,568.7656 803.1563,568.25 Q803.1094,567.8906 802.9219,567.7031 Q802.5938,567.3281 801.9844,567.1094 Q801.375,566.8906 800.75,566.8906 Q799.9844,566.8906 799.3516,567.2188 Q798.7188,567.5469 798.2266,568.2969 Q797.7344,569.0469 797.7344,570.0781 L797.7344,571.1719 Q797.7344,572.4063 798.625,573.2266 Q799.5156,574.0469 801.1094,574.0469 Q802.0469,574.0469 802.7031,573.7969 Q803.0938,573.6406 803.5156,573.2031 Q803.7813,572.9375 803.9297,572.8594 Q804.0781,572.7813 804.2813,572.7813 Q804.6094,572.7813 804.8672,573.0391 Q805.125,573.2969 805.125,573.6406 Q805.125,573.9844 804.7813,574.3906 Q804.2813,574.9688 803.4844,575.2969 Q802.4063,575.75 801.1094,575.75 Q799.5938,575.75 798.3906,575.125 Q797.4063,574.625 796.7188,573.5547 Q796.0313,572.4844 796.0313,571.2031 L796.0313,570.0469 Q796.0313,568.7188 796.6484,567.5703 Q797.2656,566.4219 798.3594,565.8047 Q799.4531,565.1875 800.6875,565.1875 Q801.4219,565.1875 802.0703,565.3516 Q802.7188,565.5156 803.2656,565.875 Z " fill="#000000"/><text fill="#000000" font-family="sans-serif" font-size="14" lengthAdjust="spacing" textLength="45" x="814.5" y="575.7285">Stream</text><line style="stroke:#181818;stroke-width:0.5;" x1="786.5" x2="861.5" y1="586" y2="586"/><line style="stroke:#181818;stroke-width:0.5;" x1="786.5" x2="861.5" y1="594" y2="594"/></g><g id="elem_GMN64"><path d="M898,565 L898,574 L862.67,578 L898,582 L898,591.3516 A0,0 0 0 0 898,591.3516 L970,591.3516 A0,0 0 0 0 970,591.3516 L970,575 L960,565 L898,565 A0,0 0 0 0 898,565 " fill="#FEFFDD" style="stroke:#181818;stroke-width:0.5;"/><path d="M960,565 L960,575 L970,575 L960,565 " fill="#FEFFDD" style="stroke:#181818;stroke-width:0.5;"/><text fill="#000000" font-family="sans-serif" font-size="13" lengthAdjust="spacing" textLength="51" x="904" y="583.4951">Realtime</text></g><!--class Kafka--><g id="elem_Kafka"><rect fill="#F1F1F1" height="48" id="Kafka" rx="2.5" ry="2.5" style="stroke:#181818;stroke-width:0.5;" width="68" x="793" y="662"/><ellipse cx="808" cy="678" fill="#ADD1B2" rx="11" ry="11" style="stroke:#181818;stroke-width:1.0;"/><path d="M810.7656,673.875 Q810.9219,673.6563 811.1094,673.5469 Q811.2969,673.4375 811.5156,673.4375 Q811.8906,673.4375 812.125,673.6953 Q812.3594,673.9531 812.3594,674.5625 L812.3594,676.0156 Q812.3594,676.625 812.125,676.8906 Q811.8906,677.1563 811.5156,677.1563 Q811.1719,677.1563 810.9688,676.9531 Q810.7656,676.7656 810.6563,676.25 Q810.6094,675.8906 810.4219,675.7031 Q810.0938,675.3281 809.4844,675.1094 Q808.875,674.8906 808.25,674.8906 Q807.4844,674.8906 806.8516,675.2188 Q806.2188,675.5469 805.7266,676.2969 Q805.2344,677.0469 805.2344,678.0781 L805.2344,679.1719 Q805.2344,680.4063 806.125,681.2266 Q807.0156,682.0469 808.6094,682.0469 Q809.5469,682.0469 810.2031,681.7969 Q810.5938,681.6406 811.0156,681.2031 Q811.2813,680.9375 811.4297,680.8594 Q811.5781,680.7813 811.7813,680.7813 Q812.1094,680.7813 812.3672,681.0391 Q812.625,681.2969 812.625,681.6406 Q812.625,681.9844 812.2813,682.3906 Q811.7813,682.9688 810.9844,683.2969 Q809.9063,683.75 808.6094,683.75 Q807.0938,683.75 805.8906,683.125 Q804.9063,682.625 804.2188,681.5547 Q803.5313,680.4844 803.5313,679.2031 L803.5313,678.0469 Q803.5313,676.7188 804.1484,675.5703 Q804.7656,674.4219 805.8594,673.8047 Q806.9531,673.1875 808.1875,673.1875 Q808.9219,673.1875 809.5703,673.3516 Q810.2188,673.5156 810.7656,673.875 Z " fill="#000000"/><text fill="#000000" font-family="sans-serif" font-size="14" lengthAdjust="spacing" textLength="36" x="822" y="683.7285">Kafka</text><line style="stroke:#181818;stroke-width:0.5;" x1="794" x2="860" y1="694" y2="694"/><line style="stroke:#181818;stroke-width:0.5;" x1="794" x2="860" y1="702" y2="702"/></g><!--class DataUnstructured--><g id="elem_DataUnstructured"><rect fill="#F1F1F1" height="48" id="DataUnstructured" rx="2.5" ry="2.5" style="stroke:#181818;stroke-width:0.5;" width="143" x="510.5" y="440.5"/><ellipse cx="525.5" cy="456.5" fill="#ADD1B2" rx="11" ry="11" style="stroke:#181818;stroke-width:1.0;"/><path d="M528.2656,452.375 Q528.4219,452.1563 528.6094,452.0469 Q528.7969,451.9375 529.0156,451.9375 Q529.3906,451.9375 529.625,452.1953 Q529.8594,452.4531 529.8594,453.0625 L529.8594,454.5156 Q529.8594,455.125 529.625,455.3906 Q529.3906,455.6563 529.0156,455.6563 Q528.6719,455.6563 528.4688,455.4531 Q528.2656,455.2656 528.1563,454.75 Q528.1094,454.3906 527.9219,454.2031 Q527.5938,453.8281 526.9844,453.6094 Q526.375,453.3906 525.75,453.3906 Q524.9844,453.3906 524.3516,453.7188 Q523.7188,454.0469 523.2266,454.7969 Q522.7344,455.5469 522.7344,456.5781 L522.7344,457.6719 Q522.7344,458.9063 523.625,459.7266 Q524.5156,460.5469 526.1094,460.5469 Q527.0469,460.5469 527.7031,460.2969 Q528.0938,460.1406 528.5156,459.7031 Q528.7813,459.4375 528.9297,459.3594 Q529.0781,459.2813 529.2813,459.2813 Q529.6094,459.2813 529.8672,459.5391 Q530.125,459.7969 530.125,460.1406 Q530.125,460.4844 529.7813,460.8906 Q529.2813,461.4688 528.4844,461.7969 Q527.4063,462.25 526.1094,462.25 Q524.5938,462.25 523.3906,461.625 Q522.4063,461.125 521.7188,460.0547 Q521.0313,458.9844 521.0313,457.7031 L521.0313,456.5469 Q521.0313,455.2188 521.6484,454.0703 Q522.2656,452.9219 523.3594,452.3047 Q524.4531,451.6875 525.6875,451.6875 Q526.4219,451.6875 527.0703,451.8516 Q527.7188,452.0156 528.2656,452.375 Z " fill="#000000"/><text fill="#000000" font-family="sans-serif" font-size="14" lengthAdjust="spacing" textLength="111" x="539.5" y="462.2285">DataUnstructured</text><line style="stroke:#181818;stroke-width:0.5;" x1="511.5" x2="652.5" y1="472.5" y2="472.5"/><line style="stroke:#181818;stroke-width:0.5;" x1="511.5" x2="652.5" y1="480.5" y2="480.5"/></g><!--class DFS--><g id="elem_DFS"><rect fill="#F1F1F1" height="48" id="DFS" rx="2.5" ry="2.5" style="stroke:#181818;stroke-width:0.5;" width="60" x="607" y="554"/><ellipse cx="622" cy="570" fill="#ADD1B2" rx="11" ry="11" style="stroke:#181818;stroke-width:1.0;"/><path d="M624.7656,565.875 Q624.9219,565.6563 625.1094,565.5469 Q625.2969,565.4375 625.5156,565.4375 Q625.8906,565.4375 626.125,565.6953 Q626.3594,565.9531 626.3594,566.5625 L626.3594,568.0156 Q626.3594,568.625 626.125,568.8906 Q625.8906,569.1563 625.5156,569.1563 Q625.1719,569.1563 624.9688,568.9531 Q624.7656,568.7656 624.6563,568.25 Q624.6094,567.8906 624.4219,567.7031 Q624.0938,567.3281 623.4844,567.1094 Q622.875,566.8906 622.25,566.8906 Q621.4844,566.8906 620.8516,567.2188 Q620.2188,567.5469 619.7266,568.2969 Q619.2344,569.0469 619.2344,570.0781 L619.2344,571.1719 Q619.2344,572.4063 620.125,573.2266 Q621.0156,574.0469 622.6094,574.0469 Q623.5469,574.0469 624.2031,573.7969 Q624.5938,573.6406 625.0156,573.2031 Q625.2813,572.9375 625.4297,572.8594 Q625.5781,572.7813 625.7813,572.7813 Q626.1094,572.7813 626.3672,573.0391 Q626.625,573.2969 626.625,573.6406 Q626.625,573.9844 626.2813,574.3906 Q625.7813,574.9688 624.9844,575.2969 Q623.9063,575.75 622.6094,575.75 Q621.0938,575.75 619.8906,575.125 Q618.9063,574.625 618.2188,573.5547 Q617.5313,572.4844 617.5313,571.2031 L617.5313,570.0469 Q617.5313,568.7188 618.1484,567.5703 Q618.7656,566.4219 619.8594,565.8047 Q620.9531,565.1875 622.1875,565.1875 Q622.9219,565.1875 623.5703,565.3516 Q624.2188,565.5156 624.7656,565.875 Z " fill="#000000"/><text fill="#000000" font-family="sans-serif" font-size="14" lengthAdjust="spacing" textLength="28" x="636" y="575.7285">DFS</text><line style="stroke:#181818;stroke-width:0.5;" x1="608" x2="666" y1="586" y2="586"/><line style="stroke:#181818;stroke-width:0.5;" x1="608" x2="666" y1="594" y2="594"/></g><!--class S3--><g id="elem_S3"><rect fill="#F1F1F1" height="48" id="S3" rx="2.5" ry="2.5" style="stroke:#181818;stroke-width:0.5;" width="49" x="522.5" y="554"/><ellipse cx="537.5" cy="570" fill="#ADD1B2" rx="11" ry="11" style="stroke:#181818;stroke-width:1.0;"/><path d="M540.2656,565.875 Q540.4219,565.6563 540.6094,565.5469 Q540.7969,565.4375 541.0156,565.4375 Q541.3906,565.4375 541.625,565.6953 Q541.8594,565.9531 541.8594,566.5625 L541.8594,568.0156 Q541.8594,568.625 541.625,568.8906 Q541.3906,569.1563 541.0156,569.1563 Q540.6719,569.1563 540.4688,568.9531 Q540.2656,568.7656 540.1563,568.25 Q540.1094,567.8906 539.9219,567.7031 Q539.5938,567.3281 538.9844,567.1094 Q538.375,566.8906 537.75,566.8906 Q536.9844,566.8906 536.3516,567.2188 Q535.7188,567.5469 535.2266,568.2969 Q534.7344,569.0469 534.7344,570.0781 L534.7344,571.1719 Q534.7344,572.4063 535.625,573.2266 Q536.5156,574.0469 538.1094,574.0469 Q539.0469,574.0469 539.7031,573.7969 Q540.0938,573.6406 540.5156,573.2031 Q540.7813,572.9375 540.9297,572.8594 Q541.0781,572.7813 541.2813,572.7813 Q541.6094,572.7813 541.8672,573.0391 Q542.125,573.2969 542.125,573.6406 Q542.125,573.9844 541.7813,574.3906 Q541.2813,574.9688 540.4844,575.2969 Q539.4063,575.75 538.1094,575.75 Q536.5938,575.75 535.3906,575.125 Q534.4063,574.625 533.7188,573.5547 Q533.0313,572.4844 533.0313,571.2031 L533.0313,570.0469 Q533.0313,568.7188 533.6484,567.5703 Q534.2656,566.4219 535.3594,565.8047 Q536.4531,565.1875 537.6875,565.1875 Q538.4219,565.1875 539.0703,565.3516 Q539.7188,565.5156 540.2656,565.875 Z " fill="#000000"/><text fill="#000000" font-family="sans-serif" font-size="14" lengthAdjust="spacing" textLength="17" x="551.5" y="575.7285">S3</text><line style="stroke:#181818;stroke-width:0.5;" x1="523.5" x2="570.5" y1="586" y2="586"/><line style="stroke:#181818;stroke-width:0.5;" x1="523.5" x2="570.5" y1="594" y2="594"/></g><!--class ?????????--><g id="elem_&#1054;&#1073;&#1088;&#1072;&#1073;&#1086;&#1090;&#1082;&#1072;"><rect codeLine="54" fill="#F1F1F1" height="48" id="&#1054;&#1073;&#1088;&#1072;&#1073;&#1086;&#1090;&#1082;&#1072;" rx="2.5" ry="2.5" style="stroke:#181818;stroke-width:0.5;" width="116" x="869" y="137"/><ellipse cx="884" cy="153" fill="#ADD1B2" rx="11" ry="11" style="stroke:#181818;stroke-width:1.0;"/><path d="M886.7656,148.875 Q886.9219,148.6563 887.1094,148.5469 Q887.2969,148.4375 887.5156,148.4375 Q887.8906,148.4375 888.125,148.6953 Q888.3594,148.9531 888.3594,149.5625 L888.3594,151.0156 Q888.3594,151.625 888.125,151.8906 Q887.8906,152.1563 887.5156,152.1563 Q887.1719,152.1563 886.9688,151.9531 Q886.7656,151.7656 886.6563,151.25 Q886.6094,150.8906 886.4219,150.7031 Q886.0938,150.3281 885.4844,150.1094 Q884.875,149.8906 884.25,149.8906 Q883.4844,149.8906 882.8516,150.2188 Q882.2188,150.5469 881.7266,151.2969 Q881.2344,152.0469 881.2344,153.0781 L881.2344,154.1719 Q881.2344,155.4063 882.125,156.2266 Q883.0156,157.0469 884.6094,157.0469 Q885.5469,157.0469 886.2031,156.7969 Q886.5938,156.6406 887.0156,156.2031 Q887.2813,155.9375 887.4297,155.8594 Q887.5781,155.7813 887.7813,155.7813 Q888.1094,155.7813 888.3672,156.0391 Q888.625,156.2969 888.625,156.6406 Q888.625,156.9844 888.2813,157.3906 Q887.7813,157.9688 886.9844,158.2969 Q885.9063,158.75 884.6094,158.75 Q883.0938,158.75 881.8906,158.125 Q880.9063,157.625 880.2188,156.5547 Q879.5313,155.4844 879.5313,154.2031 L879.5313,153.0469 Q879.5313,151.7188 880.1484,150.5703 Q880.7656,149.4219 881.8594,148.8047 Q882.9531,148.1875 884.1875,148.1875 Q884.9219,148.1875 885.5703,148.3516 Q886.2188,148.5156 886.7656,148.875 Z " fill="#000000"/><text fill="#000000" font-family="sans-serif" font-size="14" lengthAdjust="spacing" textLength="84" x="898" y="158.7285">3 &#1054;&#1073;&#1088;&#1072;&#1073;&#1086;&#1090;&#1082;&#1072;</text><line style="stroke:#181818;stroke-width:0.5;" x1="870" x2="984" y1="169" y2="169"/><line style="stroke:#181818;stroke-width:0.5;" x1="870" x2="984" y1="177" y2="177"/></g><!--class MapReduce--><g id="elem_MapReduce"><rect fill="#F1F1F1" height="48" id="MapReduce" rx="2.5" ry="2.5" style="stroke:#181818;stroke-width:0.5;" width="108" x="820" y="297"/><ellipse cx="835" cy="313" fill="#ADD1B2" rx="11" ry="11" style="stroke:#181818;stroke-width:1.0;"/><path d="M837.7656,308.875 Q837.9219,308.6563 838.1094,308.5469 Q838.2969,308.4375 838.5156,308.4375 Q838.8906,308.4375 839.125,308.6953 Q839.3594,308.9531 839.3594,309.5625 L839.3594,311.0156 Q839.3594,311.625 839.125,311.8906 Q838.8906,312.1563 838.5156,312.1563 Q838.1719,312.1563 837.9688,311.9531 Q837.7656,311.7656 837.6563,311.25 Q837.6094,310.8906 837.4219,310.7031 Q837.0938,310.3281 836.4844,310.1094 Q835.875,309.8906 835.25,309.8906 Q834.4844,309.8906 833.8516,310.2188 Q833.2188,310.5469 832.7266,311.2969 Q832.2344,312.0469 832.2344,313.0781 L832.2344,314.1719 Q832.2344,315.4063 833.125,316.2266 Q834.0156,317.0469 835.6094,317.0469 Q836.5469,317.0469 837.2031,316.7969 Q837.5938,316.6406 838.0156,316.2031 Q838.2813,315.9375 838.4297,315.8594 Q838.5781,315.7813 838.7813,315.7813 Q839.1094,315.7813 839.3672,316.0391 Q839.625,316.2969 839.625,316.6406 Q839.625,316.9844 839.2813,317.3906 Q838.7813,317.9688 837.9844,318.2969 Q836.9063,318.75 835.6094,318.75 Q834.0938,318.75 832.8906,318.125 Q831.9063,317.625 831.2188,316.5547 Q830.5313,315.4844 830.5313,314.2031 L830.5313,313.0469 Q830.5313,311.7188 831.1484,310.5703 Q831.7656,309.4219 832.8594,308.8047 Q833.9531,308.1875 835.1875,308.1875 Q835.9219,308.1875 836.5703,308.3516 Q837.2188,308.5156 837.7656,308.875 Z " fill="#000000"/><text fill="#000000" font-family="sans-serif" font-size="14" lengthAdjust="spacing" textLength="76" x="849" y="318.7285">MapReduce</text><line style="stroke:#181818;stroke-width:0.5;" x1="821" x2="927" y1="329" y2="329"/><line style="stroke:#181818;stroke-width:0.5;" x1="821" x2="927" y1="337" y2="337"/></g><g id="elem_GMN79"><path d="M963.5,299.5 L963.5,317 L928.25,321 L963.5,325 L963.5,342.2031 A0,0 0 0 0 963.5,342.2031 L1066.5,342.2031 A0,0 0 0 0 1066.5,342.2031 L1066.5,309.5 L1056.5,299.5 L963.5,299.5 A0,0 0 0 0 963.5,299.5 " fill="#FEFFDD" style="stroke:#181818;stroke-width:0.5;"/><path d="M1056.5,299.5 L1056.5,309.5 L1066.5,309.5 L1056.5,299.5 " fill="#FEFFDD" style="stroke:#181818;stroke-width:0.5;"/><text fill="#000000" font-family="sans-serif" font-size="13" lengthAdjust="spacing" textLength="44" x="969.5" y="317.9951">Hadoop</text><text fill="#000000" font-family="sans-serif" font-size="13" lengthAdjust="spacing" textLength="82" x="969.5" y="334.3467">Apache Spark</text></g><!--class ??????--><g id="elem_&#1040;&#1085;&#1072;&#1083;&#1080;&#1079;"><rect codeLine="62" fill="#F1F1F1" height="48" id="&#1040;&#1085;&#1072;&#1083;&#1080;&#1079;" rx="2.5" ry="2.5" style="stroke:#181818;stroke-width:0.5;" width="91" x="1120.5" y="137"/><ellipse cx="1135.5" cy="153" fill="#ADD1B2" rx="11" ry="11" style="stroke:#181818;stroke-width:1.0;"/><path d="M1138.2656,148.875 Q1138.4219,148.6563 1138.6094,148.5469 Q1138.7969,148.4375 1139.0156,148.4375 Q1139.3906,148.4375 1139.625,148.6953 Q1139.8594,148.9531 1139.8594,149.5625 L1139.8594,151.0156 Q1139.8594,151.625 1139.625,151.8906 Q1139.3906,152.1563 1139.0156,152.1563 Q1138.6719,152.1563 1138.4688,151.9531 Q1138.2656,151.7656 1138.1563,151.25 Q1138.1094,150.8906 1137.9219,150.7031 Q1137.5938,150.3281 1136.9844,150.1094 Q1136.375,149.8906 1135.75,149.8906 Q1134.9844,149.8906 1134.3516,150.2188 Q1133.7188,150.5469 1133.2266,151.2969 Q1132.7344,152.0469 1132.7344,153.0781 L1132.7344,154.1719 Q1132.7344,155.4063 1133.625,156.2266 Q1134.5156,157.0469 1136.1094,157.0469 Q1137.0469,157.0469 1137.7031,156.7969 Q1138.0938,156.6406 1138.5156,156.2031 Q1138.7813,155.9375 1138.9297,155.8594 Q1139.0781,155.7813 1139.2813,155.7813 Q1139.6094,155.7813 1139.8672,156.0391 Q1140.125,156.2969 1140.125,156.6406 Q1140.125,156.9844 1139.7813,157.3906 Q1139.2813,157.9688 1138.4844,158.2969 Q1137.4063,158.75 1136.1094,158.75 Q1134.5938,158.75 1133.3906,158.125 Q1132.4063,157.625 1131.7188,156.5547 Q1131.0313,155.4844 1131.0313,154.2031 L1131.0313,153.0469 Q1131.0313,151.7188 1131.6484,150.5703 Q1132.2656,149.4219 1133.3594,148.8047 Q1134.4531,148.1875 1135.6875,148.1875 Q1136.4219,148.1875 1137.0703,148.3516 Q1137.7188,148.5156 1138.2656,148.875 Z " fill="#000000"/><text fill="#000000" font-family="sans-serif" font-size="14" lengthAdjust="spacing" textLength="59" x="1149.5" y="158.7285">4 &#1040;&#1085;&#1072;&#1083;&#1080;&#1079;</text><line style="stroke:#181818;stroke-width:0.5;" x1="1121.5" x2="1210.5" y1="169" y2="169"/><line style="stroke:#181818;stroke-width:0.5;" x1="1121.5" x2="1210.5" y1="177" y2="177"/></g><!--class SQL_BI--><g id="elem_SQL_BI"><rect fill="#F1F1F1" height="48" id="SQL_BI" rx="2.5" ry="2.5" style="stroke:#181818;stroke-width:0.5;" width="80" x="1173" y="297"/><ellipse cx="1188" cy="313" fill="#ADD1B2" rx="11" ry="11" style="stroke:#181818;stroke-width:1.0;"/><path d="M1190.7656,308.875 Q1190.9219,308.6563 1191.1094,308.5469 Q1191.2969,308.4375 1191.5156,308.4375 Q1191.8906,308.4375 1192.125,308.6953 Q1192.3594,308.9531 1192.3594,309.5625 L1192.3594,311.0156 Q1192.3594,311.625 1192.125,311.8906 Q1191.8906,312.1563 1191.5156,312.1563 Q1191.1719,312.1563 1190.9688,311.9531 Q1190.7656,311.7656 1190.6563,311.25 Q1190.6094,310.8906 1190.4219,310.7031 Q1190.0938,310.3281 1189.4844,310.1094 Q1188.875,309.8906 1188.25,309.8906 Q1187.4844,309.8906 1186.8516,310.2188 Q1186.2188,310.5469 1185.7266,311.2969 Q1185.2344,312.0469 1185.2344,313.0781 L1185.2344,314.1719 Q1185.2344,315.4063 1186.125,316.2266 Q1187.0156,317.0469 1188.6094,317.0469 Q1189.5469,317.0469 1190.2031,316.7969 Q1190.5938,316.6406 1191.0156,316.2031 Q1191.2813,315.9375 1191.4297,315.8594 Q1191.5781,315.7813 1191.7813,315.7813 Q1192.1094,315.7813 1192.3672,316.0391 Q1192.625,316.2969 1192.625,316.6406 Q1192.625,316.9844 1192.2813,317.3906 Q1191.7813,317.9688 1190.9844,318.2969 Q1189.9063,318.75 1188.6094,318.75 Q1187.0938,318.75 1185.8906,318.125 Q1184.9063,317.625 1184.2188,316.5547 Q1183.5313,315.4844 1183.5313,314.2031 L1183.5313,313.0469 Q1183.5313,311.7188 1184.1484,310.5703 Q1184.7656,309.4219 1185.8594,308.8047 Q1186.9531,308.1875 1188.1875,308.1875 Q1188.9219,308.1875 1189.5703,308.3516 Q1190.2188,308.5156 1190.7656,308.875 Z " fill="#000000"/><text fill="#000000" font-family="sans-serif" font-size="14" lengthAdjust="spacing" textLength="48" x="1202" y="318.7285">SQL_BI</text><line style="stroke:#181818;stroke-width:0.5;" x1="1174" x2="1252" y1="329" y2="329"/><line style="stroke:#181818;stroke-width:0.5;" x1="1174" x2="1252" y1="337" y2="337"/></g><g id="elem_GMN86"><path d="M1288.5,308 L1288.5,317 L1253.25,321 L1288.5,325 L1288.5,334.3516 A0,0 0 0 0 1288.5,334.3516 L1361.5,334.3516 A0,0 0 0 0 1361.5,334.3516 L1361.5,318 L1351.5,308 L1288.5,308 A0,0 0 0 0 1288.5,308 " fill="#FEFFDD" style="stroke:#181818;stroke-width:0.5;"/><path d="M1351.5,308 L1351.5,318 L1361.5,318 L1351.5,308 " fill="#FEFFDD" style="stroke:#181818;stroke-width:0.5;"/><text fill="#000000" font-family="sans-serif" font-size="13" lengthAdjust="spacing" textLength="52" x="1294.5" y="326.4951">Power BI</text></g><!--class ?????????--><g id="elem_&#1053;&#1077;&#1081;&#1088;&#1086;&#1089;&#1077;&#1090;&#1080;"><rect fill="#F1F1F1" height="48" id="&#1053;&#1077;&#1081;&#1088;&#1086;&#1089;&#1077;&#1090;&#1080;" rx="2.5" ry="2.5" style="stroke:#181818;stroke-width:0.5;" width="103" x="1068.5" y="440.5"/><ellipse cx="1083.5" cy="456.5" fill="#ADD1B2" rx="11" ry="11" style="stroke:#181818;stroke-width:1.0;"/><path d="M1086.2656,452.375 Q1086.4219,452.1563 1086.6094,452.0469 Q1086.7969,451.9375 1087.0156,451.9375 Q1087.3906,451.9375 1087.625,452.1953 Q1087.8594,452.4531 1087.8594,453.0625 L1087.8594,454.5156 Q1087.8594,455.125 1087.625,455.3906 Q1087.3906,455.6563 1087.0156,455.6563 Q1086.6719,455.6563 1086.4688,455.4531 Q1086.2656,455.2656 1086.1563,454.75 Q1086.1094,454.3906 1085.9219,454.2031 Q1085.5938,453.8281 1084.9844,453.6094 Q1084.375,453.3906 1083.75,453.3906 Q1082.9844,453.3906 1082.3516,453.7188 Q1081.7188,454.0469 1081.2266,454.7969 Q1080.7344,455.5469 1080.7344,456.5781 L1080.7344,457.6719 Q1080.7344,458.9063 1081.625,459.7266 Q1082.5156,460.5469 1084.1094,460.5469 Q1085.0469,460.5469 1085.7031,460.2969 Q1086.0938,460.1406 1086.5156,459.7031 Q1086.7813,459.4375 1086.9297,459.3594 Q1087.0781,459.2813 1087.2813,459.2813 Q1087.6094,459.2813 1087.8672,459.5391 Q1088.125,459.7969 1088.125,460.1406 Q1088.125,460.4844 1087.7813,460.8906 Q1087.2813,461.4688 1086.4844,461.7969 Q1085.4063,462.25 1084.1094,462.25 Q1082.5938,462.25 1081.3906,461.625 Q1080.4063,461.125 1079.7188,460.0547 Q1079.0313,458.9844 1079.0313,457.7031 L1079.0313,456.5469 Q1079.0313,455.2188 1079.6484,454.0703 Q1080.2656,452.9219 1081.3594,452.3047 Q1082.4531,451.6875 1083.6875,451.6875 Q1084.4219,451.6875 1085.0703,451.8516 Q1085.7188,452.0156 1086.2656,452.375 Z " fill="#000000"/><text fill="#000000" font-family="sans-serif" font-size="14" lengthAdjust="spacing" textLength="71" x="1097.5" y="462.2285">&#1053;&#1077;&#1081;&#1088;&#1086;&#1089;&#1077;&#1090;&#1080;</text><line style="stroke:#181818;stroke-width:0.5;" x1="1069.5" x2="1170.5" y1="472.5" y2="472.5"/><line style="stroke:#181818;stroke-width:0.5;" x1="1069.5" x2="1170.5" y1="480.5" y2="480.5"/></g><!--link BD to ????????????????????--><g id="link_BD_&#1061;&#1072;&#1088;&#1072;&#1082;&#1090;&#1077;&#1088;&#1080;&#1089;&#1090;&#1080;&#1082;&#1080;&#1044;&#1072;&#1085;&#1085;&#1099;&#1093;"><path codeLine="4" d="M1207.3,36.66 C1291.99,46.72 1491.09,73.05 1654,115 C1677.08,120.95 1701.93,129.16 1723.59,136.94 " fill="none" id="BD-&#1061;&#1072;&#1088;&#1072;&#1082;&#1090;&#1077;&#1088;&#1080;&#1089;&#1090;&#1080;&#1082;&#1080;&#1044;&#1072;&#1085;&#1085;&#1099;&#1093;" style="stroke:#181818;stroke-width:1.0;"/></g><!--link ???????????????????? to ?????V--><g id="link_&#1061;&#1072;&#1088;&#1072;&#1082;&#1090;&#1077;&#1088;&#1080;&#1089;&#1090;&#1080;&#1082;&#1080;&#1044;&#1072;&#1085;&#1085;&#1099;&#1093;_&#1064;&#1077;&#1089;&#1090;&#1100;V"><path codeLine="5" d="M1785.66,185.31 C1789.07,215.27 1794.96,266.97 1798.36,296.85 " fill="none" id="&#1061;&#1072;&#1088;&#1072;&#1082;&#1090;&#1077;&#1088;&#1080;&#1089;&#1090;&#1080;&#1082;&#1080;&#1044;&#1072;&#1085;&#1085;&#1099;&#1093;-&#1064;&#1077;&#1089;&#1090;&#1100;V" style="stroke:#181818;stroke-width:1.0;"/></g><!--link BD to ????--><g id="link_BD_&#1057;&#1073;&#1086;&#1088;"><path codeLine="16" d="M1207.17,51.02 C1260.22,75.54 1351.79,117.85 1403.85,141.91 " fill="none" id="BD-&#1057;&#1073;&#1086;&#1088;" style="stroke:#181818;stroke-width:1.0;"/></g><!--link ???? to DataClearning--><g id="link_&#1057;&#1073;&#1086;&#1088;_DataClearning"><path codeLine="24" d="M1460.67,185.3 C1475.31,205.76 1495.51,236.88 1507,267 C1529.86,326.95 1538.48,402.87 1541.5,440.37 " fill="none" id="&#1057;&#1073;&#1086;&#1088;-DataClearning" style="stroke:#181818;stroke-width:1.0;"/></g><!--link ???? to SyncData--><g id="link_&#1057;&#1073;&#1086;&#1088;_SyncData"><path codeLine="25" d="M1443,185.31 C1443,215.27 1443,266.97 1443,296.85 " fill="none" id="&#1057;&#1073;&#1086;&#1088;-SyncData" style="stroke:#181818;stroke-width:1.0;"/></g><!--link BD to ????????--><g id="link_BD_&#1061;&#1088;&#1072;&#1085;&#1077;&#1085;&#1080;&#1077;"><path codeLine="34" d="M1124.93,41 C1021.86,63.59 752.2,122.7 636.27,148.11 " fill="none" id="BD-&#1061;&#1088;&#1072;&#1085;&#1077;&#1085;&#1080;&#1077;" style="stroke:#181818;stroke-width:1.0;"/></g><!--link ???????? to DWH--><g id="link_&#1061;&#1088;&#1072;&#1085;&#1077;&#1085;&#1080;&#1077;_DWH"><path codeLine="35" d="M559.34,185.16 C504.43,241.28 364.73,384.06 309.74,440.26 " fill="none" id="&#1061;&#1088;&#1072;&#1085;&#1077;&#1085;&#1080;&#1077;-DWH" style="stroke:#181818;stroke-width:1.0;"/></g><!--link DWH to ?????--><g id="link_DWH_&#1056;&#1057;&#1059;&#1041;&#1044;"><path codeLine="41" d="M287,488.6 C287,507.74 287,534.8 287,553.93 " fill="none" id="DWH-&#1056;&#1057;&#1059;&#1041;&#1044;" style="stroke:#181818;stroke-width:1.0;"/></g><!--link DWH to DataMart--><g id="link_DWH_DataMart"><path codeLine="42" d="M311.66,488.6 C332.08,507.74 360.96,534.8 381.37,553.93 " fill="none" id="DWH-DataMart" style="stroke:#181818;stroke-width:1.0;"/></g><!--link DWH to ???????????????--><g id="link_DWH_&#1052;&#1086;&#1076;&#1077;&#1083;&#1100;&#1061;&#1088;&#1072;&#1085;&#1080;&#1083;&#1080;&#1097;&#1072;"><path codeLine="43" d="M255.3,488.6 C229.04,507.74 191.91,534.8 165.66,553.93 " fill="none" id="DWH-&#1052;&#1086;&#1076;&#1077;&#1083;&#1100;&#1061;&#1088;&#1072;&#1085;&#1080;&#1083;&#1080;&#1097;&#1072;" style="stroke:#181818;stroke-width:1.0;"/></g><!--link ??????????????? to DataVault--><g id="link_&#1052;&#1086;&#1076;&#1077;&#1083;&#1100;&#1061;&#1088;&#1072;&#1085;&#1080;&#1083;&#1080;&#1097;&#1072;_DataVault"><path codeLine="44" d="M134,602 C134,619.66 134,643.94 134,661.68 " fill="none" id="&#1052;&#1086;&#1076;&#1077;&#1083;&#1100;&#1061;&#1088;&#1072;&#1085;&#1080;&#1083;&#1080;&#1097;&#1072;-DataVault" style="stroke:#181818;stroke-width:1.0;"/></g><!--link DataVault to ?????????--><g id="link_DataVault_&#1057;&#1090;&#1088;&#1091;&#1082;&#1090;&#1091;&#1088;&#1072;"><path codeLine="75" d="M134,710 C134,727.66 134,751.94 134,769.68 " fill="none" id="DataVault-&#1057;&#1090;&#1088;&#1091;&#1082;&#1090;&#1091;&#1088;&#1072;" style="stroke:#181818;stroke-width:1.0;"/></g><!--link ????????? to ???--><g id="link_&#1057;&#1090;&#1088;&#1091;&#1082;&#1090;&#1091;&#1088;&#1072;_&#1061;&#1072;&#1073;"><path codeLine="76" d="M112.52,818 C96.03,835.66 73.35,859.94 56.78,877.68 " fill="none" id="&#1057;&#1090;&#1088;&#1091;&#1082;&#1090;&#1091;&#1088;&#1072;-&#1061;&#1072;&#1073;" style="stroke:#181818;stroke-width:1.0;"/></g><!--link ????????? to ?????--><g id="link_&#1057;&#1090;&#1088;&#1091;&#1082;&#1090;&#1091;&#1088;&#1072;_&#1057;&#1074;&#1103;&#1079;&#1100;"><path codeLine="77" d="M134,818 C134,835.66 134,859.94 134,877.68 " fill="none" id="&#1057;&#1090;&#1088;&#1091;&#1082;&#1090;&#1091;&#1088;&#1072;-&#1057;&#1074;&#1103;&#1079;&#1100;" style="stroke:#181818;stroke-width:1.0;"/></g><!--link ????????? to ????????--><g id="link_&#1057;&#1090;&#1088;&#1091;&#1082;&#1090;&#1091;&#1088;&#1072;_&#1057;&#1072;&#1090;&#1077;&#1083;&#1083;&#1080;&#1090;"><path codeLine="78" d="M159.82,818 C179.64,835.66 206.91,859.94 226.82,877.68 " fill="none" id="&#1057;&#1090;&#1088;&#1091;&#1082;&#1090;&#1091;&#1088;&#1072;-&#1057;&#1072;&#1090;&#1077;&#1083;&#1083;&#1080;&#1090;" style="stroke:#181818;stroke-width:1.0;"/></g><!--link ???????? to DataLake--><g id="link_&#1061;&#1088;&#1072;&#1085;&#1077;&#1085;&#1080;&#1077;_DataLake"><path codeLine="47" d="M582,185.31 C582,215.27 582,266.97 582,296.85 " fill="none" id="&#1061;&#1088;&#1072;&#1085;&#1077;&#1085;&#1080;&#1077;-DataLake" style="stroke:#181818;stroke-width:1.0;"/></g><!--link DataLake to ????????????????--><g id="link_DataLake_&#1055;&#1088;&#1086;&#1094;&#1077;&#1089;&#1089;&#1054;&#1073;&#1088;&#1072;&#1073;&#1086;&#1090;&#1082;&#1080;"><path codeLine="84" d="M609.08,345.11 C620.35,354.55 633.67,365.48 646,375 C675.77,398 710.66,422.92 735.66,440.43 " fill="none" id="DataLake-&#1055;&#1088;&#1086;&#1094;&#1077;&#1089;&#1089;&#1054;&#1073;&#1088;&#1072;&#1073;&#1086;&#1090;&#1082;&#1080;" style="stroke:#181818;stroke-width:1.0;"/></g><!--link ???????????????? to Batch--><g id="link_&#1055;&#1088;&#1086;&#1094;&#1077;&#1089;&#1089;&#1054;&#1073;&#1088;&#1072;&#1073;&#1086;&#1090;&#1082;&#1080;_Batch"><path codeLine="85" d="M764.27,488.58 C755.63,530.73 737.38,619.73 728.73,661.9 " fill="none" id="&#1055;&#1088;&#1086;&#1094;&#1077;&#1089;&#1089;&#1054;&#1073;&#1088;&#1072;&#1073;&#1086;&#1090;&#1082;&#1080;-Batch" style="stroke:#181818;stroke-width:1.0;"/></g><!--link Batch to Hive--><g id="link_Batch_Hive"><path codeLine="87" d="M735.28,710 C743.95,727.66 755.86,751.94 764.56,769.68 " fill="none" id="Batch-Hive" style="stroke:#181818;stroke-width:1.0;"/></g><!--link Batch to Hadoop--><g id="link_Batch_Hadoop"><path codeLine="88" d="M712.5,710 C703.67,727.66 691.53,751.94 682.66,769.68 " fill="none" id="Batch-Hadoop" style="stroke:#181818;stroke-width:1.0;"/></g><!--link ???????????????? to Stream--><g id="link_&#1055;&#1088;&#1086;&#1094;&#1077;&#1089;&#1089;&#1054;&#1073;&#1088;&#1072;&#1073;&#1086;&#1090;&#1082;&#1080;_Stream"><path codeLine="89" d="M780.4,488.6 C789.84,507.74 803.18,534.8 812.62,553.93 " fill="none" id="&#1055;&#1088;&#1086;&#1094;&#1077;&#1089;&#1089;&#1054;&#1073;&#1088;&#1072;&#1073;&#1086;&#1090;&#1082;&#1080;-Stream" style="stroke:#181818;stroke-width:1.0;"/></g><!--link Stream to Kafka--><g id="link_Stream_Kafka"><path codeLine="91" d="M824.65,602 C825.15,619.66 825.84,643.94 826.34,661.68 " fill="none" id="Stream-Kafka" style="stroke:#181818;stroke-width:1.0;"/></g><!--link DataLake to DataUnstructured--><g id="link_DataLake_DataUnstructured"><path codeLine="93" d="M582,345.05 C582,371.36 582,414.15 582,440.46 " fill="none" id="DataLake-DataUnstructured" style="stroke:#181818;stroke-width:1.0;"/></g><!--link DataUnstructured to DFS--><g id="link_DataUnstructured_DFS"><path codeLine="94" d="M593.4,488.6 C602.84,507.74 616.18,534.8 625.62,553.93 " fill="none" id="DataUnstructured-DFS" style="stroke:#181818;stroke-width:1.0;"/></g><!--link DataUnstructured to S3--><g id="link_DataUnstructured_S3"><path codeLine="95" d="M574.75,488.6 C568.74,507.74 560.25,534.8 554.24,553.93 " fill="none" id="DataUnstructured-S3" style="stroke:#181818;stroke-width:1.0;"/></g><!--link BD to ?????????--><g id="link_BD_&#1054;&#1073;&#1088;&#1072;&#1073;&#1086;&#1090;&#1082;&#1072;"><path codeLine="55" d="M1124.91,54 C1081.67,77.16 1013.9,113.46 969.97,136.99 " fill="none" id="BD-&#1054;&#1073;&#1088;&#1072;&#1073;&#1086;&#1090;&#1082;&#1072;" style="stroke:#181818;stroke-width:1.0;"/></g><!--link ????????? to MapReduce--><g id="link_&#1054;&#1073;&#1088;&#1072;&#1073;&#1086;&#1090;&#1082;&#1072;_MapReduce"><path codeLine="56" d="M919.18,185.31 C909.13,215.27 891.79,266.97 881.77,296.85 " fill="none" id="&#1054;&#1073;&#1088;&#1072;&#1073;&#1086;&#1090;&#1082;&#1072;-MapReduce" style="stroke:#181818;stroke-width:1.0;"/></g><!--link BD to ??????--><g id="link_BD_&#1040;&#1085;&#1072;&#1083;&#1080;&#1079;"><path codeLine="63" d="M1166,55.18 C1166,78.38 1166,113.86 1166,136.99 " fill="none" id="BD-&#1040;&#1085;&#1072;&#1083;&#1080;&#1079;" style="stroke:#181818;stroke-width:1.0;"/></g><!--link ?????? to SQL_BI--><g id="link_&#1040;&#1085;&#1072;&#1083;&#1080;&#1079;_SQL_BI"><path codeLine="64" d="M1172.94,185.31 C1181.85,215.27 1197.22,266.97 1206.11,296.85 " fill="none" id="&#1040;&#1085;&#1072;&#1083;&#1080;&#1079;-SQL_BI" style="stroke:#181818;stroke-width:1.0;"/></g><!--link ?????? to ?????????--><g id="link_&#1040;&#1085;&#1072;&#1083;&#1080;&#1079;_&#1053;&#1077;&#1081;&#1088;&#1086;&#1089;&#1077;&#1090;&#1080;"><path codeLine="68" d="M1162.47,185.16 C1153.9,241.28 1132.12,384.06 1123.55,440.26 " fill="none" id="&#1040;&#1085;&#1072;&#1083;&#1080;&#1079;-&#1053;&#1077;&#1081;&#1088;&#1086;&#1089;&#1077;&#1090;&#1080;" style="stroke:#181818;stroke-width:1.0;"/></g><!--SRC=[ZLHDRzD043tRlsAR4qW4KJwkI4rIgQYf14qLBaXeOszJAuuTEGweFQKfvRCI8FLO40LLukZIH3LjxD-m-u-O6ITEd4GLXqZhDpDltxoPZM7pTfiLIeotMQvWrKlSvpbT1o2VP_9C1geh0tcbUd80fr3jmocKL_0x1ZoIaVga3dNjVpE9zJTaG5GTLNNDSNt1FAk-u-jQrRKxJS5aBC_LHpcGG_Pu-T6zUks52J5XkuRbxpAr3vmnt10d713YdYKmWlTVmaqnCIHVeHnWiSUfMFQJCaZuGpAZB0slMJRbXL0w10cHUWVd8UPFykoEOEejHgVhXMCox4RN3V9Kdifp54hEBgUVkR6te- -H1RRO1WS0Z84v1EdNwWWjG_do51G7Q6TYAcWQa0tKd3m19Nr0iIxAu85wZrZAyvDCYQ0t71JcnvDegbzBbUT19ov4qHRSSooddecnogvZO3WxnMAfo5QtocorlALhcw9bMmRtBTVHjOhl2Tu46dPhdMyteEuEMsdoFTTXwvOZzgpsxGKsder4eztG6DbvVmvERPt1SJLd2AYhvsjPrUeGLugMvnf-5-3dPq1njbrrW6kj3cYjkxGxo1Vh6lGvRHomaeOVuD8l-LKUfn3QjC4zVv9p0Znzq8Hp7YiCuUvGVP01JU-6-9YooZisS2vPZc5tJC5gLjq4-6whqxINwFIACXQwG0nbtX1P9p17zLYoL6J8XOmPUF66djsGDZ70fpJr_YSUtA35nhl6O_q-UgAuJJtOsO06-s1181tjN0J4pjD0vWPlRGgpOynqjiPDrstfsagB6pk2LLhSQonOk2_GLe1EoqlIz303fMgcCD0nNOHFurdvPU59zlgdxclXCKIddbgs3cY_WV5_axytd8CCzNy0]--></g></svg>