<?xml version="1.0" encoding="us-ascii" standalone="no"?><svg xmlns="http://www.w3.org/2000/svg" xmlns:xlink="http://www.w3.org/1999/xlink" contentStyleType="text/css" height="234px" preserveAspectRatio="none" style="width:1147px;height:234px;background:#FFFFFF;" version="1.1" viewBox="0 0 1147 234" width="1147px" zoomAndPan="magnify"><defs/><g><text fill="#000000" font-family="sans-serif" font-size="14" font-weight="bold" lengthAdjust="spacing" textLength="232" x="450.75" y="24.5332">&#1055;&#1072;&#1090;&#1090;&#1077;&#1088;&#1085;&#1099; &#1088;&#1072;&#1089;&#1087;&#1080;&#1083;&#1072; &#1084;&#1086;&#1085;&#1086;&#1083;&#1080;&#1090;&#1072;: &#1041;&#1044;</text><!--class ?????????? ??--><g id="elem_&#1057;&#1086;&#1074;&#1084;&#1077;&#1089;&#1090;&#1085;&#1072;&#1103; &#1041;&#1044;"><rect codeLine="5" fill="#F1F1F1" height="48" id="&#1057;&#1086;&#1074;&#1084;&#1077;&#1089;&#1090;&#1085;&#1072;&#1103; &#1041;&#1044;" rx="2.5" ry="2.5" style="stroke:#181818;stroke-width:0.5;" width="135" x="598" y="52.1094"/><ellipse cx="613" cy="68.1094" fill="#ADD1B2" rx="11" ry="11" style="stroke:#181818;stroke-width:1.0;"/><path d="M615.7656,63.9844 Q615.9219,63.7656 616.1094,63.6563 Q616.2969,63.5469 616.5156,63.5469 Q616.8906,63.5469 617.125,63.8047 Q617.3594,64.0625 617.3594,64.6719 L617.3594,66.125 Q617.3594,66.7344 617.125,67 Q616.8906,67.2656 616.5156,67.2656 Q616.1719,67.2656 615.9688,67.0625 Q615.7656,66.875 615.6563,66.3594 Q615.6094,66 615.4219,65.8125 Q615.0938,65.4375 614.4844,65.2188 Q613.875,65 613.25,65 Q612.4844,65 611.8516,65.3281 Q611.2188,65.6563 610.7266,66.4063 Q610.2344,67.1563 610.2344,68.1875 L610.2344,69.2813 Q610.2344,70.5156 611.125,71.3359 Q612.0156,72.1563 613.6094,72.1563 Q614.5469,72.1563 615.2031,71.9063 Q615.5938,71.75 616.0156,71.3125 Q616.2813,71.0469 616.4297,70.9688 Q616.5781,70.8906 616.7813,70.8906 Q617.1094,70.8906 617.3672,71.1484 Q617.625,71.4063 617.625,71.75 Q617.625,72.0938 617.2813,72.5 Q616.7813,73.0781 615.9844,73.4063 Q614.9063,73.8594 613.6094,73.8594 Q612.0938,73.8594 610.8906,73.2344 Q609.9063,72.7344 609.2188,71.6641 Q608.5313,70.5938 608.5313,69.3125 L608.5313,68.1563 Q608.5313,66.8281 609.1484,65.6797 Q609.7656,64.5313 610.8594,63.9141 Q611.9531,63.2969 613.1875,63.2969 Q613.9219,63.2969 614.5703,63.4609 Q615.2188,63.625 615.7656,63.9844 Z " fill="#000000"/><text fill="#000000" font-family="sans-serif" font-size="14" lengthAdjust="spacing" textLength="103" x="627" y="73.8379">&#1057;&#1086;&#1074;&#1084;&#1077;&#1089;&#1090;&#1085;&#1072;&#1103; &#1041;&#1044;</text><line style="stroke:#181818;stroke-width:0.5;" x1="599" x2="732" y1="84.1094" y2="84.1094"/><line style="stroke:#181818;stroke-width:0.5;" x1="599" x2="732" y1="92.1094" y2="92.1094"/></g><!--class ?????????????? \n ???????????--><g id="elem_&#1057;&#1090;&#1072;&#1090;&#1080;&#1089;&#1090;&#1080;&#1095;&#1077;&#1089;&#1082;&#1080;&#1077; \n &#1089;&#1087;&#1088;&#1072;&#1074;&#1086;&#1095;&#1085;&#1080;&#1082;&#1080;"><rect fill="#F1F1F1" height="61.2188" id="&#1057;&#1090;&#1072;&#1090;&#1080;&#1089;&#1090;&#1080;&#1095;&#1077;&#1089;&#1082;&#1080;&#1077; \n &#1089;&#1087;&#1088;&#1072;&#1074;&#1086;&#1095;&#1085;&#1080;&#1082;&#1080;" rx="2.5" ry="2.5" style="stroke:#181818;stroke-width:0.5;" width="142" x="438.5" y="166.6094"/><ellipse cx="453.5" cy="189.2188" fill="#ADD1B2" rx="11" ry="11" style="stroke:#181818;stroke-width:1.0;"/><path d="M456.2656,185.0938 Q456.4219,184.875 456.6094,184.7656 Q456.7969,184.6563 457.0156,184.6563 Q457.3906,184.6563 457.625,184.9141 Q457.8594,185.1719 457.8594,185.7813 L457.8594,187.2344 Q457.8594,187.8438 457.625,188.1094 Q457.3906,188.375 457.0156,188.375 Q456.6719,188.375 456.4688,188.1719 Q456.2656,187.9844 456.1563,187.4688 Q456.1094,187.1094 455.9219,186.9219 Q455.5938,186.5469 454.9844,186.3281 Q454.375,186.1094 453.75,186.1094 Q452.9844,186.1094 452.3516,186.4375 Q451.7188,186.7656 451.2266,187.5156 Q450.7344,188.2656 450.7344,189.2969 L450.7344,190.3906 Q450.7344,191.625 451.625,192.4453 Q452.5156,193.2656 454.1094,193.2656 Q455.0469,193.2656 455.7031,193.0156 Q456.0938,192.8594 456.5156,192.4219 Q456.7813,192.1563 456.9297,192.0781 Q457.0781,192 457.2813,192 Q457.6094,192 457.8672,192.2578 Q458.125,192.5156 458.125,192.8594 Q458.125,193.2031 457.7813,193.6094 Q457.2813,194.1875 456.4844,194.5156 Q455.4063,194.9688 454.1094,194.9688 Q452.5938,194.9688 451.3906,194.3438 Q450.4063,193.8438 449.7188,192.7734 Q449.0313,191.7031 449.0313,190.4219 L449.0313,189.2656 Q449.0313,187.9375 449.6484,186.7891 Q450.2656,185.6406 451.3594,185.0234 Q452.4531,184.4063 453.6875,184.4063 Q454.4219,184.4063 455.0703,184.5703 Q455.7188,184.7344 456.2656,185.0938 Z " fill="#000000"/><text fill="#000000" font-family="sans-serif" font-size="14" lengthAdjust="spacing" textLength="106" x="467.5" y="186.1426">&#1057;&#1090;&#1072;&#1090;&#1080;&#1089;&#1090;&#1080;&#1095;&#1077;&#1089;&#1082;&#1080;&#1077;</text><text fill="#000000" font-family="sans-serif" font-size="14" lengthAdjust="spacing" textLength="83" x="483" y="203.752">&#1089;&#1087;&#1088;&#1072;&#1074;&#1086;&#1095;&#1085;&#1080;&#1082;&#1080;</text><line style="stroke:#181818;stroke-width:0.5;" x1="439.5" x2="579.5" y1="211.8281" y2="211.8281"/><line style="stroke:#181818;stroke-width:0.5;" x1="439.5" x2="579.5" y1="219.8281" y2="219.8281"/></g><!--class ?? as Service--><g id="elem_&#1041;&#1044; as Service"><rect fill="#F1F1F1" height="48" id="&#1041;&#1044; as Service" rx="2.5" ry="2.5" style="stroke:#181818;stroke-width:0.5;" width="120" x="615.5" y="173.1094"/><ellipse cx="630.5" cy="189.1094" fill="#ADD1B2" rx="11" ry="11" style="stroke:#181818;stroke-width:1.0;"/><path d="M633.2656,184.9844 Q633.4219,184.7656 633.6094,184.6563 Q633.7969,184.5469 634.0156,184.5469 Q634.3906,184.5469 634.625,184.8047 Q634.8594,185.0625 634.8594,185.6719 L634.8594,187.125 Q634.8594,187.7344 634.625,188 Q634.3906,188.2656 634.0156,188.2656 Q633.6719,188.2656 633.4688,188.0625 Q633.2656,187.875 633.1563,187.3594 Q633.1094,187 632.9219,186.8125 Q632.5938,186.4375 631.9844,186.2188 Q631.375,186 630.75,186 Q629.9844,186 629.3516,186.3281 Q628.7188,186.6563 628.2266,187.4063 Q627.7344,188.1563 627.7344,189.1875 L627.7344,190.2813 Q627.7344,191.5156 628.625,192.3359 Q629.5156,193.1563 631.1094,193.1563 Q632.0469,193.1563 632.7031,192.9063 Q633.0938,192.75 633.5156,192.3125 Q633.7813,192.0469 633.9297,191.9688 Q634.0781,191.8906 634.2813,191.8906 Q634.6094,191.8906 634.8672,192.1484 Q635.125,192.4063 635.125,192.75 Q635.125,193.0938 634.7813,193.5 Q634.2813,194.0781 633.4844,194.4063 Q632.4063,194.8594 631.1094,194.8594 Q629.5938,194.8594 628.3906,194.2344 Q627.4063,193.7344 626.7188,192.6641 Q626.0313,191.5938 626.0313,190.3125 L626.0313,189.1563 Q626.0313,187.8281 626.6484,186.6797 Q627.2656,185.5313 628.3594,184.9141 Q629.4531,184.2969 630.6875,184.2969 Q631.4219,184.2969 632.0703,184.4609 Q632.7188,184.625 633.2656,184.9844 Z " fill="#000000"/><text fill="#000000" font-family="sans-serif" font-size="14" lengthAdjust="spacing" textLength="88" x="644.5" y="194.8379">&#1041;&#1044; as Service</text><line style="stroke:#181818;stroke-width:0.5;" x1="616.5" x2="734.5" y1="205.1094" y2="205.1094"/><line style="stroke:#181818;stroke-width:0.5;" x1="616.5" x2="734.5" y1="213.1094" y2="213.1094"/></g><!--class ????????????? \n (???????? view) ??--><g id="elem_&#1055;&#1088;&#1077;&#1076;&#1089;&#1090;&#1072;&#1074;&#1083;&#1077;&#1085;&#1080;&#1103; \n (&#1087;&#1088;&#1086;&#1077;&#1082;&#1094;&#1080;&#1080; view) &#1041;&#1044;"><rect codeLine="9" fill="#F1F1F1" height="61.2188" id="&#1055;&#1088;&#1077;&#1076;&#1089;&#1090;&#1072;&#1074;&#1083;&#1077;&#1085;&#1080;&#1103; \n (&#1087;&#1088;&#1086;&#1077;&#1082;&#1094;&#1080;&#1080; view) &#1041;&#1044;" rx="2.5" ry="2.5" style="stroke:#181818;stroke-width:0.5;" width="162" x="28.5" y="45.6094"/><ellipse cx="43.5" cy="68.2188" fill="#ADD1B2" rx="11" ry="11" style="stroke:#181818;stroke-width:1.0;"/><path d="M46.2656,64.0938 Q46.4219,63.875 46.6094,63.7656 Q46.7969,63.6563 47.0156,63.6563 Q47.3906,63.6563 47.625,63.9141 Q47.8594,64.1719 47.8594,64.7813 L47.8594,66.2344 Q47.8594,66.8438 47.625,67.1094 Q47.3906,67.375 47.0156,67.375 Q46.6719,67.375 46.4688,67.1719 Q46.2656,66.9844 46.1563,66.4688 Q46.1094,66.1094 45.9219,65.9219 Q45.5938,65.5469 44.9844,65.3281 Q44.375,65.1094 43.75,65.1094 Q42.9844,65.1094 42.3516,65.4375 Q41.7188,65.7656 41.2266,66.5156 Q40.7344,67.2656 40.7344,68.2969 L40.7344,69.3906 Q40.7344,70.625 41.625,71.4453 Q42.5156,72.2656 44.1094,72.2656 Q45.0469,72.2656 45.7031,72.0156 Q46.0938,71.8594 46.5156,71.4219 Q46.7813,71.1563 46.9297,71.0781 Q47.0781,71 47.2813,71 Q47.6094,71 47.8672,71.2578 Q48.125,71.5156 48.125,71.8594 Q48.125,72.2031 47.7813,72.6094 Q47.2813,73.1875 46.4844,73.5156 Q45.4063,73.9688 44.1094,73.9688 Q42.5938,73.9688 41.3906,73.3438 Q40.4063,72.8438 39.7188,71.7734 Q39.0313,70.7031 39.0313,69.4219 L39.0313,68.2656 Q39.0313,66.9375 39.6484,65.7891 Q40.2656,64.6406 41.3594,64.0234 Q42.4531,63.4063 43.6875,63.4063 Q44.4219,63.4063 45.0703,63.5703 Q45.7188,63.7344 46.2656,64.0938 Z " fill="#000000"/><text fill="#000000" font-family="sans-serif" font-size="14" lengthAdjust="spacing" textLength="102" x="69.5" y="65.1426">&#1055;&#1088;&#1077;&#1076;&#1089;&#1090;&#1072;&#1074;&#1083;&#1077;&#1085;&#1080;&#1103;</text><text fill="#000000" font-family="sans-serif" font-size="14" lengthAdjust="spacing" textLength="126" x="61.5" y="82.752">(&#1087;&#1088;&#1086;&#1077;&#1082;&#1094;&#1080;&#1080; view) &#1041;&#1044;</text><line style="stroke:#181818;stroke-width:0.5;" x1="29.5" x2="189.5" y1="90.8281" y2="90.8281"/><line style="stroke:#181818;stroke-width:0.5;" x1="29.5" x2="189.5" y1="98.8281" y2="98.8281"/></g><!--class ?????? ??????? \n ??? ??--><g id="elem_&#1057;&#1077;&#1088;&#1074;&#1080;&#1089; &#1086;&#1073;&#1077;&#1088;&#1090;&#1082;&#1080; \n &#1085;&#1072;&#1076; &#1041;&#1044;"><rect codeLine="10" fill="#F1F1F1" height="61.2188" id="&#1057;&#1077;&#1088;&#1074;&#1080;&#1089; &#1086;&#1073;&#1077;&#1088;&#1090;&#1082;&#1080; \n &#1085;&#1072;&#1076; &#1041;&#1044;" rx="2.5" ry="2.5" style="stroke:#181818;stroke-width:0.5;" width="141" x="226" y="45.6094"/><ellipse cx="241" cy="68.2188" fill="#ADD1B2" rx="11" ry="11" style="stroke:#181818;stroke-width:1.0;"/><path d="M243.7656,64.0938 Q243.9219,63.875 244.1094,63.7656 Q244.2969,63.6563 244.5156,63.6563 Q244.8906,63.6563 245.125,63.9141 Q245.3594,64.1719 245.3594,64.7813 L245.3594,66.2344 Q245.3594,66.8438 245.125,67.1094 Q244.8906,67.375 244.5156,67.375 Q244.1719,67.375 243.9688,67.1719 Q243.7656,66.9844 243.6563,66.4688 Q243.6094,66.1094 243.4219,65.9219 Q243.0938,65.5469 242.4844,65.3281 Q241.875,65.1094 241.25,65.1094 Q240.4844,65.1094 239.8516,65.4375 Q239.2188,65.7656 238.7266,66.5156 Q238.2344,67.2656 238.2344,68.2969 L238.2344,69.3906 Q238.2344,70.625 239.125,71.4453 Q240.0156,72.2656 241.6094,72.2656 Q242.5469,72.2656 243.2031,72.0156 Q243.5938,71.8594 244.0156,71.4219 Q244.2813,71.1563 244.4297,71.0781 Q244.5781,71 244.7813,71 Q245.1094,71 245.3672,71.2578 Q245.625,71.5156 245.625,71.8594 Q245.625,72.2031 245.2813,72.6094 Q244.7813,73.1875 243.9844,73.5156 Q242.9063,73.9688 241.6094,73.9688 Q240.0938,73.9688 238.8906,73.3438 Q237.9063,72.8438 237.2188,71.7734 Q236.5313,70.7031 236.5313,69.4219 L236.5313,68.2656 Q236.5313,66.9375 237.1484,65.7891 Q237.7656,64.6406 238.8594,64.0234 Q239.9531,63.4063 241.1875,63.4063 Q241.9219,63.4063 242.5703,63.5703 Q243.2188,63.7344 243.7656,64.0938 Z " fill="#000000"/><text fill="#000000" font-family="sans-serif" font-size="14" lengthAdjust="spacing" textLength="105" x="255" y="65.1426">&#1057;&#1077;&#1088;&#1074;&#1080;&#1089; &#1086;&#1073;&#1077;&#1088;&#1090;&#1082;&#1080;</text><text fill="#000000" font-family="sans-serif" font-size="14" lengthAdjust="spacing" textLength="46" x="288.5" y="82.752">&#1085;&#1072;&#1076; &#1041;&#1044;</text><line style="stroke:#181818;stroke-width:0.5;" x1="227" x2="366" y1="90.8281" y2="90.8281"/><line style="stroke:#181818;stroke-width:0.5;" x1="227" x2="366" y1="98.8281" y2="98.8281"/></g><!--class ????????? ?? \n ??? ??????--><g id="elem_&#1048;&#1085;&#1090;&#1077;&#1088;&#1092;&#1077;&#1081;&#1089; &#1041;&#1044; \n &#1082;&#1072;&#1082; &#1089;&#1083;&#1091;&#1078;&#1073;&#1072;"><rect codeLine="11" fill="#F1F1F1" height="61.2188" id="&#1048;&#1085;&#1090;&#1077;&#1088;&#1092;&#1077;&#1081;&#1089; &#1041;&#1044; \n &#1082;&#1072;&#1082; &#1089;&#1083;&#1091;&#1078;&#1073;&#1072;" rx="2.5" ry="2.5" style="stroke:#181818;stroke-width:0.5;" width="133" x="402" y="45.6094"/><ellipse cx="417" cy="68.2188" fill="#ADD1B2" rx="11" ry="11" style="stroke:#181818;stroke-width:1.0;"/><path d="M419.7656,64.0938 Q419.9219,63.875 420.1094,63.7656 Q420.2969,63.6563 420.5156,63.6563 Q420.8906,63.6563 421.125,63.9141 Q421.3594,64.1719 421.3594,64.7813 L421.3594,66.2344 Q421.3594,66.8438 421.125,67.1094 Q420.8906,67.375 420.5156,67.375 Q420.1719,67.375 419.9688,67.1719 Q419.7656,66.9844 419.6563,66.4688 Q419.6094,66.1094 419.4219,65.9219 Q419.0938,65.5469 418.4844,65.3281 Q417.875,65.1094 417.25,65.1094 Q416.4844,65.1094 415.8516,65.4375 Q415.2188,65.7656 414.7266,66.5156 Q414.2344,67.2656 414.2344,68.2969 L414.2344,69.3906 Q414.2344,70.625 415.125,71.4453 Q416.0156,72.2656 417.6094,72.2656 Q418.5469,72.2656 419.2031,72.0156 Q419.5938,71.8594 420.0156,71.4219 Q420.2813,71.1563 420.4297,71.0781 Q420.5781,71 420.7813,71 Q421.1094,71 421.3672,71.2578 Q421.625,71.5156 421.625,71.8594 Q421.625,72.2031 421.2813,72.6094 Q420.7813,73.1875 419.9844,73.5156 Q418.9063,73.9688 417.6094,73.9688 Q416.0938,73.9688 414.8906,73.3438 Q413.9063,72.8438 413.2188,71.7734 Q412.5313,70.7031 412.5313,69.4219 L412.5313,68.2656 Q412.5313,66.9375 413.1484,65.7891 Q413.7656,64.6406 414.8594,64.0234 Q415.9531,63.4063 417.1875,63.4063 Q417.9219,63.4063 418.5703,63.5703 Q419.2188,63.7344 419.7656,64.0938 Z " fill="#000000"/><text fill="#000000" font-family="sans-serif" font-size="14" lengthAdjust="spacing" textLength="97" x="431" y="65.1426">&#1048;&#1085;&#1090;&#1077;&#1088;&#1092;&#1077;&#1081;&#1089; &#1041;&#1044;</text><text fill="#000000" font-family="sans-serif" font-size="14" lengthAdjust="spacing" textLength="71" x="448" y="82.752">&#1082;&#1072;&#1082; &#1089;&#1083;&#1091;&#1078;&#1073;&#1072;</text><line style="stroke:#181818;stroke-width:0.5;" x1="403" x2="534" y1="90.8281" y2="90.8281"/><line style="stroke:#181818;stroke-width:0.5;" x1="403" x2="534" y1="98.8281" y2="98.8281"/></g><!--class ??????? ? ???????????? \n ???????? ??????--><g id="elem_&#1052;&#1086;&#1085;&#1086;&#1083;&#1080;&#1090; &#1089; &#1074;&#1099;&#1089;&#1090;&#1072;&#1074;&#1083;&#1077;&#1085;&#1080;&#1077;&#1084; \n &#1072;&#1075;&#1088;&#1077;&#1075;&#1072;&#1090;&#1072; &#1085;&#1072;&#1088;&#1091;&#1078;&#1091;"><rect codeLine="13" fill="#F1F1F1" height="61.2188" id="&#1052;&#1086;&#1085;&#1086;&#1083;&#1080;&#1090; &#1089; &#1074;&#1099;&#1089;&#1090;&#1072;&#1074;&#1083;&#1077;&#1085;&#1080;&#1077;&#1084; \n &#1072;&#1075;&#1088;&#1077;&#1075;&#1072;&#1090;&#1072; &#1085;&#1072;&#1088;&#1091;&#1078;&#1091;" rx="2.5" ry="2.5" style="stroke:#181818;stroke-width:0.5;" width="205" x="7" y="166.6094"/><ellipse cx="22" cy="189.2188" fill="#ADD1B2" rx="11" ry="11" style="stroke:#181818;stroke-width:1.0;"/><path d="M24.7656,185.0938 Q24.9219,184.875 25.1094,184.7656 Q25.2969,184.6563 25.5156,184.6563 Q25.8906,184.6563 26.125,184.9141 Q26.3594,185.1719 26.3594,185.7813 L26.3594,187.2344 Q26.3594,187.8438 26.125,188.1094 Q25.8906,188.375 25.5156,188.375 Q25.1719,188.375 24.9688,188.1719 Q24.7656,187.9844 24.6563,187.4688 Q24.6094,187.1094 24.4219,186.9219 Q24.0938,186.5469 23.4844,186.3281 Q22.875,186.1094 22.25,186.1094 Q21.4844,186.1094 20.8516,186.4375 Q20.2188,186.7656 19.7266,187.5156 Q19.2344,188.2656 19.2344,189.2969 L19.2344,190.3906 Q19.2344,191.625 20.125,192.4453 Q21.0156,193.2656 22.6094,193.2656 Q23.5469,193.2656 24.2031,193.0156 Q24.5938,192.8594 25.0156,192.4219 Q25.2813,192.1563 25.4297,192.0781 Q25.5781,192 25.7813,192 Q26.1094,192 26.3672,192.2578 Q26.625,192.5156 26.625,192.8594 Q26.625,193.2031 26.2813,193.6094 Q25.7813,194.1875 24.9844,194.5156 Q23.9063,194.9688 22.6094,194.9688 Q21.0938,194.9688 19.8906,194.3438 Q18.9063,193.8438 18.2188,192.7734 Q17.5313,191.7031 17.5313,190.4219 L17.5313,189.2656 Q17.5313,187.9375 18.1484,186.7891 Q18.7656,185.6406 19.8594,185.0234 Q20.9531,184.4063 22.1875,184.4063 Q22.9219,184.4063 23.5703,184.5703 Q24.2188,184.7344 24.7656,185.0938 Z " fill="#000000"/><text fill="#000000" font-family="sans-serif" font-size="14" lengthAdjust="spacing" textLength="169" x="36" y="186.1426">&#1052;&#1086;&#1085;&#1086;&#1083;&#1080;&#1090; &#1089; &#1074;&#1099;&#1089;&#1090;&#1072;&#1074;&#1083;&#1077;&#1085;&#1080;&#1077;&#1084;</text><text fill="#000000" font-family="sans-serif" font-size="14" lengthAdjust="spacing" textLength="108" x="70.5" y="203.752">&#1072;&#1075;&#1088;&#1077;&#1075;&#1072;&#1090;&#1072; &#1085;&#1072;&#1088;&#1091;&#1078;&#1091;</text><line style="stroke:#181818;stroke-width:0.5;" x1="8" x2="211" y1="211.8281" y2="211.8281"/><line style="stroke:#181818;stroke-width:0.5;" x1="8" x2="211" y1="219.8281" y2="219.8281"/></g><!--class ????? ????????? \n ??????--><g id="elem_&#1057;&#1084;&#1077;&#1085;&#1072; &#1074;&#1083;&#1072;&#1076;&#1077;&#1083;&#1100;&#1094;&#1072; \n &#1076;&#1072;&#1085;&#1085;&#1099;&#1093;"><rect codeLine="14" fill="#F1F1F1" height="61.2188" id="&#1057;&#1084;&#1077;&#1085;&#1072; &#1074;&#1083;&#1072;&#1076;&#1077;&#1083;&#1100;&#1094;&#1072; \n &#1076;&#1072;&#1085;&#1085;&#1099;&#1093;" rx="2.5" ry="2.5" style="stroke:#181818;stroke-width:0.5;" width="156" x="247.5" y="166.6094"/><ellipse cx="262.5" cy="189.2188" fill="#ADD1B2" rx="11" ry="11" style="stroke:#181818;stroke-width:1.0;"/><path d="M265.2656,185.0938 Q265.4219,184.875 265.6094,184.7656 Q265.7969,184.6563 266.0156,184.6563 Q266.3906,184.6563 266.625,184.9141 Q266.8594,185.1719 266.8594,185.7813 L266.8594,187.2344 Q266.8594,187.8438 266.625,188.1094 Q266.3906,188.375 266.0156,188.375 Q265.6719,188.375 265.4688,188.1719 Q265.2656,187.9844 265.1563,187.4688 Q265.1094,187.1094 264.9219,186.9219 Q264.5938,186.5469 263.9844,186.3281 Q263.375,186.1094 262.75,186.1094 Q261.9844,186.1094 261.3516,186.4375 Q260.7188,186.7656 260.2266,187.5156 Q259.7344,188.2656 259.7344,189.2969 L259.7344,190.3906 Q259.7344,191.625 260.625,192.4453 Q261.5156,193.2656 263.1094,193.2656 Q264.0469,193.2656 264.7031,193.0156 Q265.0938,192.8594 265.5156,192.4219 Q265.7813,192.1563 265.9297,192.0781 Q266.0781,192 266.2813,192 Q266.6094,192 266.8672,192.2578 Q267.125,192.5156 267.125,192.8594 Q267.125,193.2031 266.7813,193.6094 Q266.2813,194.1875 265.4844,194.5156 Q264.4063,194.9688 263.1094,194.9688 Q261.5938,194.9688 260.3906,194.3438 Q259.4063,193.8438 258.7188,192.7734 Q258.0313,191.7031 258.0313,190.4219 L258.0313,189.2656 Q258.0313,187.9375 258.6484,186.7891 Q259.2656,185.6406 260.3594,185.0234 Q261.4531,184.4063 262.6875,184.4063 Q263.4219,184.4063 264.0703,184.5703 Q264.7188,184.7344 265.2656,185.0938 Z " fill="#000000"/><text fill="#000000" font-family="sans-serif" font-size="14" lengthAdjust="spacing" textLength="120" x="276.5" y="186.1426">&#1057;&#1084;&#1077;&#1085;&#1072; &#1074;&#1083;&#1072;&#1076;&#1077;&#1083;&#1100;&#1094;&#1072;</text><text fill="#000000" font-family="sans-serif" font-size="14" lengthAdjust="spacing" textLength="48" x="316.5" y="203.752">&#1076;&#1072;&#1085;&#1085;&#1099;&#1093;</text><line style="stroke:#181818;stroke-width:0.5;" x1="248.5" x2="402.5" y1="211.8281" y2="211.8281"/><line style="stroke:#181818;stroke-width:0.5;" x1="248.5" x2="402.5" y1="219.8281" y2="219.8281"/></g><!--class ????????????? ??????--><g id="elem_&#1057;&#1080;&#1085;&#1093;&#1088;&#1086;&#1085;&#1080;&#1079;&#1072;&#1094;&#1080;&#1103; &#1076;&#1072;&#1085;&#1085;&#1099;&#1093;"><rect fill="#F1F1F1" height="48" id="&#1057;&#1080;&#1085;&#1093;&#1088;&#1086;&#1085;&#1080;&#1079;&#1072;&#1094;&#1080;&#1103; &#1076;&#1072;&#1085;&#1085;&#1099;&#1093;" rx="2.5" ry="2.5" style="stroke:#181818;stroke-width:0.5;" width="187" x="768" y="52.1094"/><ellipse cx="783" cy="68.1094" fill="#ADD1B2" rx="11" ry="11" style="stroke:#181818;stroke-width:1.0;"/><path d="M785.7656,63.9844 Q785.9219,63.7656 786.1094,63.6563 Q786.2969,63.5469 786.5156,63.5469 Q786.8906,63.5469 787.125,63.8047 Q787.3594,64.0625 787.3594,64.6719 L787.3594,66.125 Q787.3594,66.7344 787.125,67 Q786.8906,67.2656 786.5156,67.2656 Q786.1719,67.2656 785.9688,67.0625 Q785.7656,66.875 785.6563,66.3594 Q785.6094,66 785.4219,65.8125 Q785.0938,65.4375 784.4844,65.2188 Q783.875,65 783.25,65 Q782.4844,65 781.8516,65.3281 Q781.2188,65.6563 780.7266,66.4063 Q780.2344,67.1563 780.2344,68.1875 L780.2344,69.2813 Q780.2344,70.5156 781.125,71.3359 Q782.0156,72.1563 783.6094,72.1563 Q784.5469,72.1563 785.2031,71.9063 Q785.5938,71.75 786.0156,71.3125 Q786.2813,71.0469 786.4297,70.9688 Q786.5781,70.8906 786.7813,70.8906 Q787.1094,70.8906 787.3672,71.1484 Q787.625,71.4063 787.625,71.75 Q787.625,72.0938 787.2813,72.5 Q786.7813,73.0781 785.9844,73.4063 Q784.9063,73.8594 783.6094,73.8594 Q782.0938,73.8594 780.8906,73.2344 Q779.9063,72.7344 779.2188,71.6641 Q778.5313,70.5938 778.5313,69.3125 L778.5313,68.1563 Q778.5313,66.8281 779.1484,65.6797 Q779.7656,64.5313 780.8594,63.9141 Q781.9531,63.2969 783.1875,63.2969 Q783.9219,63.2969 784.5703,63.4609 Q785.2188,63.625 785.7656,63.9844 Z " fill="#000000"/><text fill="#000000" font-family="sans-serif" font-size="14" lengthAdjust="spacing" textLength="155" x="797" y="73.8379">&#1057;&#1080;&#1085;&#1093;&#1088;&#1086;&#1085;&#1080;&#1079;&#1072;&#1094;&#1080;&#1103; &#1076;&#1072;&#1085;&#1085;&#1099;&#1093;</text><line style="stroke:#181818;stroke-width:0.5;" x1="769" x2="954" y1="84.1094" y2="84.1094"/><line style="stroke:#181818;stroke-width:0.5;" x1="769" x2="954" y1="92.1094" y2="92.1094"/></g><!--class ? ??????????--><g id="elem_&#1042; &#1087;&#1088;&#1080;&#1083;&#1086;&#1078;&#1077;&#1085;&#1080;&#1080;"><rect fill="#F1F1F1" height="48" id="&#1042; &#1087;&#1088;&#1080;&#1083;&#1086;&#1078;&#1077;&#1085;&#1080;&#1080;" rx="2.5" ry="2.5" style="stroke:#181818;stroke-width:0.5;" width="126" x="789.5" y="173.1094"/><ellipse cx="804.5" cy="189.1094" fill="#ADD1B2" rx="11" ry="11" style="stroke:#181818;stroke-width:1.0;"/><path d="M807.2656,184.9844 Q807.4219,184.7656 807.6094,184.6563 Q807.7969,184.5469 808.0156,184.5469 Q808.3906,184.5469 808.625,184.8047 Q808.8594,185.0625 808.8594,185.6719 L808.8594,187.125 Q808.8594,187.7344 808.625,188 Q808.3906,188.2656 808.0156,188.2656 Q807.6719,188.2656 807.4688,188.0625 Q807.2656,187.875 807.1563,187.3594 Q807.1094,187 806.9219,186.8125 Q806.5938,186.4375 805.9844,186.2188 Q805.375,186 804.75,186 Q803.9844,186 803.3516,186.3281 Q802.7188,186.6563 802.2266,187.4063 Q801.7344,188.1563 801.7344,189.1875 L801.7344,190.2813 Q801.7344,191.5156 802.625,192.3359 Q803.5156,193.1563 805.1094,193.1563 Q806.0469,193.1563 806.7031,192.9063 Q807.0938,192.75 807.5156,192.3125 Q807.7813,192.0469 807.9297,191.9688 Q808.0781,191.8906 808.2813,191.8906 Q808.6094,191.8906 808.8672,192.1484 Q809.125,192.4063 809.125,192.75 Q809.125,193.0938 808.7813,193.5 Q808.2813,194.0781 807.4844,194.4063 Q806.4063,194.8594 805.1094,194.8594 Q803.5938,194.8594 802.3906,194.2344 Q801.4063,193.7344 800.7188,192.6641 Q800.0313,191.5938 800.0313,190.3125 L800.0313,189.1563 Q800.0313,187.8281 800.6484,186.6797 Q801.2656,185.5313 802.3594,184.9141 Q803.4531,184.2969 804.6875,184.2969 Q805.4219,184.2969 806.0703,184.4609 Q806.7188,184.625 807.2656,184.9844 Z " fill="#000000"/><text fill="#000000" font-family="sans-serif" font-size="14" lengthAdjust="spacing" textLength="94" x="818.5" y="194.8379">&#1042; &#1087;&#1088;&#1080;&#1083;&#1086;&#1078;&#1077;&#1085;&#1080;&#1080;</text><line style="stroke:#181818;stroke-width:0.5;" x1="790.5" x2="914.5" y1="205.1094" y2="205.1094"/><line style="stroke:#181818;stroke-width:0.5;" x1="790.5" x2="914.5" y1="213.1094" y2="213.1094"/></g><!--class ?????????????? ??????--><g id="elem_&#1058;&#1088;&#1072;&#1089;&#1089;&#1080;&#1088;&#1086;&#1074;&#1086;&#1095;&#1085;&#1072;&#1103; &#1079;&#1072;&#1087;&#1080;&#1089;&#1100;"><rect fill="#F1F1F1" height="48" id="&#1058;&#1088;&#1072;&#1089;&#1089;&#1080;&#1088;&#1086;&#1074;&#1086;&#1095;&#1085;&#1072;&#1103; &#1079;&#1072;&#1087;&#1080;&#1089;&#1100;" rx="2.5" ry="2.5" style="stroke:#181818;stroke-width:0.5;" width="190" x="950.5" y="173.1094"/><ellipse cx="965.5" cy="189.1094" fill="#ADD1B2" rx="11" ry="11" style="stroke:#181818;stroke-width:1.0;"/><path d="M968.2656,184.9844 Q968.4219,184.7656 968.6094,184.6563 Q968.7969,184.5469 969.0156,184.5469 Q969.3906,184.5469 969.625,184.8047 Q969.8594,185.0625 969.8594,185.6719 L969.8594,187.125 Q969.8594,187.7344 969.625,188 Q969.3906,188.2656 969.0156,188.2656 Q968.6719,188.2656 968.4688,188.0625 Q968.2656,187.875 968.1563,187.3594 Q968.1094,187 967.9219,186.8125 Q967.5938,186.4375 966.9844,186.2188 Q966.375,186 965.75,186 Q964.9844,186 964.3516,186.3281 Q963.7188,186.6563 963.2266,187.4063 Q962.7344,188.1563 962.7344,189.1875 L962.7344,190.2813 Q962.7344,191.5156 963.625,192.3359 Q964.5156,193.1563 966.1094,193.1563 Q967.0469,193.1563 967.7031,192.9063 Q968.0938,192.75 968.5156,192.3125 Q968.7813,192.0469 968.9297,191.9688 Q969.0781,191.8906 969.2813,191.8906 Q969.6094,191.8906 969.8672,192.1484 Q970.125,192.4063 970.125,192.75 Q970.125,193.0938 969.7813,193.5 Q969.2813,194.0781 968.4844,194.4063 Q967.4063,194.8594 966.1094,194.8594 Q964.5938,194.8594 963.3906,194.2344 Q962.4063,193.7344 961.7188,192.6641 Q961.0313,191.5938 961.0313,190.3125 L961.0313,189.1563 Q961.0313,187.8281 961.6484,186.6797 Q962.2656,185.5313 963.3594,184.9141 Q964.4531,184.2969 965.6875,184.2969 Q966.4219,184.2969 967.0703,184.4609 Q967.7188,184.625 968.2656,184.9844 Z " fill="#000000"/><text fill="#000000" font-family="sans-serif" font-size="14" lengthAdjust="spacing" textLength="158" x="979.5" y="194.8379">&#1058;&#1088;&#1072;&#1089;&#1089;&#1080;&#1088;&#1086;&#1074;&#1086;&#1095;&#1085;&#1072;&#1103; &#1079;&#1072;&#1087;&#1080;&#1089;&#1100;</text><line style="stroke:#181818;stroke-width:0.5;" x1="951.5" x2="1139.5" y1="205.1094" y2="205.1094"/><line style="stroke:#181818;stroke-width:0.5;" x1="951.5" x2="1139.5" y1="213.1094" y2="213.1094"/></g><!--link ?????????? ?? to ?????????????? \n ???????????--><g id="link_&#1057;&#1086;&#1074;&#1084;&#1077;&#1089;&#1090;&#1085;&#1072;&#1103; &#1041;&#1044;_&#1057;&#1090;&#1072;&#1090;&#1080;&#1089;&#1090;&#1080;&#1095;&#1077;&#1089;&#1082;&#1080;&#1077; \n &#1089;&#1087;&#1088;&#1072;&#1074;&#1086;&#1095;&#1085;&#1080;&#1082;&#1080;"><path codeLine="6" d="M635.05,100.3394 C610.22,119.2794 575,146.1394 548.18,166.5994 " fill="none" id="&#1057;&#1086;&#1074;&#1084;&#1077;&#1089;&#1090;&#1085;&#1072;&#1103; &#1041;&#1044;-&#1057;&#1090;&#1072;&#1090;&#1080;&#1089;&#1090;&#1080;&#1095;&#1077;&#1089;&#1082;&#1080;&#1077; \n &#1089;&#1087;&#1088;&#1072;&#1074;&#1086;&#1095;&#1085;&#1080;&#1082;&#1080;" style="stroke:#181818;stroke-width:1.0;"/></g><!--link ?????????? ?? to ?? as Service--><g id="link_&#1057;&#1086;&#1074;&#1084;&#1077;&#1089;&#1090;&#1085;&#1072;&#1103; &#1041;&#1044;_&#1041;&#1044; as Service"><path codeLine="7" d="M667.45,100.3394 C669.21,121.2994 671.79,151.9894 673.55,172.9394 " fill="none" id="&#1057;&#1086;&#1074;&#1084;&#1077;&#1089;&#1090;&#1085;&#1072;&#1103; &#1041;&#1044;-&#1041;&#1044; as Service" style="stroke:#181818;stroke-width:1.0;"/></g><!--link ????????????? ?????? to ? ??????????--><g id="link_&#1057;&#1080;&#1085;&#1093;&#1088;&#1086;&#1085;&#1080;&#1079;&#1072;&#1094;&#1080;&#1103; &#1076;&#1072;&#1085;&#1085;&#1099;&#1093;_&#1042; &#1087;&#1088;&#1080;&#1083;&#1086;&#1078;&#1077;&#1085;&#1080;&#1080;"><path codeLine="16" d="M859.74,100.3394 C858.16,121.2994 855.84,151.9894 854.25,172.9394 " fill="none" id="&#1057;&#1080;&#1085;&#1093;&#1088;&#1086;&#1085;&#1080;&#1079;&#1072;&#1094;&#1080;&#1103; &#1076;&#1072;&#1085;&#1085;&#1099;&#1093;-&#1042; &#1087;&#1088;&#1080;&#1083;&#1086;&#1078;&#1077;&#1085;&#1080;&#1080;" style="stroke:#181818;stroke-width:1.0;"/></g><!--link ????????????? ?????? to ?????????????? ??????--><g id="link_&#1057;&#1080;&#1085;&#1093;&#1088;&#1086;&#1085;&#1080;&#1079;&#1072;&#1094;&#1080;&#1103; &#1076;&#1072;&#1085;&#1085;&#1099;&#1093;_&#1058;&#1088;&#1072;&#1089;&#1089;&#1080;&#1088;&#1086;&#1074;&#1086;&#1095;&#1085;&#1072;&#1103; &#1079;&#1072;&#1087;&#1080;&#1089;&#1100;"><path codeLine="17" d="M897.41,100.3394 C929.84,121.2994 977.28,151.9894 1009.68,172.9394 " fill="none" id="&#1057;&#1080;&#1085;&#1093;&#1088;&#1086;&#1085;&#1080;&#1079;&#1072;&#1094;&#1080;&#1103; &#1076;&#1072;&#1085;&#1085;&#1099;&#1093;-&#1058;&#1088;&#1072;&#1089;&#1089;&#1080;&#1088;&#1086;&#1074;&#1086;&#1095;&#1085;&#1072;&#1103; &#1079;&#1072;&#1087;&#1080;&#1089;&#1100;" style="stroke:#181818;stroke-width:1.0;"/></g><!--SRC=[KrUuiE32reij5pPSs7MnwSA-YmqNTbpOUs6pWgwkWekB2vSw7ddNijIyak2I_ABSpBnql2gTNPo1yegPUSavfIcf2aMfQOd9G7r0RVgv-NdvEPabHhd5YNe5fRavYidvAQbS19Mc985LSm40]--></g></svg>