<?xml version="1.0" encoding="us-ascii" standalone="no"?><svg xmlns="http://www.w3.org/2000/svg" xmlns:xlink="http://www.w3.org/1999/xlink" contentStyleType="text/css" height="386px" preserveAspectRatio="none" style="width:741px;height:386px;background:#FFFFFF;" version="1.1" viewBox="0 0 741 386" width="741px" zoomAndPan="magnify"><defs/><g><!--class Security--><g id="elem_Security"><rect fill="#F1F1F1" height="48" id="Security" rx="2.5" ry="2.5" style="stroke:#181818;stroke-width:0.5;" width="83" x="314" y="7"/><ellipse cx="329" cy="23" fill="#ADD1B2" rx="11" ry="11" style="stroke:#181818;stroke-width:1.0;"/><path d="M331.7656,18.875 Q331.9219,18.6563 332.1094,18.5469 Q332.2969,18.4375 332.5156,18.4375 Q332.8906,18.4375 333.125,18.6953 Q333.3594,18.9531 333.3594,19.5625 L333.3594,21.0156 Q333.3594,21.625 333.125,21.8906 Q332.8906,22.1563 332.5156,22.1563 Q332.1719,22.1563 331.9688,21.9531 Q331.7656,21.7656 331.6563,21.25 Q331.6094,20.8906 331.4219,20.7031 Q331.0938,20.3281 330.4844,20.1094 Q329.875,19.8906 329.25,19.8906 Q328.4844,19.8906 327.8516,20.2188 Q327.2188,20.5469 326.7266,21.2969 Q326.2344,22.0469 326.2344,23.0781 L326.2344,24.1719 Q326.2344,25.4063 327.125,26.2266 Q328.0156,27.0469 329.6094,27.0469 Q330.5469,27.0469 331.2031,26.7969 Q331.5938,26.6406 332.0156,26.2031 Q332.2813,25.9375 332.4297,25.8594 Q332.5781,25.7813 332.7813,25.7813 Q333.1094,25.7813 333.3672,26.0391 Q333.625,26.2969 333.625,26.6406 Q333.625,26.9844 333.2813,27.3906 Q332.7813,27.9688 331.9844,28.2969 Q330.9063,28.75 329.6094,28.75 Q328.0938,28.75 326.8906,28.125 Q325.9063,27.625 325.2188,26.5547 Q324.5313,25.4844 324.5313,24.2031 L324.5313,23.0469 Q324.5313,21.7188 325.1484,20.5703 Q325.7656,19.4219 326.8594,18.8047 Q327.9531,18.1875 329.1875,18.1875 Q329.9219,18.1875 330.5703,18.3516 Q331.2188,18.5156 331.7656,18.875 Z " fill="#000000"/><text fill="#000000" font-family="sans-serif" font-size="14" lengthAdjust="spacing" textLength="51" x="343" y="28.7285">Security</text><line style="stroke:#181818;stroke-width:0.5;" x1="315" x2="396" y1="39" y2="39"/><line style="stroke:#181818;stroke-width:0.5;" x1="315" x2="396" y1="47" y2="47"/></g><!--class ??????????????--><g id="elem_&#1040;&#1091;&#1090;&#1077;&#1085;&#1090;&#1080;&#1092;&#1080;&#1082;&#1072;&#1094;&#1080;&#1103;"><rect fill="#F1F1F1" height="48" id="&#1040;&#1091;&#1090;&#1077;&#1085;&#1090;&#1080;&#1092;&#1080;&#1082;&#1072;&#1094;&#1080;&#1103;" rx="2.5" ry="2.5" style="stroke:#181818;stroke-width:0.5;" width="144" x="13.5" y="223"/><ellipse cx="28.5" cy="239" fill="#ADD1B2" rx="11" ry="11" style="stroke:#181818;stroke-width:1.0;"/><path d="M31.2656,234.875 Q31.4219,234.6563 31.6094,234.5469 Q31.7969,234.4375 32.0156,234.4375 Q32.3906,234.4375 32.625,234.6953 Q32.8594,234.9531 32.8594,235.5625 L32.8594,237.0156 Q32.8594,237.625 32.625,237.8906 Q32.3906,238.1563 32.0156,238.1563 Q31.6719,238.1563 31.4688,237.9531 Q31.2656,237.7656 31.1563,237.25 Q31.1094,236.8906 30.9219,236.7031 Q30.5938,236.3281 29.9844,236.1094 Q29.375,235.8906 28.75,235.8906 Q27.9844,235.8906 27.3516,236.2188 Q26.7188,236.5469 26.2266,237.2969 Q25.7344,238.0469 25.7344,239.0781 L25.7344,240.1719 Q25.7344,241.4063 26.625,242.2266 Q27.5156,243.0469 29.1094,243.0469 Q30.0469,243.0469 30.7031,242.7969 Q31.0938,242.6406 31.5156,242.2031 Q31.7813,241.9375 31.9297,241.8594 Q32.0781,241.7813 32.2813,241.7813 Q32.6094,241.7813 32.8672,242.0391 Q33.125,242.2969 33.125,242.6406 Q33.125,242.9844 32.7813,243.3906 Q32.2813,243.9688 31.4844,244.2969 Q30.4063,244.75 29.1094,244.75 Q27.5938,244.75 26.3906,244.125 Q25.4063,243.625 24.7188,242.5547 Q24.0313,241.4844 24.0313,240.2031 L24.0313,239.0469 Q24.0313,237.7188 24.6484,236.5703 Q25.2656,235.4219 26.3594,234.8047 Q27.4531,234.1875 28.6875,234.1875 Q29.4219,234.1875 30.0703,234.3516 Q30.7188,234.5156 31.2656,234.875 Z " fill="#000000"/><text fill="#000000" font-family="sans-serif" font-size="14" lengthAdjust="spacing" textLength="112" x="42.5" y="244.7285">&#1040;&#1091;&#1090;&#1077;&#1085;&#1090;&#1080;&#1092;&#1080;&#1082;&#1072;&#1094;&#1080;&#1103;</text><line style="stroke:#181818;stroke-width:0.5;" x1="14.5" x2="156.5" y1="255" y2="255"/><line style="stroke:#181818;stroke-width:0.5;" x1="14.5" x2="156.5" y1="263" y2="263"/></g><g id="elem_GMN5"><path d="M192.5,234 L192.5,243 L157.62,247 L192.5,251 L192.5,260.3516 A0,0 0 0 0 192.5,260.3516 L400.5,260.3516 A0,0 0 0 0 400.5,260.3516 L400.5,244 L390.5,234 L192.5,234 A0,0 0 0 0 192.5,234 " fill="#FEFFDD" style="stroke:#181818;stroke-width:0.5;"/><path d="M390.5,234 L390.5,244 L400.5,244 L390.5,234 " fill="#FEFFDD" style="stroke:#181818;stroke-width:0.5;"/><text fill="#000000" font-family="sans-serif" font-size="13" lengthAdjust="spacing" textLength="187" x="198.5" y="252.4951">OAuth JWT OIDC Cookie CORS</text></g><!--class SSO--><g id="elem_SSO"><rect fill="#F1F1F1" height="48" id="SSO" rx="2.5" ry="2.5" style="stroke:#181818;stroke-width:0.5;" width="61" x="7" y="331"/><ellipse cx="22" cy="347" fill="#ADD1B2" rx="11" ry="11" style="stroke:#181818;stroke-width:1.0;"/><path d="M24.7656,342.875 Q24.9219,342.6563 25.1094,342.5469 Q25.2969,342.4375 25.5156,342.4375 Q25.8906,342.4375 26.125,342.6953 Q26.3594,342.9531 26.3594,343.5625 L26.3594,345.0156 Q26.3594,345.625 26.125,345.8906 Q25.8906,346.1563 25.5156,346.1563 Q25.1719,346.1563 24.9688,345.9531 Q24.7656,345.7656 24.6563,345.25 Q24.6094,344.8906 24.4219,344.7031 Q24.0938,344.3281 23.4844,344.1094 Q22.875,343.8906 22.25,343.8906 Q21.4844,343.8906 20.8516,344.2188 Q20.2188,344.5469 19.7266,345.2969 Q19.2344,346.0469 19.2344,347.0781 L19.2344,348.1719 Q19.2344,349.4063 20.125,350.2266 Q21.0156,351.0469 22.6094,351.0469 Q23.5469,351.0469 24.2031,350.7969 Q24.5938,350.6406 25.0156,350.2031 Q25.2813,349.9375 25.4297,349.8594 Q25.5781,349.7813 25.7813,349.7813 Q26.1094,349.7813 26.3672,350.0391 Q26.625,350.2969 26.625,350.6406 Q26.625,350.9844 26.2813,351.3906 Q25.7813,351.9688 24.9844,352.2969 Q23.9063,352.75 22.6094,352.75 Q21.0938,352.75 19.8906,352.125 Q18.9063,351.625 18.2188,350.5547 Q17.5313,349.4844 17.5313,348.2031 L17.5313,347.0469 Q17.5313,345.7188 18.1484,344.5703 Q18.7656,343.4219 19.8594,342.8047 Q20.9531,342.1875 22.1875,342.1875 Q22.9219,342.1875 23.5703,342.3516 Q24.2188,342.5156 24.7656,342.875 Z " fill="#000000"/><text fill="#000000" font-family="sans-serif" font-size="14" lengthAdjust="spacing" textLength="29" x="36" y="352.7285">SSO</text><line style="stroke:#181818;stroke-width:0.5;" x1="8" x2="67" y1="363" y2="363"/><line style="stroke:#181818;stroke-width:0.5;" x1="8" x2="67" y1="371" y2="371"/></g><!--class MFA--><g id="elem_MFA"><rect fill="#F1F1F1" height="48" id="MFA" rx="2.5" ry="2.5" style="stroke:#181818;stroke-width:0.5;" width="61" x="103" y="331"/><ellipse cx="118" cy="347" fill="#ADD1B2" rx="11" ry="11" style="stroke:#181818;stroke-width:1.0;"/><path d="M120.7656,342.875 Q120.9219,342.6563 121.1094,342.5469 Q121.2969,342.4375 121.5156,342.4375 Q121.8906,342.4375 122.125,342.6953 Q122.3594,342.9531 122.3594,343.5625 L122.3594,345.0156 Q122.3594,345.625 122.125,345.8906 Q121.8906,346.1563 121.5156,346.1563 Q121.1719,346.1563 120.9688,345.9531 Q120.7656,345.7656 120.6563,345.25 Q120.6094,344.8906 120.4219,344.7031 Q120.0938,344.3281 119.4844,344.1094 Q118.875,343.8906 118.25,343.8906 Q117.4844,343.8906 116.8516,344.2188 Q116.2188,344.5469 115.7266,345.2969 Q115.2344,346.0469 115.2344,347.0781 L115.2344,348.1719 Q115.2344,349.4063 116.125,350.2266 Q117.0156,351.0469 118.6094,351.0469 Q119.5469,351.0469 120.2031,350.7969 Q120.5938,350.6406 121.0156,350.2031 Q121.2813,349.9375 121.4297,349.8594 Q121.5781,349.7813 121.7813,349.7813 Q122.1094,349.7813 122.3672,350.0391 Q122.625,350.2969 122.625,350.6406 Q122.625,350.9844 122.2813,351.3906 Q121.7813,351.9688 120.9844,352.2969 Q119.9063,352.75 118.6094,352.75 Q117.0938,352.75 115.8906,352.125 Q114.9063,351.625 114.2188,350.5547 Q113.5313,349.4844 113.5313,348.2031 L113.5313,347.0469 Q113.5313,345.7188 114.1484,344.5703 Q114.7656,343.4219 115.8594,342.8047 Q116.9531,342.1875 118.1875,342.1875 Q118.9219,342.1875 119.5703,342.3516 Q120.2188,342.5156 120.7656,342.875 Z " fill="#000000"/><text fill="#000000" font-family="sans-serif" font-size="14" lengthAdjust="spacing" textLength="29" x="132" y="352.7285">MFA</text><line style="stroke:#181818;stroke-width:0.5;" x1="104" x2="163" y1="363" y2="363"/><line style="stroke:#181818;stroke-width:0.5;" x1="104" x2="163" y1="371" y2="371"/></g><!--class ???????????--><g id="elem_&#1040;&#1074;&#1090;&#1086;&#1088;&#1080;&#1079;&#1072;&#1094;&#1080;&#1103;"><rect fill="#F1F1F1" height="48" id="&#1040;&#1074;&#1090;&#1086;&#1088;&#1080;&#1079;&#1072;&#1094;&#1080;&#1103;" rx="2.5" ry="2.5" style="stroke:#181818;stroke-width:0.5;" width="118" x="138.5" y="115"/><ellipse cx="153.5" cy="131" fill="#ADD1B2" rx="11" ry="11" style="stroke:#181818;stroke-width:1.0;"/><path d="M156.2656,126.875 Q156.4219,126.6563 156.6094,126.5469 Q156.7969,126.4375 157.0156,126.4375 Q157.3906,126.4375 157.625,126.6953 Q157.8594,126.9531 157.8594,127.5625 L157.8594,129.0156 Q157.8594,129.625 157.625,129.8906 Q157.3906,130.1563 157.0156,130.1563 Q156.6719,130.1563 156.4688,129.9531 Q156.2656,129.7656 156.1563,129.25 Q156.1094,128.8906 155.9219,128.7031 Q155.5938,128.3281 154.9844,128.1094 Q154.375,127.8906 153.75,127.8906 Q152.9844,127.8906 152.3516,128.2188 Q151.7188,128.5469 151.2266,129.2969 Q150.7344,130.0469 150.7344,131.0781 L150.7344,132.1719 Q150.7344,133.4063 151.625,134.2266 Q152.5156,135.0469 154.1094,135.0469 Q155.0469,135.0469 155.7031,134.7969 Q156.0938,134.6406 156.5156,134.2031 Q156.7813,133.9375 156.9297,133.8594 Q157.0781,133.7813 157.2813,133.7813 Q157.6094,133.7813 157.8672,134.0391 Q158.125,134.2969 158.125,134.6406 Q158.125,134.9844 157.7813,135.3906 Q157.2813,135.9688 156.4844,136.2969 Q155.4063,136.75 154.1094,136.75 Q152.5938,136.75 151.3906,136.125 Q150.4063,135.625 149.7188,134.5547 Q149.0313,133.4844 149.0313,132.2031 L149.0313,131.0469 Q149.0313,129.7188 149.6484,128.5703 Q150.2656,127.4219 151.3594,126.8047 Q152.4531,126.1875 153.6875,126.1875 Q154.4219,126.1875 155.0703,126.3516 Q155.7188,126.5156 156.2656,126.875 Z " fill="#000000"/><text fill="#000000" font-family="sans-serif" font-size="14" lengthAdjust="spacing" textLength="86" x="167.5" y="136.7285">&#1040;&#1074;&#1090;&#1086;&#1088;&#1080;&#1079;&#1072;&#1094;&#1080;&#1103;</text><line style="stroke:#181818;stroke-width:0.5;" x1="139.5" x2="255.5" y1="147" y2="147"/><line style="stroke:#181818;stroke-width:0.5;" x1="139.5" x2="255.5" y1="155" y2="155"/></g><!--class ????????????--><g id="elem_&#1050;&#1088;&#1080;&#1087;&#1090;&#1086;&#1079;&#1072;&#1097;&#1080;&#1090;&#1072;"><rect fill="#F1F1F1" height="48" id="&#1050;&#1088;&#1080;&#1087;&#1090;&#1086;&#1079;&#1072;&#1097;&#1080;&#1090;&#1072;" rx="2.5" ry="2.5" style="stroke:#181818;stroke-width:0.5;" width="127" x="292" y="115"/><ellipse cx="307" cy="131" fill="#ADD1B2" rx="11" ry="11" style="stroke:#181818;stroke-width:1.0;"/><path d="M309.7656,126.875 Q309.9219,126.6563 310.1094,126.5469 Q310.2969,126.4375 310.5156,126.4375 Q310.8906,126.4375 311.125,126.6953 Q311.3594,126.9531 311.3594,127.5625 L311.3594,129.0156 Q311.3594,129.625 311.125,129.8906 Q310.8906,130.1563 310.5156,130.1563 Q310.1719,130.1563 309.9688,129.9531 Q309.7656,129.7656 309.6563,129.25 Q309.6094,128.8906 309.4219,128.7031 Q309.0938,128.3281 308.4844,128.1094 Q307.875,127.8906 307.25,127.8906 Q306.4844,127.8906 305.8516,128.2188 Q305.2188,128.5469 304.7266,129.2969 Q304.2344,130.0469 304.2344,131.0781 L304.2344,132.1719 Q304.2344,133.4063 305.125,134.2266 Q306.0156,135.0469 307.6094,135.0469 Q308.5469,135.0469 309.2031,134.7969 Q309.5938,134.6406 310.0156,134.2031 Q310.2813,133.9375 310.4297,133.8594 Q310.5781,133.7813 310.7813,133.7813 Q311.1094,133.7813 311.3672,134.0391 Q311.625,134.2969 311.625,134.6406 Q311.625,134.9844 311.2813,135.3906 Q310.7813,135.9688 309.9844,136.2969 Q308.9063,136.75 307.6094,136.75 Q306.0938,136.75 304.8906,136.125 Q303.9063,135.625 303.2188,134.5547 Q302.5313,133.4844 302.5313,132.2031 L302.5313,131.0469 Q302.5313,129.7188 303.1484,128.5703 Q303.7656,127.4219 304.8594,126.8047 Q305.9531,126.1875 307.1875,126.1875 Q307.9219,126.1875 308.5703,126.3516 Q309.2188,126.5156 309.7656,126.875 Z " fill="#000000"/><text fill="#000000" font-family="sans-serif" font-size="14" lengthAdjust="spacing" textLength="95" x="321" y="136.7285">&#1050;&#1088;&#1080;&#1087;&#1090;&#1086;&#1079;&#1072;&#1097;&#1080;&#1090;&#1072;</text><line style="stroke:#181818;stroke-width:0.5;" x1="293" x2="418" y1="147" y2="147"/><line style="stroke:#181818;stroke-width:0.5;" x1="293" x2="418" y1="155" y2="155"/></g><!--class ?????--><g id="elem_&#1040;&#1091;&#1076;&#1080;&#1090;"><rect fill="#F1F1F1" height="48" id="&#1040;&#1091;&#1076;&#1080;&#1090;" rx="2.5" ry="2.5" style="stroke:#181818;stroke-width:0.5;" width="71" x="454" y="115"/><ellipse cx="469" cy="131" fill="#ADD1B2" rx="11" ry="11" style="stroke:#181818;stroke-width:1.0;"/><path d="M471.7656,126.875 Q471.9219,126.6563 472.1094,126.5469 Q472.2969,126.4375 472.5156,126.4375 Q472.8906,126.4375 473.125,126.6953 Q473.3594,126.9531 473.3594,127.5625 L473.3594,129.0156 Q473.3594,129.625 473.125,129.8906 Q472.8906,130.1563 472.5156,130.1563 Q472.1719,130.1563 471.9688,129.9531 Q471.7656,129.7656 471.6563,129.25 Q471.6094,128.8906 471.4219,128.7031 Q471.0938,128.3281 470.4844,128.1094 Q469.875,127.8906 469.25,127.8906 Q468.4844,127.8906 467.8516,128.2188 Q467.2188,128.5469 466.7266,129.2969 Q466.2344,130.0469 466.2344,131.0781 L466.2344,132.1719 Q466.2344,133.4063 467.125,134.2266 Q468.0156,135.0469 469.6094,135.0469 Q470.5469,135.0469 471.2031,134.7969 Q471.5938,134.6406 472.0156,134.2031 Q472.2813,133.9375 472.4297,133.8594 Q472.5781,133.7813 472.7813,133.7813 Q473.1094,133.7813 473.3672,134.0391 Q473.625,134.2969 473.625,134.6406 Q473.625,134.9844 473.2813,135.3906 Q472.7813,135.9688 471.9844,136.2969 Q470.9063,136.75 469.6094,136.75 Q468.0938,136.75 466.8906,136.125 Q465.9063,135.625 465.2188,134.5547 Q464.5313,133.4844 464.5313,132.2031 L464.5313,131.0469 Q464.5313,129.7188 465.1484,128.5703 Q465.7656,127.4219 466.8594,126.8047 Q467.9531,126.1875 469.1875,126.1875 Q469.9219,126.1875 470.5703,126.3516 Q471.2188,126.5156 471.7656,126.875 Z " fill="#000000"/><text fill="#000000" font-family="sans-serif" font-size="14" lengthAdjust="spacing" textLength="39" x="483" y="136.7285">&#1040;&#1091;&#1076;&#1080;&#1090;</text><line style="stroke:#181818;stroke-width:0.5;" x1="455" x2="524" y1="147" y2="147"/><line style="stroke:#181818;stroke-width:0.5;" x1="455" x2="524" y1="155" y2="155"/></g><!--class ConfOut--><g id="elem_ConfOut"><rect codeLine="9" fill="#F1F1F1" height="48" id="ConfOut" rx="2.5" ry="2.5" style="stroke:#181818;stroke-width:0.5;" width="174" x="560.5" y="115"/><ellipse cx="575.5" cy="131" fill="#ADD1B2" rx="11" ry="11" style="stroke:#181818;stroke-width:1.0;"/><path d="M578.2656,126.875 Q578.4219,126.6563 578.6094,126.5469 Q578.7969,126.4375 579.0156,126.4375 Q579.3906,126.4375 579.625,126.6953 Q579.8594,126.9531 579.8594,127.5625 L579.8594,129.0156 Q579.8594,129.625 579.625,129.8906 Q579.3906,130.1563 579.0156,130.1563 Q578.6719,130.1563 578.4688,129.9531 Q578.2656,129.7656 578.1563,129.25 Q578.1094,128.8906 577.9219,128.7031 Q577.5938,128.3281 576.9844,128.1094 Q576.375,127.8906 575.75,127.8906 Q574.9844,127.8906 574.3516,128.2188 Q573.7188,128.5469 573.2266,129.2969 Q572.7344,130.0469 572.7344,131.0781 L572.7344,132.1719 Q572.7344,133.4063 573.625,134.2266 Q574.5156,135.0469 576.1094,135.0469 Q577.0469,135.0469 577.7031,134.7969 Q578.0938,134.6406 578.5156,134.2031 Q578.7813,133.9375 578.9297,133.8594 Q579.0781,133.7813 579.2813,133.7813 Q579.6094,133.7813 579.8672,134.0391 Q580.125,134.2969 580.125,134.6406 Q580.125,134.9844 579.7813,135.3906 Q579.2813,135.9688 578.4844,136.2969 Q577.4063,136.75 576.1094,136.75 Q574.5938,136.75 573.3906,136.125 Q572.4063,135.625 571.7188,134.5547 Q571.0313,133.4844 571.0313,132.2031 L571.0313,131.0469 Q571.0313,129.7188 571.6484,128.5703 Q572.2656,127.4219 573.3594,126.8047 Q574.4531,126.1875 575.6875,126.1875 Q576.4219,126.1875 577.0703,126.3516 Q577.7188,126.5156 578.2656,126.875 Z " fill="#000000"/><text fill="#000000" font-family="sans-serif" font-size="14" lengthAdjust="spacing" textLength="142" x="589.5" y="136.7285">&#1050;&#1086;&#1085;&#1092;&#1080;&#1075;&#1091;&#1088;&#1072;&#1094;&#1080;&#1103; &#1074;&#1086; &#1074;&#1085;&#1077;</text><line style="stroke:#181818;stroke-width:0.5;" x1="561.5" x2="733.5" y1="147" y2="147"/><line style="stroke:#181818;stroke-width:0.5;" x1="561.5" x2="733.5" y1="155" y2="155"/></g><!--link Security to ??????????????--><g id="link_Security_&#1040;&#1091;&#1090;&#1077;&#1085;&#1090;&#1080;&#1092;&#1080;&#1082;&#1072;&#1094;&#1080;&#1103;"><path codeLine="2" d="M313.89,35.13 C261.29,41.35 171.46,59.88 120.5,115 C93.01,144.73 86.66,193.65 85.45,222.55 " fill="none" id="Security-&#1040;&#1091;&#1090;&#1077;&#1085;&#1090;&#1080;&#1092;&#1080;&#1082;&#1072;&#1094;&#1080;&#1103;" style="stroke:#181818;stroke-width:1.0;"/></g><!--link ?????????????? to SSO--><g id="link_&#1040;&#1091;&#1090;&#1077;&#1085;&#1090;&#1080;&#1092;&#1080;&#1082;&#1072;&#1094;&#1080;&#1103;_SSO"><path codeLine="4" d="M75.08,271 C67.09,288.66 56.09,312.94 48.06,330.68 " fill="none" id="&#1040;&#1091;&#1090;&#1077;&#1085;&#1090;&#1080;&#1092;&#1080;&#1082;&#1072;&#1094;&#1080;&#1103;-SSO" style="stroke:#181818;stroke-width:1.0;"/></g><!--link ?????????????? to MFA--><g id="link_&#1040;&#1091;&#1090;&#1077;&#1085;&#1090;&#1080;&#1092;&#1080;&#1082;&#1072;&#1094;&#1080;&#1103;_MFA"><path codeLine="5" d="M95.92,271 C103.91,288.66 114.91,312.94 122.94,330.68 " fill="none" id="&#1040;&#1091;&#1090;&#1077;&#1085;&#1090;&#1080;&#1092;&#1080;&#1082;&#1072;&#1094;&#1080;&#1103;-MFA" style="stroke:#181818;stroke-width:1.0;"/></g><!--link Security to ???????????--><g id="link_Security_&#1040;&#1074;&#1090;&#1086;&#1088;&#1080;&#1079;&#1072;&#1094;&#1080;&#1103;"><path codeLine="6" d="M321.22,55 C294.81,72.72 258.45,97.11 231.99,114.86 " fill="none" id="Security-&#1040;&#1074;&#1090;&#1086;&#1088;&#1080;&#1079;&#1072;&#1094;&#1080;&#1103;" style="stroke:#181818;stroke-width:1.0;"/></g><!--link Security to ????????????--><g id="link_Security_&#1050;&#1088;&#1080;&#1087;&#1090;&#1086;&#1079;&#1072;&#1097;&#1080;&#1090;&#1072;"><path codeLine="7" d="M355.5,55 C355.5,72.66 355.5,96.94 355.5,114.68 " fill="none" id="Security-&#1050;&#1088;&#1080;&#1087;&#1090;&#1086;&#1079;&#1072;&#1097;&#1080;&#1090;&#1072;" style="stroke:#181818;stroke-width:1.0;"/></g><!--link Security to ?????--><g id="link_Security_&#1040;&#1091;&#1076;&#1080;&#1090;"><path codeLine="8" d="M384.58,55 C406.9,72.66 437.59,96.94 460.02,114.68 " fill="none" id="Security-&#1040;&#1091;&#1076;&#1080;&#1090;" style="stroke:#181818;stroke-width:1.0;"/></g><!--link Security to ConfOut--><g id="link_Security_ConfOut"><path codeLine="10" d="M397.03,47.07 C445.84,64.79 527.36,94.39 584.09,114.98 " fill="none" id="Security-ConfOut" style="stroke:#181818;stroke-width:1.0;"/></g><!--SRC=[2qvDBYtABAbKqDNLLRWmuMBpnQOBMo_i1P8xBhPSs75XruKD5zk0x7ukphpyabI5eipqZ18h1N_7qf8C1Q_m40L_JnTd1UVy_EpCL0Ld_w1WBavyfW2jKGWEzYUioDVDaPCh6E4ueDikR08gtNUn0QXqEznLA4fcWINtWvI1bNG2bJHTs81cpiNc2rj04bp9EOd5nK2tvwNvbvOe91OhA5sO1TIv5-oQpK3tDS1TT67JXNqWOk-5hKeeni5qSm40]--></g></svg>