<?xml version="1.0" encoding="us-ascii" standalone="no"?><svg xmlns="http://www.w3.org/2000/svg" xmlns:xlink="http://www.w3.org/1999/xlink" contentStyleType="text/css" height="521px" preserveAspectRatio="none" style="width:1179px;height:521px;background:#FFFFFF;" version="1.1" viewBox="0 0 1179 521" width="1179px" zoomAndPan="magnify"><defs/><g><!--class ??????????--><g id="elem_&#1048;&#1085;&#1090;&#1077;&#1075;&#1088;&#1072;&#1094;&#1080;&#1080;"><rect fill="#F1F1F1" height="48" id="&#1048;&#1085;&#1090;&#1077;&#1075;&#1088;&#1072;&#1094;&#1080;&#1080;" rx="2.5" ry="2.5" style="stroke:#181818;stroke-width:0.5;" width="111" x="651.5" y="7"/><ellipse cx="666.5" cy="23" fill="#ADD1B2" rx="11" ry="11" style="stroke:#181818;stroke-width:1.0;"/><path d="M669.2656,18.875 Q669.4219,18.6563 669.6094,18.5469 Q669.7969,18.4375 670.0156,18.4375 Q670.3906,18.4375 670.625,18.6953 Q670.8594,18.9531 670.8594,19.5625 L670.8594,21.0156 Q670.8594,21.625 670.625,21.8906 Q670.3906,22.1563 670.0156,22.1563 Q669.6719,22.1563 669.4688,21.9531 Q669.2656,21.7656 669.1563,21.25 Q669.1094,20.8906 668.9219,20.7031 Q668.5938,20.3281 667.9844,20.1094 Q667.375,19.8906 666.75,19.8906 Q665.9844,19.8906 665.3516,20.2188 Q664.7188,20.5469 664.2266,21.2969 Q663.7344,22.0469 663.7344,23.0781 L663.7344,24.1719 Q663.7344,25.4063 664.625,26.2266 Q665.5156,27.0469 667.1094,27.0469 Q668.0469,27.0469 668.7031,26.7969 Q669.0938,26.6406 669.5156,26.2031 Q669.7813,25.9375 669.9297,25.8594 Q670.0781,25.7813 670.2813,25.7813 Q670.6094,25.7813 670.8672,26.0391 Q671.125,26.2969 671.125,26.6406 Q671.125,26.9844 670.7813,27.3906 Q670.2813,27.9688 669.4844,28.2969 Q668.4063,28.75 667.1094,28.75 Q665.5938,28.75 664.3906,28.125 Q663.4063,27.625 662.7188,26.5547 Q662.0313,25.4844 662.0313,24.2031 L662.0313,23.0469 Q662.0313,21.7188 662.6484,20.5703 Q663.2656,19.4219 664.3594,18.8047 Q665.4531,18.1875 666.6875,18.1875 Q667.4219,18.1875 668.0703,18.3516 Q668.7188,18.5156 669.2656,18.875 Z " fill="#000000"/><text fill="#000000" font-family="sans-serif" font-size="14" lengthAdjust="spacing" textLength="79" x="680.5" y="28.7285">&#1048;&#1085;&#1090;&#1077;&#1075;&#1088;&#1072;&#1094;&#1080;&#1080;</text><line style="stroke:#181818;stroke-width:0.5;" x1="652.5" x2="761.5" y1="39" y2="39"/><line style="stroke:#181818;stroke-width:0.5;" x1="652.5" x2="761.5" y1="47" y2="47"/></g><!--class ??????--><g id="elem_&#1044;&#1072;&#1085;&#1085;&#1099;&#1077;"><rect fill="#F1F1F1" height="48" id="&#1044;&#1072;&#1085;&#1085;&#1099;&#1077;" rx="2.5" ry="2.5" style="stroke:#181818;stroke-width:0.5;" width="83" x="183.5" y="115"/><ellipse cx="198.5" cy="131" fill="#ADD1B2" rx="11" ry="11" style="stroke:#181818;stroke-width:1.0;"/><path d="M201.2656,126.875 Q201.4219,126.6563 201.6094,126.5469 Q201.7969,126.4375 202.0156,126.4375 Q202.3906,126.4375 202.625,126.6953 Q202.8594,126.9531 202.8594,127.5625 L202.8594,129.0156 Q202.8594,129.625 202.625,129.8906 Q202.3906,130.1563 202.0156,130.1563 Q201.6719,130.1563 201.4688,129.9531 Q201.2656,129.7656 201.1563,129.25 Q201.1094,128.8906 200.9219,128.7031 Q200.5938,128.3281 199.9844,128.1094 Q199.375,127.8906 198.75,127.8906 Q197.9844,127.8906 197.3516,128.2188 Q196.7188,128.5469 196.2266,129.2969 Q195.7344,130.0469 195.7344,131.0781 L195.7344,132.1719 Q195.7344,133.4063 196.625,134.2266 Q197.5156,135.0469 199.1094,135.0469 Q200.0469,135.0469 200.7031,134.7969 Q201.0938,134.6406 201.5156,134.2031 Q201.7813,133.9375 201.9297,133.8594 Q202.0781,133.7813 202.2813,133.7813 Q202.6094,133.7813 202.8672,134.0391 Q203.125,134.2969 203.125,134.6406 Q203.125,134.9844 202.7813,135.3906 Q202.2813,135.9688 201.4844,136.2969 Q200.4063,136.75 199.1094,136.75 Q197.5938,136.75 196.3906,136.125 Q195.4063,135.625 194.7188,134.5547 Q194.0313,133.4844 194.0313,132.2031 L194.0313,131.0469 Q194.0313,129.7188 194.6484,128.5703 Q195.2656,127.4219 196.3594,126.8047 Q197.4531,126.1875 198.6875,126.1875 Q199.4219,126.1875 200.0703,126.3516 Q200.7188,126.5156 201.2656,126.875 Z " fill="#000000"/><text fill="#000000" font-family="sans-serif" font-size="14" lengthAdjust="spacing" textLength="51" x="212.5" y="136.7285">&#1044;&#1072;&#1085;&#1085;&#1099;&#1077;</text><line style="stroke:#181818;stroke-width:0.5;" x1="184.5" x2="265.5" y1="147" y2="147"/><line style="stroke:#181818;stroke-width:0.5;" x1="184.5" x2="265.5" y1="155" y2="155"/></g><!--class ETL--><g id="elem_ETL"><rect fill="#F1F1F1" height="48" id="ETL" rx="2.5" ry="2.5" style="stroke:#181818;stroke-width:0.5;" width="58" x="7" y="236.5"/><ellipse cx="22" cy="252.5" fill="#ADD1B2" rx="11" ry="11" style="stroke:#181818;stroke-width:1.0;"/><path d="M24.7656,248.375 Q24.9219,248.1563 25.1094,248.0469 Q25.2969,247.9375 25.5156,247.9375 Q25.8906,247.9375 26.125,248.1953 Q26.3594,248.4531 26.3594,249.0625 L26.3594,250.5156 Q26.3594,251.125 26.125,251.3906 Q25.8906,251.6563 25.5156,251.6563 Q25.1719,251.6563 24.9688,251.4531 Q24.7656,251.2656 24.6563,250.75 Q24.6094,250.3906 24.4219,250.2031 Q24.0938,249.8281 23.4844,249.6094 Q22.875,249.3906 22.25,249.3906 Q21.4844,249.3906 20.8516,249.7188 Q20.2188,250.0469 19.7266,250.7969 Q19.2344,251.5469 19.2344,252.5781 L19.2344,253.6719 Q19.2344,254.9063 20.125,255.7266 Q21.0156,256.5469 22.6094,256.5469 Q23.5469,256.5469 24.2031,256.2969 Q24.5938,256.1406 25.0156,255.7031 Q25.2813,255.4375 25.4297,255.3594 Q25.5781,255.2813 25.7813,255.2813 Q26.1094,255.2813 26.3672,255.5391 Q26.625,255.7969 26.625,256.1406 Q26.625,256.4844 26.2813,256.8906 Q25.7813,257.4688 24.9844,257.7969 Q23.9063,258.25 22.6094,258.25 Q21.0938,258.25 19.8906,257.625 Q18.9063,257.125 18.2188,256.0547 Q17.5313,254.9844 17.5313,253.7031 L17.5313,252.5469 Q17.5313,251.2188 18.1484,250.0703 Q18.7656,248.9219 19.8594,248.3047 Q20.9531,247.6875 22.1875,247.6875 Q22.9219,247.6875 23.5703,247.8516 Q24.2188,248.0156 24.7656,248.375 Z " fill="#000000"/><text fill="#000000" font-family="sans-serif" font-size="14" lengthAdjust="spacing" textLength="26" x="36" y="258.2285">ETL</text><line style="stroke:#181818;stroke-width:0.5;" x1="8" x2="64" y1="268.5" y2="268.5"/><line style="stroke:#181818;stroke-width:0.5;" x1="8" x2="64" y1="276.5" y2="276.5"/></g><!--class ELT--><g id="elem_ELT"><rect fill="#F1F1F1" height="48" id="ELT" rx="2.5" ry="2.5" style="stroke:#181818;stroke-width:0.5;" width="58" x="100" y="236.5"/><ellipse cx="115" cy="252.5" fill="#ADD1B2" rx="11" ry="11" style="stroke:#181818;stroke-width:1.0;"/><path d="M117.7656,248.375 Q117.9219,248.1563 118.1094,248.0469 Q118.2969,247.9375 118.5156,247.9375 Q118.8906,247.9375 119.125,248.1953 Q119.3594,248.4531 119.3594,249.0625 L119.3594,250.5156 Q119.3594,251.125 119.125,251.3906 Q118.8906,251.6563 118.5156,251.6563 Q118.1719,251.6563 117.9688,251.4531 Q117.7656,251.2656 117.6563,250.75 Q117.6094,250.3906 117.4219,250.2031 Q117.0938,249.8281 116.4844,249.6094 Q115.875,249.3906 115.25,249.3906 Q114.4844,249.3906 113.8516,249.7188 Q113.2188,250.0469 112.7266,250.7969 Q112.2344,251.5469 112.2344,252.5781 L112.2344,253.6719 Q112.2344,254.9063 113.125,255.7266 Q114.0156,256.5469 115.6094,256.5469 Q116.5469,256.5469 117.2031,256.2969 Q117.5938,256.1406 118.0156,255.7031 Q118.2813,255.4375 118.4297,255.3594 Q118.5781,255.2813 118.7813,255.2813 Q119.1094,255.2813 119.3672,255.5391 Q119.625,255.7969 119.625,256.1406 Q119.625,256.4844 119.2813,256.8906 Q118.7813,257.4688 117.9844,257.7969 Q116.9063,258.25 115.6094,258.25 Q114.0938,258.25 112.8906,257.625 Q111.9063,257.125 111.2188,256.0547 Q110.5313,254.9844 110.5313,253.7031 L110.5313,252.5469 Q110.5313,251.2188 111.1484,250.0703 Q111.7656,248.9219 112.8594,248.3047 Q113.9531,247.6875 115.1875,247.6875 Q115.9219,247.6875 116.5703,247.8516 Q117.2188,248.0156 117.7656,248.375 Z " fill="#000000"/><text fill="#000000" font-family="sans-serif" font-size="14" lengthAdjust="spacing" textLength="26" x="129" y="258.2285">ELT</text><line style="stroke:#181818;stroke-width:0.5;" x1="101" x2="157" y1="268.5" y2="268.5"/><line style="stroke:#181818;stroke-width:0.5;" x1="101" x2="157" y1="276.5" y2="276.5"/></g><!--class ???--><g id="elem_&#1064;&#1041;&#1044;"><rect fill="#F1F1F1" height="48" id="&#1064;&#1041;&#1044;" rx="2.5" ry="2.5" style="stroke:#181818;stroke-width:0.5;" width="63" x="193.5" y="236.5"/><ellipse cx="208.5" cy="252.5" fill="#ADD1B2" rx="11" ry="11" style="stroke:#181818;stroke-width:1.0;"/><path d="M211.2656,248.375 Q211.4219,248.1563 211.6094,248.0469 Q211.7969,247.9375 212.0156,247.9375 Q212.3906,247.9375 212.625,248.1953 Q212.8594,248.4531 212.8594,249.0625 L212.8594,250.5156 Q212.8594,251.125 212.625,251.3906 Q212.3906,251.6563 212.0156,251.6563 Q211.6719,251.6563 211.4688,251.4531 Q211.2656,251.2656 211.1563,250.75 Q211.1094,250.3906 210.9219,250.2031 Q210.5938,249.8281 209.9844,249.6094 Q209.375,249.3906 208.75,249.3906 Q207.9844,249.3906 207.3516,249.7188 Q206.7188,250.0469 206.2266,250.7969 Q205.7344,251.5469 205.7344,252.5781 L205.7344,253.6719 Q205.7344,254.9063 206.625,255.7266 Q207.5156,256.5469 209.1094,256.5469 Q210.0469,256.5469 210.7031,256.2969 Q211.0938,256.1406 211.5156,255.7031 Q211.7813,255.4375 211.9297,255.3594 Q212.0781,255.2813 212.2813,255.2813 Q212.6094,255.2813 212.8672,255.5391 Q213.125,255.7969 213.125,256.1406 Q213.125,256.4844 212.7813,256.8906 Q212.2813,257.4688 211.4844,257.7969 Q210.4063,258.25 209.1094,258.25 Q207.5938,258.25 206.3906,257.625 Q205.4063,257.125 204.7188,256.0547 Q204.0313,254.9844 204.0313,253.7031 L204.0313,252.5469 Q204.0313,251.2188 204.6484,250.0703 Q205.2656,248.9219 206.3594,248.3047 Q207.4531,247.6875 208.6875,247.6875 Q209.4219,247.6875 210.0703,247.8516 Q210.7188,248.0156 211.2656,248.375 Z " fill="#000000"/><text fill="#000000" font-family="sans-serif" font-size="14" lengthAdjust="spacing" textLength="31" x="222.5" y="258.2285">&#1064;&#1041;&#1044;</text><line style="stroke:#181818;stroke-width:0.5;" x1="194.5" x2="255.5" y1="268.5" y2="268.5"/><line style="stroke:#181818;stroke-width:0.5;" x1="194.5" x2="255.5" y1="276.5" y2="276.5"/></g><!--class File--><g id="elem_File"><rect fill="#F1F1F1" height="48" id="File" rx="2.5" ry="2.5" style="stroke:#181818;stroke-width:0.5;" width="55" x="291.5" y="236.5"/><ellipse cx="306.5" cy="252.5" fill="#ADD1B2" rx="11" ry="11" style="stroke:#181818;stroke-width:1.0;"/><path d="M309.2656,248.375 Q309.4219,248.1563 309.6094,248.0469 Q309.7969,247.9375 310.0156,247.9375 Q310.3906,247.9375 310.625,248.1953 Q310.8594,248.4531 310.8594,249.0625 L310.8594,250.5156 Q310.8594,251.125 310.625,251.3906 Q310.3906,251.6563 310.0156,251.6563 Q309.6719,251.6563 309.4688,251.4531 Q309.2656,251.2656 309.1563,250.75 Q309.1094,250.3906 308.9219,250.2031 Q308.5938,249.8281 307.9844,249.6094 Q307.375,249.3906 306.75,249.3906 Q305.9844,249.3906 305.3516,249.7188 Q304.7188,250.0469 304.2266,250.7969 Q303.7344,251.5469 303.7344,252.5781 L303.7344,253.6719 Q303.7344,254.9063 304.625,255.7266 Q305.5156,256.5469 307.1094,256.5469 Q308.0469,256.5469 308.7031,256.2969 Q309.0938,256.1406 309.5156,255.7031 Q309.7813,255.4375 309.9297,255.3594 Q310.0781,255.2813 310.2813,255.2813 Q310.6094,255.2813 310.8672,255.5391 Q311.125,255.7969 311.125,256.1406 Q311.125,256.4844 310.7813,256.8906 Q310.2813,257.4688 309.4844,257.7969 Q308.4063,258.25 307.1094,258.25 Q305.5938,258.25 304.3906,257.625 Q303.4063,257.125 302.7188,256.0547 Q302.0313,254.9844 302.0313,253.7031 L302.0313,252.5469 Q302.0313,251.2188 302.6484,250.0703 Q303.2656,248.9219 304.3594,248.3047 Q305.4531,247.6875 306.6875,247.6875 Q307.4219,247.6875 308.0703,247.8516 Q308.7188,248.0156 309.2656,248.375 Z " fill="#000000"/><text fill="#000000" font-family="sans-serif" font-size="14" lengthAdjust="spacing" textLength="23" x="320.5" y="258.2285">File</text><line style="stroke:#181818;stroke-width:0.5;" x1="292.5" x2="345.5" y1="268.5" y2="268.5"/><line style="stroke:#181818;stroke-width:0.5;" x1="292.5" x2="345.5" y1="276.5" y2="276.5"/></g><!--class DFS--><g id="elem_DFS"><rect fill="#F1F1F1" height="48" id="DFS" rx="2.5" ry="2.5" style="stroke:#181818;stroke-width:0.5;" width="60" x="193" y="358"/><ellipse cx="208" cy="374" fill="#ADD1B2" rx="11" ry="11" style="stroke:#181818;stroke-width:1.0;"/><path d="M210.7656,369.875 Q210.9219,369.6563 211.1094,369.5469 Q211.2969,369.4375 211.5156,369.4375 Q211.8906,369.4375 212.125,369.6953 Q212.3594,369.9531 212.3594,370.5625 L212.3594,372.0156 Q212.3594,372.625 212.125,372.8906 Q211.8906,373.1563 211.5156,373.1563 Q211.1719,373.1563 210.9688,372.9531 Q210.7656,372.7656 210.6563,372.25 Q210.6094,371.8906 210.4219,371.7031 Q210.0938,371.3281 209.4844,371.1094 Q208.875,370.8906 208.25,370.8906 Q207.4844,370.8906 206.8516,371.2188 Q206.2188,371.5469 205.7266,372.2969 Q205.2344,373.0469 205.2344,374.0781 L205.2344,375.1719 Q205.2344,376.4063 206.125,377.2266 Q207.0156,378.0469 208.6094,378.0469 Q209.5469,378.0469 210.2031,377.7969 Q210.5938,377.6406 211.0156,377.2031 Q211.2813,376.9375 211.4297,376.8594 Q211.5781,376.7813 211.7813,376.7813 Q212.1094,376.7813 212.3672,377.0391 Q212.625,377.2969 212.625,377.6406 Q212.625,377.9844 212.2813,378.3906 Q211.7813,378.9688 210.9844,379.2969 Q209.9063,379.75 208.6094,379.75 Q207.0938,379.75 205.8906,379.125 Q204.9063,378.625 204.2188,377.5547 Q203.5313,376.4844 203.5313,375.2031 L203.5313,374.0469 Q203.5313,372.7188 204.1484,371.5703 Q204.7656,370.4219 205.8594,369.8047 Q206.9531,369.1875 208.1875,369.1875 Q208.9219,369.1875 209.5703,369.3516 Q210.2188,369.5156 210.7656,369.875 Z " fill="#000000"/><text fill="#000000" font-family="sans-serif" font-size="14" lengthAdjust="spacing" textLength="28" x="222" y="379.7285">DFS</text><line style="stroke:#181818;stroke-width:0.5;" x1="194" x2="252" y1="390" y2="390"/><line style="stroke:#181818;stroke-width:0.5;" x1="194" x2="252" y1="398" y2="398"/></g><!--class S3--><g id="elem_S3"><rect fill="#F1F1F1" height="48" id="S3" rx="2.5" ry="2.5" style="stroke:#181818;stroke-width:0.5;" width="49" x="198.5" y="466"/><ellipse cx="213.5" cy="482" fill="#ADD1B2" rx="11" ry="11" style="stroke:#181818;stroke-width:1.0;"/><path d="M216.2656,477.875 Q216.4219,477.6563 216.6094,477.5469 Q216.7969,477.4375 217.0156,477.4375 Q217.3906,477.4375 217.625,477.6953 Q217.8594,477.9531 217.8594,478.5625 L217.8594,480.0156 Q217.8594,480.625 217.625,480.8906 Q217.3906,481.1563 217.0156,481.1563 Q216.6719,481.1563 216.4688,480.9531 Q216.2656,480.7656 216.1563,480.25 Q216.1094,479.8906 215.9219,479.7031 Q215.5938,479.3281 214.9844,479.1094 Q214.375,478.8906 213.75,478.8906 Q212.9844,478.8906 212.3516,479.2188 Q211.7188,479.5469 211.2266,480.2969 Q210.7344,481.0469 210.7344,482.0781 L210.7344,483.1719 Q210.7344,484.4063 211.625,485.2266 Q212.5156,486.0469 214.1094,486.0469 Q215.0469,486.0469 215.7031,485.7969 Q216.0938,485.6406 216.5156,485.2031 Q216.7813,484.9375 216.9297,484.8594 Q217.0781,484.7813 217.2813,484.7813 Q217.6094,484.7813 217.8672,485.0391 Q218.125,485.2969 218.125,485.6406 Q218.125,485.9844 217.7813,486.3906 Q217.2813,486.9688 216.4844,487.2969 Q215.4063,487.75 214.1094,487.75 Q212.5938,487.75 211.3906,487.125 Q210.4063,486.625 209.7188,485.5547 Q209.0313,484.4844 209.0313,483.2031 L209.0313,482.0469 Q209.0313,480.7188 209.6484,479.5703 Q210.2656,478.4219 211.3594,477.8047 Q212.4531,477.1875 213.6875,477.1875 Q214.4219,477.1875 215.0703,477.3516 Q215.7188,477.5156 216.2656,477.875 Z " fill="#000000"/><text fill="#000000" font-family="sans-serif" font-size="14" lengthAdjust="spacing" textLength="17" x="227.5" y="487.7285">S3</text><line style="stroke:#181818;stroke-width:0.5;" x1="199.5" x2="246.5" y1="498" y2="498"/><line style="stroke:#181818;stroke-width:0.5;" x1="199.5" x2="246.5" y1="506" y2="506"/></g><!--class CDN--><g id="elem_CDN"><rect fill="#F1F1F1" height="48" id="CDN" rx="2.5" ry="2.5" style="stroke:#181818;stroke-width:0.5;" width="61" x="288.5" y="358"/><ellipse cx="303.5" cy="374" fill="#ADD1B2" rx="11" ry="11" style="stroke:#181818;stroke-width:1.0;"/><path d="M306.2656,369.875 Q306.4219,369.6563 306.6094,369.5469 Q306.7969,369.4375 307.0156,369.4375 Q307.3906,369.4375 307.625,369.6953 Q307.8594,369.9531 307.8594,370.5625 L307.8594,372.0156 Q307.8594,372.625 307.625,372.8906 Q307.3906,373.1563 307.0156,373.1563 Q306.6719,373.1563 306.4688,372.9531 Q306.2656,372.7656 306.1563,372.25 Q306.1094,371.8906 305.9219,371.7031 Q305.5938,371.3281 304.9844,371.1094 Q304.375,370.8906 303.75,370.8906 Q302.9844,370.8906 302.3516,371.2188 Q301.7188,371.5469 301.2266,372.2969 Q300.7344,373.0469 300.7344,374.0781 L300.7344,375.1719 Q300.7344,376.4063 301.625,377.2266 Q302.5156,378.0469 304.1094,378.0469 Q305.0469,378.0469 305.7031,377.7969 Q306.0938,377.6406 306.5156,377.2031 Q306.7813,376.9375 306.9297,376.8594 Q307.0781,376.7813 307.2813,376.7813 Q307.6094,376.7813 307.8672,377.0391 Q308.125,377.2969 308.125,377.6406 Q308.125,377.9844 307.7813,378.3906 Q307.2813,378.9688 306.4844,379.2969 Q305.4063,379.75 304.1094,379.75 Q302.5938,379.75 301.3906,379.125 Q300.4063,378.625 299.7188,377.5547 Q299.0313,376.4844 299.0313,375.2031 L299.0313,374.0469 Q299.0313,372.7188 299.6484,371.5703 Q300.2656,370.4219 301.3594,369.8047 Q302.4531,369.1875 303.6875,369.1875 Q304.4219,369.1875 305.0703,369.3516 Q305.7188,369.5156 306.2656,369.875 Z " fill="#000000"/><text fill="#000000" font-family="sans-serif" font-size="14" lengthAdjust="spacing" textLength="29" x="317.5" y="379.7285">CDN</text><line style="stroke:#181818;stroke-width:0.5;" x1="289.5" x2="348.5" y1="390" y2="390"/><line style="stroke:#181818;stroke-width:0.5;" x1="289.5" x2="348.5" y1="398" y2="398"/></g><!--class WebDav--><g id="elem_WebDav"><rect fill="#F1F1F1" height="48" id="WebDav" rx="2.5" ry="2.5" style="stroke:#181818;stroke-width:0.5;" width="86" x="385" y="358"/><ellipse cx="400" cy="374" fill="#ADD1B2" rx="11" ry="11" style="stroke:#181818;stroke-width:1.0;"/><path d="M402.7656,369.875 Q402.9219,369.6563 403.1094,369.5469 Q403.2969,369.4375 403.5156,369.4375 Q403.8906,369.4375 404.125,369.6953 Q404.3594,369.9531 404.3594,370.5625 L404.3594,372.0156 Q404.3594,372.625 404.125,372.8906 Q403.8906,373.1563 403.5156,373.1563 Q403.1719,373.1563 402.9688,372.9531 Q402.7656,372.7656 402.6563,372.25 Q402.6094,371.8906 402.4219,371.7031 Q402.0938,371.3281 401.4844,371.1094 Q400.875,370.8906 400.25,370.8906 Q399.4844,370.8906 398.8516,371.2188 Q398.2188,371.5469 397.7266,372.2969 Q397.2344,373.0469 397.2344,374.0781 L397.2344,375.1719 Q397.2344,376.4063 398.125,377.2266 Q399.0156,378.0469 400.6094,378.0469 Q401.5469,378.0469 402.2031,377.7969 Q402.5938,377.6406 403.0156,377.2031 Q403.2813,376.9375 403.4297,376.8594 Q403.5781,376.7813 403.7813,376.7813 Q404.1094,376.7813 404.3672,377.0391 Q404.625,377.2969 404.625,377.6406 Q404.625,377.9844 404.2813,378.3906 Q403.7813,378.9688 402.9844,379.2969 Q401.9063,379.75 400.6094,379.75 Q399.0938,379.75 397.8906,379.125 Q396.9063,378.625 396.2188,377.5547 Q395.5313,376.4844 395.5313,375.2031 L395.5313,374.0469 Q395.5313,372.7188 396.1484,371.5703 Q396.7656,370.4219 397.8594,369.8047 Q398.9531,369.1875 400.1875,369.1875 Q400.9219,369.1875 401.5703,369.3516 Q402.2188,369.5156 402.7656,369.875 Z " fill="#000000"/><text fill="#000000" font-family="sans-serif" font-size="14" lengthAdjust="spacing" textLength="54" x="414" y="379.7285">WebDav</text><line style="stroke:#181818;stroke-width:0.5;" x1="386" x2="470" y1="390" y2="390"/><line style="stroke:#181818;stroke-width:0.5;" x1="386" x2="470" y1="398" y2="398"/></g><!--class ??????????--><g id="elem_&#1055;&#1088;&#1080;&#1083;&#1086;&#1078;&#1077;&#1085;&#1080;&#1103;"><rect fill="#F1F1F1" height="48" id="&#1055;&#1088;&#1080;&#1083;&#1086;&#1078;&#1077;&#1085;&#1080;&#1103;" rx="2.5" ry="2.5" style="stroke:#181818;stroke-width:0.5;" width="114" x="650" y="115"/><ellipse cx="665" cy="131" fill="#ADD1B2" rx="11" ry="11" style="stroke:#181818;stroke-width:1.0;"/><path d="M667.7656,126.875 Q667.9219,126.6563 668.1094,126.5469 Q668.2969,126.4375 668.5156,126.4375 Q668.8906,126.4375 669.125,126.6953 Q669.3594,126.9531 669.3594,127.5625 L669.3594,129.0156 Q669.3594,129.625 669.125,129.8906 Q668.8906,130.1563 668.5156,130.1563 Q668.1719,130.1563 667.9688,129.9531 Q667.7656,129.7656 667.6563,129.25 Q667.6094,128.8906 667.4219,128.7031 Q667.0938,128.3281 666.4844,128.1094 Q665.875,127.8906 665.25,127.8906 Q664.4844,127.8906 663.8516,128.2188 Q663.2188,128.5469 662.7266,129.2969 Q662.2344,130.0469 662.2344,131.0781 L662.2344,132.1719 Q662.2344,133.4063 663.125,134.2266 Q664.0156,135.0469 665.6094,135.0469 Q666.5469,135.0469 667.2031,134.7969 Q667.5938,134.6406 668.0156,134.2031 Q668.2813,133.9375 668.4297,133.8594 Q668.5781,133.7813 668.7813,133.7813 Q669.1094,133.7813 669.3672,134.0391 Q669.625,134.2969 669.625,134.6406 Q669.625,134.9844 669.2813,135.3906 Q668.7813,135.9688 667.9844,136.2969 Q666.9063,136.75 665.6094,136.75 Q664.0938,136.75 662.8906,136.125 Q661.9063,135.625 661.2188,134.5547 Q660.5313,133.4844 660.5313,132.2031 L660.5313,131.0469 Q660.5313,129.7188 661.1484,128.5703 Q661.7656,127.4219 662.8594,126.8047 Q663.9531,126.1875 665.1875,126.1875 Q665.9219,126.1875 666.5703,126.3516 Q667.2188,126.5156 667.7656,126.875 Z " fill="#000000"/><text fill="#000000" font-family="sans-serif" font-size="14" lengthAdjust="spacing" textLength="82" x="679" y="136.7285">&#1055;&#1088;&#1080;&#1083;&#1086;&#1078;&#1077;&#1085;&#1080;&#1103;</text><line style="stroke:#181818;stroke-width:0.5;" x1="651" x2="763" y1="147" y2="147"/><line style="stroke:#181818;stroke-width:0.5;" x1="651" x2="763" y1="155" y2="155"/></g><!--class RPC--><g id="elem_RPC"><rect fill="#F1F1F1" height="48" id="RPC" rx="2.5" ry="2.5" style="stroke:#181818;stroke-width:0.5;" width="61" x="381.5" y="236.5"/><ellipse cx="396.5" cy="252.5" fill="#ADD1B2" rx="11" ry="11" style="stroke:#181818;stroke-width:1.0;"/><path d="M399.2656,248.375 Q399.4219,248.1563 399.6094,248.0469 Q399.7969,247.9375 400.0156,247.9375 Q400.3906,247.9375 400.625,248.1953 Q400.8594,248.4531 400.8594,249.0625 L400.8594,250.5156 Q400.8594,251.125 400.625,251.3906 Q400.3906,251.6563 400.0156,251.6563 Q399.6719,251.6563 399.4688,251.4531 Q399.2656,251.2656 399.1563,250.75 Q399.1094,250.3906 398.9219,250.2031 Q398.5938,249.8281 397.9844,249.6094 Q397.375,249.3906 396.75,249.3906 Q395.9844,249.3906 395.3516,249.7188 Q394.7188,250.0469 394.2266,250.7969 Q393.7344,251.5469 393.7344,252.5781 L393.7344,253.6719 Q393.7344,254.9063 394.625,255.7266 Q395.5156,256.5469 397.1094,256.5469 Q398.0469,256.5469 398.7031,256.2969 Q399.0938,256.1406 399.5156,255.7031 Q399.7813,255.4375 399.9297,255.3594 Q400.0781,255.2813 400.2813,255.2813 Q400.6094,255.2813 400.8672,255.5391 Q401.125,255.7969 401.125,256.1406 Q401.125,256.4844 400.7813,256.8906 Q400.2813,257.4688 399.4844,257.7969 Q398.4063,258.25 397.1094,258.25 Q395.5938,258.25 394.3906,257.625 Q393.4063,257.125 392.7188,256.0547 Q392.0313,254.9844 392.0313,253.7031 L392.0313,252.5469 Q392.0313,251.2188 392.6484,250.0703 Q393.2656,248.9219 394.3594,248.3047 Q395.4531,247.6875 396.6875,247.6875 Q397.4219,247.6875 398.0703,247.8516 Q398.7188,248.0156 399.2656,248.375 Z " fill="#000000"/><text fill="#000000" font-family="sans-serif" font-size="14" lengthAdjust="spacing" textLength="29" x="410.5" y="258.2285">RPC</text><line style="stroke:#181818;stroke-width:0.5;" x1="382.5" x2="441.5" y1="268.5" y2="268.5"/><line style="stroke:#181818;stroke-width:0.5;" x1="382.5" x2="441.5" y1="276.5" y2="276.5"/></g><g id="elem_GMN25"><path d="M478,223 L478,256.5 L442.55,260.5 L478,264.5 L478,298.4063 A0,0 0 0 0 478,298.4063 L618,298.4063 A0,0 0 0 0 618,298.4063 L618,233 L608,223 L478,223 A0,0 0 0 0 478,223 " fill="#FEFFDD" style="stroke:#181818;stroke-width:0.5;"/><path d="M608,223 L608,233 L618,233 L608,223 " fill="#FEFFDD" style="stroke:#181818;stroke-width:0.5;"/><text fill="#000000" font-family="sans-serif" font-size="13" lengthAdjust="spacing" textLength="119" x="484" y="241.4951">API REST, GraphQL</text><text fill="#000000" font-family="sans-serif" font-size="13" lengthAdjust="spacing" textLength="75" x="484" y="257.8467">SOAP, WCF</text><text fill="#000000" font-family="sans-serif" font-size="13" lengthAdjust="spacing" textLength="99" x="484" y="274.1982">WebSocket SSE</text><text fill="#000000" font-family="sans-serif" font-size="13" lengthAdjust="spacing" textLength="34" x="484" y="290.5498">gRPC</text></g><!--class MiddleWare--><g id="elem_MiddleWare"><rect fill="#F1F1F1" height="48" id="MiddleWare" rx="2.5" ry="2.5" style="stroke:#181818;stroke-width:0.5;" width="107" x="653.5" y="236.5"/><ellipse cx="668.5" cy="252.5" fill="#ADD1B2" rx="11" ry="11" style="stroke:#181818;stroke-width:1.0;"/><path d="M671.2656,248.375 Q671.4219,248.1563 671.6094,248.0469 Q671.7969,247.9375 672.0156,247.9375 Q672.3906,247.9375 672.625,248.1953 Q672.8594,248.4531 672.8594,249.0625 L672.8594,250.5156 Q672.8594,251.125 672.625,251.3906 Q672.3906,251.6563 672.0156,251.6563 Q671.6719,251.6563 671.4688,251.4531 Q671.2656,251.2656 671.1563,250.75 Q671.1094,250.3906 670.9219,250.2031 Q670.5938,249.8281 669.9844,249.6094 Q669.375,249.3906 668.75,249.3906 Q667.9844,249.3906 667.3516,249.7188 Q666.7188,250.0469 666.2266,250.7969 Q665.7344,251.5469 665.7344,252.5781 L665.7344,253.6719 Q665.7344,254.9063 666.625,255.7266 Q667.5156,256.5469 669.1094,256.5469 Q670.0469,256.5469 670.7031,256.2969 Q671.0938,256.1406 671.5156,255.7031 Q671.7813,255.4375 671.9297,255.3594 Q672.0781,255.2813 672.2813,255.2813 Q672.6094,255.2813 672.8672,255.5391 Q673.125,255.7969 673.125,256.1406 Q673.125,256.4844 672.7813,256.8906 Q672.2813,257.4688 671.4844,257.7969 Q670.4063,258.25 669.1094,258.25 Q667.5938,258.25 666.3906,257.625 Q665.4063,257.125 664.7188,256.0547 Q664.0313,254.9844 664.0313,253.7031 L664.0313,252.5469 Q664.0313,251.2188 664.6484,250.0703 Q665.2656,248.9219 666.3594,248.3047 Q667.4531,247.6875 668.6875,247.6875 Q669.4219,247.6875 670.0703,247.8516 Q670.7188,248.0156 671.2656,248.375 Z " fill="#000000"/><text fill="#000000" font-family="sans-serif" font-size="14" lengthAdjust="spacing" textLength="75" x="682.5" y="258.2285">MiddleWare</text><line style="stroke:#181818;stroke-width:0.5;" x1="654.5" x2="759.5" y1="268.5" y2="268.5"/><line style="stroke:#181818;stroke-width:0.5;" x1="654.5" x2="759.5" y1="276.5" y2="276.5"/></g><g id="elem_GMN30"><path d="M796,231 L796,256.5 L760.53,260.5 L796,264.5 L796,290.0547 A0,0 0 0 0 796,290.0547 L908,290.0547 A0,0 0 0 0 908,290.0547 L908,241 L898,231 L796,231 A0,0 0 0 0 796,231 " fill="#FEFFDD" style="stroke:#181818;stroke-width:0.5;"/><path d="M898,231 L898,241 L908,241 L898,231 " fill="#FEFFDD" style="stroke:#181818;stroke-width:0.5;"/><text fill="#000000" font-family="sans-serif" font-size="13" lengthAdjust="spacing" textLength="28" x="802" y="249.4951">SOA</text><text fill="#000000" font-family="sans-serif" font-size="13" lengthAdjust="spacing" textLength="91" x="802" y="265.8467">MessageBroker</text><text fill="#000000" font-family="sans-serif" font-size="13" lengthAdjust="spacing" textLength="81" x="802" y="282.1982">API GW, BFF</text></g><!--class EventSourcing--><g id="elem_EventSourcing"><rect fill="#F1F1F1" height="48" id="EventSourcing" rx="2.5" ry="2.5" style="stroke:#181818;stroke-width:0.5;" width="124" x="943" y="236.5"/><ellipse cx="958" cy="252.5" fill="#ADD1B2" rx="11" ry="11" style="stroke:#181818;stroke-width:1.0;"/><path d="M960.7656,248.375 Q960.9219,248.1563 961.1094,248.0469 Q961.2969,247.9375 961.5156,247.9375 Q961.8906,247.9375 962.125,248.1953 Q962.3594,248.4531 962.3594,249.0625 L962.3594,250.5156 Q962.3594,251.125 962.125,251.3906 Q961.8906,251.6563 961.5156,251.6563 Q961.1719,251.6563 960.9688,251.4531 Q960.7656,251.2656 960.6563,250.75 Q960.6094,250.3906 960.4219,250.2031 Q960.0938,249.8281 959.4844,249.6094 Q958.875,249.3906 958.25,249.3906 Q957.4844,249.3906 956.8516,249.7188 Q956.2188,250.0469 955.7266,250.7969 Q955.2344,251.5469 955.2344,252.5781 L955.2344,253.6719 Q955.2344,254.9063 956.125,255.7266 Q957.0156,256.5469 958.6094,256.5469 Q959.5469,256.5469 960.2031,256.2969 Q960.5938,256.1406 961.0156,255.7031 Q961.2813,255.4375 961.4297,255.3594 Q961.5781,255.2813 961.7813,255.2813 Q962.1094,255.2813 962.3672,255.5391 Q962.625,255.7969 962.625,256.1406 Q962.625,256.4844 962.2813,256.8906 Q961.7813,257.4688 960.9844,257.7969 Q959.9063,258.25 958.6094,258.25 Q957.0938,258.25 955.8906,257.625 Q954.9063,257.125 954.2188,256.0547 Q953.5313,254.9844 953.5313,253.7031 L953.5313,252.5469 Q953.5313,251.2188 954.1484,250.0703 Q954.7656,248.9219 955.8594,248.3047 Q956.9531,247.6875 958.1875,247.6875 Q958.9219,247.6875 959.5703,247.8516 Q960.2188,248.0156 960.7656,248.375 Z " fill="#000000"/><text fill="#000000" font-family="sans-serif" font-size="14" lengthAdjust="spacing" textLength="92" x="972" y="258.2285">EventSourcing</text><line style="stroke:#181818;stroke-width:0.5;" x1="944" x2="1066" y1="268.5" y2="268.5"/><line style="stroke:#181818;stroke-width:0.5;" x1="944" x2="1066" y1="276.5" y2="276.5"/></g><!--class SAGA--><g id="elem_SAGA"><rect fill="#F1F1F1" height="48" id="SAGA" rx="2.5" ry="2.5" style="stroke:#181818;stroke-width:0.5;" width="70" x="1102" y="236.5"/><ellipse cx="1117" cy="252.5" fill="#ADD1B2" rx="11" ry="11" style="stroke:#181818;stroke-width:1.0;"/><path d="M1119.7656,248.375 Q1119.9219,248.1563 1120.1094,248.0469 Q1120.2969,247.9375 1120.5156,247.9375 Q1120.8906,247.9375 1121.125,248.1953 Q1121.3594,248.4531 1121.3594,249.0625 L1121.3594,250.5156 Q1121.3594,251.125 1121.125,251.3906 Q1120.8906,251.6563 1120.5156,251.6563 Q1120.1719,251.6563 1119.9688,251.4531 Q1119.7656,251.2656 1119.6563,250.75 Q1119.6094,250.3906 1119.4219,250.2031 Q1119.0938,249.8281 1118.4844,249.6094 Q1117.875,249.3906 1117.25,249.3906 Q1116.4844,249.3906 1115.8516,249.7188 Q1115.2188,250.0469 1114.7266,250.7969 Q1114.2344,251.5469 1114.2344,252.5781 L1114.2344,253.6719 Q1114.2344,254.9063 1115.125,255.7266 Q1116.0156,256.5469 1117.6094,256.5469 Q1118.5469,256.5469 1119.2031,256.2969 Q1119.5938,256.1406 1120.0156,255.7031 Q1120.2813,255.4375 1120.4297,255.3594 Q1120.5781,255.2813 1120.7813,255.2813 Q1121.1094,255.2813 1121.3672,255.5391 Q1121.625,255.7969 1121.625,256.1406 Q1121.625,256.4844 1121.2813,256.8906 Q1120.7813,257.4688 1119.9844,257.7969 Q1118.9063,258.25 1117.6094,258.25 Q1116.0938,258.25 1114.8906,257.625 Q1113.9063,257.125 1113.2188,256.0547 Q1112.5313,254.9844 1112.5313,253.7031 L1112.5313,252.5469 Q1112.5313,251.2188 1113.1484,250.0703 Q1113.7656,248.9219 1114.8594,248.3047 Q1115.9531,247.6875 1117.1875,247.6875 Q1117.9219,247.6875 1118.5703,247.8516 Q1119.2188,248.0156 1119.7656,248.375 Z " fill="#000000"/><text fill="#000000" font-family="sans-serif" font-size="14" lengthAdjust="spacing" textLength="38" x="1131" y="258.2285">SAGA</text><line style="stroke:#181818;stroke-width:0.5;" x1="1103" x2="1171" y1="268.5" y2="268.5"/><line style="stroke:#181818;stroke-width:0.5;" x1="1103" x2="1171" y1="276.5" y2="276.5"/></g><!--class ??????????????--><g id="elem_&#1048;&#1076;&#1077;&#1084;&#1087;&#1086;&#1090;&#1077;&#1090;&#1085;&#1086;&#1089;&#1090;&#1100;"><rect fill="#F1F1F1" height="48" id="&#1048;&#1076;&#1077;&#1084;&#1087;&#1086;&#1090;&#1077;&#1090;&#1085;&#1086;&#1089;&#1090;&#1100;" rx="2.5" ry="2.5" style="stroke:#181818;stroke-width:0.5;" width="144" x="799" y="115"/><ellipse cx="814" cy="131" fill="#ADD1B2" rx="11" ry="11" style="stroke:#181818;stroke-width:1.0;"/><path d="M816.7656,126.875 Q816.9219,126.6563 817.1094,126.5469 Q817.2969,126.4375 817.5156,126.4375 Q817.8906,126.4375 818.125,126.6953 Q818.3594,126.9531 818.3594,127.5625 L818.3594,129.0156 Q818.3594,129.625 818.125,129.8906 Q817.8906,130.1563 817.5156,130.1563 Q817.1719,130.1563 816.9688,129.9531 Q816.7656,129.7656 816.6563,129.25 Q816.6094,128.8906 816.4219,128.7031 Q816.0938,128.3281 815.4844,128.1094 Q814.875,127.8906 814.25,127.8906 Q813.4844,127.8906 812.8516,128.2188 Q812.2188,128.5469 811.7266,129.2969 Q811.2344,130.0469 811.2344,131.0781 L811.2344,132.1719 Q811.2344,133.4063 812.125,134.2266 Q813.0156,135.0469 814.6094,135.0469 Q815.5469,135.0469 816.2031,134.7969 Q816.5938,134.6406 817.0156,134.2031 Q817.2813,133.9375 817.4297,133.8594 Q817.5781,133.7813 817.7813,133.7813 Q818.1094,133.7813 818.3672,134.0391 Q818.625,134.2969 818.625,134.6406 Q818.625,134.9844 818.2813,135.3906 Q817.7813,135.9688 816.9844,136.2969 Q815.9063,136.75 814.6094,136.75 Q813.0938,136.75 811.8906,136.125 Q810.9063,135.625 810.2188,134.5547 Q809.5313,133.4844 809.5313,132.2031 L809.5313,131.0469 Q809.5313,129.7188 810.1484,128.5703 Q810.7656,127.4219 811.8594,126.8047 Q812.9531,126.1875 814.1875,126.1875 Q814.9219,126.1875 815.5703,126.3516 Q816.2188,126.5156 816.7656,126.875 Z " fill="#000000"/><text fill="#000000" font-family="sans-serif" font-size="14" lengthAdjust="spacing" textLength="112" x="828" y="136.7285">&#1048;&#1076;&#1077;&#1084;&#1087;&#1086;&#1090;&#1077;&#1090;&#1085;&#1086;&#1089;&#1090;&#1100;</text><line style="stroke:#181818;stroke-width:0.5;" x1="800" x2="942" y1="147" y2="147"/><line style="stroke:#181818;stroke-width:0.5;" x1="800" x2="942" y1="155" y2="155"/></g><!--link ?????????? to ??????--><g id="link_&#1048;&#1085;&#1090;&#1077;&#1075;&#1088;&#1072;&#1094;&#1080;&#1080;_&#1044;&#1072;&#1085;&#1085;&#1099;&#1077;"><path codeLine="2" d="M651.24,44.26 C553.48,65.76 353.32,109.78 266.6,128.85 " fill="none" id="&#1048;&#1085;&#1090;&#1077;&#1075;&#1088;&#1072;&#1094;&#1080;&#1080;-&#1044;&#1072;&#1085;&#1085;&#1099;&#1077;" style="stroke:#181818;stroke-width:1.0;"/></g><!--link ?????? to ETL--><g id="link_&#1044;&#1072;&#1085;&#1085;&#1099;&#1077;_ETL"><path codeLine="3" d="M183.35,162.08 C154.29,177.99 114.97,200.53 82,223 C75.93,227.13 69.64,231.83 63.73,236.45 " fill="none" id="&#1044;&#1072;&#1085;&#1085;&#1099;&#1077;-ETL" style="stroke:#181818;stroke-width:1.0;"/></g><!--link ?????? to ELT--><g id="link_&#1044;&#1072;&#1085;&#1085;&#1099;&#1077;_ELT"><path codeLine="4" d="M206.49,163.04 C189.6,184.07 164.76,214.99 147.78,236.12 " fill="none" id="&#1044;&#1072;&#1085;&#1085;&#1099;&#1077;-ELT" style="stroke:#181818;stroke-width:1.0;"/></g><!--link ?????? to ???--><g id="link_&#1044;&#1072;&#1085;&#1085;&#1099;&#1077;_&#1064;&#1041;&#1044;"><path codeLine="5" d="M225,163.04 C225,184.07 225,214.99 225,236.12 " fill="none" id="&#1044;&#1072;&#1085;&#1085;&#1099;&#1077;-&#1064;&#1041;&#1044;" style="stroke:#181818;stroke-width:1.0;"/></g><!--link ?????? to File--><g id="link_&#1044;&#1072;&#1085;&#1085;&#1099;&#1077;_File"><path codeLine="6" d="M243.12,163.04 C259.66,184.07 283.99,214.99 300.61,236.12 " fill="none" id="&#1044;&#1072;&#1085;&#1085;&#1099;&#1077;-File" style="stroke:#181818;stroke-width:1.0;"/></g><!--link File to DFS--><g id="link_File_DFS"><path codeLine="7" d="M300.49,284.54 C283.6,305.57 258.76,336.49 241.78,357.62 " fill="none" id="File-DFS" style="stroke:#181818;stroke-width:1.0;"/></g><!--link DFS to S3--><g id="link_DFS_S3"><path codeLine="8" d="M223,406 C223,423.66 223,447.94 223,465.68 " fill="none" id="DFS-S3" style="stroke:#181818;stroke-width:1.0;"/></g><!--link File to CDN--><g id="link_File_CDN"><path codeLine="9" d="M319,284.54 C319,305.57 319,336.49 319,357.62 " fill="none" id="File-CDN" style="stroke:#181818;stroke-width:1.0;"/></g><!--link File to WebDav--><g id="link_File_WebDav"><path codeLine="10" d="M340.02,284.54 C359.19,305.57 387.4,336.49 406.68,357.62 " fill="none" id="File-WebDav" style="stroke:#181818;stroke-width:1.0;"/></g><!--link ?????????? to ??????????--><g id="link_&#1048;&#1085;&#1090;&#1077;&#1075;&#1088;&#1072;&#1094;&#1080;&#1080;_&#1055;&#1088;&#1080;&#1083;&#1086;&#1078;&#1077;&#1085;&#1080;&#1103;"><path codeLine="12" d="M707,55 C707,72.66 707,96.94 707,114.68 " fill="none" id="&#1048;&#1085;&#1090;&#1077;&#1075;&#1088;&#1072;&#1094;&#1080;&#1080;-&#1055;&#1088;&#1080;&#1083;&#1086;&#1078;&#1077;&#1085;&#1080;&#1103;" style="stroke:#181818;stroke-width:1.0;"/></g><!--link ?????????? to RPC--><g id="link_&#1055;&#1088;&#1080;&#1083;&#1086;&#1078;&#1077;&#1085;&#1080;&#1103;_RPC"><path codeLine="13" d="M649.99,153.75 C598.76,167.36 522.38,190.83 461,223 C453.77,226.79 446.45,231.61 439.76,236.48 " fill="none" id="&#1055;&#1088;&#1080;&#1083;&#1086;&#1078;&#1077;&#1085;&#1080;&#1103;-RPC" style="stroke:#181818;stroke-width:1.0;"/></g><!--link ?????????? to MiddleWare--><g id="link_&#1055;&#1088;&#1080;&#1083;&#1086;&#1078;&#1077;&#1085;&#1080;&#1103;_MiddleWare"><path codeLine="20" d="M707,163.04 C707,184.07 707,214.99 707,236.12 " fill="none" id="&#1055;&#1088;&#1080;&#1083;&#1086;&#1078;&#1077;&#1085;&#1080;&#1103;-MiddleWare" style="stroke:#181818;stroke-width:1.0;"/></g><!--link ?????????? to EventSourcing--><g id="link_&#1055;&#1088;&#1080;&#1083;&#1086;&#1078;&#1077;&#1085;&#1080;&#1103;_EventSourcing"><path codeLine="27" d="M764.15,160.41 C808.6,176.58 871.64,200.17 926,223 C935.89,227.15 946.37,231.81 956.35,236.37 " fill="none" id="&#1055;&#1088;&#1080;&#1083;&#1086;&#1078;&#1077;&#1085;&#1080;&#1103;-EventSourcing" style="stroke:#181818;stroke-width:1.0;"/></g><!--link ?????????? to SAGA--><g id="link_&#1055;&#1088;&#1080;&#1083;&#1086;&#1078;&#1077;&#1085;&#1080;&#1103;_SAGA"><path codeLine="28" d="M764.16,158.19 C770.16,159.9 776.19,161.54 782,163 C915.13,196.5 958.76,169.07 1085,223 C1093.11,226.47 1101.24,231.33 1108.57,236.38 " fill="none" id="&#1055;&#1088;&#1080;&#1083;&#1086;&#1078;&#1077;&#1085;&#1080;&#1103;-SAGA" style="stroke:#181818;stroke-width:1.0;"/></g><!--link ?????????? to ??????????????--><g id="link_&#1048;&#1085;&#1090;&#1077;&#1075;&#1088;&#1072;&#1094;&#1080;&#1080;_&#1048;&#1076;&#1077;&#1084;&#1087;&#1086;&#1090;&#1077;&#1090;&#1085;&#1086;&#1089;&#1090;&#1100;"><path codeLine="30" d="M742.59,55 C770,72.72 807.73,97.11 835.2,114.86 " fill="none" id="&#1048;&#1085;&#1090;&#1077;&#1075;&#1088;&#1072;&#1094;&#1080;&#1080;-&#1048;&#1076;&#1077;&#1084;&#1087;&#1086;&#1090;&#1077;&#1090;&#1085;&#1086;&#1089;&#1090;&#1100;" style="stroke:#181818;stroke-width:1.0;"/></g><!--SRC=[VP0zJiD048NhzIds04x52HpRQo4bOBAMN9juv5Y9RBGngI453KW8AKKwMif846G97AumUoDc5Gf7YIdsvtjlD6zsSOsDNk8Mt_KTRlG3rbZpNe_Z2ZVOaFU8Mswn0oJRZmOdn45qBE8Rlk3gM1Vv32p6p67G4vA8qM58dhKirxjeKGpNNhAmBEmQ_9MunY_SuIUv3TRwcT9FgAPw5BhKkoWhu2hF9XM14vxpaIyZcmSgkPbSqKEPl7H2cyUke3iD8Cln52ekfK-SxNj0aNBJfpjhcAVf3E94mK4aO_i0seSmdoSPz5Kv1VKtIX3Rl2z4Ew4xmbz0KSdoLetp8kikaqxW_FE3Q_mWzHj_S6TyMWtTxlLIFrc_]--></g></svg>