<?xml version="1.0" encoding="us-ascii" standalone="no"?><svg xmlns="http://www.w3.org/2000/svg" xmlns:xlink="http://www.w3.org/1999/xlink" contentStyleType="text/css" height="494px" preserveAspectRatio="none" style="width:1534px;height:494px;background:#FFFFFF;" version="1.1" viewBox="0 0 1534 494" width="1534px" zoomAndPan="magnify"><defs/><g><!--class ??????????????--><g id="elem_&#1055;&#1088;&#1086;&#1077;&#1082;&#1090;&#1080;&#1088;&#1086;&#1074;&#1072;&#1085;&#1080;&#1103;"><rect fill="#F1F1F1" height="48" id="&#1055;&#1088;&#1086;&#1077;&#1082;&#1090;&#1080;&#1088;&#1086;&#1074;&#1072;&#1085;&#1080;&#1103;" rx="2.5" ry="2.5" style="stroke:#181818;stroke-width:0.5;" width="141" x="636.5" y="7"/><ellipse cx="651.5" cy="23" fill="#ADD1B2" rx="11" ry="11" style="stroke:#181818;stroke-width:1.0;"/><path d="M654.2656,18.875 Q654.4219,18.6563 654.6094,18.5469 Q654.7969,18.4375 655.0156,18.4375 Q655.3906,18.4375 655.625,18.6953 Q655.8594,18.9531 655.8594,19.5625 L655.8594,21.0156 Q655.8594,21.625 655.625,21.8906 Q655.3906,22.1563 655.0156,22.1563 Q654.6719,22.1563 654.4688,21.9531 Q654.2656,21.7656 654.1563,21.25 Q654.1094,20.8906 653.9219,20.7031 Q653.5938,20.3281 652.9844,20.1094 Q652.375,19.8906 651.75,19.8906 Q650.9844,19.8906 650.3516,20.2188 Q649.7188,20.5469 649.2266,21.2969 Q648.7344,22.0469 648.7344,23.0781 L648.7344,24.1719 Q648.7344,25.4063 649.625,26.2266 Q650.5156,27.0469 652.1094,27.0469 Q653.0469,27.0469 653.7031,26.7969 Q654.0938,26.6406 654.5156,26.2031 Q654.7813,25.9375 654.9297,25.8594 Q655.0781,25.7813 655.2813,25.7813 Q655.6094,25.7813 655.8672,26.0391 Q656.125,26.2969 656.125,26.6406 Q656.125,26.9844 655.7813,27.3906 Q655.2813,27.9688 654.4844,28.2969 Q653.4063,28.75 652.1094,28.75 Q650.5938,28.75 649.3906,28.125 Q648.4063,27.625 647.7188,26.5547 Q647.0313,25.4844 647.0313,24.2031 L647.0313,23.0469 Q647.0313,21.7188 647.6484,20.5703 Q648.2656,19.4219 649.3594,18.8047 Q650.4531,18.1875 651.6875,18.1875 Q652.4219,18.1875 653.0703,18.3516 Q653.7188,18.5156 654.2656,18.875 Z " fill="#000000"/><text fill="#000000" font-family="sans-serif" font-size="14" lengthAdjust="spacing" textLength="109" x="665.5" y="28.7285">&#1055;&#1088;&#1086;&#1077;&#1082;&#1090;&#1080;&#1088;&#1086;&#1074;&#1072;&#1085;&#1080;&#1103;</text><line style="stroke:#181818;stroke-width:0.5;" x1="637.5" x2="776.5" y1="39" y2="39"/><line style="stroke:#181818;stroke-width:0.5;" x1="637.5" x2="776.5" y1="47" y2="47"/></g><!--class SOLID--><g id="elem_SOLID"><rect fill="#F1F1F1" height="48" id="SOLID" rx="2.5" ry="2.5" style="stroke:#181818;stroke-width:0.5;" width="73" x="433.5" y="223"/><ellipse cx="448.5" cy="239" fill="#ADD1B2" rx="11" ry="11" style="stroke:#181818;stroke-width:1.0;"/><path d="M451.2656,234.875 Q451.4219,234.6563 451.6094,234.5469 Q451.7969,234.4375 452.0156,234.4375 Q452.3906,234.4375 452.625,234.6953 Q452.8594,234.9531 452.8594,235.5625 L452.8594,237.0156 Q452.8594,237.625 452.625,237.8906 Q452.3906,238.1563 452.0156,238.1563 Q451.6719,238.1563 451.4688,237.9531 Q451.2656,237.7656 451.1563,237.25 Q451.1094,236.8906 450.9219,236.7031 Q450.5938,236.3281 449.9844,236.1094 Q449.375,235.8906 448.75,235.8906 Q447.9844,235.8906 447.3516,236.2188 Q446.7188,236.5469 446.2266,237.2969 Q445.7344,238.0469 445.7344,239.0781 L445.7344,240.1719 Q445.7344,241.4063 446.625,242.2266 Q447.5156,243.0469 449.1094,243.0469 Q450.0469,243.0469 450.7031,242.7969 Q451.0938,242.6406 451.5156,242.2031 Q451.7813,241.9375 451.9297,241.8594 Q452.0781,241.7813 452.2813,241.7813 Q452.6094,241.7813 452.8672,242.0391 Q453.125,242.2969 453.125,242.6406 Q453.125,242.9844 452.7813,243.3906 Q452.2813,243.9688 451.4844,244.2969 Q450.4063,244.75 449.1094,244.75 Q447.5938,244.75 446.3906,244.125 Q445.4063,243.625 444.7188,242.5547 Q444.0313,241.4844 444.0313,240.2031 L444.0313,239.0469 Q444.0313,237.7188 444.6484,236.5703 Q445.2656,235.4219 446.3594,234.8047 Q447.4531,234.1875 448.6875,234.1875 Q449.4219,234.1875 450.0703,234.3516 Q450.7188,234.5156 451.2656,234.875 Z " fill="#000000"/><text fill="#000000" font-family="sans-serif" font-size="14" lengthAdjust="spacing" textLength="41" x="462.5" y="244.7285">SOLID</text><line style="stroke:#181818;stroke-width:0.5;" x1="434.5" x2="505.5" y1="255" y2="255"/><line style="stroke:#181818;stroke-width:0.5;" x1="434.5" x2="505.5" y1="263" y2="263"/></g><!--class DI--><g id="elem_DI"><rect fill="#F1F1F1" height="48" id="DI" rx="2.5" ry="2.5" style="stroke:#181818;stroke-width:0.5;" width="45" x="272.5" y="331"/><ellipse cx="287.5" cy="347" fill="#ADD1B2" rx="11" ry="11" style="stroke:#181818;stroke-width:1.0;"/><path d="M290.2656,342.875 Q290.4219,342.6563 290.6094,342.5469 Q290.7969,342.4375 291.0156,342.4375 Q291.3906,342.4375 291.625,342.6953 Q291.8594,342.9531 291.8594,343.5625 L291.8594,345.0156 Q291.8594,345.625 291.625,345.8906 Q291.3906,346.1563 291.0156,346.1563 Q290.6719,346.1563 290.4688,345.9531 Q290.2656,345.7656 290.1563,345.25 Q290.1094,344.8906 289.9219,344.7031 Q289.5938,344.3281 288.9844,344.1094 Q288.375,343.8906 287.75,343.8906 Q286.9844,343.8906 286.3516,344.2188 Q285.7188,344.5469 285.2266,345.2969 Q284.7344,346.0469 284.7344,347.0781 L284.7344,348.1719 Q284.7344,349.4063 285.625,350.2266 Q286.5156,351.0469 288.1094,351.0469 Q289.0469,351.0469 289.7031,350.7969 Q290.0938,350.6406 290.5156,350.2031 Q290.7813,349.9375 290.9297,349.8594 Q291.0781,349.7813 291.2813,349.7813 Q291.6094,349.7813 291.8672,350.0391 Q292.125,350.2969 292.125,350.6406 Q292.125,350.9844 291.7813,351.3906 Q291.2813,351.9688 290.4844,352.2969 Q289.4063,352.75 288.1094,352.75 Q286.5938,352.75 285.3906,352.125 Q284.4063,351.625 283.7188,350.5547 Q283.0313,349.4844 283.0313,348.2031 L283.0313,347.0469 Q283.0313,345.7188 283.6484,344.5703 Q284.2656,343.4219 285.3594,342.8047 Q286.4531,342.1875 287.6875,342.1875 Q288.4219,342.1875 289.0703,342.3516 Q289.7188,342.5156 290.2656,342.875 Z " fill="#000000"/><text fill="#000000" font-family="sans-serif" font-size="14" lengthAdjust="spacing" textLength="13" x="301.5" y="352.7285">DI</text><line style="stroke:#181818;stroke-width:0.5;" x1="273.5" x2="316.5" y1="363" y2="363"/><line style="stroke:#181818;stroke-width:0.5;" x1="273.5" x2="316.5" y1="371" y2="371"/></g><!--class SRP--><g id="elem_SRP"><rect fill="#F1F1F1" height="48" id="SRP" rx="2.5" ry="2.5" style="stroke:#181818;stroke-width:0.5;" width="60" x="353" y="331"/><ellipse cx="368" cy="347" fill="#ADD1B2" rx="11" ry="11" style="stroke:#181818;stroke-width:1.0;"/><path d="M370.7656,342.875 Q370.9219,342.6563 371.1094,342.5469 Q371.2969,342.4375 371.5156,342.4375 Q371.8906,342.4375 372.125,342.6953 Q372.3594,342.9531 372.3594,343.5625 L372.3594,345.0156 Q372.3594,345.625 372.125,345.8906 Q371.8906,346.1563 371.5156,346.1563 Q371.1719,346.1563 370.9688,345.9531 Q370.7656,345.7656 370.6563,345.25 Q370.6094,344.8906 370.4219,344.7031 Q370.0938,344.3281 369.4844,344.1094 Q368.875,343.8906 368.25,343.8906 Q367.4844,343.8906 366.8516,344.2188 Q366.2188,344.5469 365.7266,345.2969 Q365.2344,346.0469 365.2344,347.0781 L365.2344,348.1719 Q365.2344,349.4063 366.125,350.2266 Q367.0156,351.0469 368.6094,351.0469 Q369.5469,351.0469 370.2031,350.7969 Q370.5938,350.6406 371.0156,350.2031 Q371.2813,349.9375 371.4297,349.8594 Q371.5781,349.7813 371.7813,349.7813 Q372.1094,349.7813 372.3672,350.0391 Q372.625,350.2969 372.625,350.6406 Q372.625,350.9844 372.2813,351.3906 Q371.7813,351.9688 370.9844,352.2969 Q369.9063,352.75 368.6094,352.75 Q367.0938,352.75 365.8906,352.125 Q364.9063,351.625 364.2188,350.5547 Q363.5313,349.4844 363.5313,348.2031 L363.5313,347.0469 Q363.5313,345.7188 364.1484,344.5703 Q364.7656,343.4219 365.8594,342.8047 Q366.9531,342.1875 368.1875,342.1875 Q368.9219,342.1875 369.5703,342.3516 Q370.2188,342.5156 370.7656,342.875 Z " fill="#000000"/><text fill="#000000" font-family="sans-serif" font-size="14" lengthAdjust="spacing" textLength="28" x="382" y="352.7285">SRP</text><line style="stroke:#181818;stroke-width:0.5;" x1="354" x2="412" y1="363" y2="363"/><line style="stroke:#181818;stroke-width:0.5;" x1="354" x2="412" y1="371" y2="371"/></g><!--class OpenClosed--><g id="elem_OpenClosed"><rect fill="#F1F1F1" height="48" id="OpenClosed" rx="2.5" ry="2.5" style="stroke:#181818;stroke-width:0.5;" width="111" x="448.5" y="331"/><ellipse cx="463.5" cy="347" fill="#ADD1B2" rx="11" ry="11" style="stroke:#181818;stroke-width:1.0;"/><path d="M466.2656,342.875 Q466.4219,342.6563 466.6094,342.5469 Q466.7969,342.4375 467.0156,342.4375 Q467.3906,342.4375 467.625,342.6953 Q467.8594,342.9531 467.8594,343.5625 L467.8594,345.0156 Q467.8594,345.625 467.625,345.8906 Q467.3906,346.1563 467.0156,346.1563 Q466.6719,346.1563 466.4688,345.9531 Q466.2656,345.7656 466.1563,345.25 Q466.1094,344.8906 465.9219,344.7031 Q465.5938,344.3281 464.9844,344.1094 Q464.375,343.8906 463.75,343.8906 Q462.9844,343.8906 462.3516,344.2188 Q461.7188,344.5469 461.2266,345.2969 Q460.7344,346.0469 460.7344,347.0781 L460.7344,348.1719 Q460.7344,349.4063 461.625,350.2266 Q462.5156,351.0469 464.1094,351.0469 Q465.0469,351.0469 465.7031,350.7969 Q466.0938,350.6406 466.5156,350.2031 Q466.7813,349.9375 466.9297,349.8594 Q467.0781,349.7813 467.2813,349.7813 Q467.6094,349.7813 467.8672,350.0391 Q468.125,350.2969 468.125,350.6406 Q468.125,350.9844 467.7813,351.3906 Q467.2813,351.9688 466.4844,352.2969 Q465.4063,352.75 464.1094,352.75 Q462.5938,352.75 461.3906,352.125 Q460.4063,351.625 459.7188,350.5547 Q459.0313,349.4844 459.0313,348.2031 L459.0313,347.0469 Q459.0313,345.7188 459.6484,344.5703 Q460.2656,343.4219 461.3594,342.8047 Q462.4531,342.1875 463.6875,342.1875 Q464.4219,342.1875 465.0703,342.3516 Q465.7188,342.5156 466.2656,342.875 Z " fill="#000000"/><text fill="#000000" font-family="sans-serif" font-size="14" lengthAdjust="spacing" textLength="79" x="477.5" y="352.7285">OpenClosed</text><line style="stroke:#181818;stroke-width:0.5;" x1="449.5" x2="558.5" y1="363" y2="363"/><line style="stroke:#181818;stroke-width:0.5;" x1="449.5" x2="558.5" y1="371" y2="371"/></g><!--class Liskov--><g id="elem_Liskov"><rect fill="#F1F1F1" height="48" id="Liskov" rx="2.5" ry="2.5" style="stroke:#181818;stroke-width:0.5;" width="72" x="18" y="331"/><ellipse cx="33" cy="347" fill="#ADD1B2" rx="11" ry="11" style="stroke:#181818;stroke-width:1.0;"/><path d="M35.7656,342.875 Q35.9219,342.6563 36.1094,342.5469 Q36.2969,342.4375 36.5156,342.4375 Q36.8906,342.4375 37.125,342.6953 Q37.3594,342.9531 37.3594,343.5625 L37.3594,345.0156 Q37.3594,345.625 37.125,345.8906 Q36.8906,346.1563 36.5156,346.1563 Q36.1719,346.1563 35.9688,345.9531 Q35.7656,345.7656 35.6563,345.25 Q35.6094,344.8906 35.4219,344.7031 Q35.0938,344.3281 34.4844,344.1094 Q33.875,343.8906 33.25,343.8906 Q32.4844,343.8906 31.8516,344.2188 Q31.2188,344.5469 30.7266,345.2969 Q30.2344,346.0469 30.2344,347.0781 L30.2344,348.1719 Q30.2344,349.4063 31.125,350.2266 Q32.0156,351.0469 33.6094,351.0469 Q34.5469,351.0469 35.2031,350.7969 Q35.5938,350.6406 36.0156,350.2031 Q36.2813,349.9375 36.4297,349.8594 Q36.5781,349.7813 36.7813,349.7813 Q37.1094,349.7813 37.3672,350.0391 Q37.625,350.2969 37.625,350.6406 Q37.625,350.9844 37.2813,351.3906 Q36.7813,351.9688 35.9844,352.2969 Q34.9063,352.75 33.6094,352.75 Q32.0938,352.75 30.8906,352.125 Q29.9063,351.625 29.2188,350.5547 Q28.5313,349.4844 28.5313,348.2031 L28.5313,347.0469 Q28.5313,345.7188 29.1484,344.5703 Q29.7656,343.4219 30.8594,342.8047 Q31.9531,342.1875 33.1875,342.1875 Q33.9219,342.1875 34.5703,342.3516 Q35.2188,342.5156 35.7656,342.875 Z " fill="#000000"/><text fill="#000000" font-family="sans-serif" font-size="14" lengthAdjust="spacing" textLength="40" x="47" y="352.7285">Liskov</text><line style="stroke:#181818;stroke-width:0.5;" x1="19" x2="89" y1="363" y2="363"/><line style="stroke:#181818;stroke-width:0.5;" x1="19" x2="89" y1="371" y2="371"/></g><g id="elem_GMN13"><path d="M125,333.5 L125,351 L90.21,355 L125,359 L125,376.2031 A0,0 0 0 0 125,376.2031 L237,376.2031 A0,0 0 0 0 237,376.2031 L237,343.5 L227,333.5 L125,333.5 A0,0 0 0 0 125,333.5 " fill="#FEFFDD" style="stroke:#181818;stroke-width:0.5;"/><path d="M227,333.5 L227,343.5 L237,343.5 L227,333.5 " fill="#FEFFDD" style="stroke:#181818;stroke-width:0.5;"/><text fill="#000000" font-family="sans-serif" font-size="13" lengthAdjust="spacing" textLength="87" x="131" y="351.9951">&#1053;&#1072;&#1089;&#1083;&#1077;&#1076;&#1086;&#1074;&#1072;&#1085;&#1080;&#1077;</text><text fill="#000000" font-family="sans-serif" font-size="13" lengthAdjust="spacing" textLength="84" x="135" y="368.3467">&#1055;&#1086;&#1083;&#1080;&#1084;&#1086;&#1088;&#1092;&#1080;&#1079;&#1084;</text></g><!--class Interface--><g id="elem_Interface"><rect fill="#F1F1F1" height="48" id="Interface" rx="2.5" ry="2.5" style="stroke:#181818;stroke-width:0.5;" width="87" x="594.5" y="331"/><ellipse cx="609.5" cy="347" fill="#ADD1B2" rx="11" ry="11" style="stroke:#181818;stroke-width:1.0;"/><path d="M612.2656,342.875 Q612.4219,342.6563 612.6094,342.5469 Q612.7969,342.4375 613.0156,342.4375 Q613.3906,342.4375 613.625,342.6953 Q613.8594,342.9531 613.8594,343.5625 L613.8594,345.0156 Q613.8594,345.625 613.625,345.8906 Q613.3906,346.1563 613.0156,346.1563 Q612.6719,346.1563 612.4688,345.9531 Q612.2656,345.7656 612.1563,345.25 Q612.1094,344.8906 611.9219,344.7031 Q611.5938,344.3281 610.9844,344.1094 Q610.375,343.8906 609.75,343.8906 Q608.9844,343.8906 608.3516,344.2188 Q607.7188,344.5469 607.2266,345.2969 Q606.7344,346.0469 606.7344,347.0781 L606.7344,348.1719 Q606.7344,349.4063 607.625,350.2266 Q608.5156,351.0469 610.1094,351.0469 Q611.0469,351.0469 611.7031,350.7969 Q612.0938,350.6406 612.5156,350.2031 Q612.7813,349.9375 612.9297,349.8594 Q613.0781,349.7813 613.2813,349.7813 Q613.6094,349.7813 613.8672,350.0391 Q614.125,350.2969 614.125,350.6406 Q614.125,350.9844 613.7813,351.3906 Q613.2813,351.9688 612.4844,352.2969 Q611.4063,352.75 610.1094,352.75 Q608.5938,352.75 607.3906,352.125 Q606.4063,351.625 605.7188,350.5547 Q605.0313,349.4844 605.0313,348.2031 L605.0313,347.0469 Q605.0313,345.7188 605.6484,344.5703 Q606.2656,343.4219 607.3594,342.8047 Q608.4531,342.1875 609.6875,342.1875 Q610.4219,342.1875 611.0703,342.3516 Q611.7188,342.5156 612.2656,342.875 Z " fill="#000000"/><text fill="#000000" font-family="sans-serif" font-size="14" lengthAdjust="spacing" textLength="55" x="623.5" y="352.7285">Interface</text><line style="stroke:#181818;stroke-width:0.5;" x1="595.5" x2="680.5" y1="363" y2="363"/><line style="stroke:#181818;stroke-width:0.5;" x1="595.5" x2="680.5" y1="371" y2="371"/></g><!--class DRY--><g id="elem_DRY"><rect fill="#F1F1F1" height="48" id="DRY" rx="2.5" ry="2.5" style="stroke:#181818;stroke-width:0.5;" width="61" x="576.5" y="115"/><ellipse cx="591.5" cy="131" fill="#ADD1B2" rx="11" ry="11" style="stroke:#181818;stroke-width:1.0;"/><path d="M594.2656,126.875 Q594.4219,126.6563 594.6094,126.5469 Q594.7969,126.4375 595.0156,126.4375 Q595.3906,126.4375 595.625,126.6953 Q595.8594,126.9531 595.8594,127.5625 L595.8594,129.0156 Q595.8594,129.625 595.625,129.8906 Q595.3906,130.1563 595.0156,130.1563 Q594.6719,130.1563 594.4688,129.9531 Q594.2656,129.7656 594.1563,129.25 Q594.1094,128.8906 593.9219,128.7031 Q593.5938,128.3281 592.9844,128.1094 Q592.375,127.8906 591.75,127.8906 Q590.9844,127.8906 590.3516,128.2188 Q589.7188,128.5469 589.2266,129.2969 Q588.7344,130.0469 588.7344,131.0781 L588.7344,132.1719 Q588.7344,133.4063 589.625,134.2266 Q590.5156,135.0469 592.1094,135.0469 Q593.0469,135.0469 593.7031,134.7969 Q594.0938,134.6406 594.5156,134.2031 Q594.7813,133.9375 594.9297,133.8594 Q595.0781,133.7813 595.2813,133.7813 Q595.6094,133.7813 595.8672,134.0391 Q596.125,134.2969 596.125,134.6406 Q596.125,134.9844 595.7813,135.3906 Q595.2813,135.9688 594.4844,136.2969 Q593.4063,136.75 592.1094,136.75 Q590.5938,136.75 589.3906,136.125 Q588.4063,135.625 587.7188,134.5547 Q587.0313,133.4844 587.0313,132.2031 L587.0313,131.0469 Q587.0313,129.7188 587.6484,128.5703 Q588.2656,127.4219 589.3594,126.8047 Q590.4531,126.1875 591.6875,126.1875 Q592.4219,126.1875 593.0703,126.3516 Q593.7188,126.5156 594.2656,126.875 Z " fill="#000000"/><text fill="#000000" font-family="sans-serif" font-size="14" lengthAdjust="spacing" textLength="29" x="605.5" y="136.7285">DRY</text><line style="stroke:#181818;stroke-width:0.5;" x1="577.5" x2="636.5" y1="147" y2="147"/><line style="stroke:#181818;stroke-width:0.5;" x1="577.5" x2="636.5" y1="155" y2="155"/></g><!--class KISS--><g id="elem_KISS"><rect fill="#F1F1F1" height="48" id="KISS" rx="2.5" ry="2.5" style="stroke:#181818;stroke-width:0.5;" width="62" x="7" y="115"/><ellipse cx="22" cy="131" fill="#ADD1B2" rx="11" ry="11" style="stroke:#181818;stroke-width:1.0;"/><path d="M24.7656,126.875 Q24.9219,126.6563 25.1094,126.5469 Q25.2969,126.4375 25.5156,126.4375 Q25.8906,126.4375 26.125,126.6953 Q26.3594,126.9531 26.3594,127.5625 L26.3594,129.0156 Q26.3594,129.625 26.125,129.8906 Q25.8906,130.1563 25.5156,130.1563 Q25.1719,130.1563 24.9688,129.9531 Q24.7656,129.7656 24.6563,129.25 Q24.6094,128.8906 24.4219,128.7031 Q24.0938,128.3281 23.4844,128.1094 Q22.875,127.8906 22.25,127.8906 Q21.4844,127.8906 20.8516,128.2188 Q20.2188,128.5469 19.7266,129.2969 Q19.2344,130.0469 19.2344,131.0781 L19.2344,132.1719 Q19.2344,133.4063 20.125,134.2266 Q21.0156,135.0469 22.6094,135.0469 Q23.5469,135.0469 24.2031,134.7969 Q24.5938,134.6406 25.0156,134.2031 Q25.2813,133.9375 25.4297,133.8594 Q25.5781,133.7813 25.7813,133.7813 Q26.1094,133.7813 26.3672,134.0391 Q26.625,134.2969 26.625,134.6406 Q26.625,134.9844 26.2813,135.3906 Q25.7813,135.9688 24.9844,136.2969 Q23.9063,136.75 22.6094,136.75 Q21.0938,136.75 19.8906,136.125 Q18.9063,135.625 18.2188,134.5547 Q17.5313,133.4844 17.5313,132.2031 L17.5313,131.0469 Q17.5313,129.7188 18.1484,128.5703 Q18.7656,127.4219 19.8594,126.8047 Q20.9531,126.1875 22.1875,126.1875 Q22.9219,126.1875 23.5703,126.3516 Q24.2188,126.5156 24.7656,126.875 Z " fill="#000000"/><text fill="#000000" font-family="sans-serif" font-size="14" lengthAdjust="spacing" textLength="30" x="36" y="136.7285">KISS</text><line style="stroke:#181818;stroke-width:0.5;" x1="8" x2="68" y1="147" y2="147"/><line style="stroke:#181818;stroke-width:0.5;" x1="8" x2="68" y1="155" y2="155"/></g><g id="elem_GMN22"><path d="M104,117.5 L104,135 L69.14,139 L104,143 L104,160.2031 A0,0 0 0 0 104,160.2031 L210,160.2031 A0,0 0 0 0 210,160.2031 L210,127.5 L200,117.5 L104,117.5 A0,0 0 0 0 104,117.5 " fill="#FEFFDD" style="stroke:#181818;stroke-width:0.5;"/><path d="M200,117.5 L200,127.5 L210,127.5 L200,117.5 " fill="#FEFFDD" style="stroke:#181818;stroke-width:0.5;"/><text fill="#000000" font-family="sans-serif" font-size="13" lengthAdjust="spacing" textLength="45" x="110" y="135.9951">Keep.It.</text><text fill="#000000" font-family="sans-serif" font-size="13" lengthAdjust="spacing" textLength="81" x="114" y="152.3467">Simple.Stupid</text></g><!--class GRASP--><g id="elem_GRASP"><rect fill="#F1F1F1" height="48" id="GRASP" rx="2.5" ry="2.5" style="stroke:#181818;stroke-width:0.5;" width="80" x="245" y="115"/><ellipse cx="260" cy="131" fill="#ADD1B2" rx="11" ry="11" style="stroke:#181818;stroke-width:1.0;"/><path d="M262.7656,126.875 Q262.9219,126.6563 263.1094,126.5469 Q263.2969,126.4375 263.5156,126.4375 Q263.8906,126.4375 264.125,126.6953 Q264.3594,126.9531 264.3594,127.5625 L264.3594,129.0156 Q264.3594,129.625 264.125,129.8906 Q263.8906,130.1563 263.5156,130.1563 Q263.1719,130.1563 262.9688,129.9531 Q262.7656,129.7656 262.6563,129.25 Q262.6094,128.8906 262.4219,128.7031 Q262.0938,128.3281 261.4844,128.1094 Q260.875,127.8906 260.25,127.8906 Q259.4844,127.8906 258.8516,128.2188 Q258.2188,128.5469 257.7266,129.2969 Q257.2344,130.0469 257.2344,131.0781 L257.2344,132.1719 Q257.2344,133.4063 258.125,134.2266 Q259.0156,135.0469 260.6094,135.0469 Q261.5469,135.0469 262.2031,134.7969 Q262.5938,134.6406 263.0156,134.2031 Q263.2813,133.9375 263.4297,133.8594 Q263.5781,133.7813 263.7813,133.7813 Q264.1094,133.7813 264.3672,134.0391 Q264.625,134.2969 264.625,134.6406 Q264.625,134.9844 264.2813,135.3906 Q263.7813,135.9688 262.9844,136.2969 Q261.9063,136.75 260.6094,136.75 Q259.0938,136.75 257.8906,136.125 Q256.9063,135.625 256.2188,134.5547 Q255.5313,133.4844 255.5313,132.2031 L255.5313,131.0469 Q255.5313,129.7188 256.1484,128.5703 Q256.7656,127.4219 257.8594,126.8047 Q258.9531,126.1875 260.1875,126.1875 Q260.9219,126.1875 261.5703,126.3516 Q262.2188,126.5156 262.7656,126.875 Z " fill="#000000"/><text fill="#000000" font-family="sans-serif" font-size="14" lengthAdjust="spacing" textLength="48" x="274" y="136.7285">GRASP</text><line style="stroke:#181818;stroke-width:0.5;" x1="246" x2="324" y1="147" y2="147"/><line style="stroke:#181818;stroke-width:0.5;" x1="246" x2="324" y1="155" y2="155"/></g><g id="elem_GMN27"><path d="M360.5,117.5 L360.5,135 L325.12,139 L360.5,143 L360.5,160.2031 A0,0 0 0 0 360.5,160.2031 L469.5,160.2031 A0,0 0 0 0 469.5,160.2031 L469.5,127.5 L459.5,117.5 L360.5,117.5 A0,0 0 0 0 360.5,117.5 " fill="#FEFFDD" style="stroke:#181818;stroke-width:0.5;"/><path d="M459.5,117.5 L459.5,127.5 L469.5,127.5 L459.5,117.5 " fill="#FEFFDD" style="stroke:#181818;stroke-width:0.5;"/><text fill="#000000" font-family="sans-serif" font-size="13" lengthAdjust="spacing" textLength="77" x="366.5" y="135.9951">Low Coupling</text><text fill="#000000" font-family="sans-serif" font-size="13" lengthAdjust="spacing" textLength="84" x="370.5" y="152.3467">High Cohesion</text></g><!--class Clean--><g id="elem_Clean"><rect fill="#F1F1F1" height="48" id="Clean" rx="2.5" ry="2.5" style="stroke:#181818;stroke-width:0.5;" width="69" x="672.5" y="115"/><ellipse cx="687.5" cy="131" fill="#ADD1B2" rx="11" ry="11" style="stroke:#181818;stroke-width:1.0;"/><path d="M690.2656,126.875 Q690.4219,126.6563 690.6094,126.5469 Q690.7969,126.4375 691.0156,126.4375 Q691.3906,126.4375 691.625,126.6953 Q691.8594,126.9531 691.8594,127.5625 L691.8594,129.0156 Q691.8594,129.625 691.625,129.8906 Q691.3906,130.1563 691.0156,130.1563 Q690.6719,130.1563 690.4688,129.9531 Q690.2656,129.7656 690.1563,129.25 Q690.1094,128.8906 689.9219,128.7031 Q689.5938,128.3281 688.9844,128.1094 Q688.375,127.8906 687.75,127.8906 Q686.9844,127.8906 686.3516,128.2188 Q685.7188,128.5469 685.2266,129.2969 Q684.7344,130.0469 684.7344,131.0781 L684.7344,132.1719 Q684.7344,133.4063 685.625,134.2266 Q686.5156,135.0469 688.1094,135.0469 Q689.0469,135.0469 689.7031,134.7969 Q690.0938,134.6406 690.5156,134.2031 Q690.7813,133.9375 690.9297,133.8594 Q691.0781,133.7813 691.2813,133.7813 Q691.6094,133.7813 691.8672,134.0391 Q692.125,134.2969 692.125,134.6406 Q692.125,134.9844 691.7813,135.3906 Q691.2813,135.9688 690.4844,136.2969 Q689.4063,136.75 688.1094,136.75 Q686.5938,136.75 685.3906,136.125 Q684.4063,135.625 683.7188,134.5547 Q683.0313,133.4844 683.0313,132.2031 L683.0313,131.0469 Q683.0313,129.7188 683.6484,128.5703 Q684.2656,127.4219 685.3594,126.8047 Q686.4531,126.1875 687.6875,126.1875 Q688.4219,126.1875 689.0703,126.3516 Q689.7188,126.5156 690.2656,126.875 Z " fill="#000000"/><text fill="#000000" font-family="sans-serif" font-size="14" lengthAdjust="spacing" textLength="37" x="701.5" y="136.7285">Clean</text><line style="stroke:#181818;stroke-width:0.5;" x1="673.5" x2="740.5" y1="147" y2="147"/><line style="stroke:#181818;stroke-width:0.5;" x1="673.5" x2="740.5" y1="155" y2="155"/></g><!--class Data--><g id="elem_Data"><rect fill="#F1F1F1" height="48" id="Data" rx="2.5" ry="2.5" style="stroke:#181818;stroke-width:0.5;" width="62" x="751" y="223"/><ellipse cx="766" cy="239" fill="#ADD1B2" rx="11" ry="11" style="stroke:#181818;stroke-width:1.0;"/><path d="M768.7656,234.875 Q768.9219,234.6563 769.1094,234.5469 Q769.2969,234.4375 769.5156,234.4375 Q769.8906,234.4375 770.125,234.6953 Q770.3594,234.9531 770.3594,235.5625 L770.3594,237.0156 Q770.3594,237.625 770.125,237.8906 Q769.8906,238.1563 769.5156,238.1563 Q769.1719,238.1563 768.9688,237.9531 Q768.7656,237.7656 768.6563,237.25 Q768.6094,236.8906 768.4219,236.7031 Q768.0938,236.3281 767.4844,236.1094 Q766.875,235.8906 766.25,235.8906 Q765.4844,235.8906 764.8516,236.2188 Q764.2188,236.5469 763.7266,237.2969 Q763.2344,238.0469 763.2344,239.0781 L763.2344,240.1719 Q763.2344,241.4063 764.125,242.2266 Q765.0156,243.0469 766.6094,243.0469 Q767.5469,243.0469 768.2031,242.7969 Q768.5938,242.6406 769.0156,242.2031 Q769.2813,241.9375 769.4297,241.8594 Q769.5781,241.7813 769.7813,241.7813 Q770.1094,241.7813 770.3672,242.0391 Q770.625,242.2969 770.625,242.6406 Q770.625,242.9844 770.2813,243.3906 Q769.7813,243.9688 768.9844,244.2969 Q767.9063,244.75 766.6094,244.75 Q765.0938,244.75 763.8906,244.125 Q762.9063,243.625 762.2188,242.5547 Q761.5313,241.4844 761.5313,240.2031 L761.5313,239.0469 Q761.5313,237.7188 762.1484,236.5703 Q762.7656,235.4219 763.8594,234.8047 Q764.9531,234.1875 766.1875,234.1875 Q766.9219,234.1875 767.5703,234.3516 Q768.2188,234.5156 768.7656,234.875 Z " fill="#000000"/><text fill="#000000" font-family="sans-serif" font-size="14" lengthAdjust="spacing" textLength="30" x="780" y="244.7285">Data</text><line style="stroke:#181818;stroke-width:0.5;" x1="752" x2="812" y1="255" y2="255"/><line style="stroke:#181818;stroke-width:0.5;" x1="752" x2="812" y1="263" y2="263"/></g><!--class DWH--><g id="elem_DWH"><rect fill="#F1F1F1" height="48" id="DWH" rx="2.5" ry="2.5" style="stroke:#181818;stroke-width:0.5;" width="64" x="717" y="331"/><ellipse cx="732" cy="347" fill="#ADD1B2" rx="11" ry="11" style="stroke:#181818;stroke-width:1.0;"/><path d="M734.7656,342.875 Q734.9219,342.6563 735.1094,342.5469 Q735.2969,342.4375 735.5156,342.4375 Q735.8906,342.4375 736.125,342.6953 Q736.3594,342.9531 736.3594,343.5625 L736.3594,345.0156 Q736.3594,345.625 736.125,345.8906 Q735.8906,346.1563 735.5156,346.1563 Q735.1719,346.1563 734.9688,345.9531 Q734.7656,345.7656 734.6563,345.25 Q734.6094,344.8906 734.4219,344.7031 Q734.0938,344.3281 733.4844,344.1094 Q732.875,343.8906 732.25,343.8906 Q731.4844,343.8906 730.8516,344.2188 Q730.2188,344.5469 729.7266,345.2969 Q729.2344,346.0469 729.2344,347.0781 L729.2344,348.1719 Q729.2344,349.4063 730.125,350.2266 Q731.0156,351.0469 732.6094,351.0469 Q733.5469,351.0469 734.2031,350.7969 Q734.5938,350.6406 735.0156,350.2031 Q735.2813,349.9375 735.4297,349.8594 Q735.5781,349.7813 735.7813,349.7813 Q736.1094,349.7813 736.3672,350.0391 Q736.625,350.2969 736.625,350.6406 Q736.625,350.9844 736.2813,351.3906 Q735.7813,351.9688 734.9844,352.2969 Q733.9063,352.75 732.6094,352.75 Q731.0938,352.75 729.8906,352.125 Q728.9063,351.625 728.2188,350.5547 Q727.5313,349.4844 727.5313,348.2031 L727.5313,347.0469 Q727.5313,345.7188 728.1484,344.5703 Q728.7656,343.4219 729.8594,342.8047 Q730.9531,342.1875 732.1875,342.1875 Q732.9219,342.1875 733.5703,342.3516 Q734.2188,342.5156 734.7656,342.875 Z " fill="#000000"/><text fill="#000000" font-family="sans-serif" font-size="14" lengthAdjust="spacing" textLength="32" x="746" y="352.7285">DWH</text><line style="stroke:#181818;stroke-width:0.5;" x1="718" x2="780" y1="363" y2="363"/><line style="stroke:#181818;stroke-width:0.5;" x1="718" x2="780" y1="371" y2="371"/></g><g id="elem_GMN36"><path d="M816,342 L816,351 L781.27,355 L816,359 L816,368.3516 A0,0 0 0 0 816,368.3516 L918,368.3516 A0,0 0 0 0 918,368.3516 L918,352 L908,342 L816,342 A0,0 0 0 0 816,342 " fill="#FEFFDD" style="stroke:#181818;stroke-width:0.5;"/><path d="M908,342 L908,352 L918,352 L908,342 " fill="#FEFFDD" style="stroke:#181818;stroke-width:0.5;"/><text fill="#000000" font-family="sans-serif" font-size="13" lengthAdjust="spacing" textLength="81" x="822" y="360.4951">ETL ELT &#1048;&#1041;&#1044;</text></g><!--class BigData--><g id="elem_BigData"><rect fill="#F1F1F1" height="48" id="BigData" rx="2.5" ry="2.5" style="stroke:#181818;stroke-width:0.5;" width="82" x="953" y="331"/><ellipse cx="968" cy="347" fill="#ADD1B2" rx="11" ry="11" style="stroke:#181818;stroke-width:1.0;"/><path d="M970.7656,342.875 Q970.9219,342.6563 971.1094,342.5469 Q971.2969,342.4375 971.5156,342.4375 Q971.8906,342.4375 972.125,342.6953 Q972.3594,342.9531 972.3594,343.5625 L972.3594,345.0156 Q972.3594,345.625 972.125,345.8906 Q971.8906,346.1563 971.5156,346.1563 Q971.1719,346.1563 970.9688,345.9531 Q970.7656,345.7656 970.6563,345.25 Q970.6094,344.8906 970.4219,344.7031 Q970.0938,344.3281 969.4844,344.1094 Q968.875,343.8906 968.25,343.8906 Q967.4844,343.8906 966.8516,344.2188 Q966.2188,344.5469 965.7266,345.2969 Q965.2344,346.0469 965.2344,347.0781 L965.2344,348.1719 Q965.2344,349.4063 966.125,350.2266 Q967.0156,351.0469 968.6094,351.0469 Q969.5469,351.0469 970.2031,350.7969 Q970.5938,350.6406 971.0156,350.2031 Q971.2813,349.9375 971.4297,349.8594 Q971.5781,349.7813 971.7813,349.7813 Q972.1094,349.7813 972.3672,350.0391 Q972.625,350.2969 972.625,350.6406 Q972.625,350.9844 972.2813,351.3906 Q971.7813,351.9688 970.9844,352.2969 Q969.9063,352.75 968.6094,352.75 Q967.0938,352.75 965.8906,352.125 Q964.9063,351.625 964.2188,350.5547 Q963.5313,349.4844 963.5313,348.2031 L963.5313,347.0469 Q963.5313,345.7188 964.1484,344.5703 Q964.7656,343.4219 965.8594,342.8047 Q966.9531,342.1875 968.1875,342.1875 Q968.9219,342.1875 969.5703,342.3516 Q970.2188,342.5156 970.7656,342.875 Z " fill="#000000"/><text fill="#000000" font-family="sans-serif" font-size="14" lengthAdjust="spacing" textLength="50" x="982" y="352.7285">BigData</text><line style="stroke:#181818;stroke-width:0.5;" x1="954" x2="1034" y1="363" y2="363"/><line style="stroke:#181818;stroke-width:0.5;" x1="954" x2="1034" y1="371" y2="371"/></g><!--class DataLake--><g id="elem_DataLake"><rect fill="#F1F1F1" height="48" id="DataLake" rx="2.5" ry="2.5" style="stroke:#181818;stroke-width:0.5;" width="93" x="754.5" y="439"/><ellipse cx="769.5" cy="455" fill="#ADD1B2" rx="11" ry="11" style="stroke:#181818;stroke-width:1.0;"/><path d="M772.2656,450.875 Q772.4219,450.6563 772.6094,450.5469 Q772.7969,450.4375 773.0156,450.4375 Q773.3906,450.4375 773.625,450.6953 Q773.8594,450.9531 773.8594,451.5625 L773.8594,453.0156 Q773.8594,453.625 773.625,453.8906 Q773.3906,454.1563 773.0156,454.1563 Q772.6719,454.1563 772.4688,453.9531 Q772.2656,453.7656 772.1563,453.25 Q772.1094,452.8906 771.9219,452.7031 Q771.5938,452.3281 770.9844,452.1094 Q770.375,451.8906 769.75,451.8906 Q768.9844,451.8906 768.3516,452.2188 Q767.7188,452.5469 767.2266,453.2969 Q766.7344,454.0469 766.7344,455.0781 L766.7344,456.1719 Q766.7344,457.4063 767.625,458.2266 Q768.5156,459.0469 770.1094,459.0469 Q771.0469,459.0469 771.7031,458.7969 Q772.0938,458.6406 772.5156,458.2031 Q772.7813,457.9375 772.9297,457.8594 Q773.0781,457.7813 773.2813,457.7813 Q773.6094,457.7813 773.8672,458.0391 Q774.125,458.2969 774.125,458.6406 Q774.125,458.9844 773.7813,459.3906 Q773.2813,459.9688 772.4844,460.2969 Q771.4063,460.75 770.1094,460.75 Q768.5938,460.75 767.3906,460.125 Q766.4063,459.625 765.7188,458.5547 Q765.0313,457.4844 765.0313,456.2031 L765.0313,455.0469 Q765.0313,453.7188 765.6484,452.5703 Q766.2656,451.4219 767.3594,450.8047 Q768.4531,450.1875 769.6875,450.1875 Q770.4219,450.1875 771.0703,450.3516 Q771.7188,450.5156 772.2656,450.875 Z " fill="#000000"/><text fill="#000000" font-family="sans-serif" font-size="14" lengthAdjust="spacing" textLength="61" x="783.5" y="460.7285">DataLake</text><line style="stroke:#181818;stroke-width:0.5;" x1="755.5" x2="846.5" y1="471" y2="471"/><line style="stroke:#181818;stroke-width:0.5;" x1="755.5" x2="846.5" y1="479" y2="479"/></g><!--class DataVault--><g id="elem_DataVault"><rect fill="#F1F1F1" height="48" id="DataVault" rx="2.5" ry="2.5" style="stroke:#181818;stroke-width:0.5;" width="94" x="883" y="439"/><ellipse cx="898" cy="455" fill="#ADD1B2" rx="11" ry="11" style="stroke:#181818;stroke-width:1.0;"/><path d="M900.7656,450.875 Q900.9219,450.6563 901.1094,450.5469 Q901.2969,450.4375 901.5156,450.4375 Q901.8906,450.4375 902.125,450.6953 Q902.3594,450.9531 902.3594,451.5625 L902.3594,453.0156 Q902.3594,453.625 902.125,453.8906 Q901.8906,454.1563 901.5156,454.1563 Q901.1719,454.1563 900.9688,453.9531 Q900.7656,453.7656 900.6563,453.25 Q900.6094,452.8906 900.4219,452.7031 Q900.0938,452.3281 899.4844,452.1094 Q898.875,451.8906 898.25,451.8906 Q897.4844,451.8906 896.8516,452.2188 Q896.2188,452.5469 895.7266,453.2969 Q895.2344,454.0469 895.2344,455.0781 L895.2344,456.1719 Q895.2344,457.4063 896.125,458.2266 Q897.0156,459.0469 898.6094,459.0469 Q899.5469,459.0469 900.2031,458.7969 Q900.5938,458.6406 901.0156,458.2031 Q901.2813,457.9375 901.4297,457.8594 Q901.5781,457.7813 901.7813,457.7813 Q902.1094,457.7813 902.3672,458.0391 Q902.625,458.2969 902.625,458.6406 Q902.625,458.9844 902.2813,459.3906 Q901.7813,459.9688 900.9844,460.2969 Q899.9063,460.75 898.6094,460.75 Q897.0938,460.75 895.8906,460.125 Q894.9063,459.625 894.2188,458.5547 Q893.5313,457.4844 893.5313,456.2031 L893.5313,455.0469 Q893.5313,453.7188 894.1484,452.5703 Q894.7656,451.4219 895.8594,450.8047 Q896.9531,450.1875 898.1875,450.1875 Q898.9219,450.1875 899.5703,450.3516 Q900.2188,450.5156 900.7656,450.875 Z " fill="#000000"/><text fill="#000000" font-family="sans-serif" font-size="14" lengthAdjust="spacing" textLength="62" x="912" y="460.7285">DataVault</text><line style="stroke:#181818;stroke-width:0.5;" x1="884" x2="976" y1="471" y2="471"/><line style="stroke:#181818;stroke-width:0.5;" x1="884" x2="976" y1="479" y2="479"/></g><!--class DataMart--><g id="elem_DataMart"><rect fill="#F1F1F1" height="48" id="DataMart" rx="2.5" ry="2.5" style="stroke:#181818;stroke-width:0.5;" width="90" x="1012" y="439"/><ellipse cx="1027" cy="455" fill="#ADD1B2" rx="11" ry="11" style="stroke:#181818;stroke-width:1.0;"/><path d="M1029.7656,450.875 Q1029.9219,450.6563 1030.1094,450.5469 Q1030.2969,450.4375 1030.5156,450.4375 Q1030.8906,450.4375 1031.125,450.6953 Q1031.3594,450.9531 1031.3594,451.5625 L1031.3594,453.0156 Q1031.3594,453.625 1031.125,453.8906 Q1030.8906,454.1563 1030.5156,454.1563 Q1030.1719,454.1563 1029.9688,453.9531 Q1029.7656,453.7656 1029.6563,453.25 Q1029.6094,452.8906 1029.4219,452.7031 Q1029.0938,452.3281 1028.4844,452.1094 Q1027.875,451.8906 1027.25,451.8906 Q1026.4844,451.8906 1025.8516,452.2188 Q1025.2188,452.5469 1024.7266,453.2969 Q1024.2344,454.0469 1024.2344,455.0781 L1024.2344,456.1719 Q1024.2344,457.4063 1025.125,458.2266 Q1026.0156,459.0469 1027.6094,459.0469 Q1028.5469,459.0469 1029.2031,458.7969 Q1029.5938,458.6406 1030.0156,458.2031 Q1030.2813,457.9375 1030.4297,457.8594 Q1030.5781,457.7813 1030.7813,457.7813 Q1031.1094,457.7813 1031.3672,458.0391 Q1031.625,458.2969 1031.625,458.6406 Q1031.625,458.9844 1031.2813,459.3906 Q1030.7813,459.9688 1029.9844,460.2969 Q1028.9063,460.75 1027.6094,460.75 Q1026.0938,460.75 1024.8906,460.125 Q1023.9063,459.625 1023.2188,458.5547 Q1022.5313,457.4844 1022.5313,456.2031 L1022.5313,455.0469 Q1022.5313,453.7188 1023.1484,452.5703 Q1023.7656,451.4219 1024.8594,450.8047 Q1025.9531,450.1875 1027.1875,450.1875 Q1027.9219,450.1875 1028.5703,450.3516 Q1029.2188,450.5156 1029.7656,450.875 Z " fill="#000000"/><text fill="#000000" font-family="sans-serif" font-size="14" lengthAdjust="spacing" textLength="58" x="1041" y="460.7285">DataMart</text><line style="stroke:#181818;stroke-width:0.5;" x1="1013" x2="1101" y1="471" y2="471"/><line style="stroke:#181818;stroke-width:0.5;" x1="1013" x2="1101" y1="479" y2="479"/></g><!--class DDD--><g id="elem_DDD"><rect fill="#F1F1F1" height="48" id="DDD" rx="2.5" ry="2.5" style="stroke:#181818;stroke-width:0.5;" width="62" x="1248" y="331"/><ellipse cx="1263" cy="347" fill="#ADD1B2" rx="11" ry="11" style="stroke:#181818;stroke-width:1.0;"/><path d="M1265.7656,342.875 Q1265.9219,342.6563 1266.1094,342.5469 Q1266.2969,342.4375 1266.5156,342.4375 Q1266.8906,342.4375 1267.125,342.6953 Q1267.3594,342.9531 1267.3594,343.5625 L1267.3594,345.0156 Q1267.3594,345.625 1267.125,345.8906 Q1266.8906,346.1563 1266.5156,346.1563 Q1266.1719,346.1563 1265.9688,345.9531 Q1265.7656,345.7656 1265.6563,345.25 Q1265.6094,344.8906 1265.4219,344.7031 Q1265.0938,344.3281 1264.4844,344.1094 Q1263.875,343.8906 1263.25,343.8906 Q1262.4844,343.8906 1261.8516,344.2188 Q1261.2188,344.5469 1260.7266,345.2969 Q1260.2344,346.0469 1260.2344,347.0781 L1260.2344,348.1719 Q1260.2344,349.4063 1261.125,350.2266 Q1262.0156,351.0469 1263.6094,351.0469 Q1264.5469,351.0469 1265.2031,350.7969 Q1265.5938,350.6406 1266.0156,350.2031 Q1266.2813,349.9375 1266.4297,349.8594 Q1266.5781,349.7813 1266.7813,349.7813 Q1267.1094,349.7813 1267.3672,350.0391 Q1267.625,350.2969 1267.625,350.6406 Q1267.625,350.9844 1267.2813,351.3906 Q1266.7813,351.9688 1265.9844,352.2969 Q1264.9063,352.75 1263.6094,352.75 Q1262.0938,352.75 1260.8906,352.125 Q1259.9063,351.625 1259.2188,350.5547 Q1258.5313,349.4844 1258.5313,348.2031 L1258.5313,347.0469 Q1258.5313,345.7188 1259.1484,344.5703 Q1259.7656,343.4219 1260.8594,342.8047 Q1261.9531,342.1875 1263.1875,342.1875 Q1263.9219,342.1875 1264.5703,342.3516 Q1265.2188,342.5156 1265.7656,342.875 Z " fill="#000000"/><text fill="#000000" font-family="sans-serif" font-size="14" lengthAdjust="spacing" textLength="30" x="1277" y="352.7285">DDD</text><line style="stroke:#181818;stroke-width:0.5;" x1="1249" x2="1309" y1="363" y2="363"/><line style="stroke:#181818;stroke-width:0.5;" x1="1249" x2="1309" y1="371" y2="371"/></g><!--class EventStorming--><g id="elem_EventStorming"><rect fill="#F1F1F1" height="48" id="EventStorming" rx="2.5" ry="2.5" style="stroke:#181818;stroke-width:0.5;" width="124" x="1137" y="439"/><ellipse cx="1152" cy="455" fill="#ADD1B2" rx="11" ry="11" style="stroke:#181818;stroke-width:1.0;"/><path d="M1154.7656,450.875 Q1154.9219,450.6563 1155.1094,450.5469 Q1155.2969,450.4375 1155.5156,450.4375 Q1155.8906,450.4375 1156.125,450.6953 Q1156.3594,450.9531 1156.3594,451.5625 L1156.3594,453.0156 Q1156.3594,453.625 1156.125,453.8906 Q1155.8906,454.1563 1155.5156,454.1563 Q1155.1719,454.1563 1154.9688,453.9531 Q1154.7656,453.7656 1154.6563,453.25 Q1154.6094,452.8906 1154.4219,452.7031 Q1154.0938,452.3281 1153.4844,452.1094 Q1152.875,451.8906 1152.25,451.8906 Q1151.4844,451.8906 1150.8516,452.2188 Q1150.2188,452.5469 1149.7266,453.2969 Q1149.2344,454.0469 1149.2344,455.0781 L1149.2344,456.1719 Q1149.2344,457.4063 1150.125,458.2266 Q1151.0156,459.0469 1152.6094,459.0469 Q1153.5469,459.0469 1154.2031,458.7969 Q1154.5938,458.6406 1155.0156,458.2031 Q1155.2813,457.9375 1155.4297,457.8594 Q1155.5781,457.7813 1155.7813,457.7813 Q1156.1094,457.7813 1156.3672,458.0391 Q1156.625,458.2969 1156.625,458.6406 Q1156.625,458.9844 1156.2813,459.3906 Q1155.7813,459.9688 1154.9844,460.2969 Q1153.9063,460.75 1152.6094,460.75 Q1151.0938,460.75 1149.8906,460.125 Q1148.9063,459.625 1148.2188,458.5547 Q1147.5313,457.4844 1147.5313,456.2031 L1147.5313,455.0469 Q1147.5313,453.7188 1148.1484,452.5703 Q1148.7656,451.4219 1149.8594,450.8047 Q1150.9531,450.1875 1152.1875,450.1875 Q1152.9219,450.1875 1153.5703,450.3516 Q1154.2188,450.5156 1154.7656,450.875 Z " fill="#000000"/><text fill="#000000" font-family="sans-serif" font-size="14" lengthAdjust="spacing" textLength="92" x="1166" y="460.7285">EventStorming</text><line style="stroke:#181818;stroke-width:0.5;" x1="1138" x2="1260" y1="471" y2="471"/><line style="stroke:#181818;stroke-width:0.5;" x1="1138" x2="1260" y1="479" y2="479"/></g><!--class EventSourcing--><g id="elem_EventSourcing"><rect fill="#F1F1F1" height="48" id="EventSourcing" rx="2.5" ry="2.5" style="stroke:#181818;stroke-width:0.5;" width="124" x="1296" y="439"/><ellipse cx="1311" cy="455" fill="#ADD1B2" rx="11" ry="11" style="stroke:#181818;stroke-width:1.0;"/><path d="M1313.7656,450.875 Q1313.9219,450.6563 1314.1094,450.5469 Q1314.2969,450.4375 1314.5156,450.4375 Q1314.8906,450.4375 1315.125,450.6953 Q1315.3594,450.9531 1315.3594,451.5625 L1315.3594,453.0156 Q1315.3594,453.625 1315.125,453.8906 Q1314.8906,454.1563 1314.5156,454.1563 Q1314.1719,454.1563 1313.9688,453.9531 Q1313.7656,453.7656 1313.6563,453.25 Q1313.6094,452.8906 1313.4219,452.7031 Q1313.0938,452.3281 1312.4844,452.1094 Q1311.875,451.8906 1311.25,451.8906 Q1310.4844,451.8906 1309.8516,452.2188 Q1309.2188,452.5469 1308.7266,453.2969 Q1308.2344,454.0469 1308.2344,455.0781 L1308.2344,456.1719 Q1308.2344,457.4063 1309.125,458.2266 Q1310.0156,459.0469 1311.6094,459.0469 Q1312.5469,459.0469 1313.2031,458.7969 Q1313.5938,458.6406 1314.0156,458.2031 Q1314.2813,457.9375 1314.4297,457.8594 Q1314.5781,457.7813 1314.7813,457.7813 Q1315.1094,457.7813 1315.3672,458.0391 Q1315.625,458.2969 1315.625,458.6406 Q1315.625,458.9844 1315.2813,459.3906 Q1314.7813,459.9688 1313.9844,460.2969 Q1312.9063,460.75 1311.6094,460.75 Q1310.0938,460.75 1308.8906,460.125 Q1307.9063,459.625 1307.2188,458.5547 Q1306.5313,457.4844 1306.5313,456.2031 L1306.5313,455.0469 Q1306.5313,453.7188 1307.1484,452.5703 Q1307.7656,451.4219 1308.8594,450.8047 Q1309.9531,450.1875 1311.1875,450.1875 Q1311.9219,450.1875 1312.5703,450.3516 Q1313.2188,450.5156 1313.7656,450.875 Z " fill="#000000"/><text fill="#000000" font-family="sans-serif" font-size="14" lengthAdjust="spacing" textLength="92" x="1325" y="460.7285">EventSourcing</text><line style="stroke:#181818;stroke-width:0.5;" x1="1297" x2="1419" y1="471" y2="471"/><line style="stroke:#181818;stroke-width:0.5;" x1="1297" x2="1419" y1="479" y2="479"/></g><!--class CQRS--><g id="elem_CQRS"><rect fill="#F1F1F1" height="48" id="CQRS" rx="2.5" ry="2.5" style="stroke:#181818;stroke-width:0.5;" width="72" x="1455" y="439"/><ellipse cx="1470" cy="455" fill="#ADD1B2" rx="11" ry="11" style="stroke:#181818;stroke-width:1.0;"/><path d="M1472.7656,450.875 Q1472.9219,450.6563 1473.1094,450.5469 Q1473.2969,450.4375 1473.5156,450.4375 Q1473.8906,450.4375 1474.125,450.6953 Q1474.3594,450.9531 1474.3594,451.5625 L1474.3594,453.0156 Q1474.3594,453.625 1474.125,453.8906 Q1473.8906,454.1563 1473.5156,454.1563 Q1473.1719,454.1563 1472.9688,453.9531 Q1472.7656,453.7656 1472.6563,453.25 Q1472.6094,452.8906 1472.4219,452.7031 Q1472.0938,452.3281 1471.4844,452.1094 Q1470.875,451.8906 1470.25,451.8906 Q1469.4844,451.8906 1468.8516,452.2188 Q1468.2188,452.5469 1467.7266,453.2969 Q1467.2344,454.0469 1467.2344,455.0781 L1467.2344,456.1719 Q1467.2344,457.4063 1468.125,458.2266 Q1469.0156,459.0469 1470.6094,459.0469 Q1471.5469,459.0469 1472.2031,458.7969 Q1472.5938,458.6406 1473.0156,458.2031 Q1473.2813,457.9375 1473.4297,457.8594 Q1473.5781,457.7813 1473.7813,457.7813 Q1474.1094,457.7813 1474.3672,458.0391 Q1474.625,458.2969 1474.625,458.6406 Q1474.625,458.9844 1474.2813,459.3906 Q1473.7813,459.9688 1472.9844,460.2969 Q1471.9063,460.75 1470.6094,460.75 Q1469.0938,460.75 1467.8906,460.125 Q1466.9063,459.625 1466.2188,458.5547 Q1465.5313,457.4844 1465.5313,456.2031 L1465.5313,455.0469 Q1465.5313,453.7188 1466.1484,452.5703 Q1466.7656,451.4219 1467.8594,450.8047 Q1468.9531,450.1875 1470.1875,450.1875 Q1470.9219,450.1875 1471.5703,450.3516 Q1472.2188,450.5156 1472.7656,450.875 Z " fill="#000000"/><text fill="#000000" font-family="sans-serif" font-size="14" lengthAdjust="spacing" textLength="40" x="1484" y="460.7285">CQRS</text><line style="stroke:#181818;stroke-width:0.5;" x1="1456" x2="1526" y1="471" y2="471"/><line style="stroke:#181818;stroke-width:0.5;" x1="1456" x2="1526" y1="479" y2="479"/></g><!--class MTA--><g id="elem_MTA"><rect fill="#F1F1F1" height="48" id="MTA" rx="2.5" ry="2.5" style="stroke:#181818;stroke-width:0.5;" width="61" x="919.5" y="115"/><ellipse cx="934.5" cy="131" fill="#ADD1B2" rx="11" ry="11" style="stroke:#181818;stroke-width:1.0;"/><path d="M937.2656,126.875 Q937.4219,126.6563 937.6094,126.5469 Q937.7969,126.4375 938.0156,126.4375 Q938.3906,126.4375 938.625,126.6953 Q938.8594,126.9531 938.8594,127.5625 L938.8594,129.0156 Q938.8594,129.625 938.625,129.8906 Q938.3906,130.1563 938.0156,130.1563 Q937.6719,130.1563 937.4688,129.9531 Q937.2656,129.7656 937.1563,129.25 Q937.1094,128.8906 936.9219,128.7031 Q936.5938,128.3281 935.9844,128.1094 Q935.375,127.8906 934.75,127.8906 Q933.9844,127.8906 933.3516,128.2188 Q932.7188,128.5469 932.2266,129.2969 Q931.7344,130.0469 931.7344,131.0781 L931.7344,132.1719 Q931.7344,133.4063 932.625,134.2266 Q933.5156,135.0469 935.1094,135.0469 Q936.0469,135.0469 936.7031,134.7969 Q937.0938,134.6406 937.5156,134.2031 Q937.7813,133.9375 937.9297,133.8594 Q938.0781,133.7813 938.2813,133.7813 Q938.6094,133.7813 938.8672,134.0391 Q939.125,134.2969 939.125,134.6406 Q939.125,134.9844 938.7813,135.3906 Q938.2813,135.9688 937.4844,136.2969 Q936.4063,136.75 935.1094,136.75 Q933.5938,136.75 932.3906,136.125 Q931.4063,135.625 930.7188,134.5547 Q930.0313,133.4844 930.0313,132.2031 L930.0313,131.0469 Q930.0313,129.7188 930.6484,128.5703 Q931.2656,127.4219 932.3594,126.8047 Q933.4531,126.1875 934.6875,126.1875 Q935.4219,126.1875 936.0703,126.3516 Q936.7188,126.5156 937.2656,126.875 Z " fill="#000000"/><text fill="#000000" font-family="sans-serif" font-size="14" lengthAdjust="spacing" textLength="29" x="948.5" y="136.7285">MTA</text><line style="stroke:#181818;stroke-width:0.5;" x1="920.5" x2="979.5" y1="147" y2="147"/><line style="stroke:#181818;stroke-width:0.5;" x1="920.5" x2="979.5" y1="155" y2="155"/></g><!--class FaultTolerance--><g id="elem_FaultTolerance"><rect fill="#F1F1F1" height="48" id="FaultTolerance" rx="2.5" ry="2.5" style="stroke:#181818;stroke-width:0.5;" width="128" x="1016" y="115"/><ellipse cx="1031" cy="131" fill="#ADD1B2" rx="11" ry="11" style="stroke:#181818;stroke-width:1.0;"/><path d="M1033.7656,126.875 Q1033.9219,126.6563 1034.1094,126.5469 Q1034.2969,126.4375 1034.5156,126.4375 Q1034.8906,126.4375 1035.125,126.6953 Q1035.3594,126.9531 1035.3594,127.5625 L1035.3594,129.0156 Q1035.3594,129.625 1035.125,129.8906 Q1034.8906,130.1563 1034.5156,130.1563 Q1034.1719,130.1563 1033.9688,129.9531 Q1033.7656,129.7656 1033.6563,129.25 Q1033.6094,128.8906 1033.4219,128.7031 Q1033.0938,128.3281 1032.4844,128.1094 Q1031.875,127.8906 1031.25,127.8906 Q1030.4844,127.8906 1029.8516,128.2188 Q1029.2188,128.5469 1028.7266,129.2969 Q1028.2344,130.0469 1028.2344,131.0781 L1028.2344,132.1719 Q1028.2344,133.4063 1029.125,134.2266 Q1030.0156,135.0469 1031.6094,135.0469 Q1032.5469,135.0469 1033.2031,134.7969 Q1033.5938,134.6406 1034.0156,134.2031 Q1034.2813,133.9375 1034.4297,133.8594 Q1034.5781,133.7813 1034.7813,133.7813 Q1035.1094,133.7813 1035.3672,134.0391 Q1035.625,134.2969 1035.625,134.6406 Q1035.625,134.9844 1035.2813,135.3906 Q1034.7813,135.9688 1033.9844,136.2969 Q1032.9063,136.75 1031.6094,136.75 Q1030.0938,136.75 1028.8906,136.125 Q1027.9063,135.625 1027.2188,134.5547 Q1026.5313,133.4844 1026.5313,132.2031 L1026.5313,131.0469 Q1026.5313,129.7188 1027.1484,128.5703 Q1027.7656,127.4219 1028.8594,126.8047 Q1029.9531,126.1875 1031.1875,126.1875 Q1031.9219,126.1875 1032.5703,126.3516 Q1033.2188,126.5156 1033.7656,126.875 Z " fill="#000000"/><text fill="#000000" font-family="sans-serif" font-size="14" lengthAdjust="spacing" textLength="96" x="1045" y="136.7285">FaultTolerance</text><line style="stroke:#181818;stroke-width:0.5;" x1="1017" x2="1143" y1="147" y2="147"/><line style="stroke:#181818;stroke-width:0.5;" x1="1017" x2="1143" y1="155" y2="155"/></g><!--link ?????????????? to SOLID--><g id="link_&#1055;&#1088;&#1086;&#1077;&#1082;&#1090;&#1080;&#1088;&#1086;&#1074;&#1072;&#1085;&#1080;&#1103;_SOLID"><path codeLine="2" d="M652.42,55.06 C622.63,69.4 586.35,89.9 559,115 C524.36,146.79 496.29,194.56 481.46,222.78 " fill="none" id="&#1055;&#1088;&#1086;&#1077;&#1082;&#1090;&#1080;&#1088;&#1086;&#1074;&#1072;&#1085;&#1080;&#1103;-SOLID" style="stroke:#181818;stroke-width:1.0;"/></g><!--link SOLID to DI--><g id="link_SOLID_DI"><path codeLine="3" d="M433.31,270.22 C398.44,291.35 347.07,322.46 317.75,340.22 " fill="none" id="SOLID-DI" style="stroke:#181818;stroke-width:1.0;"/></g><!--link SOLID to SRP--><g id="link_SOLID_SRP"><path codeLine="4" d="M451.12,271 C436.63,288.66 416.7,312.94 402.14,330.68 " fill="none" id="SOLID-SRP" style="stroke:#181818;stroke-width:1.0;"/></g><!--link SOLID to OpenClosed--><g id="link_SOLID_OpenClosed"><path codeLine="5" d="M477.38,271 C483.04,288.66 490.83,312.94 496.52,330.68 " fill="none" id="SOLID-OpenClosed" style="stroke:#181818;stroke-width:1.0;"/></g><!--link SOLID to Liskov--><g id="link_SOLID_Liskov"><path codeLine="6" d="M433.33,254.07 C367.13,265.53 223.71,292.7 107,331 C101.47,332.81 95.73,334.99 90.15,337.26 " fill="none" id="SOLID-Liskov" style="stroke:#181818;stroke-width:1.0;"/></g><!--link SOLID to Interface--><g id="link_SOLID_Interface"><path codeLine="8" d="M506.45,271 C534.54,288.72 573.19,313.11 601.33,330.86 " fill="none" id="SOLID-Interface" style="stroke:#181818;stroke-width:1.0;"/></g><!--link ?????????????? to DRY--><g id="link_&#1055;&#1088;&#1086;&#1077;&#1082;&#1090;&#1080;&#1088;&#1086;&#1074;&#1072;&#1085;&#1080;&#1103;_DRY"><path codeLine="9" d="M685.3,55 C668.64,72.66 645.74,96.94 629,114.68 " fill="none" id="&#1055;&#1088;&#1086;&#1077;&#1082;&#1090;&#1080;&#1088;&#1086;&#1074;&#1072;&#1085;&#1080;&#1103;-DRY" style="stroke:#181818;stroke-width:1.0;"/></g><!--link ?????????????? to KISS--><g id="link_&#1055;&#1088;&#1086;&#1077;&#1082;&#1090;&#1080;&#1088;&#1086;&#1074;&#1072;&#1085;&#1080;&#1103;_KISS"><path codeLine="10" d="M636.11,34.27 C519.2,39.61 279.61,57.25 86,115 C80.42,116.66 74.68,118.9 69.2,121.33 " fill="none" id="&#1055;&#1088;&#1086;&#1077;&#1082;&#1090;&#1080;&#1088;&#1086;&#1074;&#1072;&#1085;&#1080;&#1103;-KISS" style="stroke:#181818;stroke-width:1.0;"/></g><!--link ?????????????? to GRASP--><g id="link_&#1055;&#1088;&#1086;&#1077;&#1082;&#1090;&#1080;&#1088;&#1086;&#1074;&#1072;&#1085;&#1080;&#1103;_GRASP"><path codeLine="12" d="M636.37,44.77 C562.41,58.91 443.29,83.88 343,115 C337.21,116.8 331.17,118.91 325.28,121.11 " fill="none" id="&#1055;&#1088;&#1086;&#1077;&#1082;&#1090;&#1080;&#1088;&#1086;&#1074;&#1072;&#1085;&#1080;&#1103;-GRASP" style="stroke:#181818;stroke-width:1.0;"/></g><!--link ?????????????? to Clean--><g id="link_&#1055;&#1088;&#1086;&#1077;&#1082;&#1090;&#1080;&#1088;&#1086;&#1074;&#1072;&#1085;&#1080;&#1103;_Clean"><path codeLine="14" d="M707,55 C707,72.66 707,96.94 707,114.68 " fill="none" id="&#1055;&#1088;&#1086;&#1077;&#1082;&#1090;&#1080;&#1088;&#1086;&#1074;&#1072;&#1085;&#1080;&#1103;-Clean" style="stroke:#181818;stroke-width:1.0;"/></g><!--link ?????????????? to Data--><g id="link_&#1055;&#1088;&#1086;&#1077;&#1082;&#1090;&#1080;&#1088;&#1086;&#1074;&#1072;&#1085;&#1080;&#1103;_Data"><path codeLine="15" d="M724.85,55.03 C736.34,71.01 750.65,93.25 759,115 C772.83,151 778.4,195.78 780.61,222.56 " fill="none" id="&#1055;&#1088;&#1086;&#1077;&#1082;&#1090;&#1080;&#1088;&#1086;&#1074;&#1072;&#1085;&#1080;&#1103;-Data" style="stroke:#181818;stroke-width:1.0;"/></g><!--link Data to DWH--><g id="link_Data_DWH"><path codeLine="16" d="M774.84,271 C769.34,288.66 761.78,312.94 756.26,330.68 " fill="none" id="Data-DWH" style="stroke:#181818;stroke-width:1.0;"/></g><!--link Data to BigData--><g id="link_Data_BigData"><path codeLine="18" d="M813.28,263.64 C850.25,282.13 911.9,312.95 952.75,333.38 " fill="none" id="Data-BigData" style="stroke:#181818;stroke-width:1.0;"/></g><!--link BigData to DataLake--><g id="link_BigData_DataLake"><path codeLine="19" d="M952.6,378.74 C920.25,396.5 875.49,421.09 843,438.93 " fill="none" id="BigData-DataLake" style="stroke:#181818;stroke-width:1.0;"/></g><!--link BigData to DataVault--><g id="link_BigData_DataVault"><path codeLine="20" d="M980.11,379 C969.45,396.66 954.79,420.94 944.08,438.68 " fill="none" id="BigData-DataVault" style="stroke:#181818;stroke-width:1.0;"/></g><!--link BigData to DataMart--><g id="link_BigData_DataMart"><path codeLine="21" d="M1007.67,379 C1018.16,396.66 1032.6,420.94 1043.14,438.68 " fill="none" id="BigData-DataMart" style="stroke:#181818;stroke-width:1.0;"/></g><!--link ?????????????? to DDD--><g id="link_&#1055;&#1088;&#1086;&#1077;&#1082;&#1090;&#1080;&#1088;&#1086;&#1074;&#1072;&#1085;&#1080;&#1103;_DDD"><path codeLine="23" d="M738.65,55.03 C776.6,82.22 842.54,128.14 902,163 C1026.38,235.92 1181.94,309.43 1247.53,339.66 " fill="none" id="&#1055;&#1088;&#1086;&#1077;&#1082;&#1090;&#1080;&#1088;&#1086;&#1074;&#1072;&#1085;&#1080;&#1103;-DDD" style="stroke:#181818;stroke-width:1.0;"/></g><!--link DDD to EventStorming--><g id="link_DDD_EventStorming"><path codeLine="24" d="M1261.64,379 C1248.31,396.66 1229.99,420.94 1216.6,438.68 " fill="none" id="DDD-EventStorming" style="stroke:#181818;stroke-width:1.0;"/></g><!--link DDD to EventSourcing--><g id="link_DDD_EventSourcing"><path codeLine="25" d="M1296.14,379 C1309.3,396.66 1327.4,420.94 1340.62,438.68 " fill="none" id="DDD-EventSourcing" style="stroke:#181818;stroke-width:1.0;"/></g><!--link DDD to CQRS--><g id="link_DDD_CQRS"><path codeLine="26" d="M1310.28,371.64 C1348.87,390.93 1414.33,423.66 1454.97,443.99 " fill="none" id="DDD-CQRS" style="stroke:#181818;stroke-width:1.0;"/></g><!--link ?????????????? to MTA--><g id="link_&#1055;&#1088;&#1086;&#1077;&#1082;&#1090;&#1080;&#1088;&#1086;&#1074;&#1072;&#1085;&#1080;&#1103;_MTA"><path codeLine="28" d="M759.73,55 C808.44,76.25 879.15,107.1 919.24,124.58 " fill="none" id="&#1055;&#1088;&#1086;&#1077;&#1082;&#1090;&#1080;&#1088;&#1086;&#1074;&#1072;&#1085;&#1080;&#1103;-MTA" style="stroke:#181818;stroke-width:1.0;"/></g><!--link ?????????????? to FaultTolerance--><g id="link_&#1055;&#1088;&#1086;&#1077;&#1082;&#1090;&#1080;&#1088;&#1086;&#1074;&#1072;&#1085;&#1080;&#1103;_FaultTolerance"><path codeLine="29" d="M777.6,52.06 C846.24,71.57 949.58,100.94 1015.92,119.79 " fill="none" id="&#1055;&#1088;&#1086;&#1077;&#1082;&#1090;&#1080;&#1088;&#1086;&#1074;&#1072;&#1085;&#1080;&#1103;-FaultTolerance" style="stroke:#181818;stroke-width:1.0;"/></g><!--SRC=[XPB1JW8n48RFx5FC2y03UCDTb0rBmEr6O-AbmGeDIxjPkdX5uzsOUF1YU0LY91f1dc7sZPn54XP9xAMT-VBtdxzDSPPFSOqB_ChlyNDJl-4Slwb-X6gr2gmJ-9vJsMm4mFDB3GkxfQwJ2EN6UYokIp2Guw6UE1MbZO1KzWVc2F0Lv_aTBcdi-suWBk1A0Sw8BAbRuJgVvWzKVU2gPEWh8z8RtXCE_fyTlF3IgcdvZEs7QmcHr7nJAy8mEKfYKMCcI-IrrUiqhBFklbcWRy7LMH9BrIyCcuG93CHOQWLMHpSMNDbKT55kk5CfrisrBvhx8HfH08qW0dp19tpU2Ozb__Vaje2jLS27uW2Uyoms1xJDK-DO0vBMepz4It6kCH7ACAFJ4JtA7wgpj5Ucxbd8hFxGZkfMpKcHFzAnIBcYl_C3]--></g></svg>