<?xml version="1.0" encoding="us-ascii" standalone="no"?><svg xmlns="http://www.w3.org/2000/svg" xmlns:xlink="http://www.w3.org/1999/xlink" contentStyleType="text/css" height="524px" preserveAspectRatio="none" style="width:1508px;height:524px;background:#FFFFFF;" version="1.1" viewBox="0 0 1508 524" width="1508px" zoomAndPan="magnify"><defs/><g><!--class ??????????????????--><g id="elem_&#1055;&#1088;&#1086;&#1080;&#1079;&#1074;&#1086;&#1076;&#1080;&#1090;&#1077;&#1083;&#1100;&#1085;&#1086;&#1089;&#1090;&#1100;"><rect fill="#F1F1F1" height="48" id="&#1055;&#1088;&#1086;&#1080;&#1079;&#1074;&#1086;&#1076;&#1080;&#1090;&#1077;&#1083;&#1100;&#1085;&#1086;&#1089;&#1090;&#1100;" rx="2.5" ry="2.5" style="stroke:#181818;stroke-width:0.5;" width="171" x="647" y="7"/><ellipse cx="662" cy="23" fill="#ADD1B2" rx="11" ry="11" style="stroke:#181818;stroke-width:1.0;"/><path d="M664.7656,18.875 Q664.9219,18.6563 665.1094,18.5469 Q665.2969,18.4375 665.5156,18.4375 Q665.8906,18.4375 666.125,18.6953 Q666.3594,18.9531 666.3594,19.5625 L666.3594,21.0156 Q666.3594,21.625 666.125,21.8906 Q665.8906,22.1563 665.5156,22.1563 Q665.1719,22.1563 664.9688,21.9531 Q664.7656,21.7656 664.6563,21.25 Q664.6094,20.8906 664.4219,20.7031 Q664.0938,20.3281 663.4844,20.1094 Q662.875,19.8906 662.25,19.8906 Q661.4844,19.8906 660.8516,20.2188 Q660.2188,20.5469 659.7266,21.2969 Q659.2344,22.0469 659.2344,23.0781 L659.2344,24.1719 Q659.2344,25.4063 660.125,26.2266 Q661.0156,27.0469 662.6094,27.0469 Q663.5469,27.0469 664.2031,26.7969 Q664.5938,26.6406 665.0156,26.2031 Q665.2813,25.9375 665.4297,25.8594 Q665.5781,25.7813 665.7813,25.7813 Q666.1094,25.7813 666.3672,26.0391 Q666.625,26.2969 666.625,26.6406 Q666.625,26.9844 666.2813,27.3906 Q665.7813,27.9688 664.9844,28.2969 Q663.9063,28.75 662.6094,28.75 Q661.0938,28.75 659.8906,28.125 Q658.9063,27.625 658.2188,26.5547 Q657.5313,25.4844 657.5313,24.2031 L657.5313,23.0469 Q657.5313,21.7188 658.1484,20.5703 Q658.7656,19.4219 659.8594,18.8047 Q660.9531,18.1875 662.1875,18.1875 Q662.9219,18.1875 663.5703,18.3516 Q664.2188,18.5156 664.7656,18.875 Z " fill="#000000"/><text fill="#000000" font-family="sans-serif" font-size="14" lengthAdjust="spacing" textLength="139" x="676" y="28.7285">&#1055;&#1088;&#1086;&#1080;&#1079;&#1074;&#1086;&#1076;&#1080;&#1090;&#1077;&#1083;&#1100;&#1085;&#1086;&#1089;&#1090;&#1100;</text><line style="stroke:#181818;stroke-width:0.5;" x1="648" x2="817" y1="39" y2="39"/><line style="stroke:#181818;stroke-width:0.5;" x1="648" x2="817" y1="47" y2="47"/></g><!--class LB--><g id="elem_LB"><rect fill="#F1F1F1" height="48" id="LB" rx="2.5" ry="2.5" style="stroke:#181818;stroke-width:0.5;" width="49" x="439" y="115"/><ellipse cx="454" cy="131" fill="#ADD1B2" rx="11" ry="11" style="stroke:#181818;stroke-width:1.0;"/><path d="M456.7656,126.875 Q456.9219,126.6563 457.1094,126.5469 Q457.2969,126.4375 457.5156,126.4375 Q457.8906,126.4375 458.125,126.6953 Q458.3594,126.9531 458.3594,127.5625 L458.3594,129.0156 Q458.3594,129.625 458.125,129.8906 Q457.8906,130.1563 457.5156,130.1563 Q457.1719,130.1563 456.9688,129.9531 Q456.7656,129.7656 456.6563,129.25 Q456.6094,128.8906 456.4219,128.7031 Q456.0938,128.3281 455.4844,128.1094 Q454.875,127.8906 454.25,127.8906 Q453.4844,127.8906 452.8516,128.2188 Q452.2188,128.5469 451.7266,129.2969 Q451.2344,130.0469 451.2344,131.0781 L451.2344,132.1719 Q451.2344,133.4063 452.125,134.2266 Q453.0156,135.0469 454.6094,135.0469 Q455.5469,135.0469 456.2031,134.7969 Q456.5938,134.6406 457.0156,134.2031 Q457.2813,133.9375 457.4297,133.8594 Q457.5781,133.7813 457.7813,133.7813 Q458.1094,133.7813 458.3672,134.0391 Q458.625,134.2969 458.625,134.6406 Q458.625,134.9844 458.2813,135.3906 Q457.7813,135.9688 456.9844,136.2969 Q455.9063,136.75 454.6094,136.75 Q453.0938,136.75 451.8906,136.125 Q450.9063,135.625 450.2188,134.5547 Q449.5313,133.4844 449.5313,132.2031 L449.5313,131.0469 Q449.5313,129.7188 450.1484,128.5703 Q450.7656,127.4219 451.8594,126.8047 Q452.9531,126.1875 454.1875,126.1875 Q454.9219,126.1875 455.5703,126.3516 Q456.2188,126.5156 456.7656,126.875 Z " fill="#000000"/><text fill="#000000" font-family="sans-serif" font-size="14" lengthAdjust="spacing" textLength="17" x="468" y="136.7285">LB</text><line style="stroke:#181818;stroke-width:0.5;" x1="440" x2="487" y1="147" y2="147"/><line style="stroke:#181818;stroke-width:0.5;" x1="440" x2="487" y1="155" y2="155"/></g><!--class Async--><g id="elem_Async"><rect fill="#F1F1F1" height="48" id="Async" rx="2.5" ry="2.5" style="stroke:#181818;stroke-width:0.5;" width="70" x="523.5" y="115"/><ellipse cx="538.5" cy="131" fill="#ADD1B2" rx="11" ry="11" style="stroke:#181818;stroke-width:1.0;"/><path d="M541.2656,126.875 Q541.4219,126.6563 541.6094,126.5469 Q541.7969,126.4375 542.0156,126.4375 Q542.3906,126.4375 542.625,126.6953 Q542.8594,126.9531 542.8594,127.5625 L542.8594,129.0156 Q542.8594,129.625 542.625,129.8906 Q542.3906,130.1563 542.0156,130.1563 Q541.6719,130.1563 541.4688,129.9531 Q541.2656,129.7656 541.1563,129.25 Q541.1094,128.8906 540.9219,128.7031 Q540.5938,128.3281 539.9844,128.1094 Q539.375,127.8906 538.75,127.8906 Q537.9844,127.8906 537.3516,128.2188 Q536.7188,128.5469 536.2266,129.2969 Q535.7344,130.0469 535.7344,131.0781 L535.7344,132.1719 Q535.7344,133.4063 536.625,134.2266 Q537.5156,135.0469 539.1094,135.0469 Q540.0469,135.0469 540.7031,134.7969 Q541.0938,134.6406 541.5156,134.2031 Q541.7813,133.9375 541.9297,133.8594 Q542.0781,133.7813 542.2813,133.7813 Q542.6094,133.7813 542.8672,134.0391 Q543.125,134.2969 543.125,134.6406 Q543.125,134.9844 542.7813,135.3906 Q542.2813,135.9688 541.4844,136.2969 Q540.4063,136.75 539.1094,136.75 Q537.5938,136.75 536.3906,136.125 Q535.4063,135.625 534.7188,134.5547 Q534.0313,133.4844 534.0313,132.2031 L534.0313,131.0469 Q534.0313,129.7188 534.6484,128.5703 Q535.2656,127.4219 536.3594,126.8047 Q537.4531,126.1875 538.6875,126.1875 Q539.4219,126.1875 540.0703,126.3516 Q540.7188,126.5156 541.2656,126.875 Z " fill="#000000"/><text fill="#000000" font-family="sans-serif" font-size="14" lengthAdjust="spacing" textLength="38" x="552.5" y="136.7285">Async</text><line style="stroke:#181818;stroke-width:0.5;" x1="524.5" x2="592.5" y1="147" y2="147"/><line style="stroke:#181818;stroke-width:0.5;" x1="524.5" x2="592.5" y1="155" y2="155"/></g><!--class RateLimit--><g id="elem_RateLimit"><rect fill="#F1F1F1" height="48" id="RateLimit" rx="2.5" ry="2.5" style="stroke:#181818;stroke-width:0.5;" width="91" x="629" y="115"/><ellipse cx="644" cy="131" fill="#ADD1B2" rx="11" ry="11" style="stroke:#181818;stroke-width:1.0;"/><path d="M646.7656,126.875 Q646.9219,126.6563 647.1094,126.5469 Q647.2969,126.4375 647.5156,126.4375 Q647.8906,126.4375 648.125,126.6953 Q648.3594,126.9531 648.3594,127.5625 L648.3594,129.0156 Q648.3594,129.625 648.125,129.8906 Q647.8906,130.1563 647.5156,130.1563 Q647.1719,130.1563 646.9688,129.9531 Q646.7656,129.7656 646.6563,129.25 Q646.6094,128.8906 646.4219,128.7031 Q646.0938,128.3281 645.4844,128.1094 Q644.875,127.8906 644.25,127.8906 Q643.4844,127.8906 642.8516,128.2188 Q642.2188,128.5469 641.7266,129.2969 Q641.2344,130.0469 641.2344,131.0781 L641.2344,132.1719 Q641.2344,133.4063 642.125,134.2266 Q643.0156,135.0469 644.6094,135.0469 Q645.5469,135.0469 646.2031,134.7969 Q646.5938,134.6406 647.0156,134.2031 Q647.2813,133.9375 647.4297,133.8594 Q647.5781,133.7813 647.7813,133.7813 Q648.1094,133.7813 648.3672,134.0391 Q648.625,134.2969 648.625,134.6406 Q648.625,134.9844 648.2813,135.3906 Q647.7813,135.9688 646.9844,136.2969 Q645.9063,136.75 644.6094,136.75 Q643.0938,136.75 641.8906,136.125 Q640.9063,135.625 640.2188,134.5547 Q639.5313,133.4844 639.5313,132.2031 L639.5313,131.0469 Q639.5313,129.7188 640.1484,128.5703 Q640.7656,127.4219 641.8594,126.8047 Q642.9531,126.1875 644.1875,126.1875 Q644.9219,126.1875 645.5703,126.3516 Q646.2188,126.5156 646.7656,126.875 Z " fill="#000000"/><text fill="#000000" font-family="sans-serif" font-size="14" lengthAdjust="spacing" textLength="59" x="658" y="136.7285">RateLimit</text><line style="stroke:#181818;stroke-width:0.5;" x1="630" x2="719" y1="147" y2="147"/><line style="stroke:#181818;stroke-width:0.5;" x1="630" x2="719" y1="155" y2="155"/></g><!--class Cache--><g id="elem_Cache"><rect fill="#F1F1F1" height="48" id="Cache" rx="2.5" ry="2.5" style="stroke:#181818;stroke-width:0.5;" width="73" x="755" y="115"/><ellipse cx="770" cy="131" fill="#ADD1B2" rx="11" ry="11" style="stroke:#181818;stroke-width:1.0;"/><path d="M772.7656,126.875 Q772.9219,126.6563 773.1094,126.5469 Q773.2969,126.4375 773.5156,126.4375 Q773.8906,126.4375 774.125,126.6953 Q774.3594,126.9531 774.3594,127.5625 L774.3594,129.0156 Q774.3594,129.625 774.125,129.8906 Q773.8906,130.1563 773.5156,130.1563 Q773.1719,130.1563 772.9688,129.9531 Q772.7656,129.7656 772.6563,129.25 Q772.6094,128.8906 772.4219,128.7031 Q772.0938,128.3281 771.4844,128.1094 Q770.875,127.8906 770.25,127.8906 Q769.4844,127.8906 768.8516,128.2188 Q768.2188,128.5469 767.7266,129.2969 Q767.2344,130.0469 767.2344,131.0781 L767.2344,132.1719 Q767.2344,133.4063 768.125,134.2266 Q769.0156,135.0469 770.6094,135.0469 Q771.5469,135.0469 772.2031,134.7969 Q772.5938,134.6406 773.0156,134.2031 Q773.2813,133.9375 773.4297,133.8594 Q773.5781,133.7813 773.7813,133.7813 Q774.1094,133.7813 774.3672,134.0391 Q774.625,134.2969 774.625,134.6406 Q774.625,134.9844 774.2813,135.3906 Q773.7813,135.9688 772.9844,136.2969 Q771.9063,136.75 770.6094,136.75 Q769.0938,136.75 767.8906,136.125 Q766.9063,135.625 766.2188,134.5547 Q765.5313,133.4844 765.5313,132.2031 L765.5313,131.0469 Q765.5313,129.7188 766.1484,128.5703 Q766.7656,127.4219 767.8594,126.8047 Q768.9531,126.1875 770.1875,126.1875 Q770.9219,126.1875 771.5703,126.3516 Q772.2188,126.5156 772.7656,126.875 Z " fill="#000000"/><text fill="#000000" font-family="sans-serif" font-size="14" lengthAdjust="spacing" textLength="41" x="784" y="136.7285">Cache</text><line style="stroke:#181818;stroke-width:0.5;" x1="756" x2="827" y1="147" y2="147"/><line style="stroke:#181818;stroke-width:0.5;" x1="756" x2="827" y1="155" y2="155"/></g><!--class ???????????????--><g id="elem_&#1052;&#1072;&#1089;&#1096;&#1090;&#1072;&#1073;&#1080;&#1088;&#1086;&#1074;&#1072;&#1085;&#1080;&#1077;"><rect fill="#F1F1F1" height="48" id="&#1052;&#1072;&#1089;&#1096;&#1090;&#1072;&#1073;&#1080;&#1088;&#1086;&#1074;&#1072;&#1085;&#1080;&#1077;" rx="2.5" ry="2.5" style="stroke:#181818;stroke-width:0.5;" width="155" x="7" y="115"/><ellipse cx="22" cy="131" fill="#ADD1B2" rx="11" ry="11" style="stroke:#181818;stroke-width:1.0;"/><path d="M24.7656,126.875 Q24.9219,126.6563 25.1094,126.5469 Q25.2969,126.4375 25.5156,126.4375 Q25.8906,126.4375 26.125,126.6953 Q26.3594,126.9531 26.3594,127.5625 L26.3594,129.0156 Q26.3594,129.625 26.125,129.8906 Q25.8906,130.1563 25.5156,130.1563 Q25.1719,130.1563 24.9688,129.9531 Q24.7656,129.7656 24.6563,129.25 Q24.6094,128.8906 24.4219,128.7031 Q24.0938,128.3281 23.4844,128.1094 Q22.875,127.8906 22.25,127.8906 Q21.4844,127.8906 20.8516,128.2188 Q20.2188,128.5469 19.7266,129.2969 Q19.2344,130.0469 19.2344,131.0781 L19.2344,132.1719 Q19.2344,133.4063 20.125,134.2266 Q21.0156,135.0469 22.6094,135.0469 Q23.5469,135.0469 24.2031,134.7969 Q24.5938,134.6406 25.0156,134.2031 Q25.2813,133.9375 25.4297,133.8594 Q25.5781,133.7813 25.7813,133.7813 Q26.1094,133.7813 26.3672,134.0391 Q26.625,134.2969 26.625,134.6406 Q26.625,134.9844 26.2813,135.3906 Q25.7813,135.9688 24.9844,136.2969 Q23.9063,136.75 22.6094,136.75 Q21.0938,136.75 19.8906,136.125 Q18.9063,135.625 18.2188,134.5547 Q17.5313,133.4844 17.5313,132.2031 L17.5313,131.0469 Q17.5313,129.7188 18.1484,128.5703 Q18.7656,127.4219 19.8594,126.8047 Q20.9531,126.1875 22.1875,126.1875 Q22.9219,126.1875 23.5703,126.3516 Q24.2188,126.5156 24.7656,126.875 Z " fill="#000000"/><text fill="#000000" font-family="sans-serif" font-size="14" lengthAdjust="spacing" textLength="123" x="36" y="136.7285">&#1052;&#1072;&#1089;&#1096;&#1090;&#1072;&#1073;&#1080;&#1088;&#1086;&#1074;&#1072;&#1085;&#1080;&#1077;</text><line style="stroke:#181818;stroke-width:0.5;" x1="8" x2="161" y1="147" y2="147"/><line style="stroke:#181818;stroke-width:0.5;" x1="8" x2="161" y1="155" y2="155"/></g><g id="elem_GMN13"><path d="M197,126 L197,135 L162.12,139 L197,143 L197,152.3516 A0,0 0 0 0 197,152.3516 L404,152.3516 A0,0 0 0 0 404,152.3516 L404,136 L394,126 L197,126 A0,0 0 0 0 197,126 " fill="#FEFFDD" style="stroke:#181818;stroke-width:0.5;"/><path d="M394,126 L394,136 L404,136 L394,126 " fill="#FEFFDD" style="stroke:#181818;stroke-width:0.5;"/><text fill="#000000" font-family="sans-serif" font-size="13" lengthAdjust="spacing" textLength="186" x="203" y="144.4951">&#1043;&#1086;&#1088;&#1080;&#1079;&#1086;&#1085;&#1090;&#1072;&#1083;&#1100;&#1085;&#1086;&#1077;, &#1042;&#1077;&#1088;&#1090;&#1080;&#1082;&#1072;&#1083;&#1100;&#1085;&#1086;&#1077;</text></g><!--class FE--><g id="elem_FE"><rect codeLine="8" fill="#F1F1F1" height="48" id="FE" rx="2.5" ry="2.5" style="stroke:#181818;stroke-width:0.5;" width="91" x="863" y="115"/><ellipse cx="878" cy="131" fill="#ADD1B2" rx="11" ry="11" style="stroke:#181818;stroke-width:1.0;"/><path d="M880.7656,126.875 Q880.9219,126.6563 881.1094,126.5469 Q881.2969,126.4375 881.5156,126.4375 Q881.8906,126.4375 882.125,126.6953 Q882.3594,126.9531 882.3594,127.5625 L882.3594,129.0156 Q882.3594,129.625 882.125,129.8906 Q881.8906,130.1563 881.5156,130.1563 Q881.1719,130.1563 880.9688,129.9531 Q880.7656,129.7656 880.6563,129.25 Q880.6094,128.8906 880.4219,128.7031 Q880.0938,128.3281 879.4844,128.1094 Q878.875,127.8906 878.25,127.8906 Q877.4844,127.8906 876.8516,128.2188 Q876.2188,128.5469 875.7266,129.2969 Q875.2344,130.0469 875.2344,131.0781 L875.2344,132.1719 Q875.2344,133.4063 876.125,134.2266 Q877.0156,135.0469 878.6094,135.0469 Q879.5469,135.0469 880.2031,134.7969 Q880.5938,134.6406 881.0156,134.2031 Q881.2813,133.9375 881.4297,133.8594 Q881.5781,133.7813 881.7813,133.7813 Q882.1094,133.7813 882.3672,134.0391 Q882.625,134.2969 882.625,134.6406 Q882.625,134.9844 882.2813,135.3906 Q881.7813,135.9688 880.9844,136.2969 Q879.9063,136.75 878.6094,136.75 Q877.0938,136.75 875.8906,136.125 Q874.9063,135.625 874.2188,134.5547 Q873.5313,133.4844 873.5313,132.2031 L873.5313,131.0469 Q873.5313,129.7188 874.1484,128.5703 Q874.7656,127.4219 875.8594,126.8047 Q876.9531,126.1875 878.1875,126.1875 Q878.9219,126.1875 879.5703,126.3516 Q880.2188,126.5156 880.7656,126.875 Z " fill="#000000"/><text fill="#000000" font-family="sans-serif" font-size="14" lengthAdjust="spacing" textLength="59" x="892" y="136.7285">FrontEnd</text><line style="stroke:#181818;stroke-width:0.5;" x1="864" x2="953" y1="147" y2="147"/><line style="stroke:#181818;stroke-width:0.5;" x1="864" x2="953" y1="155" y2="155"/></g><!--class LazyLoad--><g id="elem_LazyLoad"><rect fill="#F1F1F1" height="48" id="LazyLoad" rx="2.5" ry="2.5" style="stroke:#181818;stroke-width:0.5;" width="93" x="717" y="223"/><ellipse cx="732" cy="239" fill="#ADD1B2" rx="11" ry="11" style="stroke:#181818;stroke-width:1.0;"/><path d="M734.7656,234.875 Q734.9219,234.6563 735.1094,234.5469 Q735.2969,234.4375 735.5156,234.4375 Q735.8906,234.4375 736.125,234.6953 Q736.3594,234.9531 736.3594,235.5625 L736.3594,237.0156 Q736.3594,237.625 736.125,237.8906 Q735.8906,238.1563 735.5156,238.1563 Q735.1719,238.1563 734.9688,237.9531 Q734.7656,237.7656 734.6563,237.25 Q734.6094,236.8906 734.4219,236.7031 Q734.0938,236.3281 733.4844,236.1094 Q732.875,235.8906 732.25,235.8906 Q731.4844,235.8906 730.8516,236.2188 Q730.2188,236.5469 729.7266,237.2969 Q729.2344,238.0469 729.2344,239.0781 L729.2344,240.1719 Q729.2344,241.4063 730.125,242.2266 Q731.0156,243.0469 732.6094,243.0469 Q733.5469,243.0469 734.2031,242.7969 Q734.5938,242.6406 735.0156,242.2031 Q735.2813,241.9375 735.4297,241.8594 Q735.5781,241.7813 735.7813,241.7813 Q736.1094,241.7813 736.3672,242.0391 Q736.625,242.2969 736.625,242.6406 Q736.625,242.9844 736.2813,243.3906 Q735.7813,243.9688 734.9844,244.2969 Q733.9063,244.75 732.6094,244.75 Q731.0938,244.75 729.8906,244.125 Q728.9063,243.625 728.2188,242.5547 Q727.5313,241.4844 727.5313,240.2031 L727.5313,239.0469 Q727.5313,237.7188 728.1484,236.5703 Q728.7656,235.4219 729.8594,234.8047 Q730.9531,234.1875 732.1875,234.1875 Q732.9219,234.1875 733.5703,234.3516 Q734.2188,234.5156 734.7656,234.875 Z " fill="#000000"/><text fill="#000000" font-family="sans-serif" font-size="14" lengthAdjust="spacing" textLength="61" x="746" y="244.7285">LazyLoad</text><line style="stroke:#181818;stroke-width:0.5;" x1="718" x2="809" y1="255" y2="255"/><line style="stroke:#181818;stroke-width:0.5;" x1="718" x2="809" y1="263" y2="263"/></g><!--class Compression--><g id="elem_Compression"><rect fill="#F1F1F1" height="48" id="Compression" rx="2.5" ry="2.5" style="stroke:#181818;stroke-width:0.5;" width="115" x="845" y="223"/><ellipse cx="860" cy="239" fill="#ADD1B2" rx="11" ry="11" style="stroke:#181818;stroke-width:1.0;"/><path d="M862.7656,234.875 Q862.9219,234.6563 863.1094,234.5469 Q863.2969,234.4375 863.5156,234.4375 Q863.8906,234.4375 864.125,234.6953 Q864.3594,234.9531 864.3594,235.5625 L864.3594,237.0156 Q864.3594,237.625 864.125,237.8906 Q863.8906,238.1563 863.5156,238.1563 Q863.1719,238.1563 862.9688,237.9531 Q862.7656,237.7656 862.6563,237.25 Q862.6094,236.8906 862.4219,236.7031 Q862.0938,236.3281 861.4844,236.1094 Q860.875,235.8906 860.25,235.8906 Q859.4844,235.8906 858.8516,236.2188 Q858.2188,236.5469 857.7266,237.2969 Q857.2344,238.0469 857.2344,239.0781 L857.2344,240.1719 Q857.2344,241.4063 858.125,242.2266 Q859.0156,243.0469 860.6094,243.0469 Q861.5469,243.0469 862.2031,242.7969 Q862.5938,242.6406 863.0156,242.2031 Q863.2813,241.9375 863.4297,241.8594 Q863.5781,241.7813 863.7813,241.7813 Q864.1094,241.7813 864.3672,242.0391 Q864.625,242.2969 864.625,242.6406 Q864.625,242.9844 864.2813,243.3906 Q863.7813,243.9688 862.9844,244.2969 Q861.9063,244.75 860.6094,244.75 Q859.0938,244.75 857.8906,244.125 Q856.9063,243.625 856.2188,242.5547 Q855.5313,241.4844 855.5313,240.2031 L855.5313,239.0469 Q855.5313,237.7188 856.1484,236.5703 Q856.7656,235.4219 857.8594,234.8047 Q858.9531,234.1875 860.1875,234.1875 Q860.9219,234.1875 861.5703,234.3516 Q862.2188,234.5156 862.7656,234.875 Z " fill="#000000"/><text fill="#000000" font-family="sans-serif" font-size="14" lengthAdjust="spacing" textLength="83" x="874" y="244.7285">Compression</text><line style="stroke:#181818;stroke-width:0.5;" x1="846" x2="959" y1="255" y2="255"/><line style="stroke:#181818;stroke-width:0.5;" x1="846" x2="959" y1="263" y2="263"/></g><!--class Store--><g id="elem_Store"><rect fill="#F1F1F1" height="48" id="Store" rx="2.5" ry="2.5" style="stroke:#181818;stroke-width:0.5;" width="66" x="945.5" y="331"/><ellipse cx="960.5" cy="347" fill="#ADD1B2" rx="11" ry="11" style="stroke:#181818;stroke-width:1.0;"/><path d="M963.2656,342.875 Q963.4219,342.6563 963.6094,342.5469 Q963.7969,342.4375 964.0156,342.4375 Q964.3906,342.4375 964.625,342.6953 Q964.8594,342.9531 964.8594,343.5625 L964.8594,345.0156 Q964.8594,345.625 964.625,345.8906 Q964.3906,346.1563 964.0156,346.1563 Q963.6719,346.1563 963.4688,345.9531 Q963.2656,345.7656 963.1563,345.25 Q963.1094,344.8906 962.9219,344.7031 Q962.5938,344.3281 961.9844,344.1094 Q961.375,343.8906 960.75,343.8906 Q959.9844,343.8906 959.3516,344.2188 Q958.7188,344.5469 958.2266,345.2969 Q957.7344,346.0469 957.7344,347.0781 L957.7344,348.1719 Q957.7344,349.4063 958.625,350.2266 Q959.5156,351.0469 961.1094,351.0469 Q962.0469,351.0469 962.7031,350.7969 Q963.0938,350.6406 963.5156,350.2031 Q963.7813,349.9375 963.9297,349.8594 Q964.0781,349.7813 964.2813,349.7813 Q964.6094,349.7813 964.8672,350.0391 Q965.125,350.2969 965.125,350.6406 Q965.125,350.9844 964.7813,351.3906 Q964.2813,351.9688 963.4844,352.2969 Q962.4063,352.75 961.1094,352.75 Q959.5938,352.75 958.3906,352.125 Q957.4063,351.625 956.7188,350.5547 Q956.0313,349.4844 956.0313,348.2031 L956.0313,347.0469 Q956.0313,345.7188 956.6484,344.5703 Q957.2656,343.4219 958.3594,342.8047 Q959.4531,342.1875 960.6875,342.1875 Q961.4219,342.1875 962.0703,342.3516 Q962.7188,342.5156 963.2656,342.875 Z " fill="#000000"/><text fill="#000000" font-family="sans-serif" font-size="14" lengthAdjust="spacing" textLength="34" x="974.5" y="352.7285">Store</text><line style="stroke:#181818;stroke-width:0.5;" x1="946.5" x2="1010.5" y1="363" y2="363"/><line style="stroke:#181818;stroke-width:0.5;" x1="946.5" x2="1010.5" y1="371" y2="371"/></g><!--class ????????????--><g id="elem_&#1064;&#1072;&#1088;&#1076;&#1080;&#1088;&#1086;&#1074;&#1072;&#1085;&#1080;&#1077;"><rect fill="#F1F1F1" height="48" id="&#1064;&#1072;&#1088;&#1076;&#1080;&#1088;&#1086;&#1074;&#1072;&#1085;&#1080;&#1077;" rx="2.5" ry="2.5" style="stroke:#181818;stroke-width:0.5;" width="132" x="467.5" y="454.5"/><ellipse cx="482.5" cy="470.5" fill="#ADD1B2" rx="11" ry="11" style="stroke:#181818;stroke-width:1.0;"/><path d="M485.2656,466.375 Q485.4219,466.1563 485.6094,466.0469 Q485.7969,465.9375 486.0156,465.9375 Q486.3906,465.9375 486.625,466.1953 Q486.8594,466.4531 486.8594,467.0625 L486.8594,468.5156 Q486.8594,469.125 486.625,469.3906 Q486.3906,469.6563 486.0156,469.6563 Q485.6719,469.6563 485.4688,469.4531 Q485.2656,469.2656 485.1563,468.75 Q485.1094,468.3906 484.9219,468.2031 Q484.5938,467.8281 483.9844,467.6094 Q483.375,467.3906 482.75,467.3906 Q481.9844,467.3906 481.3516,467.7188 Q480.7188,468.0469 480.2266,468.7969 Q479.7344,469.5469 479.7344,470.5781 L479.7344,471.6719 Q479.7344,472.9063 480.625,473.7266 Q481.5156,474.5469 483.1094,474.5469 Q484.0469,474.5469 484.7031,474.2969 Q485.0938,474.1406 485.5156,473.7031 Q485.7813,473.4375 485.9297,473.3594 Q486.0781,473.2813 486.2813,473.2813 Q486.6094,473.2813 486.8672,473.5391 Q487.125,473.7969 487.125,474.1406 Q487.125,474.4844 486.7813,474.8906 Q486.2813,475.4688 485.4844,475.7969 Q484.4063,476.25 483.1094,476.25 Q481.5938,476.25 480.3906,475.625 Q479.4063,475.125 478.7188,474.0547 Q478.0313,472.9844 478.0313,471.7031 L478.0313,470.5469 Q478.0313,469.2188 478.6484,468.0703 Q479.2656,466.9219 480.3594,466.3047 Q481.4531,465.6875 482.6875,465.6875 Q483.4219,465.6875 484.0703,465.8516 Q484.7188,466.0156 485.2656,466.375 Z " fill="#000000"/><text fill="#000000" font-family="sans-serif" font-size="14" lengthAdjust="spacing" textLength="100" x="496.5" y="476.2285">&#1064;&#1072;&#1088;&#1076;&#1080;&#1088;&#1086;&#1074;&#1072;&#1085;&#1080;&#1077;</text><line style="stroke:#181818;stroke-width:0.5;" x1="468.5" x2="598.5" y1="486.5" y2="486.5"/><line style="stroke:#181818;stroke-width:0.5;" x1="468.5" x2="598.5" y1="494.5" y2="494.5"/></g><!--class ??????????????--><g id="elem_&#1044;&#1077;&#1085;&#1086;&#1088;&#1084;&#1072;&#1083;&#1080;&#1079;&#1072;&#1094;&#1080;&#1103;"><rect fill="#F1F1F1" height="48" id="&#1044;&#1077;&#1085;&#1086;&#1088;&#1084;&#1072;&#1083;&#1080;&#1079;&#1072;&#1094;&#1080;&#1103;" rx="2.5" ry="2.5" style="stroke:#181818;stroke-width:0.5;" width="146" x="634.5" y="454.5"/><ellipse cx="649.5" cy="470.5" fill="#ADD1B2" rx="11" ry="11" style="stroke:#181818;stroke-width:1.0;"/><path d="M652.2656,466.375 Q652.4219,466.1563 652.6094,466.0469 Q652.7969,465.9375 653.0156,465.9375 Q653.3906,465.9375 653.625,466.1953 Q653.8594,466.4531 653.8594,467.0625 L653.8594,468.5156 Q653.8594,469.125 653.625,469.3906 Q653.3906,469.6563 653.0156,469.6563 Q652.6719,469.6563 652.4688,469.4531 Q652.2656,469.2656 652.1563,468.75 Q652.1094,468.3906 651.9219,468.2031 Q651.5938,467.8281 650.9844,467.6094 Q650.375,467.3906 649.75,467.3906 Q648.9844,467.3906 648.3516,467.7188 Q647.7188,468.0469 647.2266,468.7969 Q646.7344,469.5469 646.7344,470.5781 L646.7344,471.6719 Q646.7344,472.9063 647.625,473.7266 Q648.5156,474.5469 650.1094,474.5469 Q651.0469,474.5469 651.7031,474.2969 Q652.0938,474.1406 652.5156,473.7031 Q652.7813,473.4375 652.9297,473.3594 Q653.0781,473.2813 653.2813,473.2813 Q653.6094,473.2813 653.8672,473.5391 Q654.125,473.7969 654.125,474.1406 Q654.125,474.4844 653.7813,474.8906 Q653.2813,475.4688 652.4844,475.7969 Q651.4063,476.25 650.1094,476.25 Q648.5938,476.25 647.3906,475.625 Q646.4063,475.125 645.7188,474.0547 Q645.0313,472.9844 645.0313,471.7031 L645.0313,470.5469 Q645.0313,469.2188 645.6484,468.0703 Q646.2656,466.9219 647.3594,466.3047 Q648.4531,465.6875 649.6875,465.6875 Q650.4219,465.6875 651.0703,465.8516 Q651.7188,466.0156 652.2656,466.375 Z " fill="#000000"/><text fill="#000000" font-family="sans-serif" font-size="14" lengthAdjust="spacing" textLength="114" x="663.5" y="476.2285">&#1044;&#1077;&#1085;&#1086;&#1088;&#1084;&#1072;&#1083;&#1080;&#1079;&#1072;&#1094;&#1080;&#1103;</text><line style="stroke:#181818;stroke-width:0.5;" x1="635.5" x2="779.5" y1="486.5" y2="486.5"/><line style="stroke:#181818;stroke-width:0.5;" x1="635.5" x2="779.5" y1="494.5" y2="494.5"/></g><!--class CQRS--><g id="elem_CQRS"><rect fill="#F1F1F1" height="48" id="CQRS" rx="2.5" ry="2.5" style="stroke:#181818;stroke-width:0.5;" width="72" x="815.5" y="454.5"/><ellipse cx="830.5" cy="470.5" fill="#ADD1B2" rx="11" ry="11" style="stroke:#181818;stroke-width:1.0;"/><path d="M833.2656,466.375 Q833.4219,466.1563 833.6094,466.0469 Q833.7969,465.9375 834.0156,465.9375 Q834.3906,465.9375 834.625,466.1953 Q834.8594,466.4531 834.8594,467.0625 L834.8594,468.5156 Q834.8594,469.125 834.625,469.3906 Q834.3906,469.6563 834.0156,469.6563 Q833.6719,469.6563 833.4688,469.4531 Q833.2656,469.2656 833.1563,468.75 Q833.1094,468.3906 832.9219,468.2031 Q832.5938,467.8281 831.9844,467.6094 Q831.375,467.3906 830.75,467.3906 Q829.9844,467.3906 829.3516,467.7188 Q828.7188,468.0469 828.2266,468.7969 Q827.7344,469.5469 827.7344,470.5781 L827.7344,471.6719 Q827.7344,472.9063 828.625,473.7266 Q829.5156,474.5469 831.1094,474.5469 Q832.0469,474.5469 832.7031,474.2969 Q833.0938,474.1406 833.5156,473.7031 Q833.7813,473.4375 833.9297,473.3594 Q834.0781,473.2813 834.2813,473.2813 Q834.6094,473.2813 834.8672,473.5391 Q835.125,473.7969 835.125,474.1406 Q835.125,474.4844 834.7813,474.8906 Q834.2813,475.4688 833.4844,475.7969 Q832.4063,476.25 831.1094,476.25 Q829.5938,476.25 828.3906,475.625 Q827.4063,475.125 826.7188,474.0547 Q826.0313,472.9844 826.0313,471.7031 L826.0313,470.5469 Q826.0313,469.2188 826.6484,468.0703 Q827.2656,466.9219 828.3594,466.3047 Q829.4531,465.6875 830.6875,465.6875 Q831.4219,465.6875 832.0703,465.8516 Q832.7188,466.0156 833.2656,466.375 Z " fill="#000000"/><text fill="#000000" font-family="sans-serif" font-size="14" lengthAdjust="spacing" textLength="40" x="844.5" y="476.2285">CQRS</text><line style="stroke:#181818;stroke-width:0.5;" x1="816.5" x2="886.5" y1="486.5" y2="486.5"/><line style="stroke:#181818;stroke-width:0.5;" x1="816.5" x2="886.5" y1="494.5" y2="494.5"/></g><!--class ??????????--><g id="elem_&#1056;&#1077;&#1087;&#1083;&#1080;&#1082;&#1072;&#1094;&#1080;&#1103;"><rect fill="#F1F1F1" height="48" id="&#1056;&#1077;&#1087;&#1083;&#1080;&#1082;&#1072;&#1094;&#1080;&#1103;" rx="2.5" ry="2.5" style="stroke:#181818;stroke-width:0.5;" width="112" x="922.5" y="454.5"/><ellipse cx="937.5" cy="470.5" fill="#ADD1B2" rx="11" ry="11" style="stroke:#181818;stroke-width:1.0;"/><path d="M940.2656,466.375 Q940.4219,466.1563 940.6094,466.0469 Q940.7969,465.9375 941.0156,465.9375 Q941.3906,465.9375 941.625,466.1953 Q941.8594,466.4531 941.8594,467.0625 L941.8594,468.5156 Q941.8594,469.125 941.625,469.3906 Q941.3906,469.6563 941.0156,469.6563 Q940.6719,469.6563 940.4688,469.4531 Q940.2656,469.2656 940.1563,468.75 Q940.1094,468.3906 939.9219,468.2031 Q939.5938,467.8281 938.9844,467.6094 Q938.375,467.3906 937.75,467.3906 Q936.9844,467.3906 936.3516,467.7188 Q935.7188,468.0469 935.2266,468.7969 Q934.7344,469.5469 934.7344,470.5781 L934.7344,471.6719 Q934.7344,472.9063 935.625,473.7266 Q936.5156,474.5469 938.1094,474.5469 Q939.0469,474.5469 939.7031,474.2969 Q940.0938,474.1406 940.5156,473.7031 Q940.7813,473.4375 940.9297,473.3594 Q941.0781,473.2813 941.2813,473.2813 Q941.6094,473.2813 941.8672,473.5391 Q942.125,473.7969 942.125,474.1406 Q942.125,474.4844 941.7813,474.8906 Q941.2813,475.4688 940.4844,475.7969 Q939.4063,476.25 938.1094,476.25 Q936.5938,476.25 935.3906,475.625 Q934.4063,475.125 933.7188,474.0547 Q933.0313,472.9844 933.0313,471.7031 L933.0313,470.5469 Q933.0313,469.2188 933.6484,468.0703 Q934.2656,466.9219 935.3594,466.3047 Q936.4531,465.6875 937.6875,465.6875 Q938.4219,465.6875 939.0703,465.8516 Q939.7188,466.0156 940.2656,466.375 Z " fill="#000000"/><text fill="#000000" font-family="sans-serif" font-size="14" lengthAdjust="spacing" textLength="80" x="951.5" y="476.2285">&#1056;&#1077;&#1087;&#1083;&#1080;&#1082;&#1072;&#1094;&#1080;&#1103;</text><line style="stroke:#181818;stroke-width:0.5;" x1="923.5" x2="1033.5" y1="486.5" y2="486.5"/><line style="stroke:#181818;stroke-width:0.5;" x1="923.5" x2="1033.5" y1="494.5" y2="494.5"/></g><!--class ?????????????--><g id="elem_&#1050;&#1083;&#1072;&#1089;&#1090;&#1077;&#1088;&#1080;&#1079;&#1072;&#1094;&#1080;&#1103;"><rect fill="#F1F1F1" height="48" id="&#1050;&#1083;&#1072;&#1089;&#1090;&#1077;&#1088;&#1080;&#1079;&#1072;&#1094;&#1080;&#1103;" rx="2.5" ry="2.5" style="stroke:#181818;stroke-width:0.5;" width="133" x="1070" y="454.5"/><ellipse cx="1085" cy="470.5" fill="#ADD1B2" rx="11" ry="11" style="stroke:#181818;stroke-width:1.0;"/><path d="M1087.7656,466.375 Q1087.9219,466.1563 1088.1094,466.0469 Q1088.2969,465.9375 1088.5156,465.9375 Q1088.8906,465.9375 1089.125,466.1953 Q1089.3594,466.4531 1089.3594,467.0625 L1089.3594,468.5156 Q1089.3594,469.125 1089.125,469.3906 Q1088.8906,469.6563 1088.5156,469.6563 Q1088.1719,469.6563 1087.9688,469.4531 Q1087.7656,469.2656 1087.6563,468.75 Q1087.6094,468.3906 1087.4219,468.2031 Q1087.0938,467.8281 1086.4844,467.6094 Q1085.875,467.3906 1085.25,467.3906 Q1084.4844,467.3906 1083.8516,467.7188 Q1083.2188,468.0469 1082.7266,468.7969 Q1082.2344,469.5469 1082.2344,470.5781 L1082.2344,471.6719 Q1082.2344,472.9063 1083.125,473.7266 Q1084.0156,474.5469 1085.6094,474.5469 Q1086.5469,474.5469 1087.2031,474.2969 Q1087.5938,474.1406 1088.0156,473.7031 Q1088.2813,473.4375 1088.4297,473.3594 Q1088.5781,473.2813 1088.7813,473.2813 Q1089.1094,473.2813 1089.3672,473.5391 Q1089.625,473.7969 1089.625,474.1406 Q1089.625,474.4844 1089.2813,474.8906 Q1088.7813,475.4688 1087.9844,475.7969 Q1086.9063,476.25 1085.6094,476.25 Q1084.0938,476.25 1082.8906,475.625 Q1081.9063,475.125 1081.2188,474.0547 Q1080.5313,472.9844 1080.5313,471.7031 L1080.5313,470.5469 Q1080.5313,469.2188 1081.1484,468.0703 Q1081.7656,466.9219 1082.8594,466.3047 Q1083.9531,465.6875 1085.1875,465.6875 Q1085.9219,465.6875 1086.5703,465.8516 Q1087.2188,466.0156 1087.7656,466.375 Z " fill="#000000"/><text fill="#000000" font-family="sans-serif" font-size="14" lengthAdjust="spacing" textLength="101" x="1099" y="476.2285">&#1050;&#1083;&#1072;&#1089;&#1090;&#1077;&#1088;&#1080;&#1079;&#1072;&#1094;&#1080;&#1103;</text><line style="stroke:#181818;stroke-width:0.5;" x1="1071" x2="1202" y1="486.5" y2="486.5"/><line style="stroke:#181818;stroke-width:0.5;" x1="1071" x2="1202" y1="494.5" y2="494.5"/></g><!--class IL--><g id="elem_IL"><rect codeLine="19" fill="#F1F1F1" height="78.8281" id="IL" rx="2.5" ry="2.5" style="stroke:#181818;stroke-width:0.5;" width="105" x="1238" y="439"/><ellipse cx="1253" cy="470.4141" fill="#ADD1B2" rx="11" ry="11" style="stroke:#181818;stroke-width:1.0;"/><path d="M1255.7656,466.2891 Q1255.9219,466.0703 1256.1094,465.9609 Q1256.2969,465.8516 1256.5156,465.8516 Q1256.8906,465.8516 1257.125,466.1094 Q1257.3594,466.3672 1257.3594,466.9766 L1257.3594,468.4297 Q1257.3594,469.0391 1257.125,469.3047 Q1256.8906,469.5703 1256.5156,469.5703 Q1256.1719,469.5703 1255.9688,469.3672 Q1255.7656,469.1797 1255.6563,468.6641 Q1255.6094,468.3047 1255.4219,468.1172 Q1255.0938,467.7422 1254.4844,467.5234 Q1253.875,467.3047 1253.25,467.3047 Q1252.4844,467.3047 1251.8516,467.6328 Q1251.2188,467.9609 1250.7266,468.7109 Q1250.2344,469.4609 1250.2344,470.4922 L1250.2344,471.5859 Q1250.2344,472.8203 1251.125,473.6406 Q1252.0156,474.4609 1253.6094,474.4609 Q1254.5469,474.4609 1255.2031,474.2109 Q1255.5938,474.0547 1256.0156,473.6172 Q1256.2813,473.3516 1256.4297,473.2734 Q1256.5781,473.1953 1256.7813,473.1953 Q1257.1094,473.1953 1257.3672,473.4531 Q1257.625,473.7109 1257.625,474.0547 Q1257.625,474.3984 1257.2813,474.8047 Q1256.7813,475.3828 1255.9844,475.7109 Q1254.9063,476.1641 1253.6094,476.1641 Q1252.0938,476.1641 1250.8906,475.5391 Q1249.9063,475.0391 1249.2188,473.9688 Q1248.5313,472.8984 1248.5313,471.6172 L1248.5313,470.4609 Q1248.5313,469.1328 1249.1484,467.9844 Q1249.7656,466.8359 1250.8594,466.2188 Q1251.9531,465.6016 1253.1875,465.6016 Q1253.9219,465.6016 1254.5703,465.7656 Q1255.2188,465.9297 1255.7656,466.2891 Z " fill="#000000"/><text fill="#000000" font-family="sans-serif" font-size="14" lengthAdjust="spacing" textLength="56" x="1273.5" y="458.5332">&#1059;&#1088;&#1086;&#1074;&#1077;&#1085;&#1100;</text><text fill="#000000" font-family="sans-serif" font-size="14" lengthAdjust="spacing" textLength="65" x="1271" y="476.1426">&#1048;&#1079;&#1086;&#1083;&#1103;&#1094;&#1080;&#1080;</text><text fill="#000000" font-family="sans-serif" font-size="14" lengthAdjust="spacing" textLength="49" x="1281" y="493.752">&#1044;&#1072;&#1085;&#1085;&#1099;&#1093;</text><line style="stroke:#181818;stroke-width:0.5;" x1="1239" x2="1342" y1="501.8281" y2="501.8281"/><line style="stroke:#181818;stroke-width:0.5;" x1="1239" x2="1342" y1="509.8281" y2="509.8281"/></g><!--class Retention--><g id="elem_Retention"><rect codeLine="21" fill="#F1F1F1" height="61.2188" id="Retention" rx="2.5" ry="2.5" style="stroke:#181818;stroke-width:0.5;" width="123" x="1378" y="448"/><ellipse cx="1393" cy="470.6094" fill="#ADD1B2" rx="11" ry="11" style="stroke:#181818;stroke-width:1.0;"/><path d="M1395.7656,466.4844 Q1395.9219,466.2656 1396.1094,466.1563 Q1396.2969,466.0469 1396.5156,466.0469 Q1396.8906,466.0469 1397.125,466.3047 Q1397.3594,466.5625 1397.3594,467.1719 L1397.3594,468.625 Q1397.3594,469.2344 1397.125,469.5 Q1396.8906,469.7656 1396.5156,469.7656 Q1396.1719,469.7656 1395.9688,469.5625 Q1395.7656,469.375 1395.6563,468.8594 Q1395.6094,468.5 1395.4219,468.3125 Q1395.0938,467.9375 1394.4844,467.7188 Q1393.875,467.5 1393.25,467.5 Q1392.4844,467.5 1391.8516,467.8281 Q1391.2188,468.1563 1390.7266,468.9063 Q1390.2344,469.6563 1390.2344,470.6875 L1390.2344,471.7813 Q1390.2344,473.0156 1391.125,473.8359 Q1392.0156,474.6563 1393.6094,474.6563 Q1394.5469,474.6563 1395.2031,474.4063 Q1395.5938,474.25 1396.0156,473.8125 Q1396.2813,473.5469 1396.4297,473.4688 Q1396.5781,473.3906 1396.7813,473.3906 Q1397.1094,473.3906 1397.3672,473.6484 Q1397.625,473.9063 1397.625,474.25 Q1397.625,474.5938 1397.2813,475 Q1396.7813,475.5781 1395.9844,475.9063 Q1394.9063,476.3594 1393.6094,476.3594 Q1392.0938,476.3594 1390.8906,475.7344 Q1389.9063,475.2344 1389.2188,474.1641 Q1388.5313,473.0938 1388.5313,471.8125 L1388.5313,470.6563 Q1388.5313,469.3281 1389.1484,468.1797 Q1389.7656,467.0313 1390.8594,466.4141 Q1391.9531,465.7969 1393.1875,465.7969 Q1393.9219,465.7969 1394.5703,465.9609 Q1395.2188,466.125 1395.7656,466.4844 Z " fill="#000000"/><text fill="#000000" font-family="sans-serif" font-size="14" lengthAdjust="spacing" textLength="87" x="1407" y="467.5332">&#1056;&#1086;&#1090;&#1072;&#1094;&#1080;&#1103; TTL</text><text fill="#000000" font-family="sans-serif" font-size="14" lengthAdjust="spacing" textLength="49" x="1430" y="485.1426">&#1044;&#1072;&#1085;&#1085;&#1099;&#1093;</text><line style="stroke:#181818;stroke-width:0.5;" x1="1379" x2="1500" y1="493.2188" y2="493.2188"/><line style="stroke:#181818;stroke-width:0.5;" x1="1379" x2="1500" y1="501.2188" y2="501.2188"/></g><!--class ????--><g id="elem_&#1057;&#1077;&#1090;&#1100;"><rect fill="#F1F1F1" height="48" id="&#1057;&#1077;&#1090;&#1100;" rx="2.5" ry="2.5" style="stroke:#181818;stroke-width:0.5;" width="65" x="1136" y="223"/><ellipse cx="1151" cy="239" fill="#ADD1B2" rx="11" ry="11" style="stroke:#181818;stroke-width:1.0;"/><path d="M1153.7656,234.875 Q1153.9219,234.6563 1154.1094,234.5469 Q1154.2969,234.4375 1154.5156,234.4375 Q1154.8906,234.4375 1155.125,234.6953 Q1155.3594,234.9531 1155.3594,235.5625 L1155.3594,237.0156 Q1155.3594,237.625 1155.125,237.8906 Q1154.8906,238.1563 1154.5156,238.1563 Q1154.1719,238.1563 1153.9688,237.9531 Q1153.7656,237.7656 1153.6563,237.25 Q1153.6094,236.8906 1153.4219,236.7031 Q1153.0938,236.3281 1152.4844,236.1094 Q1151.875,235.8906 1151.25,235.8906 Q1150.4844,235.8906 1149.8516,236.2188 Q1149.2188,236.5469 1148.7266,237.2969 Q1148.2344,238.0469 1148.2344,239.0781 L1148.2344,240.1719 Q1148.2344,241.4063 1149.125,242.2266 Q1150.0156,243.0469 1151.6094,243.0469 Q1152.5469,243.0469 1153.2031,242.7969 Q1153.5938,242.6406 1154.0156,242.2031 Q1154.2813,241.9375 1154.4297,241.8594 Q1154.5781,241.7813 1154.7813,241.7813 Q1155.1094,241.7813 1155.3672,242.0391 Q1155.625,242.2969 1155.625,242.6406 Q1155.625,242.9844 1155.2813,243.3906 Q1154.7813,243.9688 1153.9844,244.2969 Q1152.9063,244.75 1151.6094,244.75 Q1150.0938,244.75 1148.8906,244.125 Q1147.9063,243.625 1147.2188,242.5547 Q1146.5313,241.4844 1146.5313,240.2031 L1146.5313,239.0469 Q1146.5313,237.7188 1147.1484,236.5703 Q1147.7656,235.4219 1148.8594,234.8047 Q1149.9531,234.1875 1151.1875,234.1875 Q1151.9219,234.1875 1152.5703,234.3516 Q1153.2188,234.5156 1153.7656,234.875 Z " fill="#000000"/><text fill="#000000" font-family="sans-serif" font-size="14" lengthAdjust="spacing" textLength="33" x="1165" y="244.7285">&#1057;&#1077;&#1090;&#1100;</text><line style="stroke:#181818;stroke-width:0.5;" x1="1137" x2="1200" y1="255" y2="255"/><line style="stroke:#181818;stroke-width:0.5;" x1="1137" x2="1200" y1="263" y2="263"/></g><!--class DFS--><g id="elem_DFS"><rect fill="#F1F1F1" height="48" id="DFS" rx="2.5" ry="2.5" style="stroke:#181818;stroke-width:0.5;" width="60" x="1046.5" y="331"/><ellipse cx="1061.5" cy="347" fill="#ADD1B2" rx="11" ry="11" style="stroke:#181818;stroke-width:1.0;"/><path d="M1064.2656,342.875 Q1064.4219,342.6563 1064.6094,342.5469 Q1064.7969,342.4375 1065.0156,342.4375 Q1065.3906,342.4375 1065.625,342.6953 Q1065.8594,342.9531 1065.8594,343.5625 L1065.8594,345.0156 Q1065.8594,345.625 1065.625,345.8906 Q1065.3906,346.1563 1065.0156,346.1563 Q1064.6719,346.1563 1064.4688,345.9531 Q1064.2656,345.7656 1064.1563,345.25 Q1064.1094,344.8906 1063.9219,344.7031 Q1063.5938,344.3281 1062.9844,344.1094 Q1062.375,343.8906 1061.75,343.8906 Q1060.9844,343.8906 1060.3516,344.2188 Q1059.7188,344.5469 1059.2266,345.2969 Q1058.7344,346.0469 1058.7344,347.0781 L1058.7344,348.1719 Q1058.7344,349.4063 1059.625,350.2266 Q1060.5156,351.0469 1062.1094,351.0469 Q1063.0469,351.0469 1063.7031,350.7969 Q1064.0938,350.6406 1064.5156,350.2031 Q1064.7813,349.9375 1064.9297,349.8594 Q1065.0781,349.7813 1065.2813,349.7813 Q1065.6094,349.7813 1065.8672,350.0391 Q1066.125,350.2969 1066.125,350.6406 Q1066.125,350.9844 1065.7813,351.3906 Q1065.2813,351.9688 1064.4844,352.2969 Q1063.4063,352.75 1062.1094,352.75 Q1060.5938,352.75 1059.3906,352.125 Q1058.4063,351.625 1057.7188,350.5547 Q1057.0313,349.4844 1057.0313,348.2031 L1057.0313,347.0469 Q1057.0313,345.7188 1057.6484,344.5703 Q1058.2656,343.4219 1059.3594,342.8047 Q1060.4531,342.1875 1061.6875,342.1875 Q1062.4219,342.1875 1063.0703,342.3516 Q1063.7188,342.5156 1064.2656,342.875 Z " fill="#000000"/><text fill="#000000" font-family="sans-serif" font-size="14" lengthAdjust="spacing" textLength="28" x="1075.5" y="352.7285">DFS</text><line style="stroke:#181818;stroke-width:0.5;" x1="1047.5" x2="1105.5" y1="363" y2="363"/><line style="stroke:#181818;stroke-width:0.5;" x1="1047.5" x2="1105.5" y1="371" y2="371"/></g><!--class ???????????--><g id="elem_&#1050;&#1072;&#1085;&#1072;&#1083;&#1099;&#1057;&#1074;&#1103;&#1079;&#1080;"><rect fill="#F1F1F1" height="48" id="&#1050;&#1072;&#1085;&#1072;&#1083;&#1099;&#1057;&#1074;&#1103;&#1079;&#1080;" rx="2.5" ry="2.5" style="stroke:#181818;stroke-width:0.5;" width="121" x="1142" y="331"/><ellipse cx="1157" cy="347" fill="#ADD1B2" rx="11" ry="11" style="stroke:#181818;stroke-width:1.0;"/><path d="M1159.7656,342.875 Q1159.9219,342.6563 1160.1094,342.5469 Q1160.2969,342.4375 1160.5156,342.4375 Q1160.8906,342.4375 1161.125,342.6953 Q1161.3594,342.9531 1161.3594,343.5625 L1161.3594,345.0156 Q1161.3594,345.625 1161.125,345.8906 Q1160.8906,346.1563 1160.5156,346.1563 Q1160.1719,346.1563 1159.9688,345.9531 Q1159.7656,345.7656 1159.6563,345.25 Q1159.6094,344.8906 1159.4219,344.7031 Q1159.0938,344.3281 1158.4844,344.1094 Q1157.875,343.8906 1157.25,343.8906 Q1156.4844,343.8906 1155.8516,344.2188 Q1155.2188,344.5469 1154.7266,345.2969 Q1154.2344,346.0469 1154.2344,347.0781 L1154.2344,348.1719 Q1154.2344,349.4063 1155.125,350.2266 Q1156.0156,351.0469 1157.6094,351.0469 Q1158.5469,351.0469 1159.2031,350.7969 Q1159.5938,350.6406 1160.0156,350.2031 Q1160.2813,349.9375 1160.4297,349.8594 Q1160.5781,349.7813 1160.7813,349.7813 Q1161.1094,349.7813 1161.3672,350.0391 Q1161.625,350.2969 1161.625,350.6406 Q1161.625,350.9844 1161.2813,351.3906 Q1160.7813,351.9688 1159.9844,352.2969 Q1158.9063,352.75 1157.6094,352.75 Q1156.0938,352.75 1154.8906,352.125 Q1153.9063,351.625 1153.2188,350.5547 Q1152.5313,349.4844 1152.5313,348.2031 L1152.5313,347.0469 Q1152.5313,345.7188 1153.1484,344.5703 Q1153.7656,343.4219 1154.8594,342.8047 Q1155.9531,342.1875 1157.1875,342.1875 Q1157.9219,342.1875 1158.5703,342.3516 Q1159.2188,342.5156 1159.7656,342.875 Z " fill="#000000"/><text fill="#000000" font-family="sans-serif" font-size="14" lengthAdjust="spacing" textLength="89" x="1171" y="352.7285">&#1050;&#1072;&#1085;&#1072;&#1083;&#1099;&#1057;&#1074;&#1103;&#1079;&#1080;</text><line style="stroke:#181818;stroke-width:0.5;" x1="1143" x2="1262" y1="363" y2="363"/><line style="stroke:#181818;stroke-width:0.5;" x1="1143" x2="1262" y1="371" y2="371"/></g><!--class ?????????--><g id="elem_&#1058;&#1086;&#1087;&#1086;&#1083;&#1086;&#1075;&#1080;&#1103;"><rect fill="#F1F1F1" height="48" id="&#1058;&#1086;&#1087;&#1086;&#1083;&#1086;&#1075;&#1080;&#1103;" rx="2.5" ry="2.5" style="stroke:#181818;stroke-width:0.5;" width="102" x="1298.5" y="331"/><ellipse cx="1313.5" cy="347" fill="#ADD1B2" rx="11" ry="11" style="stroke:#181818;stroke-width:1.0;"/><path d="M1316.2656,342.875 Q1316.4219,342.6563 1316.6094,342.5469 Q1316.7969,342.4375 1317.0156,342.4375 Q1317.3906,342.4375 1317.625,342.6953 Q1317.8594,342.9531 1317.8594,343.5625 L1317.8594,345.0156 Q1317.8594,345.625 1317.625,345.8906 Q1317.3906,346.1563 1317.0156,346.1563 Q1316.6719,346.1563 1316.4688,345.9531 Q1316.2656,345.7656 1316.1563,345.25 Q1316.1094,344.8906 1315.9219,344.7031 Q1315.5938,344.3281 1314.9844,344.1094 Q1314.375,343.8906 1313.75,343.8906 Q1312.9844,343.8906 1312.3516,344.2188 Q1311.7188,344.5469 1311.2266,345.2969 Q1310.7344,346.0469 1310.7344,347.0781 L1310.7344,348.1719 Q1310.7344,349.4063 1311.625,350.2266 Q1312.5156,351.0469 1314.1094,351.0469 Q1315.0469,351.0469 1315.7031,350.7969 Q1316.0938,350.6406 1316.5156,350.2031 Q1316.7813,349.9375 1316.9297,349.8594 Q1317.0781,349.7813 1317.2813,349.7813 Q1317.6094,349.7813 1317.8672,350.0391 Q1318.125,350.2969 1318.125,350.6406 Q1318.125,350.9844 1317.7813,351.3906 Q1317.2813,351.9688 1316.4844,352.2969 Q1315.4063,352.75 1314.1094,352.75 Q1312.5938,352.75 1311.3906,352.125 Q1310.4063,351.625 1309.7188,350.5547 Q1309.0313,349.4844 1309.0313,348.2031 L1309.0313,347.0469 Q1309.0313,345.7188 1309.6484,344.5703 Q1310.2656,343.4219 1311.3594,342.8047 Q1312.4531,342.1875 1313.6875,342.1875 Q1314.4219,342.1875 1315.0703,342.3516 Q1315.7188,342.5156 1316.2656,342.875 Z " fill="#000000"/><text fill="#000000" font-family="sans-serif" font-size="14" lengthAdjust="spacing" textLength="70" x="1327.5" y="352.7285">&#1058;&#1086;&#1087;&#1086;&#1083;&#1086;&#1075;&#1080;&#1103;</text><line style="stroke:#181818;stroke-width:0.5;" x1="1299.5" x2="1399.5" y1="363" y2="363"/><line style="stroke:#181818;stroke-width:0.5;" x1="1299.5" x2="1399.5" y1="371" y2="371"/></g><!--link ?????????????????? to LB--><g id="link_&#1055;&#1088;&#1086;&#1080;&#1079;&#1074;&#1086;&#1076;&#1080;&#1090;&#1077;&#1083;&#1100;&#1085;&#1086;&#1089;&#1090;&#1100;_LB"><path codeLine="2" d="M661.1,55.02 C615.83,70.37 556.42,91.91 505.5,115 C499.75,117.61 493.71,120.7 488.06,123.75 " fill="none" id="&#1055;&#1088;&#1086;&#1080;&#1079;&#1074;&#1086;&#1076;&#1080;&#1090;&#1077;&#1083;&#1100;&#1085;&#1086;&#1089;&#1090;&#1100;-LB" style="stroke:#181818;stroke-width:1.0;"/></g><!--link ?????????????????? to Async--><g id="link_&#1055;&#1088;&#1086;&#1080;&#1079;&#1074;&#1086;&#1076;&#1080;&#1090;&#1077;&#1083;&#1100;&#1085;&#1086;&#1089;&#1090;&#1100;_Async"><path codeLine="3" d="M694.74,55 C664.66,73.33 622.86,98.79 593.52,116.67 " fill="none" id="&#1055;&#1088;&#1086;&#1080;&#1079;&#1074;&#1086;&#1076;&#1080;&#1090;&#1077;&#1083;&#1100;&#1085;&#1086;&#1089;&#1090;&#1100;-Async" style="stroke:#181818;stroke-width:1.0;"/></g><!--link ?????????????????? to RateLimit--><g id="link_&#1055;&#1088;&#1086;&#1080;&#1079;&#1074;&#1086;&#1076;&#1080;&#1090;&#1077;&#1083;&#1100;&#1085;&#1086;&#1089;&#1090;&#1100;_RateLimit"><path codeLine="4" d="M719.91,55 C710.25,72.66 696.97,96.94 687.26,114.68 " fill="none" id="&#1055;&#1088;&#1086;&#1080;&#1079;&#1074;&#1086;&#1076;&#1080;&#1090;&#1077;&#1083;&#1100;&#1085;&#1086;&#1089;&#1090;&#1100;-RateLimit" style="stroke:#181818;stroke-width:1.0;"/></g><!--link ?????????????????? to Cache--><g id="link_&#1055;&#1088;&#1086;&#1080;&#1079;&#1074;&#1086;&#1076;&#1080;&#1090;&#1077;&#1083;&#1100;&#1085;&#1086;&#1089;&#1090;&#1100;_Cache"><path codeLine="5" d="M745.3,55 C755.13,72.66 768.65,96.94 778.52,114.68 " fill="none" id="&#1055;&#1088;&#1086;&#1080;&#1079;&#1074;&#1086;&#1076;&#1080;&#1090;&#1077;&#1083;&#1100;&#1085;&#1086;&#1089;&#1090;&#1100;-Cache" style="stroke:#181818;stroke-width:1.0;"/></g><!--link ?????????????????? to ???????????????--><g id="link_&#1055;&#1088;&#1086;&#1080;&#1079;&#1074;&#1086;&#1076;&#1080;&#1090;&#1077;&#1083;&#1100;&#1085;&#1086;&#1089;&#1090;&#1100;_&#1052;&#1072;&#1089;&#1096;&#1090;&#1072;&#1073;&#1080;&#1088;&#1086;&#1074;&#1072;&#1085;&#1080;&#1077;"><path codeLine="6" d="M646.84,42.47 C537.8,56.33 343.85,82.84 179.5,115 C173.84,116.11 168,117.33 162.14,118.61 " fill="none" id="&#1055;&#1088;&#1086;&#1080;&#1079;&#1074;&#1086;&#1076;&#1080;&#1090;&#1077;&#1083;&#1100;&#1085;&#1086;&#1089;&#1090;&#1100;-&#1052;&#1072;&#1089;&#1096;&#1090;&#1072;&#1073;&#1080;&#1088;&#1086;&#1074;&#1072;&#1085;&#1080;&#1077;" style="stroke:#181818;stroke-width:1.0;"/></g><!--link ?????????????????? to FE--><g id="link_&#1055;&#1088;&#1086;&#1080;&#1079;&#1074;&#1086;&#1076;&#1080;&#1090;&#1077;&#1083;&#1100;&#1085;&#1086;&#1089;&#1090;&#1100;_FE"><path codeLine="9" d="M770.69,55 C800.11,72.72 840.6,97.11 870.08,114.86 " fill="none" id="&#1055;&#1088;&#1086;&#1080;&#1079;&#1074;&#1086;&#1076;&#1080;&#1090;&#1077;&#1083;&#1100;&#1085;&#1086;&#1089;&#1090;&#1100;-FE" style="stroke:#181818;stroke-width:1.0;"/></g><!--link FE to LazyLoad--><g id="link_FE_LazyLoad"><path codeLine="10" d="M877.04,163 C852.8,180.72 819.44,205.11 795.15,222.86 " fill="none" id="FE-LazyLoad" style="stroke:#181818;stroke-width:1.0;"/></g><!--link FE to Compression--><g id="link_FE_Compression"><path codeLine="11" d="M907.2,163 C906.2,180.66 904.82,204.94 903.82,222.68 " fill="none" id="FE-Compression" style="stroke:#181818;stroke-width:1.0;"/></g><!--link ?????????????????? to Store--><g id="link_&#1055;&#1088;&#1086;&#1080;&#1079;&#1074;&#1086;&#1076;&#1080;&#1090;&#1077;&#1083;&#1100;&#1085;&#1086;&#1089;&#1090;&#1100;_Store"><path codeLine="13" d="M818.28,38.37 C871.29,47.16 935.8,67.65 971.5,115 C1020.23,179.63 998.78,284.47 985.8,330.77 " fill="none" id="&#1055;&#1088;&#1086;&#1080;&#1079;&#1074;&#1086;&#1076;&#1080;&#1090;&#1077;&#1083;&#1100;&#1085;&#1086;&#1089;&#1090;&#1100;-Store" style="stroke:#181818;stroke-width:1.0;"/></g><!--link Store to ????????????--><g id="link_Store_&#1064;&#1072;&#1088;&#1076;&#1080;&#1088;&#1086;&#1074;&#1072;&#1085;&#1080;&#1077;"><path codeLine="14" d="M945.41,361.2 C880.96,371.85 734.54,398.59 616.5,439 C604.03,443.27 590.92,448.82 578.89,454.37 " fill="none" id="Store-&#1064;&#1072;&#1088;&#1076;&#1080;&#1088;&#1086;&#1074;&#1072;&#1085;&#1080;&#1077;" style="stroke:#181818;stroke-width:1.0;"/></g><!--link Store to ??????????????--><g id="link_Store_&#1044;&#1077;&#1085;&#1086;&#1088;&#1084;&#1072;&#1083;&#1080;&#1079;&#1072;&#1094;&#1080;&#1103;"><path codeLine="15" d="M945.27,370.9 C898.77,391.75 813.85,429.82 759.09,454.37 " fill="none" id="Store-&#1044;&#1077;&#1085;&#1086;&#1088;&#1084;&#1072;&#1083;&#1080;&#1079;&#1072;&#1094;&#1080;&#1103;" style="stroke:#181818;stroke-width:1.0;"/></g><!--link Store to CQRS--><g id="link_Store_CQRS"><path codeLine="16" d="M954.31,379.14 C931.72,400.76 898.17,432.86 875.6,454.45 " fill="none" id="Store-CQRS" style="stroke:#181818;stroke-width:1.0;"/></g><!--link Store to ??????????--><g id="link_Store_&#1056;&#1077;&#1087;&#1083;&#1080;&#1082;&#1072;&#1094;&#1080;&#1103;"><path codeLine="17" d="M978.5,379.14 C978.5,400.76 978.5,432.86 978.5,454.45 " fill="none" id="Store-&#1056;&#1077;&#1087;&#1083;&#1080;&#1082;&#1072;&#1094;&#1080;&#1103;" style="stroke:#181818;stroke-width:1.0;"/></g><!--link Store to ?????????????--><g id="link_Store_&#1050;&#1083;&#1072;&#1089;&#1090;&#1077;&#1088;&#1080;&#1079;&#1072;&#1094;&#1080;&#1103;"><path codeLine="18" d="M1008.59,379.14 C1036.7,400.76 1078.44,432.86 1106.52,454.45 " fill="none" id="Store-&#1050;&#1083;&#1072;&#1089;&#1090;&#1077;&#1088;&#1080;&#1079;&#1072;&#1094;&#1080;&#1103;" style="stroke:#181818;stroke-width:1.0;"/></g><!--link Store to IL--><g id="link_Store_IL"><path codeLine="20" d="M1011.73,371.67 C1017.6,374.24 1023.69,376.79 1029.5,379 C1112.65,410.68 1138.67,404.05 1220.5,439 C1226.24,441.45 1232.12,444.23 1237.93,447.15 " fill="none" id="Store-IL" style="stroke:#181818;stroke-width:1.0;"/></g><!--link Store to Retention--><g id="link_Store_Retention"><path codeLine="22" d="M1011.51,372.29 C1017.41,374.79 1023.56,377.15 1029.5,379 C1172.26,423.4 1218.41,392.48 1360.5,439 C1368.04,441.47 1375.78,444.52 1383.32,447.82 " fill="none" id="Store-Retention" style="stroke:#181818;stroke-width:1.0;"/></g><!--link ?????????????????? to ????--><g id="link_&#1055;&#1088;&#1086;&#1080;&#1079;&#1074;&#1086;&#1076;&#1080;&#1090;&#1077;&#1083;&#1100;&#1085;&#1086;&#1089;&#1090;&#1100;_&#1057;&#1077;&#1090;&#1100;"><path codeLine="24" d="M818.28,42.79 C882.6,53.73 970.96,74.98 1039.5,115 C1087.46,143.01 1129.82,193.46 1152.03,222.91 " fill="none" id="&#1055;&#1088;&#1086;&#1080;&#1079;&#1074;&#1086;&#1076;&#1080;&#1090;&#1077;&#1083;&#1100;&#1085;&#1086;&#1089;&#1090;&#1100;-&#1057;&#1077;&#1090;&#1100;" style="stroke:#181818;stroke-width:1.0;"/></g><!--link ???? to DFS--><g id="link_&#1057;&#1077;&#1090;&#1100;_DFS"><path codeLine="25" d="M1148.54,271 C1133.21,288.66 1112.14,312.94 1096.74,330.68 " fill="none" id="&#1057;&#1077;&#1090;&#1100;-DFS" style="stroke:#181818;stroke-width:1.0;"/></g><!--link ???? to ???????????--><g id="link_&#1057;&#1077;&#1090;&#1100;_&#1050;&#1072;&#1085;&#1072;&#1083;&#1099;&#1057;&#1074;&#1103;&#1079;&#1080;"><path codeLine="26" d="M1175.88,271 C1181.54,288.66 1189.33,312.94 1195.02,330.68 " fill="none" id="&#1057;&#1077;&#1090;&#1100;-&#1050;&#1072;&#1085;&#1072;&#1083;&#1099;&#1057;&#1074;&#1103;&#1079;&#1080;" style="stroke:#181818;stroke-width:1.0;"/></g><!--link ???? to ?????????--><g id="link_&#1057;&#1077;&#1090;&#1100;_&#1058;&#1086;&#1087;&#1086;&#1083;&#1086;&#1075;&#1080;&#1103;"><path codeLine="27" d="M1201.28,267.2 C1231.84,285.09 1277.48,311.82 1310.03,330.88 " fill="none" id="&#1057;&#1077;&#1090;&#1100;-&#1058;&#1086;&#1087;&#1086;&#1083;&#1086;&#1075;&#1080;&#1103;" style="stroke:#181818;stroke-width:1.0;"/></g><!--SRC=[ZLB1IiD053ndlsBfsVw0jreRAEHYqgENq2usO3UIxAMUOa0HMYXe3oA2LIyUQpKOMjF-mji_ykssqRI8v11sz-tCl3UpWKSPmH9I-8GPhX-GoXWIMCWXPB2K5pAMGrgjKkk0G4beBUppTccqxGfcUJrFb6RKtNQNbKR30qpnT8stKtX3b6BDS9yXDo46zmMZWNVI5ViKRf4PQSqbP9gnqODaZy8D93B2QWhpuWrfdxfXICq6hJcqOWO-5mtUgPIUq6mG0yagPFUyR_bk9p_N_TvPmCBGypafAuSqH_W18uPUT0Il646a6JlcVo5ZbCgq-o_bJRUPoYkaZ0gm-f7j55aJPAqqUlu76kxnIeKVg-2s9TUPDIsT6Rni1iCPqCGnft2dts0XHue0gQwDzU2P7CZBIg5DqyhbR2OO5vZMMdM2VkAy9MsrhFzKVhZbawRmXCRmG8nyfvGEJMUxW3cebkgN6M1z9aUedEvWdh7JIbd6xtsTqJS0]--></g></svg>